<svg width="21" height="21" viewBox="0 0 21 21" fill="none" xmlns="http://www.w3.org/2000/svg">
<path d="M8.00004 8.83333C8.92052 8.83333 9.66671 8.08714 9.66671 7.16667C9.66671 6.24619 8.92052 5.5 8.00004 5.5C7.07957 5.5 6.33337 6.24619 6.33337 7.16667C6.33337 8.08714 7.07957 8.83333 8.00004 8.83333Z" stroke="#536179" stroke-width="1.5" stroke-linecap="round" stroke-linejoin="round"/>
<path d="M11.3333 2.16797H7.99996C3.83329 2.16797 2.16663 3.83464 2.16663 8.0013V13.0013C2.16663 17.168 3.83329 18.8346 7.99996 18.8346H13C17.1666 18.8346 18.8333 17.168 18.8333 13.0013V8.83464" stroke="#536179" stroke-width="1.5" stroke-linecap="round" stroke-linejoin="round"/>
<path d="M13.625 4.66797H18.2083" stroke="#536179" stroke-width="1.5" stroke-linecap="round"/>
<path d="M15.9166 6.95833V2.375" stroke="#536179" stroke-width="1.5" stroke-linecap="round"/>
<path d="M2.72498 16.2898L6.83331 13.5315C7.49164 13.0898 8.44164 13.1398 9.03331 13.6482L9.30831 13.8898C9.95831 14.4482 11.0083 14.4482 11.6583 13.8898L15.125 10.9148C15.775 10.3565 16.825 10.3565 17.475 10.9148L18.8333 12.0815" stroke="#536179" stroke-width="1.5" stroke-linecap="round" stroke-linejoin="round"/>
</svg>
