<svg width="20" height="20" viewBox="0 0 20 20" fill="none" xmlns="http://www.w3.org/2000/svg">
<path d="M17.5665 7.15133V12.8513C17.5665 13.7846 17.0665 14.6513 16.2581 15.1263L11.3081 17.9847C10.4998 18.4513 9.49981 18.4513 8.68314 17.9847L3.73314 15.1263C2.9248 14.6597 2.4248 13.793 2.4248 12.8513V7.15133C2.4248 6.218 2.9248 5.3513 3.73314 4.8763L8.68314 2.01797C9.49147 1.5513 10.4915 1.5513 11.3081 2.01797L16.2581 4.8763C17.0665 5.3513 17.5665 6.20966 17.5665 7.15133Z" stroke="#1F242D" stroke-width="1.25" stroke-linecap="round" stroke-linejoin="round"/>
<path d="M10.0003 9.16847C11.0726 9.16847 11.9419 8.29914 11.9419 7.22679C11.9419 6.15443 11.0726 5.28516 10.0003 5.28516C8.92791 5.28516 8.05859 6.15443 8.05859 7.22679C8.05859 8.29914 8.92791 9.16847 10.0003 9.16847Z" stroke="#1F242D" stroke-width="1.25" stroke-linecap="round" stroke-linejoin="round"/>
<path d="M13.3337 13.8846C13.3337 12.3846 11.842 11.168 10.0003 11.168C8.15866 11.168 6.66699 12.3846 6.66699 13.8846" stroke="#1F242D" stroke-width="1.25" stroke-linecap="round" stroke-linejoin="round"/>
</svg>
