<svg width="40" height="40" viewBox="0 0 40 40" fill="none" xmlns="http://www.w3.org/2000/svg">
<path d="M4 15V11.8571C4 7.14286 7.2 4 12 4H28C32.8 4 36 7.14286 36 11.8571V15" stroke="#1F242D" stroke-width="1.5" stroke-miterlimit="10" stroke-linecap="round" stroke-linejoin="round"/>
<path d="M4 25V28.1429C4 32.8571 7.2 36 12 36H28C32.8 36 36 32.8571 36 28.1429V25" stroke="#1F242D" stroke-width="1.5" stroke-miterlimit="10" stroke-linecap="round" stroke-linejoin="round"/>
<path d="M4 20L36 20" stroke="#81A713" stroke-width="1.5" stroke-miterlimit="10" stroke-linecap="round" stroke-linejoin="round"/>
<path d="M10 25V26.6667C10 28.5076 11.4924 30 13.3333 30H15M30 25V26.6667C30 28.5076 28.5076 30 26.6667 30H25M10 15V13.3333C10 11.4924 11.4924 10 13.3333 10H15M25 10H26.6667C28.5076 10 30 11.4924 30 13.3333V15" stroke="#1F242D" stroke-width="1.5" stroke-linecap="round"/>
</svg>
