<svg width="20" height="20" viewBox="0 0 20 20" fill="none" xmlns="http://www.w3.org/2000/svg">
<path d="M5 5.83398H6V14.1673H5V5.83398ZM7 5.83398H7.5V14.1673H7V5.83398ZM8 5.83398H9V14.1673H8V5.83398ZM9.5 5.83398H10.5V14.1673H9.5V5.83398ZM11 5.83398H12V14.1673H11V5.83398ZM12.5 5.83398H13V14.1673H12.5V5.83398ZM13.5 5.83398H15V14.1673H13.5V5.83398Z" fill="#1F242D"/>
<path d="M17.5 14.6875V16.25C17.5 16.9404 16.9404 17.5 16.25 17.5H13.75M2.5 14.6875V16.25C2.5 16.9404 3.05964 17.5 3.75 17.5H6.25M17.5 5.3125V3.75C17.5 3.05964 16.9404 2.5 16.25 2.5H13.75M2.5 5.3125V3.75C2.5 3.05964 3.05964 2.5 3.75 2.5H6.25" stroke="#8694AC" stroke-linecap="round" stroke-linejoin="round"/>
<rect x="3.33333" y="9.16602" width="13.3333" height="2.5" fill="#F0F2F5"/>
<line x1="4.91666" y1="10.082" x2="15.0833" y2="10.082" stroke="#1F242D" stroke-width="1.5" stroke-linecap="round"/>
</svg>
