<svg width="12" height="15" viewBox="0 0 12 15" fill="none" xmlns="http://www.w3.org/2000/svg">
<path d="M4.64913 11H5.3338V8.33332C5.3338 7.96513 5.63227 7.66665 6.00046 7.66665C6.36865 7.66665 6.66713 7.96513 6.66713 8.33332V11H7.3518C7.4398 10.1987 7.84846 9.53732 8.5118 8.81532C8.58713 8.73398 9.06646 8.23732 9.12313 8.16665C9.59399 7.5784 9.88912 6.86913 9.97454 6.1205C10.06 5.37187 9.9322 4.61434 9.60596 3.93514C9.27972 3.25594 8.76828 2.6827 8.13053 2.28143C7.49279 1.88016 6.75467 1.66719 6.00118 1.66703C5.2477 1.66686 4.50949 1.87953 3.87157 2.28053C3.23365 2.68152 2.72196 3.25454 2.39544 3.9336C2.06891 4.61266 1.94082 5.37014 2.02592 6.1188C2.11102 6.86747 2.40586 7.57687 2.87646 8.16532C2.9338 8.23665 3.41446 8.73398 3.48846 8.81465C4.15246 9.53732 4.56113 10.1987 4.64913 11ZM5.00046 12.3333C4.81637 12.3333 4.66713 12.4826 4.66713 12.6666C4.66713 12.8507 4.81637 13 5.00046 13H7.00046C7.18456 13 7.3338 12.8507 7.3338 12.6666C7.3338 12.4826 7.18456 12.3333 7.00046 12.3333H5.00046ZM1.83646 8.99998C1.20859 8.21551 0.815093 7.26963 0.701304 6.2713C0.587515 5.27296 0.758062 4.26279 1.1933 3.35715C1.62853 2.4515 2.31075 1.68723 3.16137 1.15237C4.01198 0.617512 4.99639 0.333824 6.00118 0.333984C7.00598 0.334145 7.99029 0.61815 8.84074 1.15328C9.69118 1.68841 10.3732 2.4529 10.8081 3.35869C11.243 4.26447 11.4133 5.27469 11.2992 6.27299C11.1851 7.27129 10.7913 8.21705 10.1631 9.00132C9.74979 9.51598 8.66713 10.3333 8.66713 11.3333V13C8.66713 13.3536 8.52665 13.6927 8.2766 13.9428C8.02656 14.1928 7.68742 14.3333 7.3338 14.3333H4.66713C4.31351 14.3333 3.97437 14.1928 3.72432 13.9428C3.47427 13.6927 3.3338 13.3536 3.3338 13V11.3333C3.3338 10.3333 2.25046 9.51598 1.83646 8.99998Z" fill="#8694AC"/>
</svg>
