<svg width="18" height="18" viewBox="0 0 18 18" fill="none" xmlns="http://www.w3.org/2000/svg">
<path d="M17.3077 14.2763C17.3077 14.5763 17.241 14.8846 17.0993 15.1846C16.9577 15.4846 16.7744 15.768 16.5327 16.0346C16.1244 16.4846 15.6743 16.8096 15.166 17.018C14.666 17.2263 14.1244 17.3346 13.541 17.3346C12.691 17.3346 11.7827 17.1346 10.8243 16.7263C9.86602 16.318 8.90768 15.768 7.95768 15.0763C6.99935 14.3763 6.09102 13.6013 5.22435 12.743C4.36602 11.8763 3.59102 10.968 2.89935 10.018C2.21602 9.06797 1.66602 8.11797 1.26602 7.1763C0.866016 6.2263 0.666016 5.31797 0.666016 4.4513C0.666016 3.88464 0.766016 3.34297 0.966016 2.84297C1.16602 2.33464 1.48268 1.86797 1.92435 1.4513C2.45768 0.926302 3.04102 0.667969 3.65768 0.667969C3.89102 0.667969 4.12435 0.717969 4.33268 0.817969C4.54935 0.917969 4.74102 1.06797 4.89102 1.28464L6.82435 4.00964C6.97435 4.21797 7.08268 4.40964 7.15768 4.59297C7.23268 4.76797 7.27435 4.94297 7.27435 5.1013C7.27435 5.3013 7.21602 5.5013 7.09935 5.69297C6.99102 5.88464 6.83268 6.08464 6.63268 6.28464L5.99935 6.94297C5.90768 7.03464 5.86602 7.14297 5.86602 7.2763C5.86602 7.34297 5.87435 7.4013 5.89102 7.46797C5.91602 7.53464 5.94102 7.58463 5.95768 7.63463C6.10768 7.90963 6.36602 8.26797 6.73268 8.7013C7.10768 9.13464 7.50768 9.5763 7.94102 10.018C8.39102 10.4596 8.82435 10.868 9.26602 11.243C9.69935 11.6096 10.0577 11.8596 10.341 12.0096C10.3827 12.0263 10.4327 12.0513 10.491 12.0763C10.5577 12.1013 10.6243 12.1096 10.6993 12.1096C10.841 12.1096 10.9493 12.0596 11.041 11.968L11.6743 11.343C11.8827 11.1346 12.0827 10.9763 12.2743 10.8763C12.466 10.7596 12.6577 10.7013 12.866 10.7013C13.0243 10.7013 13.191 10.7346 13.3743 10.8096C13.5577 10.8846 13.7494 10.993 13.9577 11.1346L16.716 13.093C16.9327 13.243 17.0827 13.418 17.1743 13.6263C17.2577 13.8346 17.3077 14.043 17.3077 14.2763Z" stroke="#1F242D" stroke-width="1.25" stroke-miterlimit="10"/>
</svg>
