<svg width="40" height="40" viewBox="0 0 40 40" fill="none" xmlns="http://www.w3.org/2000/svg">
<circle cx="20" cy="20" r="19.5" fill="white" stroke="#E1E4EA"/>
<path d="M29.2435 17.9403L29.2434 17.9417L28.7105 26.2016C28.7105 26.2016 28.7105 26.2017 28.7105 26.2017C28.6512 27.1176 28.3763 27.8648 27.8838 28.3784C27.4037 28.8792 26.6284 29.25 25.37 29.25H14.63C13.3713 29.25 12.5932 28.879 12.1118 28.3779C11.6187 27.8646 11.3443 27.1184 11.2898 26.2053L11.2895 26.2017L10.7566 17.9417L10.7565 17.9403C10.6432 16.234 12.0399 14.75 13.8512 14.75C14.7545 14.75 15.5827 14.2462 15.9995 13.4619L15.9996 13.462L16.0056 13.4501L16.7421 12.0028C16.9 11.6993 17.2128 11.3782 17.6223 11.1306C18.032 10.8829 18.4706 10.75 18.8317 10.75H21.1785C21.5334 10.75 21.969 10.8821 22.3782 11.1301C22.787 11.3779 23.0999 11.6991 23.2579 12.0028L23.9944 13.4501L23.9943 13.4502L24.0005 13.4619C24.4173 14.2462 25.2455 14.75 26.1488 14.75C27.9601 14.75 29.3568 16.234 29.2435 17.9403Z" stroke="#1F242D" stroke-width="1.5" stroke-linecap="round" stroke-linejoin="round"/>
<path d="M18.4629 16H21.5373" stroke="#1F242D" stroke-width="1.5" stroke-linecap="round" stroke-linejoin="round"/>
<path d="M20 26C21.8344 26 23.3306 24.54 23.3306 22.75C23.3306 20.96 21.8344 19.5 20 19.5C18.1656 19.5 16.6694 20.96 16.6694 22.75C16.6694 24.54 18.1656 26 20 26Z" stroke="#1F242D" stroke-width="1.5" stroke-linecap="round" stroke-linejoin="round"/>
</svg>
