<svg width="21" height="20" viewBox="0 0 21 20" fill="none" xmlns="http://www.w3.org/2000/svg">
<path d="M17.7451 8.34229L17.745 8.34371L17.3187 14.9516C17.2728 15.6615 17.0609 16.2213 16.6988 16.5989C16.349 16.9637 15.7716 17.25 14.796 17.25H6.20403C5.22813 17.25 4.64839 16.9635 4.29764 16.5984C3.93517 16.2211 3.72374 15.6624 3.68153 14.9553L3.68154 14.9553L3.6813 14.9517L3.25499 8.34371L3.25489 8.34229C3.17025 7.06801 4.21444 5.95 5.58095 5.95C6.35926 5.95 7.07268 5.51617 7.43202 4.83993L7.43212 4.83999L7.43815 4.82814L8.02702 3.67093C8.13787 3.45825 8.3656 3.22016 8.67547 3.03283C8.98552 2.84539 9.30976 2.75 9.56538 2.75H11.4428C11.6932 2.75 12.015 2.84463 12.3248 3.03239C12.6341 3.21985 12.862 3.45808 12.973 3.67088L13.5618 4.82814L13.5617 4.8282L13.568 4.83993C13.9273 5.51617 14.6407 5.95 15.4191 5.95C16.7856 5.95 17.8297 7.06801 17.7451 8.34229Z" stroke="#343D4C" stroke-width="1.5" stroke-linecap="round" stroke-linejoin="round"/>
<path d="M9.27002 6.80029H11.7295" stroke="#343D4C" stroke-width="1.5" stroke-linecap="round" stroke-linejoin="round"/>
<path d="M10.4999 14.8001C11.9675 14.8001 13.1644 13.6321 13.1644 12.2001C13.1644 10.7681 11.9675 9.6001 10.4999 9.6001C9.03242 9.6001 7.83545 10.7681 7.83545 12.2001C7.83545 13.6321 9.03242 14.8001 10.4999 14.8001Z" stroke="#343D4C" stroke-width="1.5" stroke-linecap="round" stroke-linejoin="round"/>
</svg>
