<svg width="20" height="21" viewBox="0 0 20 21" fill="none" xmlns="http://www.w3.org/2000/svg">
<path d="M11.6514 15.9282L11.6485 15.932L10.4673 17.5273C10.3266 17.7173 10.1948 17.75 10.125 17.75C10.0552 17.75 9.92345 17.7173 9.78274 17.5273L8.60402 15.9355C8.44907 15.7222 8.23611 15.5748 8.05276 15.4828C7.86718 15.3896 7.62482 15.3093 7.36875 15.3093H6.975C5.41441 15.3093 4.49073 15.0988 3.92869 14.6007C3.38839 14.1219 3 13.2053 3 11.2737V7.28564C3 5.80365 3.36561 4.83038 3.96495 4.22335C4.56255 3.61808 5.51805 3.25 6.975 3.25H13.275C14.732 3.25 15.6874 3.61808 16.285 4.22335C16.8844 4.83038 17.25 5.80365 17.25 7.28564V11.2737C17.25 12.7557 16.8844 13.7289 16.285 14.336C15.6874 14.9412 14.732 15.3093 13.275 15.3093H12.8813C12.3953 15.3093 11.9391 15.5448 11.6514 15.9282Z" stroke="#343D4C" stroke-width="1.5" stroke-miterlimit="10" stroke-linecap="round" stroke-linejoin="round"/>
<path d="M13.2722 9.67859H13.2793" stroke="#343D4C" stroke-width="1.5" stroke-linecap="round" stroke-linejoin="round"/>
<path d="M10.1216 9.67859H10.1287" stroke="#292D32" stroke-width="1.5" stroke-linecap="round" stroke-linejoin="round"/>
<path d="M6.97072 9.67859H6.9778" stroke="#292D32" stroke-width="1.5" stroke-linecap="round" stroke-linejoin="round"/>
</svg>
