<svg width="24" height="24" viewBox="0 0 24 24" fill="none" xmlns="http://www.w3.org/2000/svg">
<path d="M6.44 4H17.55C21.11 4 22 4.82872 22 8.13418V15.8657C22 19.1712 21.11 19.9999 17.56 19.9999H6.44C2.89 20.0093 2 19.1806 2 15.8752V8.13418C2 4.82872 2.89 4 6.44 4Z" stroke="#536179" stroke-width="1.5" stroke-linecap="round" stroke-linejoin="round"/>
<path d="M6 8H10" stroke="#536179" stroke-width="1.5" stroke-linecap="round"/>
<path d="M6 11H15" stroke="#536179" stroke-width="1.5" stroke-linecap="round"/>
<path fill-rule="evenodd" clip-rule="evenodd" d="M13.3119 16.9998C13.2102 16.9998 13.1105 16.9479 13.0507 16.8513C12.9566 16.6992 12.9972 16.4951 13.1414 16.3958C15.1476 15.0143 15.3229 14.5439 15.3378 14.4625V14.4268C15.338 14.2515 15.4688 14.107 15.6349 14.0994C15.8005 14.0892 15.9439 14.222 15.9597 14.3959C15.9629 14.4323 15.9638 14.4692 15.9613 14.5089C15.969 15.8478 16.232 16.0356 16.2625 16.0534C16.3092 16.0801 16.4071 16.0323 16.4831 15.9787C16.9544 15.648 17.4306 14.6829 17.4044 14.3623L17.404 14.359C17.3882 14.1782 17.5138 14.018 17.6851 14.0016C17.8556 13.9838 18.0081 14.1168 18.0246 14.2969L18.025 14.3017C18.1455 15.6713 18.3465 15.9913 18.4056 16.0577C18.421 16.0489 18.4453 16.0318 18.4787 15.9994C18.6062 15.8769 18.8033 15.8871 18.9189 16.0213C19.0348 16.1555 19.0253 16.3637 18.8979 16.4858C18.6037 16.768 18.3513 16.7487 18.1913 16.683C17.919 16.5722 17.7243 16.2455 17.5863 15.6406C17.3688 16.0063 17.0965 16.3378 16.8283 16.5263C16.4208 16.8125 16.114 16.7159 15.9674 16.6324C15.6692 16.4639 15.4815 16.0777 15.3946 15.44C15.0253 15.8112 14.4293 16.2941 13.482 16.9467C13.4295 16.9829 13.3704 17 13.3119 16.9998Z" fill="#81A713" stroke="#81A713" stroke-width="0.3"/>
</svg>
