<svg width="20" height="21" viewBox="0 0 20 21" fill="none" xmlns="http://www.w3.org/2000/svg">
<path d="M13.0001 11.175V14.3251C13.0001 16.9501 11.9501 18.0001 9.32509 18.0001H6.17505C3.55001 18.0001 2.5 16.9501 2.5 14.3251V11.175C2.5 8.55001 3.55001 7.5 6.17505 7.5H9.32509C11.9501 7.5 13.0001 8.55001 13.0001 11.175Z" stroke="#1F242D" stroke-width="1.25" stroke-linecap="round" stroke-linejoin="round"/>
<path d="M17.5001 6.67505V9.82509C17.5001 12.4501 16.4501 13.5001 13.8251 13.5001H13.0001V11.1751C13.0001 8.55008 11.9501 7.50006 9.32503 7.50006H7V6.67505C7 4.05001 8.05001 3 10.675 3H13.8251C16.4501 3 17.5001 4.05001 17.5001 6.67505Z" stroke="#1F242D" stroke-width="1.25" stroke-linecap="round" stroke-linejoin="round"/>
</svg>
