<svg width="24" height="24" viewBox="0 0 24 24" fill="none" xmlns="http://www.w3.org/2000/svg">
<path d="M3.16992 7.43945L11.9999 12.5494L20.7699 7.46942" stroke="#F7A200" stroke-width="1.5" stroke-linecap="round" stroke-linejoin="round"/>
<path d="M12 21.6091V12.5391" stroke="#F7A200" stroke-width="1.5" stroke-linecap="round" stroke-linejoin="round"/>
<path d="M21.6096 9.17V14.83C21.6096 14.88 21.6096 14.92 21.5996 14.97C20.8996 14.36 19.9996 14 18.9996 14C18.0596 14 17.1896 14.33 16.4996 14.88C15.5796 15.61 14.9996 16.74 14.9996 18C14.9996 18.75 15.2096 19.46 15.5796 20.06C15.6696 20.22 15.7796 20.37 15.8996 20.51L14.0696 21.52C12.9296 22.16 11.0696 22.16 9.92963 21.52L4.58963 18.56C3.37963 17.89 2.38965 16.21 2.38965 14.83V9.17C2.38965 7.79 3.37963 6.11002 4.58963 5.44002L9.92963 2.48C11.0696 1.84 12.9296 1.84 14.0696 2.48L19.4096 5.44002C20.6196 6.11002 21.6096 7.79 21.6096 9.17Z" stroke="#F7A200" stroke-width="1.5" stroke-linecap="round" stroke-linejoin="round"/>
<path d="M23 18C23 19.2 22.47 20.27 21.64 21C20.93 21.62 20.01 22 19 22C16.79 22 15 20.21 15 18C15 16.74 15.58 15.61 16.5 14.88C17.19 14.33 18.06 14 19 14C21.21 14 23 15.79 23 18Z" stroke="#F7A200" stroke-width="1.5" stroke-miterlimit="10" stroke-linecap="round" stroke-linejoin="round"/>
<path d="M19.25 16.75V18.25L18 19" stroke="#F7A200" stroke-width="1.5" stroke-miterlimit="10" stroke-linecap="round" stroke-linejoin="round"/>
</svg>
