<svg width="28" height="29" viewBox="0 0 28 29" fill="none" xmlns="http://www.w3.org/2000/svg">
<rect y="0.460938" width="28" height="28" rx="14" fill="#F7A200"/>
<path d="M8.11719 11.418L14.0038 14.8246L19.8505 11.4379" stroke="white" stroke-width="1.25" stroke-linecap="round" stroke-linejoin="round"/>
<path d="M14 20.8631V14.8164" stroke="white" stroke-width="1.25" stroke-linecap="round" stroke-linejoin="round"/>
<path d="M20.4071 12.573V16.3463C20.4071 16.3797 20.4071 16.4063 20.4004 16.4396C19.9337 16.033 19.3337 15.793 18.6671 15.793C18.0404 15.793 17.4604 16.013 17.0004 16.3797C16.3871 16.8663 16.0004 17.6196 16.0004 18.4596C16.0004 18.9596 16.1404 19.433 16.3871 19.833C16.4471 19.9396 16.5204 20.0397 16.6004 20.133L15.3804 20.8063C14.6204 21.233 13.3804 21.233 12.6204 20.8063L9.0604 18.833C8.25374 18.3863 7.59375 17.2663 7.59375 16.3463V12.573C7.59375 11.653 8.25374 10.533 9.0604 10.0863L12.6204 8.11297C13.3804 7.6863 14.6204 7.6863 15.3804 8.11297L18.9404 10.0863C19.7471 10.533 20.4071 11.653 20.4071 12.573Z" stroke="white" stroke-width="1.25" stroke-linecap="round" stroke-linejoin="round"/>
<path d="M21.3333 18.4596C21.3333 19.2596 20.98 19.973 20.4267 20.4596C19.9533 20.873 19.34 21.1263 18.6667 21.1263C17.1933 21.1263 16 19.933 16 18.4596C16 17.6196 16.3867 16.8663 17 16.3796C17.46 16.013 18.04 15.793 18.6667 15.793C20.14 15.793 21.3333 16.9863 21.3333 18.4596Z" stroke="white" stroke-width="1.25" stroke-miterlimit="10" stroke-linecap="round" stroke-linejoin="round"/>
<path d="M18.8333 17.625V18.625L18 19.125" stroke="white" stroke-width="1.25" stroke-miterlimit="10" stroke-linecap="round" stroke-linejoin="round"/>
</svg>
