<svg width="18" height="9" viewBox="0 0 18 9" fill="none" xmlns="http://www.w3.org/2000/svg">
<path fill-rule="evenodd" clip-rule="evenodd" d="M14.4829 0.0209395C14.373 0.0209376 14.2679 0.0162501 14.1545 0.0111968C14.0944 0.00851969 14.032 0.00573994 13.9654 0.0034998C13.7954 -0.00222244 13.6075 -0.00365375 13.4243 0.0209395H11.2492C11.0574 0.0209395 10.902 0.162321 10.902 0.336723C10.902 0.511125 11.0574 0.652506 11.2492 0.652506H12.4802C12.426 0.762041 12.385 0.884448 12.3562 1.01936C12.3254 1.16315 12.3366 1.30347 12.3744 1.43237L11.0361 2.50086C10.9906 2.44905 10.9357 2.40363 10.8723 2.36558C10.6921 2.25746 10.476 2.22817 10.2907 2.22817H7.00243C6.67616 2.22817 6.23063 2.35354 6.06544 2.74869C5.98818 2.9335 5.93981 3.18397 6.05807 3.43031C6.1203 3.55994 6.21861 3.66798 6.34734 3.7552C5.86241 4.32137 5.55538 4.89847 5.38374 5.41408C5.184 6.01408 5.15638 6.5672 5.28839 6.9268C5.38219 7.18231 5.64902 7.27427 5.8467 7.27427H17.3515C17.8235 7.27427 18.137 6.8299 17.9403 6.43966L14.7986 0.20515C14.7421 0.0929045 14.6186 0.0209395 14.4829 0.0209395ZM10.4955 2.93249L10.4956 2.92238C10.4956 2.90667 10.4936 2.89803 10.4924 2.89435L10.4899 2.89277C10.4703 2.881 10.4103 2.85974 10.2907 2.85974H7.00243C6.91886 2.85974 6.84564 2.87606 6.79433 2.90037C6.7463 2.92313 6.72484 2.9484 6.7145 2.97315C6.67167 3.07561 6.67692 3.14109 6.69443 3.17758C6.70748 3.20476 6.75914 3.28275 6.99462 3.34395C7.10978 3.37387 7.19985 3.45566 7.23293 3.56036C7.26601 3.66505 7.23742 3.77786 7.15731 3.85882C6.56863 4.45375 6.22332 5.07144 6.04833 5.5971C5.90492 6.02787 5.88276 6.37416 5.91432 6.58999L5.61771 6.8268L5.61931 6.82631L5.91432 6.58999C5.917 6.60828 5.92018 6.62632 5.9236 6.6427H17.2788L14.2602 0.652506H13.4819C13.3634 0.673365 13.283 0.709692 13.2228 0.76287C13.1574 0.82068 13.0832 0.927408 13.0378 1.13996C13.0249 1.19998 13.0366 1.27527 13.083 1.35752C13.1284 1.43796 13.1768 1.52277 13.2273 1.61125C13.6147 2.29062 14.1257 3.18648 14.3647 3.98325C14.4992 4.43153 14.5648 4.8997 14.4315 5.30062C14.2869 5.73503 13.926 6.04113 13.3477 6.16253L13.3091 6.17062H10.9913C10.6111 6.17062 10.182 6.00347 10.0047 5.61515C9.74941 5.05612 9.6187 4.17807 10.3262 3.40349C10.3596 3.36697 10.4049 3.29013 10.4421 3.18503C10.4765 3.08786 10.4937 2.99501 10.4955 2.93249ZM12.3744 1.43237C12.3966 1.50798 12.4279 1.5798 12.4653 1.64595C12.5123 1.72934 12.5615 1.8156 12.6119 1.90419C13.004 2.59279 13.477 3.42329 13.6949 4.14952C13.8185 4.56146 13.843 4.88881 13.7668 5.11772C13.704 5.30645 13.5636 5.46029 13.228 5.53905H10.9913C10.8051 5.53905 10.6859 5.46041 10.646 5.37291C10.4485 4.94047 10.3765 4.33682 10.8603 3.80706C10.9725 3.68428 11.0519 3.52321 11.1031 3.37848C11.1551 3.23137 11.19 3.0671 11.19 2.92238C11.19 2.75815 11.1355 2.61414 11.0361 2.50086L12.3744 1.43237Z" fill="#888F98"/>
<path d="M9.67001 7.27435C9.53383 7.89818 8.92871 8.36843 8.20284 8.36843C7.47696 8.36843 6.87184 7.89818 6.73566 7.27435H6.03202C6.17519 8.24857 7.09253 9 8.20284 9C9.31314 9 10.2305 8.24857 10.3736 7.27435H9.67001Z" fill="#888F98"/>
<path d="M16.6593 7.27435C16.5232 7.89818 15.918 8.36843 15.1922 8.36843C14.4663 8.36843 13.8612 7.89818 13.725 7.27435H13.0214C13.1645 8.24857 14.0819 9 15.1922 9C16.3025 9 17.2198 8.24857 17.363 7.27435H16.6593Z" fill="#888F98"/>
<path d="M0 0.710898C0 0.536496 0.155444 0.395115 0.347194 0.395115H7.40428C7.59603 0.395115 7.75148 0.536496 7.75148 0.710898C7.75148 0.8853 7.59603 1.02668 7.40428 1.02668H0.347194C0.155444 1.02668 0 0.8853 0 0.710898Z" fill="#888F98"/>
<path d="M1.21518 2.76349C1.02343 2.76349 0.867984 2.90487 0.867984 3.07927C0.867984 3.25367 1.02343 3.39506 1.21518 3.39506L3.81913 3.39506C4.01088 3.39506 4.16632 3.25367 4.16632 3.07927C4.16632 2.90487 4.01088 2.76349 3.81913 2.76349L1.21518 2.76349Z" fill="#888F98"/>
</svg>
