<svg width="46" height="47" viewBox="0 0 46 47" fill="none" xmlns="http://www.w3.org/2000/svg">
<path d="M10.3936 26.6659V21.9306H19.2744C20.8455 21.9306 22.1191 23.2042 22.1191 24.7752V26.3016C22.1191 27.8727 23.3927 29.1463 24.9638 29.1463H26.9411C28.5122 29.1463 29.7858 27.8727 29.7858 26.3016V22.7912C29.7858 22.5195 29.7469 22.2492 29.6702 21.9885L28.2717 17.2337C27.9017 15.9755 28.8449 14.7148 30.1565 14.7148V14.7148C30.7748 14.7148 31.3571 15.006 31.7281 15.5007L37.2384 22.8477C37.6661 23.418 37.8641 24.1281 37.7932 24.8375L37.5414 27.3548C37.4835 27.9339 37.2494 28.4812 36.8707 28.923L35.5981 30.4078C35.0576 31.0383 34.2687 31.4012 33.4382 31.4012H29.1093H20.3152" stroke="#394908" stroke-width="1.42233" stroke-linecap="round" stroke-linejoin="round"/>
<path d="M24.377 13.3672H28.4358" stroke="#394908" stroke-width="1.42233" stroke-linecap="round" stroke-linejoin="round"/>
<path d="M28.4326 12.0117H33.3934C34.1406 12.0117 34.7464 12.6175 34.7464 13.3647V13.3647C34.7464 14.1119 34.1406 14.7176 33.3934 14.7176H28.4326V12.0117Z" stroke="#394908" stroke-width="1.42233" stroke-linecap="round" stroke-linejoin="round"/>
<path d="M13.5528 26.4414C10.4663 26.4414 7.86264 28.5085 7.05055 31.3338C6.76122 32.3404 7.63715 33.2061 8.68452 33.2061H18.4211C19.4685 33.2061 20.3444 32.3404 20.0551 31.3338C19.243 28.5085 16.6393 26.4414 13.5528 26.4414Z" stroke="#394908" stroke-width="1.42233" stroke-linecap="round" stroke-linejoin="round"/>
<path d="M8.5918 33.6562H14.4546L11.2977 37.6743C9.69144 36.9279 8.5918 35.4088 8.5918 33.6562Z" fill="#AADC19"/>
<path d="M13.5526 38.1661C16.2924 38.1661 18.5134 36.147 18.5134 33.6562H8.5918C8.5918 36.147 10.8128 38.1661 13.5526 38.1661Z" stroke="#394908" stroke-width="1.42233" stroke-linecap="round" stroke-linejoin="round"/>
<path d="M37.633 26.8945C39.5948 27.6512 41.1153 29.296 41.7016 31.3361C41.9909 32.3427 41.115 33.2083 40.0676 33.2083H30.2603C29.252 33.2083 28.4095 32.3764 28.6778 31.4044V31.4044" stroke="#394908" stroke-width="1.42233" stroke-linecap="round" stroke-linejoin="round"/>
<path d="M30.2383 33.6562H36.1011L32.9442 37.6743C31.3379 36.9279 30.2383 35.4088 30.2383 33.6562Z" fill="#AADC19"/>
<path d="M35.1991 38.1661C37.9389 38.1661 40.1599 36.147 40.1599 33.6562H30.2383C30.2383 36.147 32.4593 38.1661 35.1991 38.1661Z" stroke="#394908" stroke-width="1.42233" stroke-linecap="round" stroke-linejoin="round"/>
<path d="M4.98242 10.2988V21.9318L19.4139 8.40234H6.87886C5.83149 8.40234 4.98242 9.25141 4.98242 10.2988Z" fill="#AADC19"/>
<path d="M12.1981 8.40234H17.5174C18.5648 8.40234 19.4139 9.25141 19.4139 10.2988V20.0354C19.4139 21.0827 18.5648 21.9318 17.5174 21.9318H6.87886C5.83149 21.9318 4.98242 21.0827 4.98242 20.0354V10.2988C4.98242 9.25141 5.83149 8.40234 6.87886 8.40234H7.68832" stroke="#394908" stroke-width="1.42233" stroke-linecap="round" stroke-linejoin="round"/>
</svg>
