<svg width="20" height="21" viewBox="0 0 20 21" fill="none" xmlns="http://www.w3.org/2000/svg">
<path d="M10.0001 12.168H10.8335C11.7501 12.168 12.5001 11.418 12.5001 10.5013V2.16797H5.00012C3.75012 2.16797 2.65846 2.85963 2.0918 3.87629" stroke="#292D32" stroke-width="1.5" stroke-linecap="round" stroke-linejoin="round"/>
<path d="M1.66699 14.668C1.66699 16.0513 2.78366 17.168 4.16699 17.168H5.00033C5.00033 16.2513 5.75033 15.5013 6.66699 15.5013C7.58366 15.5013 8.33366 16.2513 8.33366 17.168H11.667C11.667 16.2513 12.417 15.5013 13.3337 15.5013C14.2503 15.5013 15.0003 16.2513 15.0003 17.168H15.8337C17.217 17.168 18.3337 16.0513 18.3337 14.668V12.168H15.8337C15.3753 12.168 15.0003 11.793 15.0003 11.3346V8.83464C15.0003 8.3763 15.3753 8.0013 15.8337 8.0013H16.9086L15.4837 5.50964C15.1837 4.99298 14.6337 4.66797 14.0337 4.66797H12.5003V10.5013C12.5003 11.418 11.7503 12.168 10.8337 12.168H10.0003" stroke="#292D32" stroke-width="1.5" stroke-linecap="round" stroke-linejoin="round"/>
<path d="M6.66667 18.8333C7.58714 18.8333 8.33333 18.0871 8.33333 17.1667C8.33333 16.2462 7.58714 15.5 6.66667 15.5C5.74619 15.5 5 16.2462 5 17.1667C5 18.0871 5.74619 18.8333 6.66667 18.8333Z" stroke="#292D32" stroke-width="1.5" stroke-linecap="round" stroke-linejoin="round"/>
<path d="M13.3337 18.8333C14.2541 18.8333 15.0003 18.0871 15.0003 17.1667C15.0003 16.2462 14.2541 15.5 13.3337 15.5C12.4132 15.5 11.667 16.2462 11.667 17.1667C11.667 18.0871 12.4132 18.8333 13.3337 18.8333Z" stroke="#292D32" stroke-width="1.5" stroke-linecap="round" stroke-linejoin="round"/>
<path d="M18.3333 10.5V12.1667H15.8333C15.375 12.1667 15 11.7917 15 11.3333V8.83333C15 8.375 15.375 8 15.8333 8H16.9083L18.3333 10.5Z" stroke="#292D32" stroke-width="1.5" stroke-linecap="round" stroke-linejoin="round"/>
<path d="M1.66699 7.16797H6.66699" stroke="#292D32" stroke-width="1.5" stroke-linecap="round" stroke-linejoin="round"/>
<path d="M1.66699 9.66797H5.00033" stroke="#292D32" stroke-width="1.5" stroke-linecap="round" stroke-linejoin="round"/>
<path d="M1.66699 12.168H3.33366" stroke="#292D32" stroke-width="1.5" stroke-linecap="round" stroke-linejoin="round"/>
</svg>
