<svg width="20" height="20" viewBox="0 0 20 20" fill="none" xmlns="http://www.w3.org/2000/svg">
<path d="M12.5 1.6665V9.99984C12.5 10.9165 11.75 11.6665 10.8333 11.6665H1.66663V4.99984C1.66663 3.15817 3.15829 1.6665 4.99996 1.6665H12.5Z" stroke="#536179" stroke-width="1.5" stroke-linecap="round" stroke-linejoin="round"/>
<path d="M18.3333 11.6665V14.1665C18.3333 15.5498 17.2166 16.6665 15.8333 16.6665H15C15 15.7498 14.25 14.9998 13.3333 14.9998C12.4166 14.9998 11.6666 15.7498 11.6666 16.6665H8.33329C8.33329 15.7498 7.58329 14.9998 6.66663 14.9998C5.74996 14.9998 4.99996 15.7498 4.99996 16.6665H4.16663C2.78329 16.6665 1.66663 15.5498 1.66663 14.1665V11.6665H10.8333C11.75 11.6665 12.5 10.9165 12.5 9.99984V4.1665H14.0333C14.6333 4.1665 15.1833 4.49151 15.4833 5.00818L16.9083 7.49984H15.8333C15.375 7.49984 15 7.87484 15 8.33317V10.8332C15 11.2915 15.375 11.6665 15.8333 11.6665H18.3333Z" stroke="#536179" stroke-width="1.5" stroke-linecap="round" stroke-linejoin="round"/>
<path d="M6.66667 18.3333C7.58714 18.3333 8.33333 17.5871 8.33333 16.6667C8.33333 15.7462 7.58714 15 6.66667 15C5.74619 15 5 15.7462 5 16.6667C5 17.5871 5.74619 18.3333 6.66667 18.3333Z" stroke="#536179" stroke-width="1.5" stroke-linecap="round" stroke-linejoin="round"/>
<path d="M13.3333 18.3333C14.2538 18.3333 15 17.5871 15 16.6667C15 15.7462 14.2538 15 13.3333 15C12.4128 15 11.6666 15.7462 11.6666 16.6667C11.6666 17.5871 12.4128 18.3333 13.3333 18.3333Z" stroke="#536179" stroke-width="1.5" stroke-linecap="round" stroke-linejoin="round"/>
<path d="M18.3333 10V11.6667H15.8333C15.375 11.6667 15 11.2917 15 10.8333V8.33333C15 7.875 15.375 7.5 15.8333 7.5H16.9083L18.3333 10Z" stroke="#536179" stroke-width="1.5" stroke-linecap="round" stroke-linejoin="round"/>
</svg>
