<svg width="16" height="17" viewBox="0 0 16 17" fill="none" xmlns="http://www.w3.org/2000/svg">
<circle cx="8" cy="8.73047" r="8" fill="#1B1F29"/>
<path d="M4.55642 12.1173C4.82282 11.7246 6.55788 9.32347 6.8919 8.8629C6.93947 8.7972 7.04792 8.73972 7.1467 8.82667C7.15153 8.83102 7.23896 8.9112 7.24354 8.91531C7.68914 9.31043 8.01157 9.57875 8.45669 9.97436C8.47746 9.99272 8.49847 10.0106 8.51996 10.0285C8.56537 10.0661 8.63348 10.0572 8.66657 10.0087C8.67864 9.99102 8.68927 9.97315 8.70134 9.95649C9.06603 9.45365 9.42952 8.94984 9.79324 8.44628C10.2473 7.81785 10.7011 7.18942 11.1556 6.56148L11.1564 6.56051C11.201 6.49893 11.2945 6.50859 11.3271 6.57718C11.3286 6.58008 11.3298 6.58297 11.3312 6.58587C11.4638 6.84913 11.544 7.13025 11.6068 7.41669C11.7097 7.88572 11.686 8.35402 11.6 8.82353C11.4604 9.58503 11.125 10.2504 10.6277 10.838C10.1403 11.4143 9.54376 11.8398 8.83708 12.1038C8.42601 12.2574 7.99949 12.3446 7.55752 12.3444C6.66414 12.3439 5.77077 12.3451 4.8774 12.3449C4.83127 12.3449 4.7849 12.3427 4.73949 12.3354C4.66003 12.3231 4.59651 12.2895 4.55594 12.2287C4.53324 12.1951 4.53348 12.1509 4.55642 12.1173Z" fill="#00FFA8"/>
<path d="M8.40824 8.57107C8.39882 8.58798 8.35993 8.64763 8.28168 8.58991C8.23966 8.55876 8.25439 8.57228 8.22058 8.54354C7.77208 8.15953 7.38855 7.82913 6.94053 7.44415C6.81398 7.32992 6.69032 7.38232 6.62874 7.52144C6.33771 8.12185 6.09088 8.623 5.80033 9.22365C5.40473 10.0414 5.00888 10.8592 4.61255 11.6767C4.57632 11.7593 4.52633 11.7386 4.53164 11.7009C4.58936 11.3048 4.64757 10.9087 4.70602 10.5129C4.79369 9.91874 4.88136 9.32485 4.96903 8.73072C5.0567 8.13658 5.14389 7.54269 5.23132 6.94856C5.31053 6.41046 5.38951 5.87212 5.46921 5.33402C5.47887 5.26808 5.48781 5.20167 5.50375 5.13694C5.53466 5.01207 5.60688 4.92585 5.74116 4.90653C5.79164 4.89929 5.84284 4.89276 5.8938 4.89276C6.77703 4.89204 7.66001 4.88769 8.54324 4.89397C9.0584 4.89759 9.5511 5.00942 10.0112 5.24828C10.0143 5.24997 10.0175 5.25166 10.0206 5.25335C9.99186 5.31663 8.9572 7.43812 8.40824 8.57107Z" fill="#00FFA8"/>
</svg>
