<svg width="28" height="29" viewBox="0 0 28 29" fill="none" xmlns="http://www.w3.org/2000/svg">
<rect y="0.460938" width="28" height="28" rx="14" fill="#81A713"/>
<path d="M21.3341 18.4003C21.3474 18.9003 21.2141 19.3737 20.9741 19.7803C20.8408 20.0203 20.6608 20.2403 20.4608 20.4203C20.0008 20.847 19.3941 21.107 18.7208 21.127C17.7474 21.147 16.8874 20.647 16.4141 19.8803C16.1608 19.487 16.0074 19.0137 16.0008 18.5137C15.9808 17.6737 16.3541 16.9137 16.9541 16.4137C17.4074 16.0403 17.9808 15.807 18.6074 15.7937C20.0808 15.7603 21.3008 16.927 21.3341 18.4003Z" stroke="white" stroke-width="1.25" stroke-miterlimit="10" stroke-linecap="round" stroke-linejoin="round"/>
<path d="M17.625 18.4801L18.2983 19.1201L19.6917 17.7734" stroke="white" stroke-width="1.25" stroke-linecap="round" stroke-linejoin="round"/>
<path d="M8.11719 11.418L14.0038 14.8246L19.8505 11.4379" stroke="white" stroke-width="1.25" stroke-linecap="round" stroke-linejoin="round"/>
<path d="M14 20.8631V14.8164" stroke="white" stroke-width="1.25" stroke-linecap="round" stroke-linejoin="round"/>
<path d="M20.4071 12.573V16.3463C20.4071 16.3797 20.4071 16.4063 20.4004 16.4396C19.9337 16.033 19.3337 15.793 18.6671 15.793C18.0404 15.793 17.4604 16.013 17.0004 16.3797C16.3871 16.8663 16.0004 17.6196 16.0004 18.4596C16.0004 18.9596 16.1404 19.433 16.3871 19.833C16.4471 19.9396 16.5204 20.0397 16.6004 20.133L15.3804 20.8063C14.6204 21.233 13.3804 21.233 12.6204 20.8063L9.0604 18.833C8.25374 18.3863 7.59375 17.2663 7.59375 16.3463V12.573C7.59375 11.653 8.25374 10.533 9.0604 10.0863L12.6204 8.11297C13.3804 7.6863 14.6204 7.6863 15.3804 8.11297L18.9404 10.0863C19.7471 10.533 20.4071 11.653 20.4071 12.573Z" stroke="white" stroke-width="1.25" stroke-linecap="round" stroke-linejoin="round"/>
</svg>
