<svg width="24" height="24" viewBox="0 0 24 24" fill="none" xmlns="http://www.w3.org/2000/svg">
<path d="M11.229 3.01257L11.2292 3.01238C11.6354 2.66496 12.352 2.6597 12.7748 3.01365L14.349 4.36879C14.3493 4.36912 14.3497 4.36946 14.3501 4.36979C14.5869 4.57466 14.8873 4.73142 15.1699 4.83702C15.453 4.94281 15.7842 5.02193 16.0997 5.02193H17.7991C18.4444 5.02193 18.9784 5.55584 18.9784 6.20145V7.90102C18.9784 8.2125 19.058 8.54374 19.1628 8.82581C19.2675 9.10766 19.4241 9.41234 19.6307 9.65105C19.6309 9.65133 19.6311 9.6516 19.6314 9.65187L20.9876 11.2277C20.9878 11.228 20.9881 11.2282 20.9883 11.2285C21.3351 11.635 21.3401 12.3512 20.9863 12.7739L19.6314 14.3481C19.6311 14.3484 19.6309 14.3487 19.6307 14.3489C19.4257 14.5858 19.2689 14.8864 19.1632 15.1692C19.0575 15.4523 18.9784 15.7835 18.9784 16.099V17.7986C18.9784 18.4442 18.4444 18.9781 17.7991 18.9781H16.0997C15.7882 18.9781 15.457 19.0577 15.1749 19.1625C14.8933 19.2672 14.5889 19.4236 14.3503 19.6301C14.3498 19.6304 14.3494 19.6308 14.349 19.6312L12.7733 20.9876C12.773 20.9879 12.7727 20.9882 12.7724 20.9884C12.3659 21.335 11.6502 21.34 11.2277 20.9864L9.65355 19.6312C9.65317 19.6309 9.65279 19.6306 9.65241 19.6302C9.41566 19.4254 9.11517 19.2686 8.83256 19.163C8.54946 19.0572 8.21826 18.9781 7.90279 18.9781H6.17343C5.52813 18.9781 4.99416 18.4442 4.99416 17.7986V16.089C4.99416 15.777 4.9143 15.4483 4.81133 15.1701C4.70797 14.8908 4.55581 14.5936 4.36053 14.3592L4.36055 14.3592L4.35608 14.3539L3.00898 12.7671C3.00864 12.7667 3.0083 12.7663 3.00796 12.7659C2.66402 12.3553 2.66401 11.6447 3.00795 11.2341C3.00829 11.2337 3.00864 11.2333 3.00898 11.2329L4.35608 9.6461L4.35611 9.64612L4.36053 9.64081C4.55581 9.40645 4.70797 9.10918 4.81133 8.82994C4.9143 8.55172 4.99416 8.223 4.99416 7.91102V6.19145C4.99416 5.54584 5.52813 5.01193 6.17343 5.01193H7.90279C8.21427 5.01193 8.5455 4.93231 8.82755 4.82749C9.10882 4.72296 9.41282 4.56677 9.65129 4.36074L11.229 3.01257Z" stroke="#1F242D" stroke-width="1.5"/>
<path d="M9.54688 14.3986L13.9069 9.60156" stroke="#1F242D" stroke-width="1.3" stroke-linecap="round" stroke-linejoin="round"/>
<path d="M9.82001 10.8044C10.2729 10.8044 10.64 10.4005 10.64 9.90221C10.64 9.40394 10.2729 9 9.82001 9C9.36713 9 9 9.40394 9 9.90221C9 10.4005 9.36713 10.8044 9.82001 10.8044Z" stroke="#1F242D" stroke-width="1.1" stroke-linecap="round" stroke-linejoin="round"/>
<path d="M14.1803 15.0002C14.6332 15.0002 15.0003 14.5963 15.0003 14.098C15.0003 13.5997 14.6332 13.1958 14.1803 13.1958C13.7275 13.1958 13.3604 13.5997 13.3604 14.098C13.3604 14.5963 13.7275 15.0002 14.1803 15.0002Z" stroke="#1F242D" stroke-width="1.1" stroke-linecap="round" stroke-linejoin="round"/>
</svg>
