<svg width="18" height="17" viewBox="0 0 18 17" fill="none" xmlns="http://www.w3.org/2000/svg">
<path d="M6.34091 6.52319C6.34091 6.19626 6.61623 5.93022 6.95455 5.93022C7.29286 5.93022 7.56818 6.19626 7.56818 6.52319C7.56818 6.85011 7.29286 7.11616 6.95455 7.11616C6.61623 7.11616 6.34091 6.85011 6.34091 6.52319ZM11.0455 9.88336C10.7071 9.88336 10.4318 10.1494 10.4318 10.4763C10.4318 10.8033 10.7071 11.0693 11.0455 11.0693C11.3838 11.0693 11.6591 10.8033 11.6591 10.4763C11.6591 10.1494 11.3838 9.88336 11.0455 9.88336ZM16.5796 10.1715C16.5483 10.305 16.7271 10.6528 16.8453 10.8831C17.0734 11.327 17.332 11.8301 17.11 12.2742C16.885 12.7247 16.3111 12.8435 15.8044 12.948C15.5481 13.0012 15.1609 13.0813 15.0772 13.1823C14.9924 13.2852 14.9973 13.6697 15.0005 13.9241C15.0071 14.4226 15.0142 14.9879 14.6121 15.2984C14.2114 15.6075 13.644 15.4757 13.1437 15.3596C12.8862 15.3 12.4979 15.2092 12.373 15.2679C12.2547 15.3229 12.0888 15.6674 11.979 15.8953C11.7595 16.3513 11.5108 16.8678 11.0023 16.9794C10.9383 16.9935 10.8753 17 10.8133 17C10.3983 17 10.0274 16.7069 9.66723 16.4222C9.44714 16.2481 9.14543 16.0097 8.9998 16.0097C8.85436 16.0097 8.55266 16.2481 8.33257 16.4222C7.938 16.734 7.49045 17.0884 6.9977 16.9792C6.4892 16.8676 6.24027 16.3509 6.02059 15.8953C5.91095 15.6674 5.74486 15.3229 5.62684 15.2677C5.50166 15.2086 5.11302 15.2998 4.85591 15.3594C4.35539 15.4759 3.78839 15.6071 3.38748 15.2982C2.98514 14.9877 2.9923 14.4222 2.99905 13.9235C3.00232 13.6691 3.00723 13.2848 2.92255 13.1821C2.83889 13.0809 2.45168 13.0008 2.19539 12.9478C1.68852 12.8431 1.11457 12.7243 0.889568 12.2736C0.667841 11.8299 0.926591 11.3266 1.15445 10.8827C1.27289 10.6526 1.45166 10.3046 1.42036 10.1711C1.39214 10.0516 1.08409 9.8205 0.880364 9.66752C0.467795 9.35838 0 9.00734 0 8.49976C0 7.99217 0.467796 7.64133 0.880568 7.3318C1.0843 7.17901 1.39234 6.94795 1.42057 6.82817C1.45186 6.69475 1.27309 6.34668 1.15486 6.11641C0.926795 5.67247 0.66825 5.16943 0.890182 4.7253C1.11518 4.27484 1.68914 4.15605 2.1958 4.05129C2.45209 3.99832 2.8393 3.91827 2.92275 3.81726C3.00784 3.71428 3.00293 3.32984 2.99966 3.07546C2.99311 2.57677 2.98595 2.01147 3.38809 1.70095C3.7888 1.39181 4.3562 1.52345 4.85652 1.63967C5.11405 1.69937 5.50227 1.7897 5.62725 1.73159C5.74548 1.67644 5.91136 1.33212 6.0212 1.10402C6.24068 0.648227 6.48941 0.131749 6.99791 0.0200728C7.49005 -0.087848 7.93841 0.265168 8.33277 0.57707C8.55307 0.751206 8.85477 0.989581 9.0002 0.989581C9.14564 0.989581 9.44734 0.751206 9.66743 0.577268C10.0622 0.265168 10.5095 -0.0886386 11.0025 0.0200728C11.5108 0.131749 11.7597 0.648425 11.9794 1.10422C12.0893 1.33212 12.2551 1.67664 12.3734 1.73178C12.4987 1.79009 12.8868 1.69956 13.1439 1.63987C13.6444 1.52365 14.2116 1.39201 14.6125 1.70115C15.0149 2.01167 15.0077 2.57696 15.001 3.07585C14.9977 3.33024 14.9928 3.71468 15.0775 3.81726C15.1611 3.91827 15.5483 3.99851 15.8046 4.05149C16.3115 4.15624 16.8854 4.27484 17.1104 4.7255C17.3322 5.16944 17.0734 5.67267 16.8455 6.11661C16.7271 6.34688 16.5483 6.69475 16.5796 6.82817C16.6079 6.94795 16.9159 7.17901 17.1196 7.3318C17.5322 7.64133 18 7.99217 18 8.49976C18 9.00734 17.5322 9.35818 17.1194 9.66771C16.9157 9.8207 16.6077 10.0516 16.5796 10.1715ZM6.95455 7.90679C7.74389 7.90679 8.38636 7.28614 8.38636 6.52319C8.38636 5.76023 7.74389 5.13959 6.95455 5.13959C6.1652 5.13959 5.52273 5.76023 5.52273 6.52319C5.52273 7.28614 6.1652 7.90679 6.95455 7.90679ZM12.1529 6.01205C12.3126 5.85768 12.3126 5.60744 12.1529 5.45307C11.9931 5.2987 11.7342 5.2987 11.5744 5.45307L5.84714 10.9875C5.68739 11.1418 5.68739 11.3921 5.84714 11.5464C5.92711 11.6237 6.03164 11.6623 6.13636 11.6623C6.24109 11.6623 6.34561 11.6237 6.42559 11.5464L12.1529 6.01205ZM12.4773 10.4763C12.4773 9.71357 11.8348 9.09273 11.0455 9.09273C10.2561 9.09273 9.61364 9.71357 9.61364 10.4763C9.61364 11.2391 10.2561 11.8599 11.0455 11.8599C11.8348 11.8599 12.4773 11.2391 12.4773 10.4763Z" fill="#81A713"/>
</svg>
