<svg width="18" height="18" viewBox="0 0 18 18" fill="none" xmlns="http://www.w3.org/2000/svg">
<path d="M9.00195 14.0984V11.5508" stroke="#1F242D" stroke-width="1.5" stroke-linecap="round" stroke-linejoin="round"/>
<path d="M7.86789 1.78933L7.86825 1.78904C8.47393 1.2941 9.51833 1.29182 10.1351 1.797L10.1366 1.79824L15.9096 6.50115C15.9099 6.50138 15.9102 6.50161 15.9104 6.50184C16.1032 6.6604 16.3017 6.9463 16.4361 7.30527C16.5702 7.66353 16.6109 8.01559 16.57 8.27279C16.5699 8.27316 16.5698 8.27352 16.5698 8.27389L15.4623 15.0286C15.4622 15.0289 15.4622 15.0292 15.4621 15.0295C15.3202 15.8763 14.4822 16.5846 13.6687 16.5846H4.33534C3.51278 16.5846 2.68402 15.8841 2.54201 15.0301C2.54198 15.0299 2.54194 15.0297 2.5419 15.0295L1.4338 8.27118L1.43381 8.27118L1.43304 8.26667C1.38969 8.01201 1.42807 7.66217 1.56169 7.30527C1.69547 6.94795 1.89504 6.66268 2.09075 6.50415L2.09075 6.50415L2.09289 6.50241L7.86789 1.78933Z" stroke="#1F242D" stroke-width="1.5" stroke-linecap="round" stroke-linejoin="round"/>
</svg>
