<svg width="16" height="16" viewBox="0 0 16 16" fill="none" xmlns="http://www.w3.org/2000/svg">
<circle cx="8" cy="8" r="8" fill="#1B1F29"/>
<path d="M4.55642 11.3869C4.82282 10.9942 6.55788 8.593 6.8919 8.13243C6.93947 8.06674 7.04792 8.00925 7.1467 8.0962C7.15153 8.10055 7.23896 8.18073 7.24354 8.18484C7.68914 8.57996 8.01157 8.84829 8.45669 9.24389C8.47746 9.26225 8.49847 9.28012 8.51996 9.29799C8.56537 9.33567 8.63348 9.32673 8.66657 9.27819C8.67864 9.26056 8.68927 9.24268 8.70134 9.22602C9.06603 8.72318 9.42952 8.21937 9.79324 7.71581C10.2473 7.08738 10.7011 6.45896 11.1556 5.83101L11.1564 5.83004C11.201 5.76846 11.2945 5.77812 11.3271 5.84671C11.3286 5.84961 11.3298 5.85251 11.3312 5.8554C11.4638 6.11866 11.544 6.39978 11.6068 6.68622C11.7097 7.15525 11.686 7.62355 11.6 8.09306C11.4604 8.85457 11.125 9.51995 10.6277 10.1076C10.1403 10.6838 9.54376 11.1094 8.83708 11.3733C8.42601 11.527 7.99949 11.6141 7.55752 11.6139C6.66414 11.6134 5.77077 11.6146 4.8774 11.6144C4.83127 11.6144 4.7849 11.6122 4.73949 11.605C4.66003 11.5926 4.59651 11.5591 4.55594 11.4982C4.53324 11.4646 4.53348 11.4204 4.55642 11.3869Z" fill="#00FFA8"/>
<path d="M8.40824 7.8406C8.39882 7.85751 8.35993 7.91717 8.28168 7.85944C8.23966 7.82829 8.25439 7.84181 8.22058 7.81307C7.77208 7.42906 7.38855 7.09866 6.94053 6.71368C6.81398 6.59945 6.69032 6.65186 6.62874 6.79097C6.33771 7.39138 6.09088 7.89253 5.80033 8.49318C5.40473 9.31096 5.00888 10.1287 4.61255 10.9463C4.57632 11.0289 4.52633 11.0081 4.53164 10.9704C4.58936 10.5743 4.64757 10.1783 4.70602 9.7824C4.79369 9.18827 4.88136 8.59438 4.96903 8.00025C5.0567 7.40611 5.14389 6.81222 5.23132 6.21809C5.31053 5.67999 5.38951 5.14165 5.46921 4.60355C5.47887 4.53761 5.48781 4.4712 5.50375 4.40647C5.53466 4.28161 5.60688 4.19538 5.74116 4.17606C5.79164 4.16882 5.84284 4.1623 5.8938 4.1623C6.77703 4.16157 7.66001 4.15722 8.54324 4.1635C9.0584 4.16713 9.5511 4.27895 10.0112 4.51781C10.0143 4.5195 10.0175 4.52119 10.0206 4.52288C9.99186 4.58616 8.9572 6.70765 8.40824 7.8406Z" fill="#00FFA8"/>
</svg>
