<svg width="24" height="24" viewBox="0 0 24 24" fill="none" xmlns="http://www.w3.org/2000/svg">
<path opacity="0.4" d="M19.24 5.57859H18.84L15.46 2.19859C15.19 1.92859 14.75 1.92859 14.47 2.19859C14.2 2.46859 14.2 2.90859 14.47 3.18859L16.86 5.57859H7.14L9.53 3.18859C9.8 2.91859 9.8 2.47859 9.53 2.19859C9.26 1.92859 8.82 1.92859 8.54 2.19859L5.17 5.57859H4.77C3.87 5.57859 2 5.57859 2 8.13859C2 9.10859 2.2 9.74859 2.62 10.1686C2.86 10.4186 3.15 10.5486 3.46 10.6186C3.75 10.6886 4.06 10.6986 4.36 10.6986H19.64C19.95 10.6986 20.24 10.6786 20.52 10.6186C21.36 10.4186 22 9.81859 22 8.13859C22 5.57859 20.13 5.57859 19.24 5.57859Z" fill="#81A713"/>
<path d="M19.65 10.7011H4.35996C4.05996 10.7011 3.74996 10.6911 3.45996 10.6211L4.71996 18.3011C4.99996 20.0211 5.74996 22.0011 9.07996 22.0011H14.69C18.06 22.0011 18.66 20.3111 19.02 18.4211L20.53 10.6211C20.25 10.6811 19.95 10.7011 19.65 10.7011ZM10.61 17.1611C10.61 17.5511 10.3 17.8611 9.90996 17.8611C9.51996 17.8611 9.20996 17.5511 9.20996 17.1611V13.8611C9.20996 13.4711 9.51996 13.1611 9.90996 13.1611C10.3 13.1611 10.61 13.4711 10.61 13.8611V17.1611ZM14.89 17.1611C14.89 17.5511 14.58 17.8611 14.19 17.8611C13.8 17.8611 13.49 17.5511 13.49 17.1611V13.8611C13.49 13.4711 13.8 13.1611 14.19 13.1611C14.58 13.1611 14.89 13.4711 14.89 13.8611V17.1611Z" fill="#81A713"/>
</svg>
