<svg width="129" height="115" viewBox="0 0 129 115" fill="none" xmlns="http://www.w3.org/2000/svg">
<path opacity="0.1" d="M53.5577 69.2366C52.8598 71.6661 50.9476 75.3046 49.0468 77.9555L46.9189 75.9517L50.488 68.3682C50.488 68.3682 51.6342 68.6804 53.5577 69.2366Z" fill="black"/>
<path d="M15.8203 54.0694L59.5115 46.957V88.3373L17.9992 86.1633L15.8203 54.0694Z" fill="#E6E6E6"/>
<path d="M15.8203 54.0694L59.5115 46.957V88.3373L17.9992 86.1633L15.8203 54.0694Z" fill="#BF6C35"/>
<path d="M59.5107 46.957L111.906 50.8794L109.007 86.8898L59.5107 88.3373V46.957Z" fill="#E6E6E6"/>
<path d="M59.5107 46.957L111.906 50.8794L109.007 86.8898L59.5107 88.3373V46.957Z" fill="#A6471E"/>
<path d="M69.0895 57.7022V114.278L48.6228 112.178L39.72 111.27L37.0077 110.986L28.1106 110.072L15.8203 108.812V54.0693L59.5058 57.0437L69.0895 57.7022Z" fill="#D5A172"/>
<path d="M111.906 50.8789V106.053L95.5022 109.203L87.5243 110.736L69.0889 114.278V57.7018L111.906 50.8789Z" fill="#E6E6E6"/>
<path d="M111.906 50.8789V106.053L95.5022 109.203L87.5243 110.736L69.0889 114.278V85.9897V57.7018L111.906 50.8789Z" fill="#E8C7A6"/>
<path d="M0 65.9782L15.8196 54.0693L69.0888 57.7022L61.2471 70.9166L0 65.9782Z" fill="#E6E6E6"/>
<path d="M0 65.9782L15.8196 54.0693L69.0888 57.7022L61.2471 70.9166L0 65.9782Z" fill="#CE9662"/>
<path d="M111.906 50.8789L69.0889 57.7018L83.0246 70.1897L128.889 62.4927L111.906 50.8789Z" fill="#E6E6E6"/>
<path d="M111.906 50.8789L69.0889 57.7018L83.0246 70.1897L128.889 62.4927L111.906 50.8789Z" fill="#D69F6F"/>
<path fill-rule="evenodd" clip-rule="evenodd" d="M96.16 8.09643C96.3385 8.08454 96.4928 8.21956 96.5047 8.39802C96.5127 8.51918 96.506 8.64864 96.4854 8.78491C96.4588 8.96177 96.2939 9.08357 96.117 9.05695C95.9402 9.03033 95.8184 8.86538 95.845 8.68852C95.8597 8.59044 95.8629 8.5083 95.8584 8.4411C95.8465 8.26264 95.9815 8.10833 96.16 8.09643ZM95.2171 10.7357C95.3603 10.8429 95.3895 11.0458 95.2824 11.189C95.1585 11.3547 95.0239 11.5259 94.878 11.7025C94.7641 11.8403 94.56 11.8598 94.4221 11.7459C94.2842 11.632 94.2648 11.4279 94.3787 11.29C94.5183 11.121 94.6464 10.958 94.7638 10.8011C94.8709 10.6579 95.0738 10.6286 95.2171 10.7357ZM93.1045 13.1256C93.2269 13.2561 93.2203 13.461 93.0899 13.5834C92.9372 13.7266 92.7784 13.8723 92.6133 14.0204C92.4801 14.1398 92.2754 14.1286 92.156 13.9955C92.0366 13.8623 92.0477 13.6576 92.1808 13.5382C92.3424 13.3933 92.4977 13.2509 92.6468 13.111C92.7772 12.9886 92.9821 12.9952 93.1045 13.1256ZM90.6916 15.2118C90.8014 15.3529 90.7759 15.5564 90.6348 15.6662C90.4684 15.7956 90.2977 15.9264 90.1226 16.0586C89.9798 16.1663 89.7768 16.138 89.669 15.9953C89.5612 15.8525 89.5896 15.6495 89.7323 15.5417C89.905 15.4113 90.0732 15.2824 90.2372 15.1549C90.3784 15.0451 90.5818 15.0706 90.6916 15.2118ZM88.1171 17.1068C88.2179 17.2545 88.1799 17.456 88.0323 17.5569C87.8594 17.6749 87.6834 17.7939 87.504 17.9137C87.3553 18.0131 87.1542 17.9731 87.0548 17.8244C86.9554 17.6757 86.9954 17.4746 87.1441 17.3752C87.3217 17.2565 87.496 17.1388 87.667 17.022C87.8147 16.9212 88.0162 16.9591 88.1171 17.1068ZM85.4472 18.8561C85.5412 19.0082 85.4941 19.2078 85.342 19.3018C85.1634 19.4122 84.9821 19.5233 84.7981 19.6351C84.6453 19.7279 84.4461 19.6793 84.3532 19.5264C84.2604 19.3736 84.309 19.1744 84.4619 19.0815C84.6444 18.9706 84.8242 18.8604 85.0014 18.7509C85.1535 18.6569 85.3531 18.704 85.4472 18.8561ZM82.7096 20.4925C82.7981 20.6479 82.7439 20.8457 82.5885 20.9342C82.4034 21.0397 82.2159 21.1458 82.0261 21.2523C81.8701 21.3399 81.6727 21.2844 81.5852 21.1285C81.4976 20.9725 81.5531 20.7751 81.709 20.6876C81.8976 20.5817 82.0839 20.4763 82.2679 20.3715C82.4233 20.2829 82.621 20.3371 82.7096 20.4925ZM79.9145 22.0407C79.9984 22.1986 79.9385 22.3947 79.7806 22.4787C79.6852 22.5294 79.5894 22.5802 79.493 22.6311C79.4004 22.6801 79.3084 22.7294 79.217 22.7791C79.0599 22.8646 78.8633 22.8066 78.7778 22.6495C78.6922 22.4924 78.7503 22.2958 78.9074 22.2103C79.0011 22.1592 79.0954 22.1086 79.1905 22.0584C79.2863 22.0078 79.3817 21.9572 79.4765 21.9068C79.6344 21.8229 79.8305 21.8828 79.9145 22.0407ZM77.1982 23.6164C77.2995 23.7638 77.2622 23.9654 77.1148 24.0667C76.9427 24.185 76.7735 24.3048 76.6072 24.426C76.4626 24.5314 76.26 24.4996 76.1547 24.355C76.0494 24.2105 76.0812 24.0079 76.2257 23.9026C76.3969 23.7778 76.571 23.6546 76.7479 23.533C76.8953 23.4317 77.0969 23.469 77.1982 23.6164ZM74.7194 25.5298C74.8404 25.6615 74.8318 25.8664 74.7002 25.9874C74.5485 26.1269 74.3997 26.2678 74.2538 26.41C74.1257 26.5349 73.9207 26.5323 73.7959 26.4042C73.671 26.2761 73.6736 26.0711 73.8017 25.9463C73.9521 25.7996 74.1054 25.6544 74.2618 25.5107C74.3934 25.3896 74.5983 25.3982 74.7194 25.5298ZM72.5463 27.7758C72.6854 27.8882 72.7071 28.0921 72.5948 28.2312C72.4649 28.3921 72.3379 28.5543 72.214 28.7175C72.1058 28.86 71.9027 28.8878 71.7602 28.7796C71.6178 28.6714 71.59 28.4683 71.6981 28.3258C71.826 28.1575 71.9569 27.9903 72.0909 27.8243C72.2032 27.6852 72.4071 27.6635 72.5463 27.7758ZM70.7275 30.3212C70.8817 30.4119 70.9331 30.6104 70.8424 30.7645C70.7381 30.9419 70.6367 31.1202 70.5381 31.2993C70.4519 31.456 70.255 31.5131 70.0983 31.4269C69.9416 31.3407 69.8845 31.1437 69.9707 30.987C70.0722 30.8025 70.1767 30.6189 70.2842 30.4361C70.3749 30.282 70.5734 30.2305 70.7275 30.3212ZM69.2962 33.1014C69.4615 33.1697 69.5401 33.3591 69.4718 33.5244C69.393 33.715 69.317 33.9062 69.2437 34.0979C69.1799 34.2649 68.9927 34.3486 68.8256 34.2847C68.6585 34.2208 68.5749 34.0336 68.6388 33.8665C68.7141 33.6695 68.7922 33.473 68.8732 33.277C68.9415 33.1117 69.1309 33.0331 69.2962 33.1014ZM68.2534 36.0497C68.426 36.0963 68.5282 36.2741 68.4816 36.4467C68.4277 36.6465 68.3763 36.8465 68.3275 37.0464C68.2851 37.2202 68.1099 37.3266 67.9361 37.2842C67.7624 37.2418 67.6559 37.0665 67.6983 36.8928C67.7484 36.6878 67.801 36.4828 67.8563 36.2779C67.9029 36.1053 68.0807 36.0031 68.2534 36.0497ZM67.5806 39.105C67.7575 39.1313 67.8796 39.2961 67.8532 39.473C67.8227 39.6782 67.7945 39.8831 67.7686 40.0874C67.7461 40.2649 67.5841 40.3905 67.4067 40.368C67.2292 40.3455 67.1036 40.1835 67.1261 40.006C67.1525 39.7971 67.1814 39.5875 67.2126 39.3776C67.239 39.2007 67.4037 39.0786 67.5806 39.105ZM67.2516 42.2164C67.4303 42.224 67.569 42.3751 67.5614 42.5538C67.5525 42.7618 67.5458 42.9688 67.5412 43.1746C67.5371 43.3534 67.3889 43.4951 67.2101 43.4911C67.0313 43.4871 66.8896 43.3389 66.8936 43.1601C66.8984 42.9499 66.9052 42.7386 66.9143 42.5262C66.9219 42.3475 67.0729 42.2088 67.2516 42.2164ZM67.2416 45.3455C67.4202 45.3355 67.5731 45.4721 67.5831 45.6507C67.5948 45.8592 67.6085 46.0659 67.6239 46.2705C67.6374 46.4488 67.5038 46.6043 67.3255 46.6178C67.1471 46.6313 66.9916 46.4977 66.9781 46.3193C66.9623 46.1106 66.9484 45.8997 66.9364 45.687C66.9264 45.5084 67.0631 45.3555 67.2416 45.3455ZM67.5385 48.4633C67.7152 48.4356 67.8809 48.5564 67.9086 48.7331C67.941 48.94 67.9751 49.1434 68.0108 49.3432C68.0422 49.5192 67.9249 49.6875 67.7488 49.7189C67.5728 49.7503 67.4046 49.633 67.3732 49.4569C67.3367 49.2526 67.3018 49.0447 67.2687 48.8334C67.241 48.6567 67.3618 48.491 67.5385 48.4633ZM68.1582 51.5311C68.3304 51.4827 68.5092 51.5831 68.5576 51.7553C68.5853 51.8539 68.6133 51.9508 68.6416 52.046C68.6925 52.2175 68.5948 52.3977 68.4233 52.4486C68.2518 52.4995 68.0716 52.4018 68.0207 52.2304C67.9915 52.1321 67.9626 52.0321 67.9341 51.9305C67.8857 51.7583 67.986 51.5795 68.1582 51.5311Z" fill="#8694AC"/>
<path d="M99.9039 3.60852H102.427C102.587 3.60852 102.735 3.6234 102.871 3.65316C103.007 3.68292 103.134 3.7299 103.252 3.79412C103.369 3.85833 103.462 3.95152 103.529 4.07368C103.596 4.19585 103.63 4.3415 103.63 4.51065C103.63 4.72679 103.563 4.95859 103.43 5.20604C103.297 5.4535 103.124 5.67982 102.911 5.88499C102.698 6.09016 102.446 6.26088 102.155 6.39714C101.863 6.5334 101.573 6.59996 101.285 6.59683C100.809 6.59056 100.386 6.40262 100.017 6.033C100.158 6.21468 100.244 6.41907 100.275 6.64616C100.306 6.87326 100.289 7.08783 100.223 7.28987C100.158 7.49191 100.068 7.67986 99.9556 7.8537C99.8428 8.02755 99.7128 8.16538 99.5656 8.26718C99.4184 8.36898 99.2774 8.41989 99.1427 8.41989C98.9422 8.41989 98.7676 8.38621 98.6188 8.31887C98.47 8.25152 98.3526 8.15755 98.2664 8.03695C98.1803 7.91635 98.1169 7.78166 98.0761 7.63287C98.0354 7.48408 98.0151 7.32198 98.0151 7.14657C98.0151 6.88658 98.0566 6.62032 98.1396 6.3478C98.2226 6.07529 98.3314 5.84349 98.4661 5.65241L99.9039 3.60852ZM99.6784 3.42998L99.0018 0.930322C98.9329 0.670333 98.8177 0.450282 98.6564 0.270169C98.4951 0.0900564 98.2923 0 98.0479 0C97.7942 0 97.5358 0.115116 97.2727 0.345347C97.0096 0.575578 96.7919 0.875505 96.6196 1.24513C96.4473 1.61475 96.3612 1.98281 96.3612 2.3493C96.3612 2.69073 96.441 2.99927 96.6008 3.27492C96.7605 3.55057 96.9892 3.77297 97.2868 3.94212C97.0268 3.83875 96.7723 3.81761 96.5233 3.87869C96.2742 3.93977 96.0526 4.04627 95.8584 4.1982C95.6642 4.35012 95.5076 4.52475 95.3885 4.72209C95.2695 4.91943 95.21 5.10424 95.21 5.27652C95.21 5.3705 95.2304 5.47073 95.2711 5.57723C95.3118 5.68374 95.3721 5.78632 95.452 5.88499C95.5319 5.98366 95.6415 6.06589 95.7809 6.13167C95.9203 6.19745 96.0761 6.23034 96.2484 6.23034C96.5648 6.23034 96.896 6.14655 97.2421 5.97896C97.5883 5.81138 97.8616 5.60856 98.062 5.3705L99.6784 3.42998Z" fill="#81A713"/>
</svg>
