<svg width="21" height="20" viewBox="0 0 21 20" fill="none" xmlns="http://www.w3.org/2000/svg">
<path d="M9.08317 4.9974H12.4165C14.0832 4.9974 14.0832 4.16406 14.0832 3.33073C14.0832 1.66406 13.2498 1.66406 12.4165 1.66406H9.08317C8.24984 1.66406 7.4165 1.66406 7.4165 3.33073C7.4165 4.9974 8.24984 4.9974 9.08317 4.9974Z" stroke="#536179" stroke-width="1.5" stroke-miterlimit="10" stroke-linecap="round" stroke-linejoin="round"/>
<path d="M12.4167 18.3349H8.25C4.08333 18.3349 3.25 16.6682 3.25 13.3349V8.3349C3.25 4.5349 4.64167 3.50156 7.41667 3.35156" stroke="#536179" stroke-width="1.5" stroke-miterlimit="10" stroke-linecap="round" stroke-linejoin="round"/>
<path d="M14.0835 3.35156C16.8585 3.50156 18.2502 4.52656 18.2502 8.3349V12.5016" stroke="#536179" stroke-width="1.5" stroke-miterlimit="10" stroke-linecap="round" stroke-linejoin="round"/>
<path d="M17.0664 15.3468L15.0134 17.4408C14.9359 17.5203 14.8608 17.6769 14.8458 17.7854L14.7533 18.5661C14.7208 18.848 14.9309 19.0408 15.2209 18.9926L16.0262 18.8601C16.1387 18.8408 16.2962 18.7613 16.3738 18.6794L18.4268 16.5853C18.7819 16.2239 18.942 15.8118 18.3893 15.3082C17.8392 14.8094 17.4215 14.9853 17.0664 15.3468Z" stroke="#536179" stroke-miterlimit="10" stroke-linecap="round" stroke-linejoin="round"/>
<path d="M16.75 16C16.8289 16.5359 17.2399 16.9456 17.75 17" stroke="#536179" stroke-miterlimit="10" stroke-linecap="round" stroke-linejoin="round"/>
<path d="M6.75 10H9.9" stroke="#536179" stroke-width="1.5" stroke-linecap="round" stroke-linejoin="round"/>
<path d="M6.75 13.1484H12.6" stroke="#536179" stroke-width="1.5" stroke-linecap="round" stroke-linejoin="round"/>
</svg>
