<svg width="25" height="24" viewBox="0 0 25 24" fill="none" xmlns="http://www.w3.org/2000/svg">
<path opacity="0.4" d="M21.97 11.3899V17.3799C21.97 20.1399 19.73 22.3799 16.97 22.3799H8.22998C5.46998 22.3799 3.22998 20.1399 3.22998 17.3799V11.4599C3.98998 12.2799 5.06998 12.7499 6.23998 12.7499C7.49998 12.7499 8.70998 12.1199 9.46998 11.1099C10.15 12.1199 11.31 12.7499 12.6 12.7499C13.88 12.7499 15.02 12.1499 15.71 11.1499C16.48 12.1399 17.67 12.7499 18.91 12.7499C20.12 12.7499 21.22 12.2599 21.97 11.3899Z" fill="#81A713"/>
<path d="M15.5902 1.25H9.59019L8.85019 8.61C8.79019 9.29 8.89019 9.93 9.14019 10.51C9.72019 11.87 11.0802 12.75 12.6002 12.75C14.1402 12.75 15.4702 11.89 16.0702 10.52C16.2502 10.09 16.3602 9.59 16.3702 9.08V8.89L15.5902 1.25Z" fill="#81A713"/>
<path opacity="0.6" d="M22.9601 8.27L22.6701 5.5C22.2501 2.48 20.8801 1.25 17.9501 1.25H14.1101L14.8501 8.75C14.8601 8.85 14.8701 8.96 14.8701 9.15C14.9301 9.67 15.0901 10.15 15.3301 10.58C16.0501 11.9 17.4501 12.75 18.9101 12.75C20.2401 12.75 21.4401 12.16 22.1901 11.12C22.7901 10.32 23.0601 9.31 22.9601 8.27Z" fill="#81A713"/>
<path opacity="0.6" d="M7.18999 1.25C4.24999 1.25 2.88999 2.48 2.45999 5.53L2.18999 8.28C2.08999 9.35 2.37999 10.39 3.00999 11.2C3.76999 12.19 4.93999 12.75 6.23999 12.75C7.69999 12.75 9.09999 11.9 9.80999 10.6C10.07 10.15 10.24 9.63 10.29 9.09L11.07 1.26H7.18999V1.25Z" fill="#81A713"/>
<path d="M11.9502 16.6602C10.6802 16.7902 9.72021 17.8702 9.72021 19.1502V22.3802H15.4702V19.5002C15.4802 17.4102 14.2502 16.4202 11.9502 16.6602Z" fill="#81A713"/>
</svg>
