<svg width="52" height="52" viewBox="0 0 52 52" fill="none" xmlns="http://www.w3.org/2000/svg">
<path fill-rule="evenodd" clip-rule="evenodd" d="M25.7698 51.9981C40.002 51.9981 51.5395 40.3579 51.5395 25.999C51.5395 11.6402 40.002 0 25.7698 0C11.5375 0 0 11.6402 0 25.999C0 40.3579 11.5375 51.9981 25.7698 51.9981ZM25.582 39.3042C32.7616 39.3042 38.5819 33.4321 38.5819 26.1886C38.5819 18.9451 32.7616 13.073 25.582 13.073C18.4023 13.073 12.582 18.9451 12.582 26.1886C12.582 33.4321 18.4023 39.3042 25.582 39.3042Z" fill="#C34834"/>
<path d="M25.7695 30.5247C25.7695 28.7207 27.9698 27.8387 29.2158 29.1433L37.9641 38.3025L48.483 48.5671C49.7667 49.8197 48.8799 51.9985 47.0862 51.9985H27.7695C26.665 51.9985 25.7695 51.103 25.7695 49.9985V30.5247Z" fill="#F36A56"/>
</svg>
