<svg width="24" height="24" viewBox="0 0 24 24" fill="none" xmlns="http://www.w3.org/2000/svg">
<path d="M14.2768 9.72282L9.72282 14.2768C9.13783 13.6918 8.77783 12.8908 8.77783 11.9998C8.77783 10.2178 10.2178 8.77783 11.9998 8.77783C12.8908 8.77783 13.6918 9.13783 14.2768 9.72282Z" stroke="white" stroke-width="1.25" stroke-linecap="round" stroke-linejoin="round"/>
<path d="M17.2377 6.39311C15.6627 5.20512 13.8627 4.55713 11.9998 4.55713C8.82279 4.55713 5.86183 6.42911 3.80085 9.66907C2.99086 10.9381 2.99086 13.071 3.80085 14.34C4.51184 15.456 5.33983 16.419 6.23982 17.193" stroke="white" stroke-width="1.25" stroke-linecap="round" stroke-linejoin="round"/>
<path d="M8.77783 18.7768C9.80382 19.2088 10.8928 19.4428 11.9998 19.4428C15.1768 19.4428 18.1377 17.5708 20.1987 14.3308C21.0087 13.0619 21.0087 10.9289 20.1987 9.6599C19.9017 9.1919 19.5777 8.75091 19.2447 8.33691" stroke="white" stroke-width="1.25" stroke-linecap="round" stroke-linejoin="round"/>
<path d="M15.1591 12.6299C14.9251 13.8989 13.8901 14.9339 12.6211 15.1679" stroke="white" stroke-width="1.25" stroke-linecap="round" stroke-linejoin="round"/>
<path d="M9.72292 14.2773L3 21.0003" stroke="white" stroke-width="1.25" stroke-linecap="round" stroke-linejoin="round"/>
<path d="M21.0003 3L14.2773 9.72292" stroke="white" stroke-width="1.25" stroke-linecap="round" stroke-linejoin="round"/>
</svg>
