<svg width="20" height="22" viewBox="0 0 20 22" fill="none" xmlns="http://www.w3.org/2000/svg">
<path d="M3.39844 1.10156H16.5984C17.6984 1.10156 18.5984 2.00156 18.5984 3.10156V5.30156C18.5984 6.10156 18.0984 7.10156 17.5984 7.60156L13.2984 11.4016C12.6984 11.9016 12.2984 12.9016 12.2984 13.7016V18.0016C12.2984 18.6016 11.8984 19.4016 11.3984 19.7016L9.99844 20.6016C8.69844 21.4016 6.89844 20.5016 6.89844 18.9016V13.6016C6.89844 12.9016 6.49844 12.0016 6.09844 11.5016L2.29844 7.50156C1.79844 7.00156 1.39844 6.10156 1.39844 5.50156V3.20156C1.39844 2.00156 2.29844 1.10156 3.39844 1.10156Z" stroke="#292D32" stroke-width="1.5" stroke-miterlimit="10" stroke-linecap="round" stroke-linejoin="round"/>
</svg>
