<svg width="15" height="16" viewBox="0 0 15 16" fill="none" xmlns="http://www.w3.org/2000/svg">
<path d="M13.625 4.25V11.75C13.625 12.7764 13.3639 13.537 12.8888 14.0393C12.4198 14.5352 11.6516 14.875 10.4306 14.875H4.31944C3.09845 14.875 2.33018 14.5352 1.8612 14.0393C1.38614 13.537 1.125 12.7764 1.125 11.75V4.25C1.125 3.22356 1.38614 2.463 1.8612 1.96071C2.33018 1.46484 3.09845 1.125 4.31944 1.125H10.4306C11.6516 1.125 12.4198 1.46484 12.8888 1.96071C13.3639 2.463 13.625 3.22356 13.625 4.25Z" stroke="#1F242D" stroke-width="1.25" stroke-miterlimit="10" stroke-linecap="round" stroke-linejoin="round"/>
<path d="M4.32031 8H8.90365" stroke="#1F242D" stroke-width="1.25" stroke-miterlimit="10" stroke-linecap="round" stroke-linejoin="round"/>
<path d="M4.32031 5H7.37587" stroke="#292D32" stroke-width="1.25" stroke-miterlimit="10" stroke-linecap="round" stroke-linejoin="round"/>
<path d="M4.32031 11H10.4314" stroke="#292D32" stroke-width="1.25" stroke-miterlimit="10" stroke-linecap="round" stroke-linejoin="round"/>
</svg>
