<svg width="20" height="20" viewBox="0 0 20 20" fill="none" xmlns="http://www.w3.org/2000/svg">
<path d="M12.5003 17.5827H7.50033C5.49096 17.5827 4.27952 17.1762 3.55149 16.4482C2.82346 15.7202 2.41699 14.5087 2.41699 12.4993V7.49935C2.41699 5.48999 2.82346 4.27854 3.55149 3.55051C4.27952 2.82248 5.49096 2.41602 7.50033 2.41602H12.5003C14.5097 2.41602 15.7211 2.82248 16.4492 3.55051C17.1772 4.27854 17.5837 5.48999 17.5837 7.49935V12.4993C17.5837 14.5087 17.1772 15.7202 16.4492 16.4482C15.7211 17.1762 14.5097 17.5827 12.5003 17.5827Z" stroke="#A4AFC1" stroke-width="1.5" stroke-linecap="round" stroke-linejoin="round"/>
<path d="M7.50065 8.33333C8.42113 8.33333 9.16732 7.58714 9.16732 6.66667C9.16732 5.74619 8.42113 5 7.50065 5C6.58018 5 5.83398 5.74619 5.83398 6.66667C5.83398 7.58714 6.58018 8.33333 7.50065 8.33333Z" stroke="#A4AFC1" stroke-width="1.5" stroke-linecap="round" stroke-linejoin="round"/>
<path d="M3.33398 15.8333L6.94711 13.0562C7.52609 12.6115 8.36158 12.6618 8.88192 13.1736L9.12378 13.4169C9.69543 13.9791 10.6189 13.9791 11.1905 13.4169L14.2393 10.4216C14.811 9.85946 15.7344 9.85946 16.306 10.4216L17.5007 11.5962" stroke="#A4AFC1" stroke-width="1.5" stroke-linecap="round" stroke-linejoin="round"/>
</svg>
