<svg width="40" height="40" viewBox="0 0 40 40" fill="none" xmlns="http://www.w3.org/2000/svg">
<circle cx="20" cy="20" r="19.5" fill="white" stroke="#E1E4EA"/>
<path d="M23 29.25H17C14.574 29.25 13.0709 28.7602 12.1553 27.8447C11.2398 26.9291 10.75 25.426 10.75 23V17C10.75 14.574 11.2398 13.0709 12.1553 12.1553C13.0709 11.2398 14.574 10.75 17 10.75H23C25.426 10.75 26.9291 11.2398 27.8447 12.1553C28.7602 13.0709 29.25 14.574 29.25 17V23C29.25 25.426 28.7602 26.9291 27.8447 27.8447C26.9291 28.7602 25.426 29.25 23 29.25Z" stroke="#1F242D" stroke-width="1.5" stroke-linecap="round" stroke-linejoin="round"/>
<path d="M17 18C18.1046 18 19 17.1046 19 16C19 14.8954 18.1046 14 17 14C15.8954 14 15 14.8954 15 16C15 17.1046 15.8954 18 17 18Z" stroke="#1F242D" stroke-width="1.5" stroke-linecap="round" stroke-linejoin="round"/>
<path d="M12 27L16.3357 23.6674C17.0305 23.1338 18.0331 23.1942 18.6575 23.8083L18.9477 24.1003C19.6337 24.7749 20.7419 24.7749 21.4278 24.1003L25.0864 20.5059C25.7724 19.8314 26.8805 19.8314 27.5665 20.5059L29 21.9155" stroke="#1F242D" stroke-width="1.5" stroke-linecap="round" stroke-linejoin="round"/>
</svg>
