<svg width="16" height="16" viewBox="0 0 16 16" fill="none" xmlns="http://www.w3.org/2000/svg">
<path d="M8.0026 14.6654C11.6845 14.6654 14.6693 11.6806 14.6693 7.9987C14.6693 4.3168 11.6845 1.33203 8.0026 1.33203C4.32071 1.33203 1.33594 4.3168 1.33594 7.9987C1.33594 11.6806 4.32071 14.6654 8.0026 14.6654Z" stroke="#536179" stroke-width="1.25" stroke-linecap="round" stroke-linejoin="round"/>
<path d="M5.33177 2H5.99844C4.69844 5.89333 4.69844 10.1067 5.99844 14H5.33177" stroke="#536179" stroke-width="1.25" stroke-linecap="round" stroke-linejoin="round"/>
<path d="M10 2C11.3 5.89333 11.3 10.1067 10 14" stroke="#536179" stroke-width="1.25" stroke-linecap="round" stroke-linejoin="round"/>
<path d="M2 10.6667V10C5.89333 11.3 10.1067 11.3 14 10V10.6667" stroke="#536179" stroke-width="1.25" stroke-linecap="round" stroke-linejoin="round"/>
<path d="M2 5.99844C5.89333 4.69844 10.1067 4.69844 14 5.99844" stroke="#536179" stroke-width="1.25" stroke-linecap="round" stroke-linejoin="round"/>
</svg>
