<svg width="40" height="39" viewBox="0 0 40 39" fill="none" xmlns="http://www.w3.org/2000/svg">
<path fill-rule="evenodd" clip-rule="evenodd" d="M40 19.5C40 14.1207 37.7391 9.24569 34.087 5.71552C30.4348 2.18535 25.3913 6.23839e-07 20 4.9138e-07C14.4348 3.54648e-07 9.39129 2.18535 5.91303 5.71552C2.26086 9.24569 -4.76273e-07 14.1207 -6.5771e-07 19.5C-8.39148e-07 24.8793 2.26086 29.7543 5.91303 33.2845C9.56521 36.8147 14.4348 39 20 39L20.1739 39C25.5652 39 30.4348 36.8147 34.087 33.2845C37.7391 29.7543 40 24.8793 40 19.5Z" fill="#FCCA00"/>
<path fill-rule="evenodd" clip-rule="evenodd" d="M34.087 5.71552C30.4348 2.18535 25.3913 6.23839e-07 20 4.9138e-07C14.4348 3.54648e-07 9.39129 2.18535 5.91303 5.71552C2.26086 9.24569 -4.76273e-07 14.1207 -6.5771e-07 19.5C-8.39148e-07 24.8793 2.26086 29.7543 5.91303 33.2845L34.087 5.71552Z" fill="#FFDD5D"/>
<path fill-rule="evenodd" clip-rule="evenodd" d="M35.478 19.4995C35.478 15.2969 33.7388 11.5987 30.9562 8.90902C28.1736 6.21936 24.3476 4.53833 19.9997 4.53833C15.6519 4.53833 11.8258 6.21936 9.04318 8.90902C6.26057 11.5987 4.52148 15.2969 4.52148 19.4995C4.52148 23.7021 6.26057 27.4004 9.04318 30.09C11.8258 32.7797 15.6519 34.4607 19.9997 34.4607L20.1737 34.4607C24.3476 34.4607 28.1736 32.7797 30.9562 30.09C33.7388 27.4004 35.478 23.7021 35.478 19.4995Z" fill="#F7A200"/>
<path fill-rule="evenodd" clip-rule="evenodd" d="M30.9562 8.90902L9.04318 30.09C6.26057 27.4004 4.52148 23.7021 4.52148 19.4995C4.52148 15.2969 6.26057 11.5987 9.04318 8.90902C11.8258 6.21936 15.6519 4.53833 19.9997 4.53833C24.1737 4.53833 28.1736 6.21936 30.9562 8.90902Z" fill="#FDBA29"/>
<path fill-rule="evenodd" clip-rule="evenodd" d="M9.04318 10.4219C11.8258 7.73229 15.6519 6.05125 19.9997 6.05125C24.3476 6.05125 28.1736 7.7323 30.9562 10.4219C33.5649 12.9435 35.3041 16.4737 35.478 20.34C35.478 20.0038 35.478 19.8357 35.478 19.4995C35.478 15.2969 33.7388 11.5987 30.9562 8.90902C28.1736 6.21936 24.3476 4.53833 19.9997 4.53833C15.6519 4.53833 11.8258 6.21936 9.04318 8.90902C6.26057 11.5987 4.52148 15.2969 4.52148 19.4995C4.52148 19.8357 4.52148 20.0038 4.52148 20.34C4.6954 16.4737 6.43448 12.9435 9.04318 10.4219Z" fill="#F38E03"/>
<path d="M28.347 11.0936L11.6514 11.0936L11.6514 14.1195L15.3036 14.1195C15.8253 14.1195 16.6949 14.1195 17.5645 14.4557C18.2601 14.7919 18.6079 15.2962 18.7818 15.9686L11.8253 15.9686L11.8253 18.9945L18.9557 18.9945C18.9557 20.1712 18.434 20.8436 17.7383 21.1798C17.0427 21.516 15.9992 21.516 15.4775 21.516L11.9992 21.516L11.9992 24.3738L19.1297 31.7704L27.3035 31.7704L26.0862 30.5936L18.9557 24.8781C19.4775 24.8781 19.9992 24.71 20.347 24.5419C21.0427 24.2057 21.7383 23.7014 22.2601 23.1971C23.3035 22.1885 23.8253 20.6755 23.9992 18.9945L28.6949 18.9945L28.6949 15.9686L23.9992 15.9686C23.9992 15.4643 23.8253 14.96 23.6514 14.4557C23.6514 14.2876 23.4775 14.1195 23.4775 13.9514L28.6949 13.9514L28.6949 11.0936L28.347 11.0936Z" fill="#F38E03"/>
<path d="M28.3509 9.75452L11.6553 9.75452L11.6553 12.7804L15.3075 12.7804C15.8292 12.7804 16.6988 12.7804 17.5684 13.1166C18.264 13.4528 18.6118 13.9571 18.7857 14.6295L11.8292 14.6295L11.8292 17.6554L18.9596 17.6554C18.9596 18.8321 18.4379 19.5045 17.7422 19.8407C17.0466 20.1769 16.0031 20.1769 15.4814 20.1769L12.0031 20.1769L12.0031 22.6985L19.4814 30.4312L26.0901 30.4312L18.9596 23.539C19.4814 23.539 20.0031 23.3709 20.3509 23.2028C21.0466 22.8666 21.7422 22.3623 22.264 21.858C23.3075 20.8493 23.8292 19.3364 24.0031 17.6554L28.6988 17.6554L28.6988 14.6295L24.0031 14.6295C24.0031 14.1252 23.8292 13.6209 23.6553 13.1166C23.6553 12.9485 23.4814 12.7804 23.4814 12.6123L28.6988 12.6123L28.6988 9.75452L28.3509 9.75452Z" fill="#FFDD5D"/>
</svg>
