<svg width="1015" height="929" viewBox="0 0 1015 929" fill="none" xmlns="http://www.w3.org/2000/svg">
<path fill-rule="evenodd" clip-rule="evenodd" d="M952.578 464.238C952.578 336.238 898.781 220.238 811.878 136.238C724.975 52.2384 604.966 0.238296 476.681 0.238293C344.257 0.23829 224.248 52.2383 141.483 136.238C54.58 220.238 0.783192 336.238 0.783187 464.238C0.783183 592.238 54.58 708.238 141.483 792.238C228.386 876.238 344.257 928.238 476.681 928.238L480.819 928.238C609.105 928.238 724.975 876.238 811.878 792.238C898.781 708.238 952.578 592.238 952.578 464.238Z" fill="#FCCA00"/>
<path fill-rule="evenodd" clip-rule="evenodd" d="M811.878 136.238C724.975 52.2383 604.966 0.238296 476.681 0.238293C344.257 0.23829 224.248 52.2383 141.483 136.238C54.58 220.238 0.783192 336.238 0.783187 464.238C0.783183 592.238 54.58 708.238 141.483 792.238L811.878 136.238Z" fill="#FFDD5D"/>
<path fill-rule="evenodd" clip-rule="evenodd" d="M844.977 464.221C844.977 364.221 803.594 276.222 737.382 212.222C671.171 148.222 580.13 108.222 476.674 108.222C373.218 108.222 282.176 148.222 215.964 212.222C149.752 276.222 108.371 364.221 108.371 464.221C108.371 564.221 149.752 652.221 215.964 716.221C282.176 780.221 373.218 820.221 476.674 820.221L480.812 820.221C580.13 820.221 671.171 780.221 737.382 716.221C803.594 652.221 844.977 564.221 844.977 464.221Z" fill="#F7A200"/>
<path fill-rule="evenodd" clip-rule="evenodd" d="M737.383 212.222L215.964 716.221C149.752 652.221 108.371 564.221 108.371 464.221C108.371 364.221 149.752 276.222 215.964 212.222C282.176 148.222 373.218 108.222 476.674 108.222C575.992 108.222 671.171 148.222 737.383 212.222Z" fill="#FDBA29"/>
<path fill-rule="evenodd" clip-rule="evenodd" d="M215.964 248.222C282.176 184.222 373.218 144.221 476.674 144.221C580.13 144.221 671.171 184.222 737.382 248.222C799.456 308.222 840.839 392.221 844.977 484.221C844.977 476.221 844.977 472.221 844.977 464.221C844.977 364.221 803.594 276.222 737.382 212.222C671.171 148.222 580.13 108.222 476.674 108.222C373.218 108.222 282.176 148.222 215.964 212.222C149.752 276.222 108.371 364.221 108.371 464.221C108.371 472.221 108.371 476.221 108.371 484.221C112.509 392.221 153.891 308.222 215.964 248.222Z" fill="#F38E03"/>
<path d="M675.322 264.213L278.051 264.213L278.051 336.213L364.954 336.213C377.369 336.213 398.061 336.213 418.752 344.213C435.305 352.213 443.58 364.213 447.719 380.213L282.189 380.213L282.189 452.213L451.857 452.213C451.857 480.213 439.442 496.213 422.889 504.213C406.336 512.213 381.507 512.213 369.092 512.213L286.328 512.213L286.328 580.213L455.996 756.213L650.492 756.213L621.525 728.213L451.857 592.213C464.272 592.213 476.686 588.213 484.963 584.213C501.516 576.213 518.069 564.213 530.483 552.213C555.313 528.213 567.728 492.213 571.866 452.213L683.599 452.213L683.599 380.213L571.866 380.213C571.866 368.213 567.728 356.213 563.59 344.213C563.59 340.213 559.452 336.213 559.452 332.213L683.599 332.213L683.599 264.213L675.322 264.213Z" fill="#F38E03"/>
<path d="M675.412 232.355L278.141 232.354L278.141 304.354L365.044 304.354C377.459 304.354 398.15 304.354 418.842 312.354C435.395 320.354 443.67 332.355 447.809 348.355L282.279 348.355L282.279 420.354L451.947 420.354C451.947 448.354 439.532 464.355 422.979 472.355C406.426 480.355 381.597 480.354 369.182 480.354L286.418 480.354L286.418 540.354L464.361 724.354L621.615 724.354L451.947 560.354C464.362 560.354 476.776 556.355 485.052 552.355C501.605 544.355 518.159 532.354 530.573 520.354C555.403 496.354 567.817 460.354 571.956 420.354L683.689 420.354L683.689 348.355L571.956 348.355C571.956 336.355 567.818 324.355 563.68 312.355C563.68 308.355 559.541 304.354 559.541 300.354L683.689 300.354L683.689 232.355L675.412 232.355Z" fill="#FFDD5D"/>
<circle cx="815.963" cy="673.066" r="198.285" fill="white"/>
<path d="M812.946 573.949V772.234M722.816 676.096H909.084" stroke="#81A713" stroke-width="33" stroke-linecap="round"/>
</svg>
