<svg width="24" height="24" viewBox="0 0 24 24" fill="none" xmlns="http://www.w3.org/2000/svg">
<path d="M13.8602 1.33678C13.0965 1.09583 12.2781 0.963989 11.4325 0.963989C8.96389 0.963989 6.7544 2.07783 5.27686 3.83269L9.073 7.02418L13.8602 1.33678Z" fill="#1A73E8"/>
<path d="M5.27669 3.8327C4.05963 5.27825 3.39294 7.10761 3.39453 8.99728C3.39453 10.5066 3.69459 11.7341 4.19013 12.8298L9.07284 7.02419L5.27669 3.8327Z" fill="#EA4335"/>
<path d="M11.4326 5.92854C12.0187 5.92908 12.5923 6.09706 13.0861 6.41272C13.5799 6.72837 13.9732 7.17855 14.2197 7.71023C14.4661 8.24191 14.5556 8.83295 14.4774 9.41376C14.3993 9.99457 14.1568 10.5409 13.7785 10.9886L18.5612 5.30115C17.5795 3.40978 15.8871 1.98551 13.8558 1.34134L9.07764 7.02874C9.36554 6.68395 9.72572 6.40668 10.1327 6.21656C10.5396 6.02643 10.9834 5.92811 11.4326 5.92854Z" fill="#4285F4"/>
<path d="M11.4327 12.0751C9.73689 12.0751 8.35937 10.6976 8.35937 9.0018C8.35738 8.27976 8.61196 7.58049 9.07768 7.02872L4.19043 12.8343C5.02695 14.6847 6.41356 16.1713 7.84109 18.0444L13.7785 10.9885C13.4901 11.3294 13.1307 11.6032 12.7256 11.7908C12.3204 11.9785 11.8792 12.0755 11.4327 12.0751Z" fill="#FBBC04"/>
<path d="M13.6604 19.9675C16.3427 15.7758 19.466 13.8709 19.466 8.99727C19.466 7.66067 19.1387 6.40135 18.5613 5.29205L7.8457 18.0444C8.30033 18.6399 8.75951 19.2719 9.20504 19.972C10.8326 22.4906 10.3825 24 11.4327 24C12.4829 24 12.0328 22.4861 13.6604 19.9675Z" fill="#34A853"/>
</svg>
