<svg width="24" height="24" viewBox="0 0 24 24" fill="none" xmlns="http://www.w3.org/2000/svg">
<circle cx="12" cy="12" r="12" fill="#F0F2F5"/>
<g clip-path="url(#clip0_1320_76008)">
<path d="M18.3366 7.81574C17.1746 7.59435 15.3009 7.29494 14.7775 8.32489C13.1777 10.9339 12.2592 13.6645 11.5679 14.8361C11.6405 14.8756 14.8269 16.6163 15.0523 16.7193C15.7687 17.0466 16.9647 16.8994 17.4742 16.0341C18.8876 13.6339 18.5283 14.2588 20.0301 11.8098C21.0005 10.2271 19.7872 8.09206 18.3366 7.81574Z" fill="#EA4335"/>
<path d="M8.28213 18.4085C7.50186 17.568 6.92948 15.8865 7.6151 14.9448C9.61801 11.6782 11.2214 9.70084 12.4824 7.71875C13.151 8.08226 15.8302 9.51315 16.0086 9.66059C16.6072 10.155 17.103 11.0997 16.562 11.9477C15.061 14.3004 14.4452 15.3651 12.9196 17.8531C11.9489 19.4361 9.2569 19.4585 8.28213 18.4085Z" fill="#FDBD00"/>
<path d="M15.4666 6.15165C13.9057 5.29284 13.1034 5.40539 12.264 5.53215C11.5008 5.71177 10.469 6.23395 10.034 6.9048C8.93667 8.59705 7.89733 10.2716 6.55091 12.5408C6.13621 13.2397 6.44403 14.0984 6.82674 14.4392C7.0861 14.6702 8.99443 15.6616 9.34654 15.8041C9.84461 16.0057 10.5907 15.8654 11.0408 15.4293C11.165 15.3088 14.0119 10.7047 14.8136 9.34669C15.1521 8.77364 15.4569 8.45652 15.9629 8.15083C16.9406 7.6678 17.7038 7.60549 18.873 8.00802C18.873 8.00802 16.3284 6.61931 15.4666 6.15165Z" fill="#2DA94F"/>
<path d="M5.42331 16.9565C3.85289 16.1132 3.55524 15.4027 3.25211 14.6548C3.03579 13.9428 3.00014 12.8402 3.39968 12.15C4.40762 10.4092 4.40037 10.4004 5.81436 8.16786C6.24985 7.48026 7.19358 7.30195 7.69839 7.44359C8.04055 7.53954 9.90649 8.59995 10.2137 8.81583C10.6482 9.12117 10.8922 9.79967 10.716 10.3848C10.6674 10.5463 8.88363 13.4939 8.03557 14.8267C7.6776 15.3891 7.53837 15.7962 7.51026 16.3616C7.55477 17.4004 7.87906 18.0539 8.83392 18.806C8.83392 18.806 6.28433 17.4254 5.42331 16.9565Z" fill="#297AEC"/>
</g>
<defs>
<clipPath id="clip0_1320_76008">
<rect width="18" height="14.25" fill="white" transform="translate(3 5.25)"/>
</clipPath>
</defs>
</svg>
