<svg width="32" height="32" viewBox="0 0 32 32" fill="none" xmlns="http://www.w3.org/2000/svg">
<rect width="32" height="32" rx="4" fill="#F0F2F5"/>
<path d="M12 7H9C7.89543 7 7 7.89543 7 9V12C7 13.1046 7.89543 14 9 14H12C13.1046 14 14 13.1046 14 12V9C14 7.89543 13.1046 7 12 7Z" stroke="#536179" stroke-width="1.5" stroke-linecap="round" stroke-linejoin="round"/>
<path d="M23 7H20C18.8954 7 18 7.89543 18 9V12C18 13.1046 18.8954 14 20 14H23C24.1046 14 25 13.1046 25 12V9C25 7.89543 24.1046 7 23 7Z" stroke="#536179" stroke-width="1.5" stroke-linecap="round" stroke-linejoin="round"/>
<path d="M23 18H20C18.8954 18 18 18.8954 18 20V23C18 24.1046 18.8954 25 20 25H23C24.1046 25 25 24.1046 25 23V20C25 18.8954 24.1046 18 23 18Z" stroke="#536179" stroke-width="1.5" stroke-linecap="round" stroke-linejoin="round"/>
<path d="M12 18H9C7.89543 18 7 18.8954 7 20V23C7 24.1046 7.89543 25 9 25H12C13.1046 25 14 24.1046 14 23V20C14 18.8954 13.1046 18 12 18Z" stroke="#536179" stroke-width="1.5" stroke-linecap="round" stroke-linejoin="round"/>
</svg>
