<svg width="20" height="21" viewBox="0 0 20 21" fill="none" xmlns="http://www.w3.org/2000/svg">
<path d="M17.9087 10.4987C18.1753 9.64872 18.3337 8.73205 18.3337 7.74039C18.3337 5.16539 16.2587 3.08203 13.7003 3.08203C12.1837 3.08203 10.842 3.81541 10.0003 4.94874C9.15866 3.81541 7.80866 3.08203 6.30033 3.08203C3.74199 3.08203 1.66699 5.16539 1.66699 7.74039C1.66699 13.5737 7.06699 17.0154 9.48366 17.8487C9.62533 17.8987 9.80866 17.9237 10.0003 17.9237" stroke="#343D4C" stroke-width="1.5" stroke-linecap="round" stroke-linejoin="round"/>
<path d="M16.0085 13.6181L13.0585 16.5682C12.9419 16.6848 12.8335 16.9015 12.8085 17.0598L12.6502 18.1848C12.5919 18.5931 12.8752 18.8765 13.2835 18.8181L14.4085 18.6598C14.5669 18.6348 14.7919 18.5265 14.9002 18.4098L17.8502 15.4598C18.3585 14.9515 18.6002 14.3598 17.8502 13.6098C17.1085 12.8681 16.5169 13.1098 16.0085 13.6181Z" stroke="#343D4C" stroke-width="1.5" stroke-miterlimit="10" stroke-linecap="round" stroke-linejoin="round"/>
<path d="M15.584 14.043C15.834 14.943 16.534 15.6429 17.434 15.8929" stroke="#343D4C" stroke-width="1.5" stroke-miterlimit="10" stroke-linecap="round" stroke-linejoin="round"/>
</svg>
