<svg width="16" height="16" viewBox="0 0 16 16" fill="none" xmlns="http://www.w3.org/2000/svg">
<path d="M14.0404 7.9987C14.0404 11.3202 11.3202 14.0404 7.9987 14.0404C4.67721 14.0404 1.95703 11.3202 1.95703 7.9987C1.95703 4.67721 4.67721 1.95703 7.9987 1.95703C11.3202 1.95703 14.0404 4.67721 14.0404 7.9987Z" stroke="#81A713" stroke-width="1.25" stroke-linecap="round" stroke-linejoin="round"/>
<path d="M6 6.33632C6.15674 5.89076 6.4661 5.51506 6.8733 5.27574C7.2805 5.03642 7.75926 4.94894 8.22478 5.02879C8.69031 5.10864 9.11254 5.35067 9.41672 5.712C9.72089 6.07334 9.88737 6.53067 9.88667 7.00298C9.88667 8.33632 7.88667 9.00298 7.88667 9.00298" stroke="#81A713" stroke-width="1.25" stroke-linecap="round" stroke-linejoin="round"/>
<path d="M7.94141 11.0039H7.94807" stroke="#81A713" stroke-width="1.25" stroke-linecap="round" stroke-linejoin="round"/>
</svg>
