<svg width="20" height="20" viewBox="0 0 20 20" fill="none" xmlns="http://www.w3.org/2000/svg">
<path d="M19.25 10C19.25 15.0858 15.0858 19.25 10 19.25C4.91421 19.25 0.75 15.0858 0.75 10C0.75 4.91421 4.91421 0.75 10 0.75C15.0858 0.75 19.25 4.91421 19.25 10Z" stroke="#1F242D" stroke-width="1.5" stroke-linecap="round" stroke-linejoin="round"/>
<path d="M7 7.50448C7.2351 6.83614 7.69915 6.27258 8.30995 5.91361C8.92076 5.55463 9.6389 5.42341 10.3372 5.54319C11.0355 5.66296 11.6688 6.026 12.1251 6.568C12.5813 7.11001 12.8311 7.796 12.83 8.50448C12.83 10.5045 9.83 11.5045 9.83 11.5045" stroke="#1F242D" stroke-width="1.5" stroke-linecap="round" stroke-linejoin="round"/>
<path d="M9.90991 14.5044H9.91991" stroke="#1F242D" stroke-width="1.5" stroke-linecap="round" stroke-linejoin="round"/>
</svg>
