<svg width="24" height="24" viewBox="0 0 24 24" fill="none" xmlns="http://www.w3.org/2000/svg">
<path d="M12.0029 18.1157V15.0586" stroke="#1F242D" stroke-width="1.5" stroke-linecap="round" stroke-linejoin="round"/>
<path d="M10.5474 3.22943L10.5478 3.22913C11.3301 2.58983 12.6628 2.58755 13.458 3.23879L13.4595 3.24004L20.3875 8.88386C20.3878 8.88413 20.3881 8.88439 20.3884 8.88466C20.6453 9.09586 20.8966 9.46365 21.0646 9.91216C21.2322 10.3598 21.287 10.8089 21.2329 11.1493C21.2328 11.1498 21.2327 11.1503 21.2326 11.1508L19.9034 19.2575C19.9034 19.2579 19.9033 19.2582 19.9033 19.2586C19.7212 20.3448 18.6549 21.25 17.6032 21.25H6.40319C5.34061 21.25 4.28516 20.3541 4.10319 19.2589C4.10315 19.2587 4.10312 19.2585 4.10309 19.2583L2.77331 11.1481L2.77333 11.1481L2.77256 11.1436C2.71504 10.8057 2.76717 10.3587 2.93433 9.91216C3.10165 9.46525 3.35455 9.09804 3.61526 8.88686L3.61527 8.88686L3.6174 8.88512L10.5474 3.22943Z" stroke="#1F242D" stroke-width="1.5" stroke-linecap="round" stroke-linejoin="round"/>
</svg>
