<svg width="25" height="24" viewBox="0 0 25 24" fill="none" xmlns="http://www.w3.org/2000/svg">
<path opacity="0.4" d="M21.6298 8.01002L15.0798 2.77002C13.7998 1.75002 11.7998 1.74002 10.5298 2.76002L3.97977 8.01002C3.03977 8.76002 2.46977 10.26 2.66977 11.44L3.92977 18.98C4.21977 20.67 5.78977 22 7.49977 22H18.0998C19.7898 22 21.3898 20.64 21.6798 18.97L22.9398 11.43C23.1198 10.26 22.5498 8.76002 21.6298 8.01002Z" fill="#A4AFC1"/>
<path d="M12.7998 18.75C12.3898 18.75 12.0498 18.41 12.0498 18V15C12.0498 14.59 12.3898 14.25 12.7998 14.25C13.2098 14.25 13.5498 14.59 13.5498 15V18C13.5498 18.41 13.2098 18.75 12.7998 18.75Z" fill="#A4AFC1"/>
</svg>
