<svg width="25" height="24" viewBox="0 0 25 24" fill="none" xmlns="http://www.w3.org/2000/svg">
<path opacity="0.4" d="M16.39 2H8.00995C4.36995 2 2.19995 4.17 2.19995 7.81V16.18C2.19995 19.83 4.36995 22 8.00995 22H16.38C20.02 22 22.19 19.83 22.19 16.19V7.81C22.2 4.17 20.03 2 16.39 2Z" fill="#81A713"/>
<path d="M12.2 13C11.64 13 11.2 12.55 11.2 12C11.2 11.45 11.65 11 12.2 11C12.75 11 13.2 11.45 13.2 12C13.2 12.55 12.76 13 12.2 13Z" fill="#81A713"/>
<path d="M16.2 13C15.64 13 15.2 12.55 15.2 12C15.2 11.45 15.65 11 16.2 11C16.75 11 17.2 11.45 17.2 12C17.2 12.55 16.76 13 16.2 13Z" fill="#81A713"/>
<path d="M8.19995 13C7.63995 13 7.19995 12.55 7.19995 12C7.19995 11.45 7.64995 11 8.19995 11C8.74995 11 9.19995 11.45 9.19995 12C9.19995 12.55 8.75995 13 8.19995 13Z" fill="#81A713"/>
</svg>
