<svg width="20" height="20" viewBox="0 0 20 20" fill="none" xmlns="http://www.w3.org/2000/svg">
<path d="M9.99935 1.66797C5.40768 1.66797 1.66602 5.40964 1.66602 10.0013C1.66602 14.593 5.40768 18.3346 9.99935 18.3346C14.591 18.3346 18.3327 14.593 18.3327 10.0013C18.3327 5.40964 14.591 1.66797 9.99935 1.66797ZM9.37435 6.66797C9.37435 6.3263 9.65768 6.04297 9.99935 6.04297C10.341 6.04297 10.6243 6.3263 10.6243 6.66797V10.8346C10.6243 11.1763 10.341 11.4596 9.99935 11.4596C9.65768 11.4596 9.37435 11.1763 9.37435 10.8346V6.66797ZM10.766 13.6513C10.7243 13.7596 10.666 13.843 10.591 13.9263C10.5077 14.0013 10.416 14.0596 10.316 14.1013C10.216 14.143 10.1077 14.168 9.99935 14.168C9.89102 14.168 9.78268 14.143 9.68268 14.1013C9.58268 14.0596 9.49102 14.0013 9.40768 13.9263C9.33268 13.843 9.27435 13.7596 9.23268 13.6513C9.19102 13.5513 9.16602 13.443 9.16602 13.3346C9.16602 13.2263 9.19102 13.118 9.23268 13.018C9.27435 12.918 9.33268 12.8263 9.40768 12.743C9.49102 12.668 9.58268 12.6096 9.68268 12.568C9.88268 12.4846 10.116 12.4846 10.316 12.568C10.416 12.6096 10.5077 12.668 10.591 12.743C10.666 12.8263 10.7243 12.918 10.766 13.018C10.8077 13.118 10.8327 13.2263 10.8327 13.3346C10.8327 13.443 10.8077 13.5513 10.766 13.6513Z" fill="#FFB933"/>
</svg>
