<svg width="13" height="13" viewBox="0 0 13 13" fill="none" xmlns="http://www.w3.org/2000/svg">
<path d="M5.99046 7.03508C6.19769 7.35647 6.46894 7.62439 6.7858 7.8207C7.10267 8.017 7.45774 8.13708 7.82693 8.1728C8.19613 8.20853 8.57081 8.15905 8.92556 8.02773C9.28032 7.89641 9.60685 7.68632 9.88301 7.41171L11.5174 5.78704C12.0145 5.276 12.3093 4.5841 12.3383 3.86035C12.3673 3.13659 12.1282 2.4389 11.6726 1.91754C11.2169 1.39617 10.5811 1.09285 9.90212 1.0729C9.22312 1.05295 8.55526 1.31798 8.04236 1.81089L7.10557 2.73685" stroke="#888F98" stroke-width="0.9" stroke-linecap="round" stroke-linejoin="round"/>
<path d="M7.41554 5.74689C7.20831 5.4255 6.93706 5.15757 6.62019 4.96127C6.30333 4.76496 5.94826 4.64487 5.57906 4.60915C5.20987 4.57343 4.83519 4.6229 4.48043 4.75422C4.12568 4.88553 3.79915 5.09562 3.523 5.37023L1.8886 6.99491C1.39155 7.50594 1.09677 8.19784 1.06775 8.9216C1.03873 9.64536 1.2778 10.3431 1.73346 10.8644C2.18912 11.3858 2.82492 11.6891 3.50392 11.7091C4.18291 11.729 4.85078 11.464 5.36367 10.9711L6.29527 10.045" stroke="#888F98" stroke-width="0.9" stroke-linecap="round" stroke-linejoin="round"/>
</svg>
