<svg width="18" height="20" viewBox="0 0 18 20" fill="none" xmlns="http://www.w3.org/2000/svg">
<path d="M8.62 11.4314C10.3431 11.4314 11.74 10.0345 11.74 8.31141C11.74 6.58828 10.3431 5.19141 8.62 5.19141C6.89687 5.19141 5.5 6.58828 5.5 8.31141C5.5 10.0345 6.89687 11.4314 8.62 11.4314Z" stroke="#343D4C" stroke-width="1.5"/>
<path d="M16.2713 6.66556L16.2713 6.6656C17.3284 11.3354 14.4352 15.3756 11.7033 17.999L11.7019 18.0004C9.98345 19.659 7.26345 19.661 5.53295 17.9997C2.81084 15.3762 -0.0828848 11.3261 0.974175 6.65591C1.8674 2.73032 5.20926 0.747693 8.626 0.750002C12.0429 0.752312 15.3827 2.73971 16.2713 6.66556Z" stroke="#343D4C" stroke-width="1.5"/>
</svg>
