<svg width="24" height="24" viewBox="0 0 24 24" fill="none" xmlns="http://www.w3.org/2000/svg">
<mask id="path-1-inside-1_1671_18147" fill="white">
<path d="M6 10V8C6 4.69 7 2 12 2C17 2 18 4.69 18 8V10"/>
</mask>
<path d="M4.5 10C4.5 10.8284 5.17157 11.5 6 11.5C6.82843 11.5 7.5 10.8284 7.5 10H4.5ZM16.5 10C16.5 10.8284 17.1716 11.5 18 11.5C18.8284 11.5 19.5 10.8284 19.5 10H16.5ZM7.5 10V8H4.5V10H7.5ZM7.5 8C7.5 6.43473 7.75061 5.37324 8.29315 4.69972C8.77924 4.09627 9.75673 3.5 12 3.5V0.5C9.24327 0.5 7.22076 1.24873 5.95685 2.81778C4.74939 4.31676 4.5 6.25527 4.5 8H7.5ZM12 3.5C14.2433 3.5 15.2208 4.09627 15.7069 4.69972C16.2494 5.37324 16.5 6.43473 16.5 8H19.5C19.5 6.25527 19.2506 4.31676 18.0431 2.81778C16.7792 1.24873 14.7567 0.5 12 0.5V3.5ZM16.5 8V10H19.5V8H16.5Z" fill="#292D32" mask="url(#path-1-inside-1_1671_18147)"/>
<path d="M13.75 16C13.75 16.9665 12.9665 17.75 12 17.75C11.0335 17.75 10.25 16.9665 10.25 16C10.25 15.0335 11.0335 14.25 12 14.25C12.9665 14.25 13.75 15.0335 13.75 16Z" stroke="#292D32" stroke-width="1.5" stroke-linecap="round" stroke-linejoin="round"/>
<path d="M17 21.25H7C4.99464 21.25 4.04182 20.9812 3.53033 20.4697C3.01884 19.9582 2.75 19.0054 2.75 17V15C2.75 12.9946 3.01884 12.0418 3.53033 11.5303C4.04182 11.0188 4.99464 10.75 7 10.75H17C19.0054 10.75 19.9582 11.0188 20.4697 11.5303C20.9812 12.0418 21.25 12.9946 21.25 15V17C21.25 19.0054 20.9812 19.9582 20.4697 20.4697C19.9582 20.9812 19.0054 21.25 17 21.25Z" stroke="#292D32" stroke-width="1.5" stroke-linecap="round" stroke-linejoin="round"/>
</svg>
