<svg width="25" height="24" viewBox="0 0 25 24" fill="none" xmlns="http://www.w3.org/2000/svg">
<mask id="path-1-inside-1_3557_9134" fill="white">
<path d="M6.20007 9.9V7.8C6.20007 4.3245 7.25007 1.5 12.5001 1.5C17.7501 1.5 18.8001 4.3245 18.8001 7.8V9.9"/>
</mask>
<path d="M4.95007 9.9C4.95007 10.5904 5.50972 11.15 6.20007 11.15C6.89043 11.15 7.45007 10.5904 7.45007 9.9H4.95007ZM17.5501 9.9C17.5501 10.5904 18.1097 11.15 18.8001 11.15C19.4904 11.15 20.0501 10.5904 20.0501 9.9H17.5501ZM7.45007 9.9V7.8H4.95007V9.9H7.45007ZM7.45007 7.8C7.45007 6.13703 7.71308 4.92745 8.35478 4.13083C8.94944 3.3926 10.089 2.75 12.5001 2.75V0.25C9.66113 0.25 7.6507 1.01965 6.40787 2.56254C5.21206 4.04705 4.95007 5.98747 4.95007 7.8H7.45007ZM12.5001 2.75C14.9111 2.75 16.0507 3.3926 16.6454 4.13083C17.2871 4.92745 17.5501 6.13703 17.5501 7.8H20.0501C20.0501 5.98747 19.7881 4.04705 18.5923 2.56254C17.3494 1.01965 15.339 0.25 12.5001 0.25V2.75ZM17.5501 7.8V9.9H20.0501V7.8H17.5501Z" fill="#A4AFC1" mask="url(#path-1-inside-1_3557_9134)"/>
<path d="M14.4999 16.2002C14.4999 17.3048 13.6045 18.2002 12.4999 18.2002C11.3954 18.2002 10.4999 17.3048 10.4999 16.2002C10.4999 15.0956 11.3954 14.2002 12.4999 14.2002C13.6045 14.2002 14.4999 15.0956 14.4999 16.2002Z" stroke="#A4AFC1" stroke-width="1.25" stroke-linecap="round" stroke-linejoin="round"/>
<path d="M17.75 21.8749H7.25C5.14553 21.8749 4.08069 21.5967 3.49194 21.008C2.9032 20.4192 2.625 19.3544 2.625 17.2499V15.1499C2.625 13.0454 2.9032 11.9806 3.49194 11.3918C4.08069 10.8031 5.14553 10.5249 7.25 10.5249H17.75C19.8545 10.5249 20.9193 10.8031 21.5081 11.3918C22.0968 11.9806 22.375 13.0454 22.375 15.1499V17.2499C22.375 19.3544 22.0968 20.4192 21.5081 21.008C20.9193 21.5967 19.8545 21.8749 17.75 21.8749Z" stroke="#A4AFC1" stroke-width="1.25" stroke-linecap="round" stroke-linejoin="round"/>
</svg>
