<svg width="12" height="12" viewBox="0 0 12 12" fill="none" xmlns="http://www.w3.org/2000/svg">
<path d="M0 1.98746C0 1.46036 0.207354 0.954836 0.576446 0.582115C0.945538 0.209393 1.44613 0 1.96811 0H8.93219C9.45416 0 9.95476 0.209393 10.3239 0.582115C10.6929 0.954836 10.9003 1.46036 10.9003 1.98746V5.5172C10.6172 5.33391 10.3119 5.18819 9.99194 5.08363V4.28069H7.56965V5.08363C7.2497 5.18819 6.9444 5.33391 6.66129 5.5172V4.28069H4.23901V6.7268H5.46347C5.28197 7.01269 5.13767 7.32099 5.03412 7.64409H4.23901V10.0902H5.03412C5.13889 10.4168 5.28362 10.7244 5.46347 11.0075H1.96811C1.44613 11.0075 0.945538 10.7981 0.576446 10.4254C0.207354 10.0527 0 9.54714 0 9.02003V1.98746ZM1.96811 0.917291C1.68705 0.917291 1.41749 1.03004 1.21875 1.23074C1.02001 1.43143 0.908358 1.70364 0.908358 1.98746V3.3634H3.33065V0.917291H1.96811ZM0.908358 4.28069V6.7268H3.33065V4.28069H0.908358ZM7.56965 3.3634H9.99194V1.98746C9.99194 1.70364 9.88029 1.43143 9.68155 1.23074C9.4828 1.03004 9.21325 0.917291 8.93219 0.917291H7.56965V3.3634ZM6.66129 0.917291H4.23901V3.3634H6.66129V0.917291ZM0.908358 7.64409V9.02003C0.908358 9.61076 1.38313 10.0902 1.96811 10.0902H3.33065V7.64409H0.908358ZM6.82964 6.71151C6.87492 6.86966 6.88812 7.03541 6.86845 7.19883C6.84878 7.36225 6.79664 7.51997 6.71516 7.66256C6.63367 7.80514 6.52453 7.92964 6.39425 8.02861C6.26398 8.12757 6.11526 8.19896 5.95701 8.2385L5.60336 8.32656C5.54668 8.69277 5.5479 9.06576 5.60699 9.43159L5.934 9.51108C6.09362 9.54991 6.24375 9.6211 6.37528 9.72034C6.50681 9.81957 6.61698 9.94477 6.69911 10.0883C6.78123 10.2319 6.8336 10.3908 6.85302 10.5555C6.87244 10.7201 6.85851 10.887 6.81208 11.046L6.69884 11.4325C6.96529 11.6686 7.26808 11.86 7.59751 11.9957L7.89666 11.6789C8.0098 11.5588 8.14595 11.4631 8.29685 11.3977C8.44775 11.3323 8.61024 11.2986 8.77444 11.2986C8.93864 11.2986 9.10113 11.3323 9.25202 11.3977C9.40292 11.4631 9.53908 11.5588 9.65221 11.6789L9.95379 12C10.2817 11.8654 10.5852 11.6767 10.8519 11.4417L10.7319 11.0222C10.6868 10.8641 10.6736 10.6984 10.6934 10.535C10.7131 10.3717 10.7652 10.214 10.8467 10.0715C10.9282 9.929 11.0373 9.80455 11.1675 9.70563C11.2977 9.60671 11.4464 9.53534 11.6046 9.4958L11.9582 9.40774C12.0151 9.04133 12.0139 8.66811 11.9546 8.3021L11.6276 8.2226C11.468 8.18377 11.3178 8.11258 11.1863 8.01334C11.0548 7.91411 10.9446 7.78891 10.8625 7.64535C10.7804 7.50178 10.728 7.34286 10.7086 7.17823C10.6892 7.01359 10.7031 6.84669 10.7495 6.68766L10.8628 6.3024C10.5963 6.06513 10.2926 5.87437 9.96408 5.73796L9.66554 6.05534C9.55239 6.17562 9.4162 6.27139 9.26525 6.33683C9.11429 6.40227 8.95173 6.43602 8.78746 6.43602C8.62318 6.43602 8.46062 6.40227 8.30967 6.33683C8.15872 6.27139 8.02252 6.17562 7.90938 6.05534L7.6078 5.73429C7.27837 5.86883 6.97559 6.0584 6.70974 6.292L6.82964 6.71151ZM8.7808 9.78444C8.29634 9.78444 7.90272 9.37349 7.90272 8.86715C7.90272 8.36019 8.29634 7.94986 8.7808 7.94986C9.26525 7.94986 9.65888 8.36019 9.65888 8.86715C9.65888 9.37349 9.26525 9.78444 8.7808 9.78444Z" fill="#5D5D5A"/>
</svg>
