<svg width="24" height="24" viewBox="0 0 24 24" fill="none" xmlns="http://www.w3.org/2000/svg">
<g id="Setting V2">
<path id="Vector" d="M21 7.5H14" stroke="#1F242D" stroke-width="1.5" stroke-linecap="round" stroke-linejoin="round"/>
<path id="Vector_2" d="M7 7.5H3" stroke="#1F242D" stroke-width="1.5" stroke-linecap="round" stroke-linejoin="round"/>
<path id="Vector_3" d="M10.5 10.5C12.1569 10.5 13.5 9.15685 13.5 7.5C13.5 5.84315 12.1569 4.5 10.5 4.5C8.84315 4.5 7.5 5.84315 7.5 7.5C7.5 9.15685 8.84315 10.5 10.5 10.5Z" stroke="#1F242D" stroke-width="1.5" stroke-linecap="round" stroke-linejoin="round"/>
<path id="Vector_4" d="M21 16.5H16.5" stroke="#1F242D" stroke-width="1.5" stroke-linecap="round" stroke-linejoin="round"/>
<path id="Vector_5" d="M10 16.5H3" stroke="#1F242D" stroke-width="1.5" stroke-linecap="round" stroke-linejoin="round"/>
<path id="Vector_6" d="M13.5 19.5C15.1569 19.5 16.5 18.1569 16.5 16.5C16.5 14.8431 15.1569 13.5 13.5 13.5C11.8431 13.5 10.5 14.8431 10.5 16.5C10.5 18.1569 11.8431 19.5 13.5 19.5Z" stroke="#292D32" stroke-width="1.5" stroke-linecap="round" stroke-linejoin="round"/>
</g>
</svg>
