<svg width="40" height="40" viewBox="0 0 40 40" fill="none" xmlns="http://www.w3.org/2000/svg">
<path d="M33 21V13.5352C33 8.22535 31.0912 7 27.5 7M12.5 7C8.90875 7 7 8.22535 7 13.5352V29.4648C7 34.3662 9.90875 36 13.5 36H18" stroke="#1F242D" stroke-width="1.5" stroke-linecap="round" stroke-linejoin="round"/>
<path d="M12 18H19" stroke="#81A713" stroke-width="1.5" stroke-linecap="round" stroke-linejoin="round"/>
<path d="M12 25H25" stroke="#81A713" stroke-width="1.5" stroke-linecap="round" stroke-linejoin="round"/>
<path d="M27 8C27 10.2044 25.2325 12 23.0625 12H16.9375C15.8525 12 14.8725 11.5555 14.155 10.8267C13.4375 10.0978 13 9.10222 13 8C13 5.79556 14.7675 4 16.9375 4H23.0625C24.1475 4 25.1275 4.44445 25.845 5.17334C26.5625 5.90223 27 6.89778 27 8Z" stroke="#1F242D" stroke-width="1.5" stroke-linecap="round" stroke-linejoin="round"/>
<path d="M29.0987 25.33L24.4793 30.0416C24.3049 30.2205 24.1361 30.5729 24.1024 30.8169L23.8942 32.5735C23.821 33.2079 24.2937 33.6416 24.9463 33.5332L26.7581 33.235C27.0113 33.1916 27.3658 33.0127 27.5402 32.8284L32.1596 28.1168C32.9585 27.3036 33.3186 26.3764 32.0752 25.2433C30.8373 24.121 29.8977 24.5168 29.0987 25.33Z" stroke="#81A713" stroke-width="1.28194" stroke-miterlimit="10" stroke-linecap="round" stroke-linejoin="round"/>
<path d="M28.3262 26.1162C28.5681 27.6126 29.8285 28.7566 31.3926 28.9084" stroke="#81A713" stroke-width="1.28194" stroke-miterlimit="10" stroke-linecap="round" stroke-linejoin="round"/>
<path d="M22 36H33" stroke="#1F242D" stroke-width="1.5" stroke-miterlimit="10" stroke-linecap="round" stroke-linejoin="round"/>
</svg>
