<svg width="36" height="36" viewBox="0 0 36 36" fill="none" xmlns="http://www.w3.org/2000/svg">
<path d="M29.82 31.41C28.395 32.46 26.52 33 24.285 33H11.715C11.355 33 10.995 32.985 10.65 32.94L21 22.59L29.82 31.41Z" fill="#F0F2F5"/>
<path d="M33 11.715V24.285C33 26.52 32.46 28.395 31.41 29.82L22.59 21L32.94 10.65C32.985 10.995 33 11.355 33 11.715Z" fill="#F0F2F5"/>
<path d="M22.59 21L31.41 29.82C30.975 30.45 30.45 30.975 29.82 31.41L21 22.59L10.65 32.94C9.69001 32.88 8.82001 32.685 8.02501 32.385C4.81501 31.215 3 28.365 3 24.285V11.715C3 6.255 6.255 3 11.715 3H24.285C28.365 3 31.215 4.815 32.385 8.025C32.685 8.82 32.88 9.69 32.94 10.65L22.59 21Z" fill="#F0F2F5"/>
<path d="M22.59 21L31.41 29.82C30.975 30.45 30.45 30.975 29.82 31.41L21 22.59L10.65 32.94C9.69002 32.88 8.82002 32.685 8.02502 32.385L8.61 31.8L32.385 8.02502C32.685 8.82002 32.88 9.69002 32.94 10.65L22.59 21Z" fill="#C3C9D5"/>
<path d="M18.0676 11.9624L18.0676 11.9625C18.6594 14.527 17.0877 16.7169 15.5898 18.1412C15.0452 18.6443 14.3684 18.9001 13.68 18.9001C12.9874 18.9001 12.3127 18.6566 11.7716 18.1426C10.2737 16.7188 8.70008 14.5281 9.29233 11.9473C9.82294 9.64356 11.86 8.59549 13.6788 8.59504C15.4997 8.60971 17.5371 9.6587 18.0676 11.9624ZM11.925 12.735C11.925 13.7257 12.7343 14.535 13.725 14.535C14.7117 14.535 15.54 13.7296 15.54 12.735C15.54 11.7444 14.7307 10.935 13.74 10.935H13.725C12.7173 10.935 11.925 11.7463 11.925 12.735Z" fill="#C3C9D5" stroke="#F0F2F5" stroke-width="0.6"/>
</svg>
