<svg width="24" height="24" viewBox="0 0 24 24" fill="none" xmlns="http://www.w3.org/2000/svg">
<circle cx="12" cy="12" r="12" fill="white"/>
<path d="M20.4911 11.2338C20.1194 11.2338 19.8163 10.9367 19.8163 10.571C19.8163 10.2052 20.1194 9.90609 20.4911 9.90609C20.8649 9.90609 21.168 10.2052 21.168 10.573C21.168 10.9408 20.8649 11.2338 20.4911 11.2338ZM21.7378 10.2133C21.6084 9.02903 20.3901 9.50596 20.3901 9.50596C19.5254 9.83334 19.3274 9.6939 19.3274 9.6939L19.489 7.39011C19.3981 6.31096 17.9575 6.68482 17.9575 6.68482C18.7374 7.03847 18.5778 7.45275 18.5778 7.45275C18.5778 7.45275 17.7292 15.9404 17.6322 16.4861C17.5352 17.0317 16.7836 16.8054 16.7836 16.8054V17.735H17.7615C18.4788 17.735 18.5434 16.773 18.5434 16.773L19.0223 12.2665C19.7779 12.1412 20.3699 11.9694 20.3699 11.9694C21.9741 11.4339 21.7378 10.2153 21.7378 10.2153V10.2133ZM20.869 10.571C20.8684 10.6201 20.8582 10.6686 20.839 10.7137C20.8197 10.7589 20.7917 10.7998 20.7566 10.8341C20.7215 10.8685 20.68 10.8956 20.6345 10.9139C20.5889 10.9322 20.5402 10.9413 20.4911 10.9408C20.2851 10.9408 20.1153 10.773 20.1153 10.571C20.1223 10.4758 20.165 10.3867 20.2349 10.3218C20.3048 10.2568 20.3967 10.2207 20.4922 10.2207C20.5876 10.2207 20.6795 10.2568 20.7494 10.3218C20.8193 10.3867 20.862 10.4758 20.869 10.571ZM14.0075 8.05497C14.0111 8.04923 14.0151 8.04382 14.0197 8.03881C14.0763 7.89941 14.1691 7.77762 14.2884 7.68598C14.4077 7.59434 14.5493 7.53616 14.6985 7.51742C14.544 7.51978 14.3928 7.56335 14.2607 7.64363C14.1286 7.72392 14.0203 7.83801 13.9469 7.97414L11.6416 12.0118L11.2496 13.378L14.0075 8.05497ZM4.68322 17.6097C4.58424 17.5593 4.49628 17.4897 4.42447 17.405C4.35266 17.3203 4.29844 17.2221 4.26496 17.1162C4.23148 17.0103 4.21943 16.8988 4.22949 16.7882C4.23956 16.6775 4.27154 16.57 4.32358 16.4719L10.0253 5.83606C10.085 5.7272 10.1679 5.63277 10.2681 5.55945C10.3683 5.48612 10.4833 5.43568 10.6051 5.41167L10.6435 5.39955C10.6758 5.3955 10.7142 5.38944 10.7506 5.38944L10.791 5.3854L10.8233 5.38944C10.8496 5.38944 10.8738 5.39348 10.9001 5.39753C10.9504 5.40351 10.9999 5.41503 11.0476 5.43188C11.0894 5.44428 11.13 5.46052 11.1688 5.48038C11.1749 5.4824 11.181 5.4824 11.181 5.48644C11.2293 5.50886 11.2743 5.53813 11.3143 5.57334C11.3224 5.5794 11.3305 5.58344 11.3345 5.58951L11.383 5.63599C11.3689 5.61578 11.3567 5.59153 11.3406 5.57536C11.305 5.53168 11.265 5.49174 11.2214 5.45613L11.1991 5.43592C11.1587 5.40965 11.1224 5.38136 11.0779 5.35913L11.0658 5.347C11.0597 5.347 11.0537 5.347 11.0456 5.34296C11.0092 5.32477 10.9708 5.30659 10.9244 5.29446L10.8779 5.27829C10.8456 5.27021 10.8092 5.26617 10.7748 5.2601C10.7481 5.25597 10.7211 5.25395 10.694 5.25404L10.6637 5.25L10.6193 5.25404L10.5102 5.26415L10.4698 5.27425C10.3452 5.29866 10.2276 5.35025 10.1252 5.42536C10.0229 5.50046 9.93842 5.59722 9.87777 5.70874L4.0589 16.5629C4.00522 16.6631 3.97213 16.7731 3.9616 16.8864C3.95106 16.9997 3.96328 17.1139 3.99755 17.2224C4.03181 17.3308 4.08743 17.4313 4.16112 17.518C4.2348 17.6046 4.32508 17.6757 4.42662 17.7269C4.56759 17.799 4.72525 17.8321 4.88332 17.8229C5.04138 17.8137 5.19411 17.7624 5.32572 17.6743C5.10992 17.7378 4.8781 17.7168 4.67716 17.6157L4.68322 17.6097ZM10.795 16.7528C10.5724 16.7539 10.3584 16.667 10.1995 16.5111C10.0406 16.3552 9.94966 16.1428 9.94647 15.9202V9.60094L9.80503 9.86365V15.999C9.70049 16.099 9.62255 16.2235 9.57829 16.3612C9.53402 16.4989 9.52483 16.6455 9.55154 16.7877C9.57825 16.9298 9.64002 17.0631 9.73125 17.1753C9.82248 17.2876 9.94029 17.3752 10.074 17.4304C10.2077 17.4856 10.353 17.5065 10.4968 17.4913C10.6407 17.4761 10.7784 17.4252 10.8976 17.3432C11.0168 17.2613 11.1136 17.1509 11.1793 17.022C11.245 16.8931 11.2775 16.7499 11.2739 16.6053C11.1319 16.7013 10.9664 16.7526 10.795 16.7528ZM14.8076 16.3042C14.585 16.3053 14.371 16.2184 14.2121 16.0625C14.0532 15.9066 13.9623 15.6942 13.9591 15.4716V11.7693L13.8237 12.0341V15.6009C13.824 15.8091 13.898 16.0105 14.0327 16.1694C14.1673 16.3282 14.3538 16.4342 14.5591 16.4686C14.7644 16.503 14.9753 16.4635 15.1543 16.3572C15.3333 16.2509 15.4689 16.0846 15.537 15.8879C15.4624 16.0151 15.3559 16.1206 15.2279 16.194C15.1 16.2674 14.9551 16.304 14.8076 16.3042ZM11.2496 13.378C11.6416 11.9836 11.6416 11.9836 11.2496 13.378V13.378ZM17.2746 5.78957C17.2746 5.78957 14.5611 6.24023 11.6416 6.71918V12.0118C11.2496 13.378 11.2496 13.38 14.0055 8.057C14.0097 8.05116 14.0144 8.04575 14.0197 8.04083C14.0933 7.85979 14.227 7.70969 14.3984 7.61588C14.5699 7.52207 14.7684 7.49029 14.9605 7.52592C15.1526 7.56155 15.3265 7.6624 15.4529 7.81143C15.5793 7.96047 15.6504 8.14857 15.6542 8.34396V15.4716C15.6542 15.9303 15.2723 16.3042 14.8076 16.3042C14.3429 16.3042 13.9591 15.9283 13.9591 15.4716V11.7693L11.7042 16.0475C11.6723 16.1063 11.6329 16.1606 11.5871 16.2092C11.5173 16.3943 11.3851 16.5493 11.2133 16.6473C11.0414 16.7453 10.8408 16.7802 10.646 16.7459C10.4512 16.7116 10.2744 16.6103 10.1463 16.4596C10.0182 16.3088 9.94886 16.118 9.94647 15.9202V9.60094L5.84093 17.254C5.73147 17.4521 5.54919 17.5998 5.33271 17.6659C5.11623 17.7319 4.88255 17.711 4.6812 17.6076C4.58196 17.5573 4.49376 17.4876 4.42178 17.4028C4.34979 17.3179 4.29546 17.2195 4.26197 17.1133C4.22847 17.0072 4.21649 16.8954 4.22673 16.7846C4.23696 16.6738 4.2692 16.5661 4.32156 16.4679L9.34841 7.09102C6.94207 7.48307 4.85496 7.82257 4.58422 7.85895C3.91141 7.9418 3.75988 8.51775 3.75988 8.51775C3.75988 8.51775 3.73765 17.5915 3.75988 18.0401C3.78008 18.4887 4.26095 18.5736 4.26095 18.5736C4.26095 18.5736 15.6017 18.6585 16.1876 18.5736C16.7735 18.4887 16.8826 17.8279 16.8826 17.8279L18.0343 6.36148C17.9919 5.61376 17.2746 5.78351 17.2746 5.78351V5.78957Z" fill="#0043CF"/>
</svg>
