<svg width="24" height="24" viewBox="0 0 24 24" fill="none" xmlns="http://www.w3.org/2000/svg">
<path d="M10.002 19.001C10.002 20.101 10.902 21.001 12.002 21.001C13.102 21.001 14.002 20.101 14.002 19.001C14.002 17.901 13.102 17.001 12.002 17.001C10.902 17.001 10.002 17.901 10.002 19.001Z" fill="#536179"/>
<path d="M10.002 5.00098C10.002 6.10098 10.902 7.00098 12.002 7.00098C13.102 7.00098 14.002 6.10098 14.002 5.00098C14.002 3.90098 13.102 3.00098 12.002 3.00098C10.902 3.00098 10.002 3.90098 10.002 5.00098Z" fill="#536179"/>
<path d="M10.002 12.001C10.002 13.101 10.902 14.001 12.002 14.001C13.102 14.001 14.002 13.101 14.002 12.001C14.002 10.901 13.102 10.001 12.002 10.001C10.902 10.001 10.002 10.901 10.002 12.001Z" fill="#536179"/>
</svg>
