<svg width="16" height="16" viewBox="0 0 16 16" fill="none" xmlns="http://www.w3.org/2000/svg">
<path d="M3.33236 6.66797C2.59902 6.66797 1.99902 7.26797 1.99902 8.0013C1.99902 8.73464 2.59902 9.33464 3.33236 9.33464C4.06569 9.33464 4.66569 8.73464 4.66569 8.0013C4.66569 7.26797 4.06569 6.66797 3.33236 6.66797Z" fill="#536179"/>
<path d="M12.6659 6.66797C11.9325 6.66797 11.3325 7.26797 11.3325 8.0013C11.3325 8.73464 11.9325 9.33464 12.6659 9.33464C13.3992 9.33464 13.9992 8.73464 13.9992 8.0013C13.9992 7.26797 13.3992 6.66797 12.6659 6.66797Z" fill="#536179"/>
<path d="M7.99886 6.66797C7.26553 6.66797 6.66553 7.26797 6.66553 8.0013C6.66553 8.73464 7.26553 9.33464 7.99886 9.33464C8.73219 9.33464 9.33219 8.73464 9.33219 8.0013C9.33219 7.26797 8.73219 6.66797 7.99886 6.66797Z" fill="#536179"/>
</svg>
