<svg width="4" height="16" viewBox="0 0 4 16" fill="none" xmlns="http://www.w3.org/2000/svg">
<path d="M0.335449 13.8343C0.335449 14.751 1.08545 15.501 2.00212 15.501C2.91878 15.501 3.66878 14.751 3.66878 13.8343C3.66878 12.9176 2.91878 12.1676 2.00212 12.1676C1.08545 12.1676 0.335449 12.9176 0.335449 13.8343Z" fill="#536179"/>
<path d="M0.335449 2.16781C0.335449 3.08447 1.08545 3.83447 2.00212 3.83447C2.91878 3.83447 3.66878 3.08447 3.66878 2.16781C3.66878 1.25114 2.91878 0.501139 2.00212 0.501139C1.08545 0.501139 0.335449 1.25114 0.335449 2.16781Z" fill="#536179"/>
<path d="M0.335449 8.00081C0.335449 8.91748 1.08545 9.66748 2.00212 9.66748C2.91878 9.66748 3.66878 8.91748 3.66878 8.00081C3.66878 7.08415 2.91878 6.33415 2.00212 6.33415C1.08545 6.33415 0.335449 7.08415 0.335449 8.00081Z" fill="#536179"/>
</svg>
