<svg width="20" height="20" viewBox="0 0 20 20" fill="none" xmlns="http://www.w3.org/2000/svg">
<g clip-path="url(#clip0_3079_13708)">
<path d="M0.833252 0.833374L19.1666 19.1667" stroke="#D43E2A" stroke-width="1.5" stroke-linecap="round" stroke-linejoin="round"/>
<path d="M13.9333 9.21667C14.6159 9.5498 15.2542 9.96692 15.8334 10.4583" stroke="#D43E2A" stroke-width="1.5" stroke-linecap="round" stroke-linejoin="round"/>
<path d="M4.16675 10.4583C5.40182 9.4257 6.88831 8.73852 8.47508 8.46667" stroke="#D43E2A" stroke-width="1.5" stroke-linecap="round" stroke-linejoin="round"/>
<path d="M8.92505 4.20836C10.7104 4.0645 12.5064 4.28183 14.2059 4.84738C15.9054 5.41292 17.4736 6.31509 18.8167 7.50003" stroke="#D43E2A" stroke-width="1.5" stroke-linecap="round" stroke-linejoin="round"/>
<path d="M1.18335 7.49998C2.33932 6.47818 3.66476 5.666 5.10002 5.09998" stroke="#D43E2A" stroke-width="1.5" stroke-linecap="round" stroke-linejoin="round"/>
<path d="M7.1084 13.4251C7.9544 12.824 8.96646 12.5011 10.0042 12.5011C11.042 12.5011 12.0541 12.824 12.9001 13.4251" stroke="#D43E2A" stroke-width="1.5" stroke-linecap="round" stroke-linejoin="round"/>
<path d="M10 16.6666H10.0083" stroke="#D43E2A" stroke-width="2" stroke-linecap="round" stroke-linejoin="round"/>
</g>
<defs>
<clipPath id="clip0_3079_13708">
<rect width="20" height="20" fill="white"/>
</clipPath>
</defs>
</svg>
