<svg width="15" height="16" viewBox="0 0 15 16" fill="none" xmlns="http://www.w3.org/2000/svg">
<path d="M13.65 4V12C13.65 13.085 13.3786 13.8746 12.9004 14.3897C12.4315 14.8946 11.657 15.25 10.4 15.25H4C2.74295 15.25 1.96848 14.8946 1.4996 14.3897C1.02137 13.8746 0.75 13.085 0.75 12V4C0.75 2.91497 1.02137 2.12535 1.4996 1.61034C1.96848 1.10538 2.74295 0.75 4 0.75H10.4C11.657 0.75 12.4315 1.10538 12.9004 1.61034C13.3786 2.12535 13.65 2.91497 13.65 4Z" stroke="#536179" stroke-width="1.5" stroke-miterlimit="10" stroke-linecap="round" stroke-linejoin="round"/>
<path d="M4 8H8.8" stroke="#536179" stroke-width="1.5" stroke-miterlimit="10" stroke-linecap="round" stroke-linejoin="round"/>
<path d="M4 4.80078H7.2" stroke="#536179" stroke-width="1.5" stroke-miterlimit="10" stroke-linecap="round" stroke-linejoin="round"/>
<path d="M4 11.1992H10.4" stroke="#536179" stroke-width="1.5" stroke-miterlimit="10" stroke-linecap="round" stroke-linejoin="round"/>
</svg>
