<svg width="25" height="25" viewBox="0 0 25 25" fill="none" xmlns="http://www.w3.org/2000/svg">
<path d="M12.6688 3.48293C9.3588 3.48293 6.6688 6.17293 6.6688 9.48293V12.3729C6.6688 12.9829 6.4088 13.9129 6.0988 14.4329L4.9488 16.3429C4.2388 17.5229 4.7288 18.8329 6.0288 19.2729C10.3388 20.7129 14.9888 20.7129 19.2988 19.2729C20.5088 18.8729 21.0388 17.4429 20.3788 16.3429L19.2288 14.4329C18.9288 13.9129 18.6688 12.9829 18.6688 12.3729V9.48293C18.6688 6.18293 15.9688 3.48293 12.6688 3.48293Z" stroke="#343D4C" stroke-width="1.5" stroke-miterlimit="10" stroke-linecap="round"/>
<path d="M14.5188 3.77293C14.2088 3.68293 13.8888 3.61293 13.5588 3.57293C12.5988 3.45293 11.6788 3.52293 10.8188 3.77293C11.1088 3.03293 11.8288 2.51293 12.6688 2.51293C13.5088 2.51293 14.2288 3.03293 14.5188 3.77293Z" stroke="#343D4C" stroke-width="1.5" stroke-miterlimit="10" stroke-linecap="round" stroke-linejoin="round"/>
<path d="M15.6688 19.6329C15.6688 21.2829 14.3188 22.6329 12.6688 22.6329C11.8488 22.6329 11.0888 22.2929 10.5488 21.7529C10.0088 21.2129 9.66881 20.4529 9.66881 19.6329" stroke="#343D4C" stroke-width="1.5" stroke-miterlimit="10"/>
</svg>
