<svg width="13" height="14" viewBox="0 0 13 14" fill="none" xmlns="http://www.w3.org/2000/svg">
<path d="M6.90006 3.48905H6.89506V3.48405H3.73713V2.62406H9.26266V3.48638L7.95335 3.44464L7.95319 3.44964L7.95303 3.45464L7.94819 3.60647V4.3792H7.95319V4.3842H9.26266V5.16037H7.86284V5.12415L7.85788 5.16476C7.80933 5.56201 7.68729 5.88538 7.52526 6.13335L7.52082 6.14015C7.30631 6.40268 7.00661 6.61966 6.58334 6.74942L6.5832 6.74947C6.21798 6.87344 5.74156 6.91685 5.15992 6.92028L5.1553 6.13779C5.49109 6.12914 5.76458 6.10902 5.97078 6.06227L5.97868 6.06048C6.33867 6.01962 6.56187 5.89919 6.66808 5.75473C6.76989 5.61623 6.84339 5.44477 6.88635 5.20817L6.88143 5.20728L6.87651 5.20638L6.85389 5.20228H3.73713V4.4261H6.89506V4.4211H6.90006V3.48905ZM7.26976 7.76871V7.61111H8.23573V7.81539C8.19405 8.49547 8.02652 9.0165 7.68345 9.41026C7.33671 9.80823 6.82084 9.97979 6.23289 9.97979C5.56168 9.97979 5.00528 9.76569 4.65909 9.36835C4.31496 8.97338 4.1479 8.40869 4.1479 7.7268V6.14433H4.30226C4.61971 6.14433 4.90463 6.14425 5.15495 6.1378V6.92528V7.7268C5.15495 8.17994 5.23588 8.49483 5.42571 8.72723L5.42664 8.72836C5.42665 8.72838 5.42667 8.7284 5.42668 8.72842C5.57275 8.91465 5.83559 9.03599 6.23289 9.03599C6.58763 9.03599 6.8513 8.91555 6.99807 8.72837L7.00326 8.72176C7.18747 8.53366 7.26976 8.22435 7.26976 7.76871ZM12.2279 12.6508L12.2308 12.6467L12.2329 12.6439L12.2329 0.787756L12.2279 0.782756H0.772138V0.787756H0.767138V12.6508H0.772138H0.777138H0.78064L2.35663 11.5048C2.89127 11.116 3.60873 11.116 4.14337 11.5048L6.49706 13.2163L6.49046 13.2254L6.50294 13.2163L8.85663 11.5048C9.39127 11.116 10.1087 11.116 10.6434 11.5048L12.2249 12.6548L12.2279 12.6508ZM0.005 0.787757C0.005 0.355357 0.348553 0.005 0.772138 0.005H12.2279C12.6498 0.005 12.9923 0.352659 12.995 0.782756C12.995 0.784422 12.995 0.786088 12.995 0.787756V12.6508C12.995 13.2873 12.2903 13.6574 11.7826 13.2882L10.2011 12.1382C9.93115 11.9419 9.56885 11.9419 9.29891 12.1382L6.94521 13.8497C6.67877 14.0434 6.32123 14.0434 6.05479 13.8497L3.70109 12.1382C3.43115 11.9419 3.06885 11.9419 2.79891 12.1382L1.21735 13.2882C0.709677 13.6574 0.005 13.2873 0.005 12.6508V0.787757Z" fill="#888F98" stroke="white" stroke-width="0.01"/>
</svg>
