<svg width="20" height="20" viewBox="0 0 20 20" fill="none" xmlns="http://www.w3.org/2000/svg">
<path d="M10.2745 11.8576C10.1682 11.863 10.062 11.8576 9.95582 11.8494C8.54918 11.7186 7.5078 10.4107 7.63214 8.93122C7.75649 7.4517 8.99993 6.35637 10.4066 6.48716C11.8132 6.61794 12.8546 7.9258 12.7302 9.40532" stroke="#1F242D" stroke-width="1.25" stroke-miterlimit="2.6131" stroke-linecap="round"/>
<path fill-rule="evenodd" clip-rule="evenodd" d="M10.1836 8.65625C10.4505 8.65625 10.6681 8.88513 10.6681 9.16577C10.6681 9.44642 10.4505 9.67529 10.1836 9.67529C9.91682 9.67529 9.69922 9.44642 9.69922 9.16577C9.69922 8.88513 9.91682 8.65625 10.1836 8.65625Z" stroke="#1F242D" stroke-width="1.25" stroke-miterlimit="10" stroke-linecap="round" stroke-linejoin="round"/>
<path d="M5.8409 4.77734L8.125 7.06145M12.8649 12.0905L14.5331 13.3695M5.08301 14.5373L8.125 11.4953M12.436 6.87451L14.5331 4.77734M10.22 14.5591V11.8745" stroke="#1F242D" stroke-width="1.25" stroke-miterlimit="10" stroke-linecap="round" stroke-linejoin="round"/>
<path d="M4.0532 14.0228C4.7889 14.0228 5.38212 14.6495 5.38212 15.4206C5.38212 16.1917 4.78631 16.8211 4.0532 16.8211C3.31749 16.8211 2.72168 16.1944 2.72168 15.4206C2.72168 14.6468 3.31749 14.0228 4.0532 14.0228ZM15.568 2.5C16.3037 2.5 16.8969 3.12668 16.8969 3.89778C16.8969 4.67159 16.3011 5.29828 15.568 5.29828C14.8323 5.29828 14.2364 4.67159 14.2364 3.89778C14.2364 3.12668 14.8323 2.5 15.568 2.5Z" stroke="#1F242D" stroke-width="1.25" stroke-miterlimit="10" stroke-linecap="round" stroke-linejoin="round"/>
<path d="M5.00097 2.5C5.69104 2.5 6.25098 3.05994 6.25098 3.75C6.25098 4.44006 5.69104 5 5.00097 5C4.31091 5 3.75098 4.44006 3.75098 3.75C3.75098 3.05994 4.31091 2.5 5.00097 2.5Z" stroke="#1F242D" stroke-width="1.25" stroke-miterlimit="10" stroke-linecap="round" stroke-linejoin="round"/>
<path d="M15.001 12.5C15.6912 12.5 16.251 13.0598 16.251 13.75C16.251 14.4402 15.6912 15 15.001 15C14.3108 15 13.751 14.4402 13.751 13.75C13.7468 13.0598 14.3108 12.5 15.001 12.5Z" stroke="#1F242D" stroke-width="1.25" stroke-miterlimit="10" stroke-linecap="round" stroke-linejoin="round"/>
<path d="M10.001 15C10.6908 15 11.251 15.5602 11.251 16.25C11.251 16.9398 10.6908 17.5 10.001 17.5C9.31116 17.5 8.75098 16.9398 8.75098 16.25C8.75098 15.5602 9.31116 15 10.001 15Z" stroke="#1F242D" stroke-width="1.25" stroke-miterlimit="10" stroke-linecap="round" stroke-linejoin="round"/>
<path d="M11.2336 10.2872L11.6562 10.4777C11.5579 10.5345 11.4732 10.6112 11.4074 10.7024L11.2336 10.2872Z" stroke="#1F242D"/>
</svg>
