<svg width="20" height="21" viewBox="0 0 20 21" fill="none" xmlns="http://www.w3.org/2000/svg">
<mask id="path-1-inside-1_777_28436" fill="white">
<path d="M5.9248 7.60682V6.81755C5.9248 4.98677 7.39757 3.18854 9.22835 3.01766C11.409 2.80611 13.2479 4.52297 13.2479 6.66295V7.78583"/>
</mask>
<path d="M4.6748 7.60682C4.6748 8.29718 5.23445 8.85682 5.9248 8.85682C6.61516 8.85682 7.1748 8.29718 7.1748 7.60682H4.6748ZM9.22835 3.01766L9.34451 4.26226L9.34905 4.26182L9.22835 3.01766ZM11.9979 7.78583C11.9979 8.47619 12.5576 9.03583 13.2479 9.03583C13.9383 9.03583 14.4979 8.47619 14.4979 7.78583H11.9979ZM7.1748 7.60682V6.81755H4.6748V7.60682H7.1748ZM7.1748 6.81755C7.1748 5.55751 8.22797 4.36646 9.34451 4.26225L9.11219 1.77307C6.56716 2.01061 4.6748 4.41603 4.6748 6.81755H7.1748ZM9.34905 4.26182C10.7849 4.12252 11.9979 5.25072 11.9979 6.66295H14.4979C14.4979 3.79523 12.0331 1.48969 9.10765 1.7735L9.34905 4.26182ZM11.9979 6.66295V7.78583H14.4979V6.66295H11.9979Z" fill="#292D32" mask="url(#path-1-inside-1_777_28436)"/>
<path d="M15.469 15.4287L15.4689 15.4287L15.4677 15.4396C15.3865 16.197 15.2186 16.7277 14.8163 17.0953C14.4082 17.468 13.6329 17.7861 12.0614 17.7861H7.17932C5.60786 17.7861 4.8325 17.468 4.42447 17.0953C4.02209 16.7277 3.85419 16.197 3.77304 15.4396L3.77314 15.4396L3.77177 15.4287L3.16207 10.5511C3.05845 9.60962 3.16723 8.93053 3.5465 8.47963C3.92039 8.03511 4.70179 7.64453 6.36564 7.64453H12.8751C14.5389 7.64453 15.3203 8.03511 15.6942 8.47963C16.0735 8.93053 16.1823 9.60962 16.0787 10.5511L15.469 15.4287Z" stroke="#292D32" stroke-width="1.25" stroke-miterlimit="10" stroke-linecap="round" stroke-linejoin="round"/>
<path d="M12.4639 10.274H12.4712" stroke="#292D32" stroke-width="1.25" stroke-linecap="round" stroke-linejoin="round"/>
<path d="M6.76761 10.274H6.77491" stroke="#292D32" stroke-width="1.25" stroke-linecap="round" stroke-linejoin="round"/>
</svg>
