<svg width="18" height="15" viewBox="0 0 18 15" fill="none" xmlns="http://www.w3.org/2000/svg">
<path fill-rule="evenodd" clip-rule="evenodd" d="M1.96277 3.45833V1.80959C1.96277 1.36247 2.32524 1 2.77237 1H11.2731C11.7202 1 12.0827 1.36247 12.0827 1.80959V3.45833H12.1962C12.6719 3.45833 13.0575 3.84392 13.0575 4.31957V6.61623C13.0575 7.341 12.6738 7.97616 12.0984 8.32966C12.0932 8.33288 12.0879 8.33608 12.0827 8.33926V11.9295C12.0827 12.3766 11.7202 12.7391 11.2731 12.7391H2.77237C2.32524 12.7391 1.96277 12.3766 1.96277 11.9295V8.33197C1.95792 8.329 1.95308 8.32601 1.94825 8.323C1.3789 7.96822 1 7.33647 1 6.61623V4.31957C1 3.84392 1.38559 3.45833 1.86125 3.45833H1.96277ZM2.36757 8.52107C2.38709 8.52765 2.40674 8.53393 2.42652 8.53992C2.55639 8.57923 2.69181 8.60575 2.83132 8.61801C2.89005 8.62317 2.94951 8.62581 3.00958 8.62581C3.76061 8.62581 4.41541 8.21382 4.76031 7.60352C4.9251 7.31192 5.01915 6.97506 5.01915 6.61623C5.01915 6.97506 5.1132 7.31192 5.27799 7.60352C5.6229 8.21382 6.2777 8.62581 7.02873 8.62581C7.77976 8.62581 8.43456 8.21382 8.77947 7.60352C8.94426 7.31192 9.03831 6.97506 9.03831 6.61623C9.03831 6.97506 9.13235 7.31192 9.29714 7.60352C9.64205 8.21382 10.2969 8.62581 11.0479 8.62581C11.1039 8.62581 11.1593 8.62352 11.2141 8.61903C11.3536 8.60761 11.489 8.58195 11.6189 8.54352C11.6387 8.53766 11.6584 8.53152 11.6779 8.52508V11.9295C11.6779 12.1531 11.4966 12.3343 11.2731 12.3343H8.736C8.74709 12.3151 8.75741 12.2955 8.76693 12.2753C8.81655 12.1705 8.84431 12.0532 8.84431 11.9295V10.3103C8.84431 9.86318 8.48184 9.50072 8.03472 9.50072H6.01074C5.56361 9.50072 5.20114 9.86318 5.20114 10.3103V11.9295C5.20114 12.0532 5.2289 12.1705 5.27852 12.2753C5.28804 12.2955 5.29836 12.3151 5.30945 12.3343H2.77237C2.5488 12.3343 2.36757 12.1531 2.36757 11.9295V8.52107ZM5.76581 12.2518C5.77687 12.2602 5.78836 12.2681 5.80026 12.2753C5.86159 12.3127 5.93365 12.3343 6.01074 12.3343H8.03472C8.1118 12.3343 8.18386 12.3127 8.24519 12.2753C8.25709 12.2681 8.26859 12.2602 8.27964 12.2518C8.32242 12.2193 8.35853 12.1784 8.38555 12.1316C8.41987 12.0721 8.43951 12.0031 8.43951 11.9295V10.3103C8.43951 10.0867 8.25828 9.90551 8.03472 9.90551H6.01074C5.78717 9.90551 5.60594 10.0867 5.60594 10.3103V11.9295C5.60594 12.0031 5.62558 12.0721 5.6599 12.1316C5.68692 12.1784 5.72303 12.2193 5.76581 12.2518ZM11.7106 8.06248C11.7461 8.01474 11.791 7.97357 11.8435 7.94192C12.294 7.67078 12.5937 7.17828 12.5937 6.61623V4.31957C12.5937 4.10004 12.4157 3.92207 12.1962 3.92207H12.0827C12.0101 3.92207 11.9414 3.90541 11.8803 3.87569C11.8191 3.90541 11.7504 3.92207 11.6779 3.92207H2.36757C2.29501 3.92207 2.22633 3.90541 2.16517 3.87569C2.10401 3.90541 2.03534 3.92207 1.96277 3.92207H1.86125C1.64171 3.92207 1.46375 4.10004 1.46375 4.31957V6.61623C1.46375 7.17443 1.75931 7.66401 2.20469 7.93632C2.25723 7.96844 2.30195 8.01011 2.33718 8.05832C2.39682 8.0544 2.45744 8.06199 2.51563 8.0816C2.67014 8.13365 2.83607 8.16206 3.00958 8.16206C3.86331 8.16206 4.5554 7.46997 4.5554 6.61623C4.5554 6.36011 4.76303 6.15248 5.01915 6.15248C5.27527 6.15248 5.4829 6.36011 5.4829 6.61623C5.4829 7.46997 6.17499 8.16206 7.02873 8.16206C7.88247 8.16206 8.57456 7.46997 8.57456 6.61623C8.57456 6.36011 8.78218 6.15248 9.03831 6.15248C9.29443 6.15248 9.50205 6.36011 9.50205 6.61623C9.50205 7.46997 10.1941 8.16206 11.0479 8.16206C11.218 8.16206 11.3807 8.13476 11.5326 8.08467C11.5907 8.0655 11.6512 8.05828 11.7106 8.06248ZM11.6779 1.80959C11.6779 1.58603 11.4966 1.4048 11.2731 1.4048H2.77237C2.5488 1.4048 2.36757 1.58603 2.36757 1.80959V3.45833H11.6779V1.80959Z" fill="#888F98" stroke="#888F98" stroke-width="0.3" stroke-linecap="square" stroke-linejoin="round"/>
<circle cx="13.5731" cy="11.055" r="3.94566" fill="#F7F8F9"/>
<path fill-rule="evenodd" clip-rule="evenodd" d="M13.2278 8.69118C12.1205 8.83195 11.2551 9.74778 11.1926 10.8777H12.4122C12.455 10.0814 12.7404 9.31868 13.2278 8.69118ZM10.9268 11.0088C10.9268 9.57363 12.0902 8.41016 13.5254 8.41016C14.9607 8.41016 16.1241 9.57363 16.1241 11.0088C16.1241 12.4441 14.9607 13.6075 13.5254 13.6075C12.0902 13.6075 10.9268 12.4441 10.9268 11.0088ZM15.8583 10.8777C15.7957 9.74784 14.9305 8.83206 13.8232 8.69121C14.3106 9.3187 14.5961 10.0814 14.6389 10.8777H15.8583ZM15.8583 11.14C15.7957 12.2698 14.9305 13.1856 13.8232 13.3265C14.3106 12.699 14.5961 11.9362 14.6389 11.14H15.8583ZM13.2278 13.3265C12.1205 13.1857 11.2551 12.2699 11.1926 11.14H12.4122C12.455 11.9363 12.7404 12.699 13.2278 13.3265ZM13.5255 8.74009C14.0324 9.34193 14.3309 10.092 14.3762 10.8777H12.6748C12.7201 10.092 13.0187 9.34193 13.5255 8.74009ZM13.5255 13.2776C13.0187 12.6757 12.7201 11.9257 12.6748 11.14H14.3762C14.3309 11.9257 14.0324 12.6757 13.5255 13.2776Z" fill="#888F98" stroke="#888F98" stroke-width="0.28235" stroke-linecap="round" stroke-linejoin="round"/>
</svg>
