<svg width="28" height="29" viewBox="0 0 28 29" fill="none" xmlns="http://www.w3.org/2000/svg">
<rect y="0.460938" width="28" height="28" rx="14" fill="#F7A200"/>
<path d="M16.0026 7.79297V14.4596C16.0026 15.193 15.4026 15.793 14.6693 15.793H7.33594V11.5396C7.8226 12.1196 8.56929 12.4796 9.39596 12.4596C10.0693 12.4463 10.6759 12.1863 11.1293 11.753C11.3359 11.5796 11.5093 11.3596 11.6426 11.1196C11.8826 10.713 12.0159 10.233 12.0026 9.73295C11.9826 8.95295 11.6359 8.2663 11.0959 7.79297H16.0026Z" stroke="white" stroke-width="1.25" stroke-linecap="round" stroke-linejoin="round"/>
<path d="M20.6693 15.793V17.793C20.6693 18.8996 19.7759 19.793 18.6693 19.793H18.0026C18.0026 19.0596 17.4026 18.4596 16.6693 18.4596C15.9359 18.4596 15.3359 19.0596 15.3359 19.793H12.6693C12.6693 19.0596 12.0693 18.4596 11.3359 18.4596C10.6026 18.4596 10.0026 19.0596 10.0026 19.793H9.33594C8.22927 19.793 7.33594 18.8996 7.33594 17.793V15.793H14.6693C15.4026 15.793 16.0026 15.193 16.0026 14.4596V9.79297H17.2293C17.7093 9.79297 18.1493 10.053 18.3893 10.4663L19.5293 12.4596H18.6693C18.3026 12.4596 18.0026 12.7596 18.0026 13.1263V15.1263C18.0026 15.493 18.3026 15.793 18.6693 15.793H20.6693Z" stroke="white" stroke-width="1.25" stroke-linecap="round" stroke-linejoin="round"/>
<path d="M11.3333 21.1276C12.0697 21.1276 12.6667 20.5307 12.6667 19.7943C12.6667 19.0579 12.0697 18.4609 11.3333 18.4609C10.597 18.4609 10 19.0579 10 19.7943C10 20.5307 10.597 21.1276 11.3333 21.1276Z" stroke="white" stroke-width="1.25" stroke-linecap="round" stroke-linejoin="round"/>
<path d="M16.6693 21.1276C17.4057 21.1276 18.0026 20.5307 18.0026 19.7943C18.0026 19.0579 17.4057 18.4609 16.6693 18.4609C15.9329 18.4609 15.3359 19.0579 15.3359 19.7943C15.3359 20.5307 15.9329 21.1276 16.6693 21.1276Z" stroke="white" stroke-width="1.25" stroke-linecap="round" stroke-linejoin="round"/>
<path d="M20.6667 14.4609V15.7943H18.6667C18.3 15.7943 18 15.4943 18 15.1276V13.1276C18 12.7609 18.3 12.4609 18.6667 12.4609H19.5267L20.6667 14.4609Z" stroke="white" stroke-width="1.25" stroke-linecap="round" stroke-linejoin="round"/>
<path d="M11.9974 9.79557C11.9974 10.5956 11.6441 11.3089 11.0907 11.7956C10.6174 12.2089 10.0041 12.4622 9.33073 12.4622C7.8574 12.4622 6.66406 11.2689 6.66406 9.79557C6.66406 8.95557 7.05073 8.20224 7.66406 7.71558C8.12406 7.34891 8.70406 7.12891 9.33073 7.12891C10.8041 7.12891 11.9974 8.32224 11.9974 9.79557Z" stroke="white" stroke-width="1.25" stroke-miterlimit="10" stroke-linecap="round" stroke-linejoin="round"/>
<path d="M9.4974 8.96094V9.96094L8.66406 10.4609" stroke="white" stroke-width="1.25" stroke-miterlimit="10" stroke-linecap="round" stroke-linejoin="round"/>
</svg>
