<svg width="33" height="32" viewBox="0 0 33 32" fill="none" xmlns="http://www.w3.org/2000/svg">
<rect x="0.5" width="32" height="32" rx="16" fill="#F0F2F5"/>
<path d="M19.4833 15.999C19.4833 17.649 18.15 18.9823 16.5 18.9823C14.85 18.9823 13.5167 17.649 13.5167 15.999C13.5167 14.349 14.85 13.0156 16.5 13.0156C18.15 13.0156 19.4833 14.349 19.4833 15.999Z" stroke="#536179" stroke-width="1.5" stroke-linecap="round" stroke-linejoin="round"/>
<path d="M16.5 22.8932C19.4417 22.8932 22.1833 21.1599 24.0917 18.1599C24.8417 16.9849 24.8417 15.0099 24.0917 13.8349C22.1833 10.8349 19.4417 9.10156 16.5 9.10156C13.5583 9.10156 10.8167 10.8349 8.90833 13.8349C8.15833 15.0099 8.15833 16.9849 8.90833 18.1599C10.8167 21.1599 13.5583 22.8932 16.5 22.8932Z" stroke="#536179" stroke-width="1.5" stroke-linecap="round" stroke-linejoin="round"/>
</svg>
