<svg width="33" height="32" viewBox="0 0 33 32" fill="none" xmlns="http://www.w3.org/2000/svg">
<rect x="0.5" width="32" height="32" rx="16" fill="#F0F2F5"/>
<path d="M21.5 12.668C22.8807 12.668 24 11.5487 24 10.168C24 8.78726 22.8807 7.66797 21.5 7.66797C20.1193 7.66797 19 8.78726 19 10.168C19 11.5487 20.1193 12.668 21.5 12.668Z" stroke="#536179" stroke-width="1.5" stroke-linecap="round" stroke-linejoin="round"/>
<path d="M11.5 18.5C12.8807 18.5 14 17.3807 14 16C14 14.6193 12.8807 13.5 11.5 13.5C10.1193 13.5 9 14.6193 9 16C9 17.3807 10.1193 18.5 11.5 18.5Z" stroke="#536179" stroke-width="1.5" stroke-linecap="round" stroke-linejoin="round"/>
<path d="M21.5 24.332C22.8807 24.332 24 23.2127 24 21.832C24 20.4513 22.8807 19.332 21.5 19.332C20.1193 19.332 19 20.4513 19 21.832C19 23.2127 20.1193 24.332 21.5 24.332Z" stroke="#536179" stroke-width="1.5" stroke-linecap="round" stroke-linejoin="round"/>
<path d="M13.6583 17.2578L19.35 20.5745" stroke="#536179" stroke-width="1.5" stroke-linecap="round" stroke-linejoin="round"/>
<path d="M19.3417 11.4258L13.6583 14.7424" stroke="#536179" stroke-width="1.5" stroke-linecap="round" stroke-linejoin="round"/>
</svg>
