<svg width="33" height="32" viewBox="0 0 33 32" fill="none" xmlns="http://www.w3.org/2000/svg">
<rect x="0.5" width="32" height="32" rx="16" fill="#F0F2F5"/>
<path d="M12.25 23.168C13.5 23.918 15 24.3346 16.5 24.3346C21.0833 24.3346 24.8333 20.5846 24.8333 16.0013C24.8333 11.418 21.0833 7.66797 16.5 7.66797C11.9167 7.66797 8.16666 11.418 8.16666 16.0013C8.16666 17.5013 8.58332 18.918 9.24999 20.168L8.6071 22.6406C8.41238 23.3896 9.10558 24.0664 9.84964 23.8538L12.25 23.168Z" stroke="#536179" stroke-width="1.5" stroke-miterlimit="10" stroke-linecap="round" stroke-linejoin="round"/>
<path d="M19.0008 18.9134L19.0007 18.9134L18.9967 18.915C18.8661 18.9694 18.7203 19 18.5525 19C18.2878 19 17.9784 18.9379 17.6217 18.7861C17.2475 18.6269 16.8648 18.4088 16.4778 18.1275C16.0779 17.8358 15.6979 17.5124 15.3343 17.153C14.9746 16.7902 14.6514 16.4116 14.3638 16.0174C14.0831 15.6276 13.8656 15.2493 13.711 14.8862C13.5627 14.5343 13.5 14.225 13.5 13.9525C13.5 13.7865 13.5292 13.6381 13.5814 13.5077L13.5814 13.5077L13.583 13.5037C13.6302 13.384 13.7076 13.265 13.8314 13.1484L13.8372 13.143L13.8428 13.1374C13.9479 13.0341 14.0222 13.0077 14.071 13.0016L14.914 14.1882L14.914 14.1882L14.9171 14.1924C14.9239 14.2019 14.9301 14.2109 14.9357 14.2192C14.9278 14.2278 14.9189 14.237 14.9091 14.2468L14.904 14.2519L14.8989 14.2571L14.6169 14.5499C14.4279 14.7422 14.3435 14.9844 14.3435 15.2238C14.3435 15.3249 14.3574 15.4129 14.3772 15.4922L14.3876 15.5336L14.4027 15.5737C14.4132 15.6018 14.4238 15.6269 14.4288 15.6385L14.4446 15.6859L14.4766 15.7446C14.5797 15.9333 14.7334 16.1392 14.9119 16.3499L14.9119 16.3499L14.9173 16.3562C15.094 16.56 15.285 16.7707 15.4937 16.9832L15.4987 16.9882L15.5037 16.9932C15.7126 17.1978 15.9223 17.3955 16.1408 17.5808L16.1418 17.5816C16.3593 17.7654 16.5667 17.9147 16.7598 18.0168L16.7951 18.0355L16.8249 18.0474L16.8292 18.0493L16.8319 18.0506C16.8418 18.0551 16.8615 18.0641 16.8828 18.0733L16.8987 18.0801L16.9149 18.0861C17.0544 18.1384 17.18 18.1487 17.2718 18.1487C17.5436 18.1487 17.7792 18.0408 17.9534 17.868L18.2376 17.588L18.2376 17.588L18.2411 17.5845C18.2536 17.572 18.265 17.5612 18.2752 17.5519C18.2867 17.5591 18.2994 17.5673 18.3133 17.5767L19.4951 18.4144C19.4917 18.4286 19.4863 18.4444 19.4781 18.4619L20.1561 18.7825L19.4781 18.4619C19.4441 18.5338 19.4018 18.5987 19.3454 18.6609L19.9007 19.165L19.3457 18.6606C19.2278 18.7903 19.1149 18.8667 19.0008 18.9134Z" stroke="#536179" stroke-width="1.5" stroke-miterlimit="10"/>
</svg>
