<svg width="18" height="18" viewBox="0 0 18 18" fill="none" xmlns="http://www.w3.org/2000/svg">
<path d="M2.40009 5.19922L9.35734 9.27421L16.2673 5.22312" stroke="#536179" stroke-width="1.5" stroke-linecap="round" stroke-linejoin="round"/>
<path d="M9.35742 16.4986V9.26562" stroke="#536179" stroke-width="1.5" stroke-linecap="round" stroke-linejoin="round"/>
<path d="M7.55528 1.72738L7.55529 1.72739L7.55786 1.726C7.91465 1.53341 8.43408 1.41602 8.99676 1.41602C9.55909 1.41602 10.082 1.53329 10.4446 1.7273L10.4447 1.72739L15.0729 4.20241L15.0742 4.20306C15.4546 4.4056 15.841 4.78781 16.1339 5.26541C16.4276 5.74438 16.5834 6.24732 16.5834 6.64936V11.3577C16.5834 11.7598 16.4276 12.2627 16.1339 12.7417C15.841 13.2193 15.4546 13.6015 15.0742 13.804L15.0729 13.8047L10.4465 16.2787C10.4461 16.2789 10.4458 16.2791 10.4455 16.2793C10.088 16.4689 9.56538 16.5848 9.00001 16.5848C8.43461 16.5848 7.91198 16.4689 7.55451 16.2793C7.55418 16.2791 7.55385 16.2789 7.55352 16.2787L2.9271 13.8047L2.92588 13.804C2.54546 13.6015 2.15903 13.2193 1.86614 12.7417C1.5724 12.2627 1.41669 11.7598 1.41669 11.3577V6.64936C1.41669 6.24732 1.5724 5.74438 1.86614 5.26541C2.15903 4.78781 2.54546 4.4056 2.92588 4.20306L2.9271 4.20241L7.55528 1.72738Z" stroke="#536179" stroke-width="1.5" stroke-linecap="round" stroke-linejoin="round"/>
<path d="M13.5834 9.83333V6.91667L5.66669 2.75" stroke="#536179" stroke-width="1.5" stroke-linecap="round" stroke-linejoin="round"/>
</svg>
