<svg width="20" height="20" viewBox="0 0 20 20" fill="none" xmlns="http://www.w3.org/2000/svg">
<path d="M8 10.4503C8.35957 10.894 8.81831 11.2612 9.34512 11.5269C9.87192 11.7926 10.4545 11.9505 11.0532 11.9901C11.652 12.0297 12.253 11.95 12.8154 11.7563C13.3779 11.5626 13.8886 11.2596 14.313 10.8677L16.8248 8.54902C17.5874 7.82019 18.0094 6.84404 17.9998 5.83081C17.9903 4.81758 17.55 3.84834 16.7738 3.13185C15.9977 2.41536 14.9477 2.00895 13.85 2.00015C12.7524 1.99134 11.6949 2.38085 10.9053 3.08478L9.46522 4.4064" stroke="#C3C9D5" stroke-width="1.5" stroke-linecap="round" stroke-linejoin="round"/>
<path d="M12 9.5497C11.6404 9.10597 11.1817 8.73881 10.6549 8.47313C10.1281 8.20745 9.54553 8.04946 8.94676 8.00987C8.348 7.97029 7.74701 8.05004 7.18456 8.24371C6.62212 8.43738 6.11138 8.74045 5.68697 9.13235L3.17516 11.451C2.41258 12.1798 1.99062 13.156 2.00016 14.1692C2.0097 15.1824 2.44997 16.1517 3.22616 16.8681C4.00234 17.5846 5.05233 17.991 6.14998 17.9999C7.24763 18.0087 8.30511 17.6192 9.09467 16.9152L10.5264 15.5936" stroke="#C3C9D5" stroke-width="1.5" stroke-linecap="round" stroke-linejoin="round"/>
</svg>
