<svg width="25" height="24" viewBox="0 0 25 24" fill="none" xmlns="http://www.w3.org/2000/svg">
<path d="M10.668 13.1404C11.0635 13.6728 11.5681 14.1134 12.1476 14.4322C12.7271 14.7511 13.3679 14.9407 14.0265 14.9882C14.6852 15.0357 15.3463 14.94 15.9649 14.7076C16.5836 14.4751 17.1455 14.1115 17.6123 13.6412L20.3753 10.8588C21.2141 9.98423 21.6783 8.81284 21.6678 7.59697C21.6573 6.38109 21.173 5.21801 20.3192 4.35822C19.4654 3.49844 18.3104 3.01074 17.103 3.00018C15.8956 2.98961 14.7323 3.45702 13.8638 4.30173L12.2797 5.88768" stroke="#536179" stroke-width="1.5" stroke-linecap="round" stroke-linejoin="round"/>
<path d="M14.668 10.8596C14.2724 10.3272 13.7678 9.88658 13.1883 9.56776C12.6089 9.24894 11.9681 9.05935 11.3094 9.01185C10.6508 8.96435 9.98968 9.06004 9.37099 9.29245C8.7523 9.52486 8.19048 9.88853 7.72364 10.3588L4.96064 13.1412C4.12181 14.0158 3.65765 15.1872 3.66814 16.403C3.67863 17.6189 4.16294 18.782 5.01674 19.6418C5.87054 20.5016 7.02553 20.9893 8.23295 20.9998C9.44036 21.0104 10.6036 20.543 11.4721 19.6983L13.047 18.1123" stroke="#81A713" stroke-width="1.5" stroke-linecap="round" stroke-linejoin="round"/>
</svg>
