<svg width="15" height="15" viewBox="0 0 15 15" fill="none" xmlns="http://www.w3.org/2000/svg">
<circle cx="7.5" cy="7.5" r="7.1" stroke="#888F98" stroke-width="0.8"/>
<path d="M10.4986 4.74184L10.55 4.74327V4.69186V4V3.95H10.5H4.5H4.45V4V4.69186V4.74186H4.5H7.97671V5.7H4.5H4.45V5.75V6.36046V6.41046H4.5H7.96716C7.91991 6.65768 7.83491 6.83578 7.7137 6.97938C7.58866 7.12752 7.32961 7.24726 6.92256 7.28745L6.92254 7.28722L6.91779 7.28816C6.51162 7.36836 5.8766 7.3686 5.04961 7.3686H4.95802H4.90802V7.4186V8.88372C4.90802 9.54405 5.09393 10.0874 5.47228 10.4656C5.8512 10.8444 6.46142 11.05 7.20229 11.05C7.85084 11.05 8.4156 10.8854 8.79488 10.5063C9.17241 10.1289 9.35849 9.62757 9.40484 8.96862L9.40496 8.96863V8.96512V8.84302V8.79302H9.35496H8.43893H8.38893V8.84302V8.92442C8.38893 9.36732 8.29794 9.67466 8.0851 9.86379L8.0849 9.86355L8.08116 9.86771C7.91064 10.0571 7.60597 10.1767 7.20229 10.1767C6.75182 10.1767 6.44766 10.0566 6.27761 9.86771L6.27762 9.8677L6.27692 9.86696C6.06009 9.63575 5.96985 9.3249 5.96985 8.88372V8.079C6.6342 8.07704 7.17296 8.03551 7.58223 7.91442C8.04812 7.79011 8.37697 7.58218 8.6128 7.33071L8.61302 7.33092L8.61633 7.32652C8.79846 7.08377 8.93555 6.76447 8.98703 6.36977H10.5H10.55V6.31977V5.7093V5.6593H10.5H9.08435V4.70257L10.4986 4.74184Z" fill="#888F98" stroke="white" stroke-width="0.1"/>
</svg>
