<svg width="46" height="47" viewBox="0 0 46 47" fill="none" xmlns="http://www.w3.org/2000/svg">
<path d="M24.8826 18.6102L25.5289 19.254L34.5767 10.8852L30.6991 9.64062L26.3366 10.8852L24.2363 14.104L24.2767 16.0352L24.8826 18.6102Z" fill="#AADC19"/>
<path d="M7.10742 34.0029L9.87145 33.0273C11.7733 32.3561 13.8886 32.7488 15.4228 34.0579V34.0579C18.0578 36.3062 21.7953 36.7261 24.8634 35.1184L37.6616 28.4121C38.941 27.7417 39.3268 26.0916 38.4773 24.9235V24.9235C37.886 24.1106 36.8458 23.7597 35.883 24.0486L29.3684 26.003" stroke="#394908" stroke-width="1.42233" stroke-linecap="round"/>
<path d="M5.7334 25.4372L13.5876 23.6687C16.461 23.0217 19.4625 23.2537 22.2023 24.3346L25.9789 25.8244C26.5047 26.0319 26.8502 26.5397 26.8502 27.1049V27.1049C26.8502 27.9943 26.0195 28.6502 25.1543 28.4439L17.9974 26.7367" stroke="#394908" stroke-width="1.42233" stroke-linecap="round"/>
<circle cx="30.7997" cy="16.164" r="6.52333" stroke="#394908" stroke-width="1.42233"/>
<path d="M29.082 13.0664H30.5507C31.4778 13.0664 32.2293 13.8555 32.2293 14.8289C32.2293 15.8022 31.4778 16.5913 30.5507 16.5913H29.082L32.0194 19.6756" stroke="#394908" stroke-width="1.13786" stroke-linecap="round" stroke-linejoin="round"/>
<path d="M29.082 14.7188H33.0161" stroke="#394908" stroke-width="1.13786" stroke-linecap="round" stroke-linejoin="round"/>
<path d="M29.082 13.0664H33.0161" stroke="#394908" stroke-width="1.13786" stroke-linecap="round" stroke-linejoin="round"/>
<path d="M24.5925 10.0389C22.1575 9.65499 19.8724 11.3177 19.4884 13.7526C19.1707 15.7676 20.2545 17.68 22.0176 18.4973C22.1833 18.5741 22.3549 18.6412 22.532 18.6979" stroke="#394908" stroke-width="1.42233" stroke-linecap="round"/>
</svg>
