<svg width="24" height="24" viewBox="0 0 24 24" fill="none" xmlns="http://www.w3.org/2000/svg">
<path d="M12 24C18.6274 24 24 18.6274 24 12C24 5.37258 18.6274 0 12 0C5.37258 0 0 5.37258 0 12C0 18.6274 5.37258 24 12 24Z" fill="#5F259F"/>
<path d="M17.4464 8.86751C17.4464 8.39842 17.0441 7.99613 16.575 7.99613H14.9662L11.2792 3.77283C10.944 3.37055 10.4078 3.23657 9.87152 3.37055L8.59785 3.77283C8.39671 3.84 8.32954 4.10795 8.46387 4.24193L12.486 8.0633H6.38493C6.18378 8.0633 6.0498 8.19727 6.0498 8.39842V9.06866C6.0498 9.53776 6.45209 9.94004 6.92119 9.94004H7.85974V13.158C7.85974 15.5713 9.13341 16.9793 11.2788 16.9793C11.9491 16.9793 12.4857 16.9122 13.1559 16.6442V18.7896C13.1559 19.3931 13.625 19.8622 14.2284 19.8622H15.167C15.3681 19.8622 15.5693 19.661 15.5693 19.4599V9.87323H17.1113C17.3124 9.87323 17.4464 9.73925 17.4464 9.53811V8.86751ZM13.1559 14.6328C12.7536 14.8339 12.2174 14.9011 11.8151 14.9011C10.7426 14.9011 10.2063 14.3648 10.2063 13.158V9.94004H13.1559V14.6328Z" fill="white"/>
</svg>
