<svg width="1012" height="928" viewBox="0 0 1012 928" fill="none" xmlns="http://www.w3.org/2000/svg">
<path fill-rule="evenodd" clip-rule="evenodd" d="M926 464C926 336 873.661 220 789.113 136C704.565 52.0001 587.809 1.44419e-05 463 1.13754e-05C334.165 8.2101e-06 217.408 52.0001 136.887 136C52.3389 220 -1.13329e-05 336 -1.56501e-05 464C-1.99674e-05 592 52.3389 708 136.887 792C221.434 876 334.165 928 463 928L467.026 928C591.835 928 704.565 876 789.113 792C873.661 708 926 592 926 464Z" fill="#B8CFD9"/>
<path fill-rule="evenodd" clip-rule="evenodd" d="M789.113 136C704.565 52.0001 587.809 1.44419e-05 463 1.13754e-05C334.165 8.2101e-06 217.408 52.0001 136.887 136C52.3389 220 -1.13329e-05 336 -1.56501e-05 464C-1.99674e-05 592 52.3389 708 136.887 792L789.113 136Z" fill="#D8ECF2"/>
<path fill-rule="evenodd" clip-rule="evenodd" d="M821.305 463.992C821.305 363.992 781.044 275.992 716.626 211.992C652.209 147.992 563.636 107.992 462.984 107.992C362.331 107.992 273.757 147.992 209.339 211.992C144.922 275.992 104.662 363.992 104.662 463.992C104.662 563.992 144.922 651.992 209.339 715.992C273.757 779.992 362.331 819.992 462.984 819.992L467.01 819.992C563.636 819.992 652.209 779.992 716.626 715.992C781.044 651.992 821.305 563.992 821.305 463.992Z" fill="#D9ECF3"/>
<path fill-rule="evenodd" clip-rule="evenodd" d="M716.627 211.992L209.339 715.992C144.922 651.992 104.662 563.992 104.662 463.992C104.662 363.992 144.922 275.992 209.339 211.992C273.757 147.992 362.331 107.992 462.984 107.992C559.61 107.992 652.209 147.992 716.627 211.992Z" fill="#E8ECEE"/>
<path fill-rule="evenodd" clip-rule="evenodd" d="M209.339 247.992C273.757 183.992 362.331 143.992 462.984 143.992C563.636 143.992 652.209 183.992 716.626 247.992C777.018 307.992 817.279 391.992 821.305 483.992C821.305 475.992 821.305 471.992 821.305 463.992C821.305 363.992 781.044 275.992 716.626 211.992C652.209 147.992 563.636 107.992 462.984 107.992C362.331 107.992 273.757 147.992 209.339 211.992C144.922 275.992 104.662 363.992 104.662 463.992C104.662 471.992 104.662 475.992 104.662 483.992C108.688 391.992 148.948 307.992 209.339 247.992Z" fill="#7393A3"/>
<path d="M656.24 263.977L269.735 263.977L269.735 335.977L354.283 335.977C366.362 335.977 386.493 335.977 406.623 343.977C422.728 351.977 430.779 363.977 434.805 379.977L273.762 379.977L273.762 451.977L438.831 451.977C438.831 479.977 426.753 495.977 410.648 503.977C394.544 511.977 370.388 511.977 358.31 511.977L277.788 511.977L277.788 579.977L442.858 755.977L632.083 755.977L603.901 727.977L438.831 591.977C450.91 591.977 462.987 587.977 471.04 583.977C487.144 575.977 503.249 563.977 515.327 551.977C539.483 527.977 551.562 491.977 555.588 451.977L664.292 451.977L664.292 379.977L555.588 379.977C555.588 367.977 551.562 355.977 547.536 343.977C547.536 339.977 543.51 335.977 543.51 331.977L664.292 331.977L664.292 263.977L656.24 263.977Z" fill="#7393A3"/>
<path d="M656.331 232.109L269.826 232.109L269.826 304.109L354.374 304.109C366.452 304.109 386.584 304.109 406.714 312.109C422.818 320.109 430.87 332.109 434.896 348.109L273.852 348.109L273.852 420.109L438.922 420.109C438.922 448.109 426.843 464.109 410.739 472.109C394.635 480.109 370.479 480.109 358.401 480.109L277.879 480.109L277.879 540.109L451 724.109L603.992 724.109L438.922 560.109C451 560.109 463.078 556.109 471.13 552.109C487.235 544.109 503.339 532.109 515.418 520.109C539.574 496.109 551.652 460.109 555.678 420.109L664.383 420.109L664.383 348.109L555.678 348.109C555.678 336.109 551.653 324.109 547.627 312.109C547.627 308.109 543.601 304.109 543.601 300.109L664.383 300.109L664.383 232.109L656.331 232.109Z" fill="#B8CFD9"/>
<circle cx="812.963" cy="674.164" r="198.285" fill="white"/>
<path d="M809.945 575.047V773.332M719.816 677.194H906.083" stroke="#81A713" stroke-width="33" stroke-linecap="round"/>
</svg>
