<svg width="199" height="201" viewBox="0 0 199 201" fill="none" xmlns="http://www.w3.org/2000/svg">
<path fill-rule="evenodd" clip-rule="evenodd" d="M199 100.5C199 72.7758 187.752 47.6509 169.583 29.4569C151.413 11.2629 126.322 3.1036e-06 99.5 2.44462e-06C71.813 1.76437e-06 46.7217 11.2629 29.4173 29.4569C11.2478 47.6509 -2.45464e-06 72.7758 -3.38974e-06 100.5C-4.32484e-06 128.224 11.2478 153.349 29.4173 171.543C47.5869 189.737 71.813 201 99.5 201L100.365 201C127.187 201 151.413 189.737 169.583 171.543C187.752 153.349 199 128.224 199 100.5Z" fill="#B8CFD9"/>
<path fill-rule="evenodd" clip-rule="evenodd" d="M169.583 29.4569C151.413 11.2629 126.322 3.1036e-06 99.5 2.44461e-06C71.813 1.76437e-06 46.7217 11.2629 29.4173 29.4569C11.2478 47.6509 -2.45464e-06 72.7758 -3.38974e-06 100.5C-4.32484e-06 128.224 11.2478 153.349 29.4173 171.543L169.583 29.4569Z" fill="#D8ECF2"/>
<path fill-rule="evenodd" clip-rule="evenodd" d="M176.501 100.498C176.501 78.8388 167.849 59.7785 154.005 45.9165C140.162 32.0544 121.127 23.3906 99.4965 23.3906C77.866 23.3906 58.8311 32.0544 44.9876 45.9165C31.1441 59.7785 22.4922 78.8388 22.4922 100.498C22.4922 122.158 31.1441 141.218 44.9876 155.08C58.8311 168.942 77.866 177.606 99.4965 177.606L100.362 177.606C121.127 177.606 140.162 168.942 154.005 155.08C167.849 141.218 176.501 122.158 176.501 100.498Z" fill="#D9ECF3"/>
<path fill-rule="evenodd" clip-rule="evenodd" d="M154.005 45.9165L44.9876 155.08C31.1441 141.218 22.4922 122.158 22.4922 100.498C22.4922 78.8388 31.1442 59.7785 44.9876 45.9165C58.8311 32.0544 77.8661 23.3906 99.4965 23.3906C120.262 23.3906 140.162 32.0544 154.005 45.9165Z" fill="#E8ECEE"/>
<path fill-rule="evenodd" clip-rule="evenodd" d="M44.9876 53.7139C58.8311 39.8518 77.866 31.188 99.4965 31.188C121.127 31.188 140.162 39.8518 154.005 53.7139C166.983 66.7096 175.636 84.9035 176.501 104.83C176.501 103.097 176.501 102.231 176.501 100.498C176.501 78.8388 167.849 59.7785 154.005 45.9165C140.162 32.0544 121.127 23.3906 99.4965 23.3906C77.866 23.3906 58.8311 32.0544 44.9876 45.9165C31.1441 59.7785 22.4922 78.8388 22.4922 100.498C22.4922 102.231 22.4922 103.097 22.4922 104.83C23.3574 84.9035 32.0094 66.7096 44.9876 53.7139Z" fill="#7393A3"/>
<path d="M141.028 57.1758L57.9668 57.1758L57.9668 72.7706L76.1364 72.7706C78.7321 72.7706 83.0583 72.7706 87.3844 74.5034C90.8453 76.2361 92.5755 78.8353 93.4407 82.3008L58.8321 82.3008L58.8321 97.8956L94.306 97.8956C94.306 103.96 91.7103 107.426 88.2494 109.159C84.7885 110.891 79.5973 110.891 77.0017 110.891L59.6973 110.891L59.6973 125.62L95.1713 163.74L135.836 163.74L129.78 157.676L94.306 128.219C96.9017 128.219 99.4972 127.352 101.228 126.486C104.689 124.753 108.149 122.154 110.745 119.555C115.936 114.357 118.532 106.559 119.397 97.8956L142.758 97.8956L142.758 82.3008L119.397 82.3008C119.397 79.7017 118.532 77.1025 117.667 74.5034C117.667 73.637 116.802 72.7706 116.802 71.9043L142.758 71.9043L142.758 57.1758L141.028 57.1758Z" fill="#7393A3"/>
<path d="M141.047 50.2734L57.9863 50.2734L57.9863 65.8682L76.1559 65.8682C78.7516 65.8682 83.0778 65.8683 87.4039 67.601C90.8648 69.3338 92.5951 71.9329 93.4603 75.3985L58.8516 75.3984L58.8516 90.9932L94.3255 90.9932C94.3255 97.0579 91.7298 100.523 88.2689 102.256C84.8081 103.989 79.6169 103.989 77.0212 103.989L59.7169 103.989L59.7169 116.985L96.9211 156.838L129.799 156.838L94.3255 121.317C96.9212 121.317 99.5167 120.45 101.247 119.584C104.708 117.851 108.169 115.252 110.765 112.653C115.956 107.454 118.552 99.657 119.417 90.9932L142.778 90.9932L142.778 75.3985L119.417 75.3985C119.417 72.7993 118.552 70.2002 117.687 67.601C117.687 66.7346 116.821 65.8682 116.821 65.0019L142.778 65.0019L142.778 50.2734L141.047 50.2734Z" fill="#B8CFD9"/>
</svg>
