<svg width="20" height="11" viewBox="0 0 20 11" fill="none" xmlns="http://www.w3.org/2000/svg">
<path d="M3.66767 10.144C2.96367 10.144 2.34367 9.952 1.80767 9.568C1.27967 9.176 0.867672 8.636 0.571672 7.948C0.275672 7.252 0.127672 6.444 0.127672 5.524C0.127672 4.604 0.275672 3.8 0.571672 3.112C0.867672 2.416 1.27967 1.876 1.80767 1.492C2.33567 1.108 2.95167 0.916 3.65567 0.916C4.35967 0.916 4.97567 1.108 5.50367 1.492C6.03167 1.876 6.44367 2.416 6.73967 3.112C7.03567 3.8 7.18367 4.604 7.18367 5.524C7.18367 6.444 7.03567 7.252 6.73967 7.948C6.45167 8.644 6.04367 9.184 5.51567 9.568C4.98767 9.952 4.37167 10.144 3.66767 10.144ZM3.66767 9.244C4.17967 9.244 4.62767 9.088 5.01167 8.776C5.39567 8.464 5.69567 8.032 5.91167 7.48C6.12767 6.92 6.23567 6.268 6.23567 5.524C6.23567 4.78 6.12767 4.132 5.91167 3.58C5.69567 3.02 5.39567 2.588 5.01167 2.284C4.62767 1.972 4.17567 1.816 3.65567 1.816C3.14367 1.816 2.69567 1.972 2.31167 2.284C1.92767 2.588 1.62767 3.02 1.41167 3.58C1.19567 4.132 1.08767 4.78 1.08767 5.524C1.08767 6.26 1.19567 6.908 1.41167 7.468C1.62767 8.028 1.92767 8.464 2.31167 8.776C2.70367 9.088 3.15567 9.244 3.66767 9.244ZM9.70873 10L17.0287 1.06H18.1927L10.8727 10H9.70873ZM11.0167 5.596C10.5847 5.596 10.1927 5.492 9.84073 5.284C9.48873 5.068 9.20473 4.784 8.98873 4.432C8.78073 4.08 8.67673 3.688 8.67673 3.256C8.67673 2.824 8.78073 2.432 8.98873 2.08C9.20473 1.72 9.48873 1.436 9.84073 1.228C10.1927 1.02 10.5847 0.916 11.0167 0.916C11.4487 0.916 11.8407 1.02 12.1927 1.228C12.5447 1.436 12.8247 1.72 13.0327 2.08C13.2407 2.432 13.3447 2.824 13.3447 3.256C13.3447 3.688 13.2407 4.08 13.0327 4.432C12.8247 4.784 12.5447 5.068 12.1927 5.284C11.8407 5.492 11.4487 5.596 11.0167 5.596ZM11.0167 4.732C11.2967 4.732 11.5407 4.664 11.7487 4.528C11.9647 4.384 12.1327 4.2 12.2527 3.976C12.3807 3.744 12.4447 3.504 12.4447 3.256C12.4447 3 12.3807 2.76 12.2527 2.536C12.1327 2.312 11.9647 2.132 11.7487 1.996C11.5407 1.852 11.2967 1.78 11.0167 1.78C10.7447 1.78 10.4967 1.852 10.2727 1.996C10.0567 2.132 9.88473 2.312 9.75673 2.536C9.63673 2.76 9.57673 3 9.57673 3.256C9.57673 3.504 9.63673 3.744 9.75673 3.976C9.88473 4.2 10.0567 4.384 10.2727 4.528C10.4967 4.664 10.7447 4.732 11.0167 4.732ZM16.7767 10.144C16.3447 10.144 15.9527 10.04 15.6007 9.832C15.2487 9.616 14.9647 9.332 14.7487 8.98C14.5407 8.628 14.4367 8.236 14.4367 7.804C14.4367 7.372 14.5407 6.98 14.7487 6.628C14.9647 6.268 15.2487 5.984 15.6007 5.776C15.9527 5.568 16.3447 5.464 16.7767 5.464C17.2087 5.464 17.6007 5.568 17.9527 5.776C18.3047 5.984 18.5847 6.268 18.7927 6.628C19.0007 6.98 19.1047 7.372 19.1047 7.804C19.1047 8.236 19.0007 8.628 18.7927 8.98C18.5847 9.332 18.3047 9.616 17.9527 9.832C17.6007 10.04 17.2087 10.144 16.7767 10.144ZM16.7767 9.28C17.0567 9.28 17.3007 9.212 17.5087 9.076C17.7247 8.932 17.8927 8.748 18.0127 8.524C18.1407 8.292 18.2047 8.052 18.2047 7.804C18.2047 7.548 18.1407 7.308 18.0127 7.084C17.8927 6.86 17.7247 6.68 17.5087 6.544C17.3007 6.4 17.0567 6.328 16.7767 6.328C16.5047 6.328 16.2567 6.4 16.0327 6.544C15.8167 6.68 15.6447 6.86 15.5167 7.084C15.3967 7.308 15.3367 7.548 15.3367 7.804C15.3367 8.052 15.3967 8.292 15.5167 8.524C15.6447 8.748 15.8167 8.932 16.0327 9.076C16.2567 9.212 16.5047 9.28 16.7767 9.28Z" fill="#536179"/>
</svg>
