<svg width="20" height="20" viewBox="0 0 20 20" fill="none" xmlns="http://www.w3.org/2000/svg">
<path d="M16.6667 6.8763V15.0013C16.6667 17.5013 15.175 18.3346 13.3334 18.3346H6.66671C4.82504 18.3346 3.33337 17.5013 3.33337 15.0013V6.8763C3.33337 4.16797 4.82504 3.54297 6.66671 3.54297C6.66671 4.05964 6.87502 4.5263 7.21668 4.86797C7.55835 5.20963 8.02504 5.41797 8.54171 5.41797H11.4584C12.4917 5.41797 13.3334 4.5763 13.3334 3.54297C15.175 3.54297 16.6667 4.16797 16.6667 6.8763Z" stroke="#536179" stroke-width="1.5" stroke-linecap="round" stroke-linejoin="round"/>
<path d="M13.3333 3.54297C13.3333 4.5763 12.4916 5.41797 11.4583 5.41797H8.54163C8.02496 5.41797 7.55827 5.20963 7.2166 4.86797C6.87494 4.5263 6.66663 4.05964 6.66663 3.54297C6.66663 2.50964 7.50829 1.66797 8.54163 1.66797H11.4583C11.975 1.66797 12.4416 1.87631 12.7833 2.21797C13.125 2.55964 13.3333 3.0263 13.3333 3.54297Z" stroke="#536179" stroke-width="1.5" stroke-linecap="round" stroke-linejoin="round"/>
<path d="M6.66663 10.832H9.99996" stroke="#536179" stroke-width="1.5" stroke-linecap="round" stroke-linejoin="round"/>
<path d="M6.66663 14.168H13.3333" stroke="#536179" stroke-width="1.5" stroke-linecap="round" stroke-linejoin="round"/>
</svg>
