<svg width="25" height="24" viewBox="0 0 25 24" fill="none" xmlns="http://www.w3.org/2000/svg">
<path opacity="0.4" d="M20.4998 6.93998C20.4998 7.47998 20.2098 7.96995 19.7498 8.21995L18.0098 9.15995L16.5298 9.94999L13.4598 11.61C13.1298 11.79 12.7698 11.88 12.3998 11.88C12.0298 11.88 11.6698 11.79 11.3398 11.61L5.0498 8.21995C4.5898 7.96995 4.2998 7.47998 4.2998 6.93998C4.2998 6.39998 4.5898 5.90995 5.0498 5.65995L7.01981 4.59996L8.58981 3.74998L11.3398 2.27C11.9998 1.91 12.7998 1.91 13.4598 2.27L19.7498 5.65995C20.2098 5.90995 20.4998 6.39998 20.4998 6.93998Z" fill="#A4AFC1"/>
<path opacity="0.4" d="M10.2991 12.7899L4.44913 9.85989C3.99913 9.62989 3.47913 9.65989 3.04913 9.91989C2.61913 10.1799 2.36914 10.6399 2.36914 11.1399V16.6699C2.36914 17.6299 2.89912 18.4899 3.75912 18.9199L9.60913 21.8399C9.80913 21.9399 10.0291 21.9899 10.2491 21.9899C10.5091 21.9899 10.7691 21.9199 10.9991 21.7699C11.4291 21.5099 11.6791 21.0499 11.6791 20.5499V15.0199C11.6891 14.0799 11.1591 13.2199 10.2991 12.7899Z" fill="#A4AFC1"/>
<path opacity="0.4" d="M22.4294 11.1502V16.6801C22.4294 17.6301 21.8994 18.4901 21.0394 18.9201L15.1894 21.8501C14.9894 21.9501 14.7694 22.0001 14.5494 22.0001C14.2894 22.0001 14.0294 21.9302 13.7894 21.7802C13.3694 21.5202 13.1094 21.0601 13.1094 20.5601V15.0401C13.1094 14.0801 13.6394 13.2201 14.4994 12.7901L16.6494 11.7201L18.1494 10.9701L20.3494 9.87013C20.7994 9.64013 21.3194 9.66012 21.7494 9.93012C22.1694 10.1901 22.4294 10.6502 22.4294 11.1502Z" fill="#A4AFC1"/>
<path d="M18.0095 9.15997L16.5295 9.95001L7.01953 4.59998L8.58954 3.75L17.7695 8.92999C17.8695 8.98999 17.9495 9.06997 18.0095 9.15997Z" fill="#A4AFC1"/>
<path d="M18.1494 10.97V13.24C18.1494 13.65 17.8094 13.99 17.3994 13.99C16.9894 13.99 16.6494 13.65 16.6494 13.24V11.72L18.1494 10.97Z" fill="#A4AFC1"/>
</svg>
