<svg width="36" height="36" viewBox="0 0 36 36" fill="none" xmlns="http://www.w3.org/2000/svg">
<circle cx="18" cy="18" r="18" fill="#E95649"/>
<path d="M10.6406 14.2031L17.999 18.4615L25.3073 14.2281" stroke="#FCE9E8" stroke-width="1.5" stroke-linecap="round" stroke-linejoin="round"/>
<path d="M18 26.0115V18.4531" stroke="#FCE9E8" stroke-width="1.5" stroke-linecap="round" stroke-linejoin="round"/>
<path d="M16.2755 10.0729L11.8255 12.5396C10.8172 13.0979 9.99219 14.4979 9.99219 15.6479V20.3563C9.99219 21.5063 10.8172 22.9063 11.8255 23.4646L16.2755 25.9396C17.2255 26.4646 18.7839 26.4646 19.7339 25.9396L24.1839 23.4646C25.1922 22.9063 26.0172 21.5063 26.0172 20.3563V15.6479C26.0172 14.4979 25.1922 13.0979 24.1839 12.5396L19.7339 10.0646C18.7755 9.53959 17.2255 9.53959 16.2755 10.0729Z" stroke="#FCE9E8" stroke-width="1.5" stroke-linecap="round" stroke-linejoin="round"/>
</svg>
