<svg width="32" height="32" viewBox="0 0 32 32" fill="none" xmlns="http://www.w3.org/2000/svg">
<path d="M30.9332 16.5C30.9332 24.7474 24.2474 31.4332 16 31.4332C7.7526 31.4332 1.06676 24.7474 1.06676 16.5C1.06676 12.7975 2.41285 9.41206 4.64367 6.80234C7.38425 3.59629 11.4546 1.56676 16 1.56676C24.2474 1.56676 30.9332 8.2526 30.9332 16.5Z" fill="white"/>
<path d="M30.9332 16.5C30.9332 24.7474 24.2474 31.4332 16 31.4332C7.7526 31.4332 1.06676 24.7474 1.06676 16.5C1.06676 12.7975 2.41285 9.41206 4.64367 6.80234C7.38425 3.59629 11.4546 1.56676 16 1.56676C24.2474 1.56676 30.9332 8.2526 30.9332 16.5Z" fill="#81A713" fill-opacity="0.15"/>
<path d="M30.9332 16.5C30.9332 24.7474 24.2474 31.4332 16 31.4332C7.7526 31.4332 1.06676 24.7474 1.06676 16.5C1.06676 12.7975 2.41285 9.41206 4.64367 6.80234C7.38425 3.59629 11.4546 1.56676 16 1.56676C24.2474 1.56676 30.9332 8.2526 30.9332 16.5Z" stroke="white" stroke-width="2.13352"/>
<path fill-rule="evenodd" clip-rule="evenodd" d="M10.3911 21.1875C14.6321 20.718 17.3946 20.7604 21.6149 21.1973C21.9295 21.2301 22.2277 21.354 22.473 21.5537C22.7183 21.7534 22.9 22.0203 22.996 22.3217C23.0919 22.6231 23.0979 22.9459 23.0132 23.2507C22.9285 23.5554 22.7568 23.8288 22.519 24.0375C20.0302 26.207 19.0243 27.3885 15.8512 27.3804C12.6722 27.3728 11.7576 26.1711 9.45052 24.0304C9.28534 23.8766 9.15366 23.6903 9.06371 23.4833C8.97376 23.2762 8.92747 23.0528 8.92774 22.8271C8.92694 22.4215 9.07582 22.0299 9.34584 21.7272C9.61586 21.4246 9.98804 21.2322 10.3911 21.1869V21.1875Z" fill="#1F242D"/>
<path d="M20.3515 14.3243C20.3515 15.4785 19.8929 16.5855 19.0768 17.4016C18.2606 18.2178 17.1537 18.6763 15.9995 18.6763C14.8452 18.6763 13.7383 18.2178 12.9221 17.4016C12.106 16.5855 11.6475 15.4785 11.6475 14.3243C11.6475 13.1701 12.106 12.0631 12.9221 11.247C13.7383 10.4308 14.8452 9.97229 15.9995 9.97229C17.1537 9.97229 18.2606 10.4308 19.0768 11.247C19.8929 12.0631 20.3515 13.1701 20.3515 14.3243Z" fill="#1F242D"/>
<path fill-rule="evenodd" clip-rule="evenodd" d="M15.9995 17.5883C16.8651 17.5883 17.6953 17.2444 18.3075 16.6323C18.9196 16.0202 19.2635 15.19 19.2635 14.3243C19.2635 13.4586 18.9196 12.6284 18.3075 12.0163C17.6953 11.4042 16.8651 11.0603 15.9995 11.0603C15.1338 11.0603 14.3036 11.4042 13.6915 12.0163C13.0793 12.6284 12.7355 13.4586 12.7355 14.3243C12.7355 15.19 13.0793 16.0202 13.6915 16.6323C14.3036 17.2444 15.1338 17.5883 15.9995 17.5883ZM15.9995 18.6763C17.1537 18.6763 18.2606 18.2178 19.0768 17.4016C19.8929 16.5855 20.3515 15.4785 20.3515 14.3243C20.3515 13.1701 19.8929 12.0631 19.0768 11.247C18.2606 10.4308 17.1537 9.97229 15.9995 9.97229C14.8452 9.97229 13.7383 10.4308 12.9221 11.247C12.106 12.0631 11.6475 13.1701 11.6475 14.3243C11.6475 15.4785 12.106 16.5855 12.9221 17.4016C13.7383 18.2178 14.8452 18.6763 15.9995 18.6763Z" fill="#1F242D"/>
</svg>
