<svg width="20" height="20" viewBox="0 0 20 20" fill="none" xmlns="http://www.w3.org/2000/svg">
<path d="M10.1002 10.6497C10.0418 10.6414 9.96685 10.6414 9.90018 10.6497C8.43351 10.5997 7.26685 9.39974 7.26685 7.92474C7.26685 6.41641 8.48351 5.19141 10.0002 5.19141C11.5085 5.19141 12.7335 6.41641 12.7335 7.92474C12.7252 9.39974 11.5668 10.5997 10.1002 10.6497Z" stroke="#536179" stroke-width="1.5" stroke-linecap="round" stroke-linejoin="round"/>
<path d="M15.6165 16.1508C14.1331 17.5091 12.1665 18.3341 9.99978 18.3341C7.83312 18.3341 5.86645 17.5091 4.38312 16.1508C4.46645 15.3674 4.96645 14.6008 5.85812 14.0008C8.14145 12.4841 11.8748 12.4841 14.1415 14.0008C15.0331 14.6008 15.5331 15.3674 15.6165 16.1508Z" stroke="#536179" stroke-width="1.5" stroke-linecap="round" stroke-linejoin="round"/>
<path d="M10 18.3327C14.6024 18.3327 18.3334 14.6017 18.3334 9.99935C18.3334 5.39698 14.6024 1.66602 10 1.66602C5.39765 1.66602 1.66669 5.39698 1.66669 9.99935C1.66669 14.6017 5.39765 18.3327 10 18.3327Z" stroke="#536179" stroke-width="1.5" stroke-linecap="round" stroke-linejoin="round"/>
</svg>
