<svg width="20" height="21" viewBox="0 0 20 21" fill="none" xmlns="http://www.w3.org/2000/svg">
<path d="M16.65 6.5V14.5C16.65 15.585 16.3786 16.3746 15.9004 16.8897C15.4315 17.3946 14.657 17.75 13.4 17.75H7C5.74295 17.75 4.96848 17.3946 4.4996 16.8897C4.02137 16.3746 3.75 15.585 3.75 14.5V6.5C3.75 5.41497 4.02137 4.62535 4.4996 4.11034C4.96848 3.60538 5.74295 3.25 7 3.25H13.4C14.657 3.25 15.4315 3.60538 15.9004 4.11034C16.3786 4.62535 16.65 5.41497 16.65 6.5Z" stroke="#343D4C" stroke-width="1.5" stroke-miterlimit="10" stroke-linecap="round" stroke-linejoin="round"/>
<path d="M7 10.5H11.8" stroke="#343D4C" stroke-width="1.5" stroke-miterlimit="10" stroke-linecap="round" stroke-linejoin="round"/>
<path d="M7 7.30005H10.2" stroke="#343D4C" stroke-width="1.5" stroke-miterlimit="10" stroke-linecap="round" stroke-linejoin="round"/>
<path d="M7 13.7H13.4" stroke="#343D4C" stroke-width="1.5" stroke-miterlimit="10" stroke-linecap="round" stroke-linejoin="round"/>
</svg>
