<svg width="16" height="16" viewBox="0 0 16 16" fill="none" xmlns="http://www.w3.org/2000/svg">
<path d="M7.9987 14.6654C11.6806 14.6654 14.6654 11.6806 14.6654 7.9987C14.6654 4.3168 11.6806 1.33203 7.9987 1.33203C4.3168 1.33203 1.33203 4.3168 1.33203 7.9987C1.33203 11.6806 4.3168 14.6654 7.9987 14.6654Z" stroke="#343D4C" stroke-width="1.25" stroke-linecap="round" stroke-linejoin="round"/>
<path d="M5.33984 9.672C5.45984 9.872 5.60651 10.0587 5.77317 10.2253C6.99984 11.452 8.99317 11.452 10.2265 10.2253C10.7265 9.72534 11.0132 9.09198 11.1065 8.44531" stroke="#343D4C" stroke-width="1.25" stroke-linecap="round" stroke-linejoin="round"/>
<path d="M4.89453 7.5555C4.98786 6.90216 5.27454 6.27547 5.77454 5.77547C7.0012 4.5488 8.99453 4.5488 10.2279 5.77547C10.4012 5.9488 10.5412 6.13548 10.6612 6.32881" stroke="#343D4C" stroke-width="1.25" stroke-linecap="round" stroke-linejoin="round"/>
<path d="M5.21484 11.4519V9.67188H6.99483" stroke="#343D4C" stroke-width="1.25" stroke-linecap="round" stroke-linejoin="round"/>
<path d="M10.7878 4.54688V6.32686H9.00781" stroke="#343D4C" stroke-width="1.25" stroke-linecap="round" stroke-linejoin="round"/>
</svg>
