<svg width="20" height="21" viewBox="0 0 20 21" fill="none" xmlns="http://www.w3.org/2000/svg">
<path d="M9.9974 18.7956C14.5998 18.7956 18.3307 15.0646 18.3307 10.4622C18.3307 5.85987 14.5998 2.12891 9.9974 2.12891C5.39502 2.12891 1.66406 5.85987 1.66406 10.4622C1.66406 15.0646 5.39502 18.7956 9.9974 18.7956Z" stroke="#536179" stroke-width="1.25" stroke-linecap="round" stroke-linejoin="round"/>
<path d="M6.67188 12.5529C6.82187 12.8029 7.0052 13.0362 7.21354 13.2446C8.74687 14.7779 11.2385 14.7779 12.7802 13.2446C13.4052 12.6196 13.7635 11.8279 13.8802 11.0195" stroke="#536179" stroke-width="1.25" stroke-linecap="round" stroke-linejoin="round"/>
<path d="M6.11719 9.90238C6.23385 9.08571 6.59219 8.30234 7.21719 7.67734C8.75053 6.14401 11.2422 6.14401 12.7839 7.67734C13.0005 7.89401 13.1755 8.12736 13.3255 8.36902" stroke="#536179" stroke-width="1.25" stroke-linecap="round" stroke-linejoin="round"/>
<path d="M6.51562 14.7797V12.5547H8.74061" stroke="#536179" stroke-width="1.25" stroke-linecap="round" stroke-linejoin="round"/>
<path d="M13.4828 6.14453V8.36952H11.2578" stroke="#536179" stroke-width="1.25" stroke-linecap="round" stroke-linejoin="round"/>
</svg>
