<svg width="15" height="18" viewBox="0 0 15 18" fill="none" xmlns="http://www.w3.org/2000/svg">
<path d="M7.68594 10.1922C9.12188 10.1922 10.2859 9.02813 10.2859 7.59219C10.2859 6.15625 9.12188 4.99219 7.68594 4.99219C6.25 4.99219 5.08594 6.15625 5.08594 7.59219C5.08594 9.02813 6.25 10.1922 7.68594 10.1922Z" stroke="#1F242D" stroke-width="1.5"/>
<path d="M13.9375 6.2502L13.9375 6.25023C14.803 10.0734 12.4364 13.3969 10.1661 15.577L10.1648 15.5783C8.78123 16.9137 6.59105 16.9156 5.19723 15.5774C2.93522 13.3972 0.568392 10.0657 1.43369 6.24231C2.16272 3.03832 4.88795 1.41608 7.68825 1.41797C10.4887 1.41986 13.2123 3.04601 13.9375 6.2502Z" stroke="#1F242D" stroke-width="1.5"/>
</svg>
