<svg width="16" height="16" viewBox="0 0 16 16" fill="none" xmlns="http://www.w3.org/2000/svg">
<path d="M14.0533 5.72019V10.2802C14.0533 11.0268 13.6533 11.7202 13.0066 12.1002L9.04663 14.3869C8.39996 14.7602 7.59995 14.7602 6.94661 14.3869L2.98661 12.1002C2.33995 11.7269 1.93994 11.0335 1.93994 10.2802V5.72019C1.93994 4.97352 2.33995 4.28016 2.98661 3.90016L6.94661 1.6135C7.59328 1.24016 8.3933 1.24016 9.04663 1.6135L13.0066 3.90016C13.6533 4.28016 14.0533 4.96685 14.0533 5.72019Z" fill="#E95649"/>
<mask id="path-2-inside-1_1387_42846" fill="white">
<path d="M8 9.1665C7.72667 9.1665 7.5 8.93984 7.5 8.6665V5.1665C7.5 4.89317 7.72667 4.6665 8 4.6665C8.27333 4.6665 8.5 4.89317 8.5 5.1665V8.6665C8.5 8.93984 8.27333 9.1665 8 9.1665Z"/>
</mask>
<path d="M8 9.1665C7.72667 9.1665 7.5 8.93984 7.5 8.6665V5.1665C7.5 4.89317 7.72667 4.6665 8 4.6665C8.27333 4.6665 8.5 4.89317 8.5 5.1665V8.6665C8.5 8.93984 8.27333 9.1665 8 9.1665Z" fill="white"/>
<path d="M8 8.1665C8.27895 8.1665 8.5 8.38755 8.5 8.6665H6.5C6.5 9.49212 7.17438 10.1665 8 10.1665V8.1665ZM8.5 8.6665V5.1665H6.5V8.6665H8.5ZM8.5 5.1665C8.5 5.44546 8.27895 5.6665 8 5.6665V3.6665C7.17438 3.6665 6.5 4.34089 6.5 5.1665H8.5ZM8 5.6665C7.72105 5.6665 7.5 5.44546 7.5 5.1665H9.5C9.5 4.34089 8.82562 3.6665 8 3.6665V5.6665ZM7.5 5.1665V8.6665H9.5V5.1665H7.5ZM7.5 8.6665C7.5 8.38755 7.72105 8.1665 8 8.1665V10.1665C8.82562 10.1665 9.5 9.49212 9.5 8.6665H7.5Z" fill="white" mask="url(#path-2-inside-1_1387_42846)"/>
<path d="M8.00016 11.5001C7.9135 11.5001 7.82683 11.4801 7.74683 11.4467C7.66016 11.4134 7.59348 11.3667 7.52681 11.3067C7.46681 11.2401 7.42017 11.1667 7.38017 11.0867C7.34683 11.0067 7.3335 10.9201 7.3335 10.8334C7.3335 10.6601 7.40015 10.4867 7.52681 10.3601C7.59348 10.3001 7.66016 10.2534 7.74683 10.2201C7.99349 10.1134 8.28684 10.1734 8.47351 10.3601C8.53351 10.4267 8.58015 10.4934 8.61348 10.5801C8.64682 10.6601 8.66683 10.7467 8.66683 10.8334C8.66683 10.9201 8.64682 11.0067 8.61348 11.0867C8.58015 11.1667 8.53351 11.2401 8.47351 11.3067C8.34684 11.4334 8.18016 11.5001 8.00016 11.5001Z" fill="white"/>
</svg>
