<svg width="20" height="20" viewBox="0 0 20 20" fill="none" xmlns="http://www.w3.org/2000/svg">
<path d="M1.64062 9.29688V13.3379C1.64062 17.3789 3.31882 18.9989 7.50498 18.9989H12.5302C16.7164 18.9989 18.3946 17.3789 18.3946 13.3379V9.29688" stroke="#8694AC" stroke-width="1.5" stroke-linecap="round" stroke-linejoin="round"/>
<path d="M10.0229 10C11.7291 10 12.9878 8.659 12.8199 7.012L12.2046 1H7.85061L7.22595 7.012C7.05813 8.659 8.31678 10 10.0229 10Z" stroke="#8694AC" stroke-width="1.5" stroke-linecap="round" stroke-linejoin="round"/>
<path d="M15.9027 10C17.786 10 19.1659 8.524 18.9794 6.715L18.7183 4.24C18.3827 1.9 17.4504 1 15.0077 1H12.1641L12.8167 7.309C12.9752 8.794 14.3644 10 15.9027 10Z" stroke="#8694AC" stroke-width="1.5" stroke-linecap="round" stroke-linejoin="round"/>
<path d="M4.09357 10C5.63192 10 7.02109 8.794 7.17026 7.309L7.37537 5.32L7.82289 1H4.97928C2.53658 1 1.60425 1.9 1.26861 4.24L1.01688 6.715C0.830414 8.524 2.21026 10 4.09357 10Z" stroke="#8694AC" stroke-width="1.5" stroke-linecap="round" stroke-linejoin="round"/>
<path d="M10.0261 14.5C8.46915 14.5 7.69531 15.247 7.69531 16.75V19H12.357V16.75C12.357 15.247 11.5831 14.5 10.0261 14.5Z" stroke="#8694AC" stroke-width="1.5" stroke-linecap="round" stroke-linejoin="round"/>
</svg>
