<svg width="40" height="41" viewBox="0 0 40 41" fill="none" xmlns="http://www.w3.org/2000/svg">
<path d="M33 19V17.2676V13.5352C33 8.22535 31.0912 7 27.5 7H12.5C8.90875 7 7 8.22535 7 13.5352V29.4648C7 34.3662 9.90875 36 13.5 36H18H21" stroke="#1F242D" stroke-width="1.5" stroke-linecap="round" stroke-linejoin="round"/>
<path d="M12 13H28" stroke="#81A713" stroke-width="1.5" stroke-linecap="round" stroke-linejoin="round"/>
<path d="M12 19H20" stroke="#81A713" stroke-width="1.5" stroke-linecap="round" stroke-linejoin="round"/>
<path d="M35.2148 34.3867L36.0103 35.1822L38.4852 37.6571C38.8757 38.0476 38.8757 38.6808 38.4852 39.0713V39.0713C38.0947 39.4618 37.4615 39.4618 37.071 39.0713L34.5961 36.5964L33.5 35.5" stroke="#81A713" stroke-width="1.5"/>
<circle cx="30" cy="30" r="6.25" stroke="#81A713" stroke-width="1.5"/>
</svg>
