<svg width="28" height="29" viewBox="0 0 28 29" fill="none" xmlns="http://www.w3.org/2000/svg">
<rect y="0.921875" width="28" height="28" rx="14" fill="#F7A200"/>
<path d="M13.9974 14.9206C15.8383 14.9206 17.3307 13.4282 17.3307 11.5872C17.3307 9.74629 15.8383 8.25391 13.9974 8.25391C12.1564 8.25391 10.6641 9.74629 10.6641 11.5872C10.6641 13.4282 12.1564 14.9206 13.9974 14.9206Z" stroke="white" stroke-width="1.25" stroke-linecap="round" stroke-linejoin="round"/>
<path d="M8.27344 21.5885C8.27344 19.0085 10.8401 16.9219 14.0001 16.9219" stroke="white" stroke-width="1.25" stroke-linecap="round" stroke-linejoin="round"/>
<path d="M18.1333 21.1886C19.3115 21.1886 20.2667 20.2334 20.2667 19.0552C20.2667 17.877 19.3115 16.9219 18.1333 16.9219C16.9551 16.9219 16 17.877 16 19.0552C16 20.2334 16.9551 21.1886 18.1333 21.1886Z" stroke="white" stroke-width="1.25" stroke-linecap="round" stroke-linejoin="round"/>
<path d="M20.6667 21.5885L20 20.9219" stroke="white" stroke-width="1.25" stroke-linecap="round" stroke-linejoin="round"/>
</svg>
