<svg width="25" height="24" viewBox="0 0 25 24" fill="none" xmlns="http://www.w3.org/2000/svg">
<path opacity="0.4" d="M11.7002 21C16.9469 21 21.2002 16.7467 21.2002 11.5C21.2002 6.25329 16.9469 2 11.7002 2C6.45349 2 2.2002 6.25329 2.2002 11.5C2.2002 16.7467 6.45349 21 11.7002 21Z" fill="#A4AFC1"/>
<path d="M21.4998 22.0001C21.3198 22.0001 21.1398 21.9301 21.0098 21.8001L19.1498 19.9401C18.8798 19.6701 18.8798 19.2301 19.1498 18.9501C19.4198 18.6801 19.8598 18.6801 20.1398 18.9501L21.9998 20.8101C22.2698 21.0801 22.2698 21.5201 21.9998 21.8001C21.8598 21.9301 21.6798 22.0001 21.4998 22.0001Z" fill="#A4AFC1"/>
</svg>
