<svg width="25" height="24" viewBox="0 0 25 24" fill="none" xmlns="http://www.w3.org/2000/svg">
<path d="M12.2378 22.0017C12.2378 22.0017 20.3974 18.0014 20.3974 12.0009V5.00026L12.2378 2L4.07812 5.00026V12.0009C4.07812 18.0014 12.2378 22.0017 12.2378 22.0017Z" stroke="#1F242D" stroke-width="1.50013" stroke-linecap="round" stroke-linejoin="round"/>
<path d="M14.2155 8.76742L11.3585 11.6875L10.2597 10.5644C9.89559 10.1922 9.3052 10.1922 8.94107 10.5644C8.57694 10.9366 8.57694 11.54 8.94107 11.9121L10.6992 13.7091C10.8812 13.8952 11.1199 13.9883 11.3584 13.9883C11.597 13.9883 11.8357 13.8953 12.0177 13.7091L15.5339 10.1152C15.8981 9.74297 15.8981 9.13959 15.5339 8.76742C15.1699 8.39524 14.5795 8.39524 14.2155 8.76742Z" fill="#81A713"/>
</svg>
