<svg width="16" height="16" viewBox="0 0 16 16" fill="none" xmlns="http://www.w3.org/2000/svg">
<path d="M10.0026 1.33203V7.9987C10.0026 8.73203 9.4026 9.33203 8.66927 9.33203H1.33594V5.07869C1.8226 5.65869 2.56929 6.0187 3.39596 5.9987C4.06929 5.98536 4.67594 5.72537 5.12927 5.29203C5.33594 5.1187 5.50929 4.89869 5.64262 4.65869C5.88262 4.25202 6.01594 3.77201 6.0026 3.27201C5.9826 2.49201 5.63595 1.80536 5.09595 1.33203H10.0026Z" stroke="#536179" stroke-width="1.25" stroke-linecap="round" stroke-linejoin="round"/>
<path d="M14.6693 9.33203V11.332C14.6693 12.4387 13.7759 13.332 12.6693 13.332H12.0026C12.0026 12.5987 11.4026 11.9987 10.6693 11.9987C9.93594 11.9987 9.33594 12.5987 9.33594 13.332H6.66927C6.66927 12.5987 6.06927 11.9987 5.33594 11.9987C4.6026 11.9987 4.0026 12.5987 4.0026 13.332H3.33594C2.22927 13.332 1.33594 12.4387 1.33594 11.332V9.33203H8.66927C9.4026 9.33203 10.0026 8.73203 10.0026 7.9987V3.33203H11.2293C11.7093 3.33203 12.1493 3.59204 12.3893 4.00537L13.5293 5.9987H12.6693C12.3026 5.9987 12.0026 6.2987 12.0026 6.66536V8.66536C12.0026 9.03203 12.3026 9.33203 12.6693 9.33203H14.6693Z" stroke="#536179" stroke-width="1.25" stroke-linecap="round" stroke-linejoin="round"/>
<path d="M5.33333 14.6667C6.06971 14.6667 6.66667 14.0697 6.66667 13.3333C6.66667 12.597 6.06971 12 5.33333 12C4.59695 12 4 12.597 4 13.3333C4 14.0697 4.59695 14.6667 5.33333 14.6667Z" stroke="#536179" stroke-width="1.25" stroke-linecap="round" stroke-linejoin="round"/>
<path d="M10.6693 14.6667C11.4057 14.6667 12.0026 14.0697 12.0026 13.3333C12.0026 12.597 11.4057 12 10.6693 12C9.93289 12 9.33594 12.597 9.33594 13.3333C9.33594 14.0697 9.93289 14.6667 10.6693 14.6667Z" stroke="#536179" stroke-width="1.25" stroke-linecap="round" stroke-linejoin="round"/>
<path d="M14.6667 8V9.33333H12.6667C12.3 9.33333 12 9.03333 12 8.66667V6.66667C12 6.3 12.3 6 12.6667 6H13.5267L14.6667 8Z" stroke="#536179" stroke-width="1.25" stroke-linecap="round" stroke-linejoin="round"/>
<path d="M5.9974 3.33464C5.9974 4.13464 5.64407 4.84797 5.09074 5.33464C4.61741 5.74797 4.00406 6.0013 3.33073 6.0013C1.8574 6.0013 0.664062 4.80797 0.664062 3.33464C0.664062 2.49464 1.05073 1.74131 1.66406 1.25464C2.12406 0.887972 2.70406 0.667969 3.33073 0.667969C4.80406 0.667969 5.9974 1.8613 5.9974 3.33464Z" stroke="#536179" stroke-width="1.25" stroke-miterlimit="10" stroke-linecap="round" stroke-linejoin="round"/>
<path d="M3.4974 2.5V3.5L2.66406 4" stroke="#536179" stroke-width="1.25" stroke-miterlimit="10" stroke-linecap="round" stroke-linejoin="round"/>
</svg>
