<svg width="20" height="21" viewBox="0 0 20 21" fill="none" xmlns="http://www.w3.org/2000/svg">
<path d="M10 13C11.3807 13 12.5 11.8807 12.5 10.5C12.5 9.11929 11.3807 8 10 8C8.61929 8 7.5 9.11929 7.5 10.5C7.5 11.8807 8.61929 13 10 13Z" stroke="#343D4C" stroke-width="1.5" stroke-miterlimit="10" stroke-linecap="round" stroke-linejoin="round"/>
<path d="M1.66699 11.2319V9.76523C1.66699 8.89856 2.37533 8.1819 3.25033 8.1819C4.75866 8.1819 5.37533 7.11523 4.61699 5.8069C4.18366 5.0569 4.44199 4.0819 5.20033 3.64856L6.64199 2.82356C7.30033 2.4319 8.15033 2.66523 8.54199 3.32356L8.63366 3.4819C9.38366 4.79023 10.617 4.79023 11.3753 3.4819L11.467 3.32356C11.8587 2.66523 12.7087 2.4319 13.367 2.82356L14.8087 3.64856C15.567 4.0819 15.8253 5.0569 15.392 5.8069C14.6337 7.11523 15.2503 8.1819 16.7587 8.1819C17.6253 8.1819 18.342 8.89023 18.342 9.76523V11.2319C18.342 12.0986 17.6337 12.8152 16.7587 12.8152C15.2503 12.8152 14.6337 13.8819 15.392 15.1902C15.8253 15.9486 15.567 16.9152 14.8087 17.3486L13.367 18.1736C12.7087 18.5652 11.8587 18.3319 11.467 17.6736L11.3753 17.5152C10.6253 16.2069 9.39199 16.2069 8.63366 17.5152L8.54199 17.6736C8.15033 18.3319 7.30033 18.5652 6.64199 18.1736L5.20033 17.3486C4.44199 16.9152 4.18366 15.9402 4.61699 15.1902C5.37533 13.8819 4.75866 12.8152 3.25033 12.8152C2.37533 12.8152 1.66699 12.0986 1.66699 11.2319Z" stroke="#343D4C" stroke-width="1.5" stroke-miterlimit="10" stroke-linecap="round" stroke-linejoin="round"/>
</svg>
