<svg width="16" height="17" viewBox="0 0 16 17" fill="none" xmlns="http://www.w3.org/2000/svg">
<path d="M4.48927 13.593C5.03594 13.0063 5.86927 13.053 6.34927 13.693L7.0226 14.593C7.5626 15.3063 8.43594 15.3063 8.97594 14.593L9.64927 13.693C10.1293 13.053 10.9626 13.0063 11.5093 13.593C12.6959 14.8596 13.6626 14.4396 13.6626 12.6663V5.15297C13.6693 2.4663 13.0426 1.79297 10.5226 1.79297H5.4826C2.9626 1.79297 2.33594 2.4663 2.33594 5.15297V12.6596C2.33594 14.4396 3.30927 14.853 4.48927 13.593Z" stroke="#556E0D" stroke-width="1.25" stroke-linecap="round" stroke-linejoin="round"/>
<path d="M5.39998 7.79427H5.40597" stroke="#556E0D" stroke-width="1.5" stroke-linecap="round" stroke-linejoin="round"/>
<path d="M7.26562 7.79297H10.9323" stroke="#556E0D" stroke-width="1.25" stroke-linecap="round" stroke-linejoin="round"/>
<path d="M5.39998 5.1263H5.40597" stroke="#556E0D" stroke-width="1.5" stroke-linecap="round" stroke-linejoin="round"/>
<path d="M7.26562 5.12891H10.9323" stroke="#556E0D" stroke-width="1.25" stroke-linecap="round" stroke-linejoin="round"/>
</svg>
