<svg width="36" height="36" viewBox="0 0 36 36" fill="none" xmlns="http://www.w3.org/2000/svg">
<circle cx="18" cy="18" r="18" fill="#1F242D"/>
<path d="M10.5081 17.3496V21.0913C10.5081 24.8329 12.0081 26.3329 15.7498 26.3329H20.2415C23.9831 26.3329 25.4831 24.8329 25.4831 21.0913V17.3496" stroke="white" stroke-width="1.5" stroke-linecap="round" stroke-linejoin="round"/>
<path d="M18 22.166C16.6084 22.166 15.9167 22.8577 15.9167 24.2493V26.3327H20.0834V24.2493C20.0834 22.8577 19.3917 22.166 18 22.166Z" stroke="white" stroke-width="1.5" stroke-linecap="round" stroke-linejoin="round"/>
<path d="M18 18.0003C19.525 18.0003 20.65 16.7587 20.5 15.2337L19.95 9.66699H16.0583L15.5 15.2337C15.35 16.7587 16.475 18.0003 18 18.0003Z" stroke="white" stroke-width="1.5" stroke-linecap="round" stroke-linejoin="round"/>
<path d="M23.2583 18.0003C24.9417 18.0003 26.175 16.6337 26.0083 14.9587L25.775 12.667C25.475 10.5003 24.6417 9.66699 22.4583 9.66699H19.9167L20.5 15.5087C20.6417 16.8837 21.8833 18.0003 23.2583 18.0003Z" stroke="white" stroke-width="1.5" stroke-linecap="round" stroke-linejoin="round"/>
<path d="M12.7 18.0003C14.075 18.0003 15.3167 16.8837 15.45 15.5087L15.6333 13.667L16.0333 9.66699H13.4917C11.3083 9.66699 10.475 10.5003 10.175 12.667L9.94999 14.9587C9.78333 16.6337 11.0167 18.0003 12.7 18.0003Z" stroke="white" stroke-width="1.5" stroke-linecap="round" stroke-linejoin="round"/>
</svg>
