<svg width="24" height="24" viewBox="0 0 24 24" fill="none" xmlns="http://www.w3.org/2000/svg">
<mask id="path-1-inside-1_1671_16993" fill="white">
<path d="M7.2041 7.97869V6.95438C7.2041 4.57841 9.11544 2.24468 11.4914 2.02292C14.3215 1.74837 16.708 3.9765 16.708 6.75374V8.21101"/>
</mask>
<path d="M5.7041 7.97869C5.7041 8.80712 6.37567 9.47869 7.2041 9.47869C8.03253 9.47869 8.7041 8.80712 8.7041 7.97869H5.7041ZM11.4914 2.02292L11.6308 3.51644L11.6363 3.51591L11.4914 2.02292ZM15.208 8.21101C15.208 9.03943 15.8796 9.71101 16.708 9.71101C17.5364 9.71101 18.208 9.03943 18.208 8.21101H15.208ZM8.7041 7.97869V6.95438H5.7041V7.97869H8.7041ZM8.7041 6.95438C8.7041 5.2633 10.1119 3.65819 11.6308 3.51643L11.352 0.529414C8.11895 0.831167 5.7041 3.89352 5.7041 6.95438H8.7041ZM11.6363 3.51591C13.5725 3.32807 15.208 4.84979 15.208 6.75374H18.208C18.208 3.10321 15.0704 0.168665 11.3466 0.529933L11.6363 3.51591ZM15.208 6.75374V8.21101H18.208V6.75374H15.208Z" fill="#292D32" mask="url(#path-1-inside-1_1671_16993)"/>
<path d="M19.6514 18.137L19.6513 18.137L19.6499 18.1501C19.5441 19.1369 19.3241 19.8447 18.7849 20.3374C18.2389 20.8362 17.2141 21.2499 15.1685 21.2499H8.83254C6.78685 21.2499 5.76213 20.8362 5.21609 20.3374C4.67685 19.8447 4.45686 19.1369 4.35114 18.1501L4.35125 18.1501L4.34961 18.137L3.55829 11.8064C3.4232 10.5795 3.56232 9.67653 4.07113 9.07162C4.57351 8.47434 5.61006 7.96606 7.77655 7.96606H16.2244C18.3909 7.96606 19.4275 8.47434 19.9299 9.07162C20.4387 9.67651 20.5778 10.5795 20.4427 11.8063L19.6514 18.137Z" stroke="#292D32" stroke-width="1.5" stroke-miterlimit="10" stroke-linecap="round" stroke-linejoin="round"/>
<path d="M15.6911 11.4399H15.7006" stroke="#292D32" stroke-width="1.5" stroke-linecap="round" stroke-linejoin="round"/>
<path d="M8.29856 11.4399H8.30805" stroke="#292D32" stroke-width="1.5" stroke-linecap="round" stroke-linejoin="round"/>
</svg>
