<svg width="100" height="100" viewBox="0 0 100 100" fill="none" xmlns="http://www.w3.org/2000/svg">
<path fill-rule="evenodd" clip-rule="evenodd" d="M100 50C100 36.2069 94.3478 23.7069 85.2174 14.6552C76.087 5.60346 63.4783 1.5596e-06 50 1.22845e-06C36.087 8.8662e-07 23.4782 5.60345 14.7826 14.6552C5.65215 23.7069 -1.22121e-06 36.2069 -1.68644e-06 50C-2.15166e-06 63.7931 5.65215 76.2931 14.7826 85.3448C23.913 94.3965 36.087 100 50 100L50.4348 100C63.9131 100 76.087 94.3965 85.2174 85.3448C94.3478 76.2931 100 63.7931 100 50Z" fill="#C4C4C3"/>
<path fill-rule="evenodd" clip-rule="evenodd" d="M85.2174 14.6552C76.087 5.60346 63.4782 1.5596e-06 50 1.22845e-06C36.0869 8.8662e-07 23.4782 5.60345 14.7826 14.6552C5.65215 23.7069 -1.22121e-06 36.2069 -1.68644e-06 50C-2.15166e-06 63.7931 5.65214 76.2931 14.7826 85.3448L85.2174 14.6552Z" fill="#D6D6D5"/>
<path fill-rule="evenodd" clip-rule="evenodd" d="M88.694 49.9987C88.694 39.2229 84.3461 29.7402 77.3896 22.8436C70.4331 15.9471 60.8679 11.6367 49.9984 11.6367C39.1288 11.6367 29.5635 15.9471 22.607 22.8436C15.6505 29.7402 11.3027 39.2229 11.3027 49.9987C11.3027 60.7746 15.6505 70.2574 22.607 77.1539C29.5635 84.0505 39.1288 88.3608 49.9984 88.3608L50.4332 88.3608C60.8679 88.3608 70.4331 84.0505 77.3896 77.1539C84.3461 70.2574 88.694 60.7746 88.694 49.9987Z" fill="#9E9E9D"/>
<path fill-rule="evenodd" clip-rule="evenodd" d="M77.3896 22.8436L22.607 77.1539C15.6505 70.2574 11.3027 60.7746 11.3027 49.9987C11.3027 39.2229 15.6505 29.7402 22.607 22.8436C29.5635 15.9471 39.1288 11.6367 49.9984 11.6367C60.4332 11.6367 70.4331 15.9471 77.3896 22.8436Z" fill="#B5B4B2"/>
<path fill-rule="evenodd" clip-rule="evenodd" d="M22.607 26.7229C29.5635 19.8264 39.1288 15.516 49.9984 15.516C60.8679 15.516 70.4331 19.8264 77.3896 26.7229C83.9113 33.1884 88.2592 42.2401 88.694 52.1539C88.694 51.2919 88.694 50.8608 88.694 49.9988C88.694 39.2229 84.3461 29.7402 77.3896 22.8436C70.4331 15.9471 60.8679 11.6367 49.9984 11.6367C39.1288 11.6367 29.5635 15.9471 22.607 22.8436C15.6505 29.7402 11.3027 39.2229 11.3027 49.9987C11.3027 50.8608 11.3027 51.2919 11.3027 52.1539C11.7375 42.2401 16.0852 33.1884 22.607 26.7229Z" fill="#8E8C8C"/>
<path d="M70.868 28.4453L29.1289 28.4453L29.1289 36.2039L38.2594 36.2039C39.5637 36.2039 41.7377 36.2039 43.9116 37.066C45.6507 37.9281 46.5202 39.2212 46.955 40.9453L29.5637 40.9453L29.5637 48.7039L47.3898 48.7039C47.3898 51.7212 46.0854 53.4453 44.3463 54.3074C42.6072 55.1694 39.9985 55.1695 38.6942 55.1695L29.9985 55.1695L29.9985 62.497L47.8246 81.4626L68.2593 81.4626L65.2159 78.4453L47.3898 63.7902C48.6942 63.7902 49.9985 63.3591 50.868 62.9281C52.6072 62.066 54.3463 60.7729 55.6507 59.4798C58.2594 56.8936 59.5637 53.0143 59.9985 48.704L71.7377 48.704L71.7377 40.9453L59.9985 40.9453C59.9985 39.6522 59.5638 38.3591 59.129 37.066C59.129 36.635 58.6942 36.204 58.6942 35.7729L71.7377 35.7729L71.7377 28.4453L70.868 28.4453Z" fill="#8E8C8C"/>
<path d="M70.8778 25.0117L29.1387 25.0117L29.1387 32.7703L38.2691 32.7703C39.5735 32.7703 41.7475 32.7703 43.9214 33.6324C45.6605 34.4945 46.53 35.7876 46.9648 37.5117L29.5735 37.5117L29.5735 45.2703L47.3996 45.2703C47.3996 48.2876 46.0952 50.0117 44.3561 50.8738C42.6169 51.7359 40.0083 51.7358 38.7039 51.7358L30.0083 51.7358L30.0083 58.2014L48.7039 78.0289L65.2257 78.0289L47.3996 60.3565C48.7039 60.3565 50.0082 59.9255 50.8778 59.4945C52.6169 58.6324 54.3561 57.3393 55.6604 56.0462C58.2691 53.46 59.5735 49.5807 60.0082 45.2703L71.7474 45.2703L71.7474 37.5117L60.0082 37.5117C60.0082 36.2186 59.5735 34.9255 59.1388 33.6324C59.1388 33.2014 58.704 32.7703 58.704 32.3393L71.7474 32.3393L71.7474 25.0117L70.8778 25.0117Z" fill="#D6D6D5"/>
</svg>
