<svg width="219" height="200" viewBox="0 0 219 200" fill="none" xmlns="http://www.w3.org/2000/svg">
<path fill-rule="evenodd" clip-rule="evenodd" d="M200 100C200 72.4138 188.696 47.4138 170.435 29.3104C152.174 11.2069 126.957 3.11919e-06 100 2.4569e-06C72.1739 1.77324e-06 46.9565 11.2069 29.5652 29.3104C11.3043 47.4138 -2.44243e-06 72.4138 -3.37287e-06 100C-4.30332e-06 127.586 11.3043 152.586 29.5652 170.69C47.826 188.793 72.1739 200 100 200L100.87 200C127.826 200 152.174 188.793 170.435 170.69C188.696 152.586 200 127.586 200 100Z" fill="#C4C4C3"/>
<path fill-rule="evenodd" clip-rule="evenodd" d="M170.435 29.3104C152.174 11.2069 126.956 3.11919e-06 100 2.4569e-06C72.1739 1.77324e-06 46.9565 11.2069 29.5652 29.3103C11.3043 47.4138 -2.44243e-06 72.4138 -3.37287e-06 100C-4.30332e-06 127.586 11.3043 152.586 29.5652 170.69L170.435 29.3104Z" fill="#D6D6D5"/>
<path fill-rule="evenodd" clip-rule="evenodd" d="M177.388 99.9975C177.388 78.4458 168.692 59.4803 154.779 45.6872C140.866 31.8941 121.736 23.2734 99.9967 23.2734C78.2576 23.2734 59.127 31.8941 45.2139 45.6872C31.3009 59.4803 22.6055 78.4458 22.6055 99.9975C22.6055 121.549 31.3009 140.515 45.2139 154.308C59.127 168.101 78.2576 176.722 99.9967 176.722L100.866 176.722C121.736 176.722 140.866 168.101 154.779 154.308C168.692 140.515 177.388 121.549 177.388 99.9975Z" fill="#9E9E9D"/>
<path fill-rule="evenodd" clip-rule="evenodd" d="M154.779 45.6872L45.214 154.308C31.3009 140.515 22.6055 121.549 22.6055 99.9975C22.6055 78.4458 31.3009 59.4803 45.214 45.6872C59.127 31.8941 78.2576 23.2734 99.9967 23.2734C120.866 23.2734 140.866 31.8941 154.779 45.6872Z" fill="#B5B4B2"/>
<path fill-rule="evenodd" clip-rule="evenodd" d="M45.2139 53.4458C59.127 39.6527 78.2576 31.032 99.9967 31.032C121.736 31.032 140.866 39.6527 154.779 53.4458C167.823 66.3769 176.518 84.4803 177.388 104.308C177.388 102.584 177.388 101.722 177.388 99.9975C177.388 78.4458 168.692 59.4803 154.779 45.6872C140.866 31.8941 121.736 23.2734 99.9967 23.2734C78.2576 23.2734 59.127 31.8941 45.2139 45.6872C31.3009 59.4803 22.6055 78.4458 22.6055 99.9975C22.6055 101.722 22.6055 102.584 22.6055 104.308C23.475 84.4803 32.1705 66.3769 45.2139 53.4458Z" fill="#8E8C8C"/>
<path d="M141.736 56.8906L58.2578 56.8906L58.2578 72.4079L76.5187 72.4079C79.1274 72.4079 83.4754 72.4079 87.8232 74.132C91.3015 75.8561 93.0405 78.4424 93.91 81.8906L59.1274 81.8906L59.1274 97.4079L94.7796 97.4079C94.7796 103.442 92.1708 106.891 88.6926 108.615C85.2143 110.339 79.997 110.339 77.3883 110.339L59.997 110.339L59.997 124.994L95.6493 162.925L136.519 162.925L130.432 156.891L94.7796 127.58C97.3883 127.58 99.9969 126.718 101.736 125.856C105.214 124.132 108.693 121.546 111.301 118.96C116.519 113.787 119.127 106.029 119.997 97.4079L143.475 97.4079L143.475 81.8906L119.997 81.8906C119.997 79.3044 119.128 76.7182 118.258 74.132C118.258 73.2699 117.388 72.4079 117.388 71.5458L143.475 71.5458L143.475 56.8906L141.736 56.8906Z" fill="#8E8C8C"/>
<path d="M141.756 50.0234L58.2773 50.0234L58.2773 65.5406L76.5383 65.5406C79.147 65.5406 83.4949 65.5407 87.8428 67.2648C91.321 68.989 93.06 71.5752 93.9296 75.0235L59.147 75.0235L59.147 90.5407L94.7992 90.5407C94.7992 96.5751 92.1904 100.023 88.7121 101.748C85.2339 103.472 80.0166 103.472 77.4079 103.472L60.0166 103.472L60.0166 116.403L97.4078 156.058L130.451 156.058L94.7992 120.713C97.4079 120.713 100.016 119.851 101.756 118.989C105.234 117.265 108.712 114.679 111.321 112.092C116.538 106.92 119.147 99.1613 120.016 90.5407L143.495 90.5407L143.495 75.0235L120.016 75.0235C120.016 72.4372 119.147 69.851 118.278 67.2648C118.278 66.4027 117.408 65.5407 117.408 64.6786L143.495 64.6786L143.495 50.0234L141.756 50.0234Z" fill="#D6D6D5"/>
<circle cx="175.586" cy="145.607" r="42.8261" fill="white"/>
<path d="M173.638 124.199V167.025M154.172 146.261H194.402" stroke="#81A713" stroke-width="8" stroke-linecap="round"/>
</svg>
