<svg width="20" height="21" viewBox="0 0 20 21" fill="none" xmlns="http://www.w3.org/2000/svg">
<path d="M11.4421 3.42422L12.9087 6.35755C13.1087 6.76589 13.6421 7.15755 14.0921 7.23255L16.7504 7.67422C18.4504 7.95755 18.8504 9.19089 17.6254 10.4076L15.5587 12.4742C15.2087 12.8242 15.0171 13.4992 15.1254 13.9826L15.7171 16.5409C16.1837 18.5659 15.1087 19.3492 13.3171 18.2909L10.8254 16.8159C10.3754 16.5492 9.63375 16.5492 9.17541 16.8159L6.68375 18.2909C4.90041 19.3492 3.81708 18.5576 4.28375 16.5409L4.87541 13.9826C4.98375 13.4992 4.79208 12.8242 4.44208 12.4742L2.37541 10.4076C1.15875 9.19089 1.55041 7.95755 3.25041 7.67422L5.90875 7.23255C6.35041 7.15755 6.88375 6.76589 7.08375 6.35755L8.55041 3.42422C9.35041 1.83255 10.6504 1.83255 11.4421 3.42422Z" stroke="#343D4C" stroke-width="1.5" stroke-linecap="round" stroke-linejoin="round"/>
</svg>
