<svg width="44" height="45" viewBox="0 0 44 45" fill="none" xmlns="http://www.w3.org/2000/svg">
<path d="M21.7156 13.1928L28.5287 7.58707C24.9596 5.30062 22.5985 8.18884 19.748 9.13097L18.1611 11.7334V19.2232L21.7156 21.9525V13.1928Z" fill="#AADC19"/>
<path d="M13.597 27.6396L20.6102 22.2543C17.543 20.0793 13.8194 22.8013 11.1826 24.2211L9.78809 26.6042L10.0425 34.0075L13.597 36.9993V27.6396Z" fill="#AADC19"/>
<path d="M16.546 21.159C17.4742 20.6231 18.6178 20.6231 19.546 21.159L24.8257 24.2073C25.7539 24.7432 26.3257 25.7335 26.3257 26.8053V32.9018C26.3257 33.9736 25.7539 34.964 24.8257 35.4999L19.546 38.5482C18.6178 39.0841 17.4742 39.0841 16.546 38.5482L11.2662 35.4999C10.338 34.964 9.76623 33.9736 9.76623 32.9019V26.8053C9.76623 25.7335 10.338 24.7432 11.2662 24.2073L16.546 21.159Z" stroke="#292D32" stroke-width="1.5" stroke-linecap="round" stroke-linejoin="round"/>
<path d="M16.546 21.159C17.4742 20.6231 18.6178 20.6231 19.546 21.159L24.8257 24.2073C25.7539 24.7432 26.3257 25.7335 26.3257 26.8053V32.9018C26.3257 33.9736 25.7539 34.964 24.8257 35.4999L19.546 38.5482C18.6178 39.0841 17.4742 39.0841 16.546 38.5482L11.2662 35.4999C10.338 34.964 9.76623 33.9736 9.76623 32.9019V26.8053C9.76623 25.7335 10.338 24.7432 11.2662 24.2073L16.546 21.159Z" stroke="#394908" stroke-width="1.5" stroke-linecap="round" stroke-linejoin="round"/>
<path d="M24.4542 6.58868C25.3824 6.05278 26.526 6.05278 27.4542 6.58868L32.7339 9.63694C33.6621 10.1728 34.2339 11.1632 34.2339 12.235V18.3315C34.2339 19.4033 33.6621 20.3937 32.7339 20.9296L27.4542 23.9779C26.526 24.5138 25.3824 24.5138 24.4542 23.9779L19.1744 20.9296C18.2462 20.3937 17.6744 19.4033 17.6744 18.3315V12.235C17.6744 11.1632 18.2462 10.1728 19.1744 9.63694L24.4542 6.58868Z" stroke="#394908" stroke-width="1.5" stroke-linecap="round" stroke-linejoin="round"/>
<path d="M18.5515 20.4816L19.0748 19.9444C18.7827 19.6599 18.3168 19.6609 18.0259 19.9466L18.5515 20.4816ZM18.4795 20.5549L17.9359 20.0382C17.7775 20.2048 17.7043 20.4347 17.7372 20.6622C17.7701 20.8896 17.9055 21.0895 18.1045 21.2044L18.4795 20.5549ZM24.8053 24.2071L24.4303 24.8566L24.8053 24.2071ZM25.6647 34.7546L25.0748 34.2914C24.905 34.5077 24.8672 34.7996 24.9762 35.052C25.0852 35.3044 25.3237 35.477 25.5976 35.5016L25.6647 34.7546ZM27.4336 34.3647L27.0586 33.7152H27.0586L27.4336 34.3647ZM32.7133 31.3165L33.0883 31.966L32.7133 31.3165ZM33.3065 20.4727L33.8298 19.9354C33.5377 19.6509 33.0718 19.6519 32.7809 19.9376L33.3065 20.4727ZM32.7041 20.9305L33.0791 21.58V21.58L32.7041 20.9305ZM27.4244 23.9788L27.7994 24.6283L27.4244 23.9788ZM24.4244 23.9788L24.7994 23.3292L24.4244 23.9788ZM19.1447 20.9305L19.5197 20.281L19.1447 20.9305ZM18.0259 19.9466C17.9953 19.9767 17.9653 20.0072 17.9359 20.0382L19.0231 21.0716C19.0408 21.053 19.0588 21.0347 19.0771 21.0167L18.0259 19.9466ZM18.1045 21.2044L24.4303 24.8566L25.1803 23.5575L18.8545 19.9053L18.1045 21.2044ZM24.4303 24.8566C25.1264 25.2585 25.5553 26.0013 25.5553 26.8051H27.0553C27.0553 25.4654 26.3405 24.2274 25.1803 23.5575L24.4303 24.8566ZM25.5553 26.8051V32.9017H27.0553V26.8051H25.5553ZM25.5553 32.9017C25.5553 33.4137 25.3813 33.901 25.0748 34.2914L26.2546 35.2177C26.765 34.5676 27.0553 33.7553 27.0553 32.9017H25.5553ZM25.5976 35.5016C26.3545 35.5696 27.1279 35.4072 27.8086 35.0142L27.0586 33.7152C26.6503 33.951 26.1865 34.0485 25.7319 34.0076L25.5976 35.5016ZM27.8086 35.0142L33.0883 31.966L32.3383 30.667L27.0586 33.7152L27.8086 35.0142ZM33.0883 31.966C34.2486 31.2961 34.9633 30.0581 34.9633 28.7184H33.4633C33.4633 29.5222 33.0345 30.265 32.3383 30.667L33.0883 31.966ZM34.9633 28.7184V22.6219H33.4633V28.7184H34.9633ZM34.9633 22.6219C34.9633 21.5972 34.5452 20.6322 33.8298 19.9354L32.7832 21.0099C33.2126 21.4282 33.4633 22.0073 33.4633 22.6219H34.9633ZM32.7809 19.9376C32.6472 20.069 32.4959 20.1847 32.3291 20.281L33.0791 21.58C33.3567 21.4198 33.609 21.2268 33.8321 21.0077L32.7809 19.9376ZM32.3291 20.281L27.0494 23.3292L27.7994 24.6283L33.0791 21.58L32.3291 20.281ZM27.0494 23.3292C26.3532 23.7312 25.4956 23.7312 24.7994 23.3292L24.0494 24.6283C25.2097 25.2982 26.6391 25.2982 27.7994 24.6283L27.0494 23.3292ZM24.7994 23.3292L19.5197 20.281L18.7697 21.58L24.0494 24.6283L24.7994 23.3292ZM19.5197 20.281C19.3557 20.1863 19.2068 20.0729 19.0748 19.9444L18.0282 21.0189C18.2485 21.2334 18.4968 21.4225 18.7697 21.58L19.5197 20.281Z" fill="#394908"/>
<path d="M18.7432 11.5273L25.9819 15.7204L33.166 11.5547" stroke="#394908" stroke-width="1.5" stroke-linecap="round" stroke-linejoin="round"/>
<path d="M25.9535 24.1435L25.9814 15.707" stroke="#394908" stroke-width="1.5" stroke-linecap="round" stroke-linejoin="round"/>
<path d="M10.835 25.6719L18.0737 29.8649L25.2578 25.6992" stroke="#394908" stroke-width="1.5" stroke-linecap="round" stroke-linejoin="round"/>
<path d="M18.0443 38.5662L18.0732 29.8516" stroke="#394908" stroke-width="1.5" stroke-linecap="round" stroke-linejoin="round"/>
</svg>
