<svg width="16" height="14" viewBox="0 0 16 14" fill="none" xmlns="http://www.w3.org/2000/svg">
<path fill-rule="evenodd" clip-rule="evenodd" d="M0 0.646904C0 0.289629 0.278991 0 0.623143 0H12.8348C13.179 0 13.458 0.289629 13.458 0.646905V1.88547C13.458 2.24275 13.179 2.53237 12.8348 2.53237H12.3592L12.3592 5.85925L12.3208 5.85909C12.1055 5.85909 11.8937 5.87432 11.6864 5.90376V11.0591C11.6864 11.0626 11.6864 11.0661 11.6863 11.0696C11.6864 11.0662 11.6864 11.0627 11.6864 11.0592V2.53237H1.77163V11.0592C1.77163 11.3423 1.99379 11.5893 2.28225 11.5893H8.03028C8.10119 11.8312 8.192 12.0646 8.30081 12.2876H11.1758C11.8301 12.2876 12.3449 11.7378 12.3589 11.0863C12.345 11.7378 11.8301 12.2877 11.1758 12.2877H2.28225C1.64332 12.2877 1.09887 11.7479 1.09887 11.0592V2.53237H0.623144C0.278991 2.53237 0 2.24275 0 1.88547V0.646904ZM0.623143 0.646905H12.8348V1.88547L0.623143 1.88547V0.646905ZM4.68088 4.38831C4.68088 4.22673 4.80873 4.09575 4.96645 4.09575H8.49122C8.64894 4.09575 8.77679 4.22673 8.77679 4.38831C8.77679 4.54989 8.64894 4.68088 8.49122 4.68088H4.96645C4.80873 4.68088 4.68088 4.54989 4.68088 4.38831Z" fill="#888F98"/>
<path fill-rule="evenodd" clip-rule="evenodd" d="M12.0859 6.83984C12.3697 6.83984 12.5998 7.06881 12.5998 7.35125V9.90826H14.8265C15.1103 9.90826 15.3403 10.1372 15.3403 10.4197C15.3403 10.7021 15.1103 10.9311 14.8265 10.9311H12.5998V13.4881C12.5998 13.7705 12.3697 13.9995 12.0859 13.9995C11.8021 13.9995 11.5721 13.7705 11.5721 13.4881V10.9311H9.34539C9.0616 10.9311 8.83154 10.7021 8.83154 10.4197C8.83154 10.1372 9.0616 9.90826 9.34539 9.90826H11.5721V7.35125C11.5721 7.06881 11.8021 6.83984 12.0859 6.83984Z" fill="#888F98"/>
</svg>
