<svg width="18" height="18" viewBox="0 0 18 18" fill="none" xmlns="http://www.w3.org/2000/svg">
<path d="M2.03516 8.41406V11.7816C2.03516 15.1491 3.43365 16.4991 6.92212 16.4991H11.1098C14.5983 16.4991 15.9968 15.1491 15.9968 11.7816V8.41406" stroke="#A4AFC1" stroke-width="1.25" stroke-linecap="round" stroke-linejoin="round"/>
<path d="M9.01912 9C10.4409 9 11.4898 7.8825 11.3499 6.51L10.8372 1.5H7.20884L6.68829 6.51C6.54844 7.8825 7.59731 9 9.01912 9Z" stroke="#A4AFC1" stroke-width="1.25" stroke-linecap="round" stroke-linejoin="round"/>
<path d="M13.9202 9C15.4896 9 16.6395 7.77 16.4841 6.2625L16.2666 4.2C15.9869 2.25 15.2099 1.5 13.1744 1.5H10.8047L11.3485 6.7575C11.4806 7.995 12.6383 9 13.9202 9Z" stroke="#A4AFC1" stroke-width="1.25" stroke-linecap="round" stroke-linejoin="round"/>
<path d="M4.07798 9C5.35993 9 6.51757 7.995 6.64188 6.7575L6.81281 5.1L7.18574 1.5H4.81607C2.78048 1.5 2.00354 2.25 1.72384 4.2L1.51407 6.2625C1.35868 7.77 2.50855 9 4.07798 9Z" stroke="#A4AFC1" stroke-width="1.25" stroke-linecap="round" stroke-linejoin="round"/>
<path d="M9.02048 12.75C7.72299 12.75 7.07812 13.3725 7.07812 14.625V16.5H10.9628V14.625C10.9628 13.3725 10.318 12.75 9.02048 12.75Z" stroke="#A4AFC1" stroke-width="1.25" stroke-linecap="round" stroke-linejoin="round"/>
</svg>
