<svg width="16" height="17" viewBox="0 0 16 17" fill="none" xmlns="http://www.w3.org/2000/svg">
<path d="M1.37873 3.52688C1.91207 1.22021 5.3854 1.22021 5.91207 3.52688C6.2254 4.88021 5.3654 6.02688 4.61874 6.74021C4.07207 7.26021 3.21207 7.25354 2.6654 6.74021C1.9254 6.02688 1.0654 4.88021 1.37873 3.52688Z" stroke="#556E0D" stroke-width="1.25"/>
<path d="M10.0506 11.5269C10.5839 9.22021 14.0772 9.22021 14.6106 11.5269C14.9239 12.8802 14.0639 14.0269 13.3106 14.7402C12.7639 15.2602 11.8972 15.2535 11.3506 14.7402C10.5972 14.0269 9.73724 12.8802 10.0506 11.5269Z" stroke="#556E0D" stroke-width="1.25"/>
<path d="M8.0011 3.79297H9.78777C11.0211 3.79297 11.5944 5.31964 10.6678 6.13297L5.3411 10.793C4.41444 11.5996 4.98777 13.1263 6.21444 13.1263H8.0011" stroke="#556E0D" stroke-width="1.25" stroke-linecap="round" stroke-linejoin="round"/>
<path d="M3.65845 4.1263H3.66616" stroke="#556E0D" stroke-width="1.5" stroke-linecap="round" stroke-linejoin="round"/>
<path d="M12.3225 12.1263H12.3302" stroke="#556E0D" stroke-width="1.5" stroke-linecap="round" stroke-linejoin="round"/>
</svg>
