<svg width="16" height="17" viewBox="0 0 16 17" fill="none" xmlns="http://www.w3.org/2000/svg">
<path d="M10.0026 1.52344V8.1901C10.0026 8.92344 9.4026 9.52344 8.66927 9.52344H1.33594V5.2701C1.8226 5.8501 2.56929 6.2101 3.39596 6.1901C4.06929 6.17677 4.67594 5.91677 5.12927 5.48344C5.33594 5.31011 5.50929 5.0901 5.64262 4.8501C5.88262 4.44343 6.01594 3.96342 6.0026 3.46342C5.9826 2.68342 5.63595 1.99677 5.09595 1.52344H10.0026Z" stroke="#536179" stroke-width="1.25" stroke-linecap="round" stroke-linejoin="round"/>
<path d="M14.6693 9.52344V11.5234C14.6693 12.6301 13.7759 13.5234 12.6693 13.5234H12.0026C12.0026 12.7901 11.4026 12.1901 10.6693 12.1901C9.93594 12.1901 9.33594 12.7901 9.33594 13.5234H6.66927C6.66927 12.7901 6.06927 12.1901 5.33594 12.1901C4.6026 12.1901 4.0026 12.7901 4.0026 13.5234H3.33594C2.22927 13.5234 1.33594 12.6301 1.33594 11.5234V9.52344H8.66927C9.4026 9.52344 10.0026 8.92344 10.0026 8.1901V3.52344H11.2293C11.7093 3.52344 12.1493 3.78344 12.3893 4.19678L13.5293 6.1901H12.6693C12.3026 6.1901 12.0026 6.4901 12.0026 6.85677V8.85677C12.0026 9.22344 12.3026 9.52344 12.6693 9.52344H14.6693Z" stroke="#536179" stroke-width="1.25" stroke-linecap="round" stroke-linejoin="round"/>
<path d="M5.33333 14.8581C6.06971 14.8581 6.66667 14.2611 6.66667 13.5247C6.66667 12.7884 6.06971 12.1914 5.33333 12.1914C4.59695 12.1914 4 12.7884 4 13.5247C4 14.2611 4.59695 14.8581 5.33333 14.8581Z" stroke="#536179" stroke-width="1.25" stroke-linecap="round" stroke-linejoin="round"/>
<path d="M10.6693 14.8581C11.4057 14.8581 12.0026 14.2611 12.0026 13.5247C12.0026 12.7884 11.4057 12.1914 10.6693 12.1914C9.93289 12.1914 9.33594 12.7884 9.33594 13.5247C9.33594 14.2611 9.93289 14.8581 10.6693 14.8581Z" stroke="#536179" stroke-width="1.25" stroke-linecap="round" stroke-linejoin="round"/>
<path d="M14.6667 8.19141V9.52474H12.6667C12.3 9.52474 12 9.22474 12 8.85807V6.85807C12 6.49141 12.3 6.19141 12.6667 6.19141H13.5267L14.6667 8.19141Z" stroke="#536179" stroke-width="1.25" stroke-linecap="round" stroke-linejoin="round"/>
<path d="M5.99816 3.46653C6.01149 3.96653 5.87818 4.44654 5.63818 4.8532C5.50484 5.0932 5.3315 5.31321 5.12483 5.48654C4.6715 5.91988 4.06485 6.17988 3.39151 6.19321C2.56485 6.21321 1.81816 5.85321 1.33149 5.27321C1.23816 5.17321 1.15816 5.05988 1.08483 4.94655C0.824831 4.55321 0.678161 4.08656 0.664828 3.58656C0.644828 2.74656 1.01816 1.97987 1.61816 1.47987C2.07149 1.10654 2.64481 0.87321 3.27148 0.859876C3.97148 0.846543 4.6115 1.09988 5.0915 1.52654C5.6315 1.99988 5.97816 2.68653 5.99816 3.46653Z" stroke="#536179" stroke-width="1.25" stroke-miterlimit="10" stroke-linecap="round" stroke-linejoin="round"/>
<path d="M2.28906 3.54655L2.9624 4.18652L4.35571 2.83984" stroke="#536179" stroke-width="1.25" stroke-linecap="round" stroke-linejoin="round"/>
</svg>
