<svg width="20" height="21" viewBox="0 0 20 21" fill="none" xmlns="http://www.w3.org/2000/svg">
<path d="M6.98438 10.9229L8.99271 12.9396L13.0177 8.90625" stroke="#536179" stroke-width="1.25" stroke-linecap="round" stroke-linejoin="round"/>
<path d="M8.95937 2.9625C9.53437 2.47083 10.476 2.47083 11.0594 2.9625L12.376 4.09583C12.626 4.3125 13.0927 4.4875 13.426 4.4875H14.8427C15.726 4.4875 16.451 5.2125 16.451 6.09583V7.5125C16.451 7.8375 16.626 8.3125 16.8427 8.5625L17.976 9.87917C18.4677 10.4542 18.4677 11.3958 17.976 11.9792L16.8427 13.2958C16.626 13.5458 16.451 14.0125 16.451 14.3458V15.7625C16.451 16.6458 15.726 17.3708 14.8427 17.3708H13.426C13.101 17.3708 12.626 17.5458 12.376 17.7625L11.0594 18.8958C10.4844 19.3875 9.54271 19.3875 8.95937 18.8958L7.64271 17.7625C7.39271 17.5458 6.92604 17.3708 6.59271 17.3708H5.15104C4.26771 17.3708 3.54271 16.6458 3.54271 15.7625V14.3375C3.54271 14.0125 3.36771 13.5458 3.15937 13.2958L2.03437 11.9708C1.55104 11.3958 1.55104 10.4625 2.03437 9.8875L3.15937 8.5625C3.36771 8.3125 3.54271 7.84583 3.54271 7.52083V6.0875C3.54271 5.20417 4.26771 4.47917 5.15104 4.47917H6.59271C6.91771 4.47917 7.39271 4.30417 7.64271 4.0875L8.95937 2.9625Z" stroke="#536179" stroke-width="1.25" stroke-linecap="round" stroke-linejoin="round"/>
</svg>
