<svg width="20" height="20" viewBox="0 0 20 20" fill="none" xmlns="http://www.w3.org/2000/svg">
<path d="M6.9834 10.001L8.99173 12.0177L13.0167 7.98438" stroke="#536179" stroke-width="1.5" stroke-linecap="round" stroke-linejoin="round"/>
<path d="M8.9584 2.04063C9.5334 1.54896 10.4751 1.54896 11.0584 2.04063L12.3751 3.17396C12.6251 3.39062 13.0917 3.56563 13.4251 3.56563H14.8417C15.7251 3.56563 16.4501 4.29063 16.4501 5.17396V6.59062C16.4501 6.91562 16.6251 7.39063 16.8417 7.64063L17.9751 8.95729C18.4667 9.53229 18.4667 10.474 17.9751 11.0573L16.8417 12.374C16.6251 12.624 16.4501 13.0906 16.4501 13.424V14.8406C16.4501 15.724 15.7251 16.449 14.8417 16.449H13.4251C13.1001 16.449 12.6251 16.624 12.3751 16.8406L11.0584 17.974C10.4834 18.4656 9.54173 18.4656 8.9584 17.974L7.64173 16.8406C7.39173 16.624 6.92506 16.449 6.59173 16.449H5.15006C4.26673 16.449 3.54173 15.724 3.54173 14.8406V13.4156C3.54173 13.0906 3.36673 12.624 3.1584 12.374L2.0334 11.049C1.55007 10.474 1.55007 9.54063 2.0334 8.96563L3.1584 7.64063C3.36673 7.39063 3.54173 6.92396 3.54173 6.59896V5.16562C3.54173 4.28229 4.26673 3.55729 5.15006 3.55729H6.59173C6.91673 3.55729 7.39173 3.38229 7.64173 3.16562L8.9584 2.04063Z" stroke="#536179" stroke-width="1.5" stroke-linecap="round" stroke-linejoin="round"/>
</svg>
