<svg width="16" height="17" viewBox="0 0 16 17" fill="none" xmlns="http://www.w3.org/2000/svg">
<path d="M3.23664 12.167L3.2366 12.1669C2.74553 11.8834 2.43994 11.3556 2.43994 10.7799V6.21994C2.43994 5.65305 2.7438 5.12326 3.2384 4.8319L7.1966 2.54627C7.19662 2.54626 7.19663 2.54626 7.19664 2.54625C7.68751 2.26288 8.29739 2.26143 8.79762 2.54683C8.79793 2.54701 8.79825 2.54719 8.79856 2.54737L12.7533 4.831C12.7538 4.83129 12.7543 4.83159 12.7548 4.83189C13.2502 5.12369 13.5533 5.64726 13.5533 6.21994V10.7799C13.5533 11.3468 13.2495 11.8766 12.7548 12.168C12.7543 12.1683 12.7538 12.1686 12.7533 12.1689L8.79664 14.4536C8.30576 14.737 7.69586 14.7384 7.19562 14.453C7.19531 14.4528 7.195 14.4527 7.19468 14.4525L3.23664 12.167Z" fill="#F7A200" stroke="#F7A200"/>
<mask id="path-2-inside-1_583_4521" fill="white">
<path d="M8 9.66675C7.72667 9.66675 7.5 9.44008 7.5 9.16675V5.66675C7.5 5.39341 7.72667 5.16675 8 5.16675C8.27333 5.16675 8.5 5.39341 8.5 5.66675V9.16675C8.5 9.44008 8.27333 9.66675 8 9.66675Z"/>
</mask>
<path d="M8 9.66675C7.72667 9.66675 7.5 9.44008 7.5 9.16675V5.66675C7.5 5.39341 7.72667 5.16675 8 5.16675C8.27333 5.16675 8.5 5.39341 8.5 5.66675V9.16675C8.5 9.44008 8.27333 9.66675 8 9.66675Z" fill="white"/>
<path d="M8 8.66675C8.27895 8.66675 8.5 8.8878 8.5 9.16675H6.5C6.5 9.99237 7.17438 10.6667 8 10.6667V8.66675ZM8.5 9.16675V5.66675H6.5V9.16675H8.5ZM8.5 5.66675C8.5 5.9457 8.27895 6.16675 8 6.16675V4.16675C7.17438 4.16675 6.5 4.84113 6.5 5.66675H8.5ZM8 6.16675C7.72105 6.16675 7.5 5.9457 7.5 5.66675H9.5C9.5 4.84113 8.82562 4.16675 8 4.16675V6.16675ZM7.5 5.66675V9.16675H9.5V5.66675H7.5ZM7.5 9.16675C7.5 8.8878 7.72105 8.66675 8 8.66675V10.6667C8.82562 10.6667 9.5 9.99237 9.5 9.16675H7.5Z" fill="white" mask="url(#path-2-inside-1_583_4521)"/>
<path d="M7.93901 11.4852L7.93909 11.485L7.92619 11.4801C7.91681 11.4764 7.90963 11.4727 7.90197 11.4677C7.89705 11.4645 7.89077 11.46 7.88253 11.4534C7.86811 11.4349 7.85364 11.4128 7.83855 11.3849C7.83608 11.3751 7.83337 11.3585 7.83337 11.3334C7.83337 11.2891 7.8495 11.2487 7.87341 11.221C7.88632 11.21 7.89538 11.2034 7.90197 11.1991C7.90963 11.1941 7.91681 11.1904 7.92619 11.1868L7.93576 11.1831L7.94516 11.179C7.99705 11.1566 8.06733 11.1677 8.11243 11.2067C8.12345 11.2197 8.13004 11.2287 8.13433 11.2353C8.13932 11.243 8.14308 11.2502 8.14669 11.2596L8.14651 11.2596L8.15182 11.2724C8.16386 11.3013 8.16671 11.3226 8.16671 11.3334C8.16671 11.3442 8.16386 11.3655 8.15182 11.3944L8.61336 11.5867L8.15182 11.3944C8.14247 11.4169 8.12957 11.4389 8.11125 11.4612C8.0831 11.4858 8.04747 11.5001 8.00004 11.5001C7.98926 11.5001 7.96791 11.4972 7.93901 11.4852Z" fill="white" stroke="white"/>
</svg>
