<svg width="16" height="17" viewBox="0 0 16 17" fill="none" xmlns="http://www.w3.org/2000/svg">
<path d="M3.23713 12.167L3.23709 12.1669C2.74602 11.8834 2.44043 11.3556 2.44043 10.7799V6.21994C2.44043 5.65305 2.74428 5.12326 3.23889 4.8319L7.19709 2.54627C7.19711 2.54626 7.19712 2.54626 7.19713 2.54625C7.688 2.26288 8.29788 2.26143 8.7981 2.54683C8.79842 2.54701 8.79873 2.54719 8.79905 2.54737L12.7538 4.831C12.7543 4.83129 12.7548 4.83159 12.7553 4.83189C13.2507 5.12369 13.5538 5.64726 13.5538 6.21994V10.7799C13.5538 11.3468 13.2499 11.8766 12.7553 12.168C12.7548 12.1683 12.7543 12.1686 12.7538 12.1689L8.79713 14.4536C8.30625 14.737 7.69635 14.7384 7.19611 14.453C7.1958 14.4528 7.19549 14.4527 7.19517 14.4525L3.23713 12.167Z" fill="#F7A200" stroke="#F7A200"/>
<mask id="path-2-inside-1_1842_14437" fill="white">
<path d="M8 9.66675C7.72667 9.66675 7.5 9.44008 7.5 9.16675V5.66675C7.5 5.39341 7.72667 5.16675 8 5.16675C8.27333 5.16675 8.5 5.39341 8.5 5.66675V9.16675C8.5 9.44008 8.27333 9.66675 8 9.66675Z"/>
</mask>
<path d="M8 9.66675C7.72667 9.66675 7.5 9.44008 7.5 9.16675V5.66675C7.5 5.39341 7.72667 5.16675 8 5.16675C8.27333 5.16675 8.5 5.39341 8.5 5.66675V9.16675C8.5 9.44008 8.27333 9.66675 8 9.66675Z" fill="white"/>
<path d="M8 8.66675C8.27895 8.66675 8.5 8.8878 8.5 9.16675H6.5C6.5 9.99237 7.17438 10.6667 8 10.6667V8.66675ZM8.5 9.16675V5.66675H6.5V9.16675H8.5ZM8.5 5.66675C8.5 5.9457 8.27895 6.16675 8 6.16675V4.16675C7.17438 4.16675 6.5 4.84113 6.5 5.66675H8.5ZM8 6.16675C7.72105 6.16675 7.5 5.9457 7.5 5.66675H9.5C9.5 4.84113 8.82562 4.16675 8 4.16675V6.16675ZM7.5 5.66675V9.16675H9.5V5.66675H7.5ZM7.5 9.16675C7.5 8.8878 7.72105 8.66675 8 8.66675V10.6667C8.82562 10.6667 9.5 9.99237 9.5 9.16675H7.5Z" fill="white" mask="url(#path-2-inside-1_1842_14437)"/>
<path d="M7.93865 11.4852L7.93872 11.485L7.92583 11.4801C7.91645 11.4764 7.90927 11.4727 7.9016 11.4677C7.89669 11.4645 7.8904 11.46 7.88217 11.4534C7.86774 11.4349 7.85327 11.4128 7.83818 11.3849C7.83571 11.3751 7.83301 11.3585 7.83301 11.3334C7.83301 11.2891 7.84913 11.2487 7.87304 11.221C7.88595 11.21 7.89501 11.2034 7.9016 11.1991C7.90927 11.1941 7.91645 11.1904 7.92583 11.1868L7.93539 11.1831L7.94479 11.179C7.99668 11.1566 8.06696 11.1677 8.11207 11.2067C8.12308 11.2197 8.12967 11.2287 8.13397 11.2353C8.13896 11.243 8.14272 11.2502 8.14632 11.2596L8.14615 11.2596L8.15146 11.2724C8.1635 11.3013 8.16634 11.3226 8.16634 11.3334C8.16634 11.3442 8.1635 11.3655 8.15146 11.3944L8.613 11.5867L8.15146 11.3944C8.1421 11.4169 8.1292 11.4389 8.11088 11.4612C8.08273 11.4858 8.04711 11.5001 7.99967 11.5001C7.9889 11.5001 7.96754 11.4972 7.93865 11.4852Z" fill="white" stroke="white"/>
</svg>
