<svg width="20" height="21" viewBox="0 0 20 21" fill="none" xmlns="http://www.w3.org/2000/svg">
<path d="M12.4 17.75H7.6C5.67397 17.75 4.52086 17.3602 3.83033 16.6697C3.1398 15.9791 2.75 14.826 2.75 12.9V8.1C2.75 6.17397 3.1398 5.02086 3.83033 4.33033C4.52086 3.6398 5.67397 3.25 7.6 3.25H12.4C14.326 3.25 15.4791 3.6398 16.1697 4.33033C16.8602 5.02086 17.25 6.17397 17.25 8.1V12.9C17.25 14.826 16.8602 15.9791 16.1697 16.6697C15.4791 17.3602 14.326 17.75 12.4 17.75Z" stroke="#343D4C" stroke-width="1.5" stroke-linecap="round" stroke-linejoin="round"/>
<path d="M7.67993 10.4996V9.31555C7.67993 7.78755 8.75993 7.17155 10.0799 7.93155L11.1039 8.52355L12.1279 9.11555C13.4479 9.87555 13.4479 11.1236 12.1279 11.8836L11.1039 12.4756L10.0799 13.0676C8.75993 13.8276 7.67993 13.2036 7.67993 11.6836V10.4996Z" stroke="#343D4C" stroke-width="1.5" stroke-miterlimit="10" stroke-linecap="round" stroke-linejoin="round"/>
</svg>
