<svg width="16" height="17" viewBox="0 0 16 17" fill="none" xmlns="http://www.w3.org/2000/svg">
<path d="M4.6026 14.193C5.6026 14.793 6.8026 15.1263 8.0026 15.1263C11.6693 15.1263 14.6693 12.1263 14.6693 8.45964C14.6693 4.79297 11.6693 1.79297 8.0026 1.79297C4.33594 1.79297 1.33594 4.79297 1.33594 8.45964C1.33594 9.65963 1.66927 10.793 2.2026 11.793L1.77638 13.4323C1.58166 14.1812 2.27486 14.858 3.01892 14.6454L4.6026 14.193Z" stroke="#556E0D" stroke-width="1.25" stroke-miterlimit="10" stroke-linecap="round" stroke-linejoin="round"/>
<path d="M11 10.3599C11 10.4679 10.976 10.5789 10.9249 10.6869C10.8738 10.7949 10.8077 10.8969 10.7206 10.9929C10.5734 11.1549 10.4111 11.2719 10.2278 11.3469C10.0476 11.4219 9.85228 11.4609 9.64196 11.4609C9.3355 11.4609 9.00801 11.3889 8.66249 11.2419C8.31698 11.0949 7.97146 10.8969 7.62894 10.6479C7.28343 10.3959 6.95593 10.1169 6.64347 9.80794C6.334 9.49594 6.05458 9.16894 5.80521 8.82694C5.55884 8.48494 5.36054 8.14294 5.21632 7.80394C5.07211 7.46194 5 7.13494 5 6.82294C5 6.61894 5.03605 6.42394 5.10816 6.24394C5.18027 6.06094 5.29444 5.89294 5.45368 5.74294C5.64597 5.55394 5.85628 5.46094 6.07862 5.46094C6.16274 5.46094 6.24687 5.47894 6.32198 5.51494C6.4001 5.55094 6.4692 5.60494 6.52329 5.68294L7.22033 6.66394C7.27441 6.73894 7.31347 6.80794 7.34051 6.87394C7.36755 6.93694 7.38257 6.99994 7.38257 7.05694C7.38257 7.12894 7.36154 7.20094 7.31948 7.26994C7.28042 7.33894 7.22334 7.41094 7.15123 7.48294L6.92288 7.71994C6.88983 7.75294 6.87481 7.79194 6.87481 7.83994C6.87481 7.86394 6.87782 7.88494 6.88383 7.90894C6.89284 7.93294 6.90185 7.95094 6.90786 7.96894C6.96194 8.06794 7.05508 8.19694 7.18728 8.35294C7.32248 8.50894 7.4667 8.66794 7.62293 8.82694C7.78518 8.98594 7.94141 9.13294 8.10065 9.26794C8.25689 9.39994 8.38608 9.48994 8.48823 9.54394C8.50325 9.54994 8.52128 9.55894 8.54231 9.56794C8.56635 9.57694 8.59039 9.57994 8.61743 9.57994C8.6685 9.57994 8.70756 9.56194 8.74061 9.52894L8.96895 9.30394C9.04407 9.22894 9.11617 9.17194 9.18528 9.13594C9.25438 9.09394 9.32349 9.07294 9.3986 9.07294C9.45568 9.07294 9.51577 9.08494 9.58187 9.11194C9.64797 9.13894 9.71708 9.17794 9.79219 9.22894L10.7867 9.93394C10.8648 9.98794 10.9189 10.0509 10.9519 10.1259C10.982 10.2009 11 10.2759 11 10.3599Z" fill="#556E0D"/>
</svg>
