<svg width="24" height="24" viewBox="0 0 24 24" fill="none" xmlns="http://www.w3.org/2000/svg">
<path d="M15.6 12.8099V16.5899C15.6 19.7399 14.34 20.9999 11.19 20.9999H7.41C4.26 20.9999 3 19.7399 3 16.5899V12.8099C3 9.6599 4.26 8.3999 7.41 8.3999H11.19C14.34 8.3999 15.6 9.6599 15.6 12.8099Z" stroke="#1F242D" stroke-width="1.5" stroke-linecap="round" stroke-linejoin="round"/>
<path d="M20.9999 7.41V11.19C20.9999 14.34 19.7399 15.6 16.5899 15.6H15.5999V12.81C15.5999 9.66 14.3399 8.4 11.1899 8.4H8.3999V7.41C8.3999 4.26 9.6599 3 12.8099 3H16.5899C19.7399 3 20.9999 4.26 20.9999 7.41Z" stroke="#1F242D" stroke-width="1.5" stroke-linecap="round" stroke-linejoin="round"/>
</svg>
