<svg width="24" height="24" viewBox="0 0 24 24" fill="none" xmlns="http://www.w3.org/2000/svg">
<path d="M3 9V7.28571C3 4.71429 4.8 3 7.5 3H16.5C19.2 3 21 4.71429 21 7.28571V9" stroke="#1F242D" stroke-width="1.25" stroke-miterlimit="10" stroke-linecap="round" stroke-linejoin="round"/>
<path d="M3 15V16.7143C3 19.2857 4.8 21 7.5 21H16.5C19.2 21 21 19.2857 21 16.7143V15" stroke="#1F242D" stroke-width="1.25" stroke-miterlimit="10" stroke-linecap="round" stroke-linejoin="round"/>
<path d="M8.03418 9.94922L12.0014 12.2472L15.9386 9.9642" stroke="#1F242D" stroke-width="1.25" stroke-linecap="round" stroke-linejoin="round"/>
<path d="M12.001 16.3187V12.2393" stroke="#1F242D" stroke-width="1.25" stroke-linecap="round" stroke-linejoin="round"/>
<path d="M11.0723 7.72627L8.67701 9.05866C8.13807 9.35807 7.68896 10.1141 7.68896 10.7353V13.2729C7.68896 13.8941 8.13059 14.6501 8.67701 14.9495L11.0723 16.2819C11.5813 16.5663 12.4196 16.5663 12.9361 16.2819L15.3314 14.9495C15.8703 14.6501 16.3194 13.8941 16.3194 13.2729V10.7353C16.3194 10.1141 15.8778 9.35807 15.3314 9.05866L12.9361 7.72627C12.4196 7.43434 11.5813 7.43434 11.0723 7.72627Z" stroke="#1F242D" stroke-width="1.25" stroke-linecap="round" stroke-linejoin="round"/>
</svg>
