<svg width="134" height="144" viewBox="0 0 134 144" fill="none" xmlns="http://www.w3.org/2000/svg">
<circle cx="67" cy="77" r="67" fill="white" fill-opacity="0.12"/>
<circle cx="108" cy="30" r="2" fill="#FFD977"/>
<circle cx="23" cy="1" r="0.5" fill="#F89B3F"/>
<circle cx="23" cy="1" r="0.5" stroke="#F98585"/>
<circle cx="23" cy="1" r="0.5" stroke="#D69E4E"/>
<circle cx="67" cy="77" r="45" fill="white" fill-opacity="0.24"/>
<mask id="mask0_1000_85187" style="mask-type:alpha" maskUnits="userSpaceOnUse" x="22" y="32" width="90" height="90">
<circle cx="67" cy="77" r="45" fill="white"/>
</mask>
<g mask="url(#mask0_1000_85187)">
<path d="M89.087 117.935C89.087 117.935 86.1857 117.469 87.2024 112.4C87.2024 112.4 91.4419 114.372 89.087 117.935Z" fill="#CAD5D7"/>
<path d="M90.2672 53.5415V128.589C90.2672 130.941 88.3606 132.848 86.0082 132.848H48.6359C47.4542 132.848 46.3853 132.367 45.6137 131.59C44.8492 130.819 44.377 129.759 44.377 128.589V53.5415C44.377 51.1888 46.2832 49.2825 48.6359 49.2825H86.0082C86.7038 49.2825 87.3602 49.4489 87.9403 49.7449C89.3217 50.4487 90.2672 51.8841 90.2672 53.5415Z" fill="#1E1B1B"/>
<path d="M44.2665 79.4639H43.9645C43.3343 79.4639 42.8232 78.9528 42.8232 78.3226V70.6904C42.8232 70.0602 43.3343 69.5491 43.9645 69.5491H44.2665C44.3299 69.5491 44.3812 69.6008 44.3812 69.6638V79.3489C44.3812 79.4122 44.3299 79.4639 44.2665 79.4639Z" fill="#505158"/>
<path d="M90.3523 79.4639H90.6543C91.2846 79.4639 91.7956 78.9528 91.7956 78.3226V70.6904C91.7956 70.0602 91.2846 69.5491 90.6543 69.5491H90.3523C90.2886 69.5491 90.2373 69.6008 90.2373 69.6638V79.3489C90.2373 79.4122 90.2886 79.4639 90.3523 79.4639Z" fill="#505158"/>
<path d="M44.2665 90.7217H43.9645C43.3343 90.7217 42.8232 90.211 42.8232 89.5804V81.9485C42.8232 81.3183 43.3343 80.8072 43.9645 80.8072H44.2665C44.3299 80.8072 44.3812 80.8586 44.3812 80.9219V90.607C44.3812 90.6703 44.3299 90.7217 44.2665 90.7217Z" fill="#505158"/>
<path d="M88.7448 53.5879V129.276C88.7448 130.573 87.6659 131.627 86.3375 131.627H47.932C46.985 131.627 46.1651 131.091 45.7718 130.314L45.7693 130.307C45.6114 129.996 45.5244 129.646 45.5244 129.276V53.5879C45.5244 52.2906 46.6032 51.2371 47.932 51.2371H86.3375C86.7544 51.2371 87.1477 51.3406 87.4892 51.5223L87.4939 51.5247C88.238 51.9249 88.7448 52.6999 88.7448 53.5879Z" fill="#D1E5EB"/>
<path d="M67.3189 119.017C70.4522 119.017 72.9922 116.481 72.9922 113.351C72.9922 110.222 70.4522 107.686 67.3189 107.686C64.1856 107.686 61.6455 110.222 61.6455 113.351C61.6455 116.481 64.1856 119.017 67.3189 119.017Z" fill="#409D37"/>
<path d="M66.8144 115C66.7387 115 66.6659 114.969 66.6108 114.914L65.0939 113.719C65.0367 113.662 65.0033 113.583 65.001 113.5C64.9987 113.417 65.0278 113.336 65.0818 113.275C65.1358 113.215 65.2103 113.179 65.289 113.177C65.3677 113.174 65.444 113.205 65.5013 113.262L66.798 114.237L69.4832 111.103C69.5361 111.041 69.6099 111.004 69.6885 111C69.7671 110.996 69.844 111.026 69.9023 111.082C69.9606 111.138 69.9955 111.216 69.9993 111.299C70.0031 111.382 69.9756 111.464 69.9227 111.525L67.0341 114.897C67.0076 114.928 66.9756 114.953 66.9398 114.971C66.904 114.988 66.8653 114.998 66.8259 115C66.822 115 66.8182 115 66.8144 115Z" fill="white"/>
<path d="M67.2472 79.1618L62.9661 81.6289L62.2573 82.0383L62.1861 82.0804L61.5343 82.4566L56.874 85.1423L61.0822 87.5697L62.9146 88.6279L67.476 91.2578L72.1084 88.5859L72.7894 88.193L72.8593 88.1505L73.545 87.7555L77.8428 85.2764L77.8473 85.2717L67.2472 79.1618Z" fill="#FFDDA8"/>
<path d="M67.4748 91.2599V101.797L62.9238 99.1939L61.0805 98.1404L56.874 95.7333V85.1487L67.4748 91.2599Z" fill="#BC7C46"/>
<path d="M73.5348 87.7626L72.8377 88.1656L72.7669 88.2057L72.0966 88.5936L67.4668 91.2615V101.797L72.0966 99.1448L73.5348 98.3193L77.8356 95.8556V85.2822L73.5348 87.7626Z" fill="#DDA866"/>
<path d="M68.3722 99.5567L68.3008 99.5986V98.3649L68.3722 98.3242V99.5567Z" fill="#4F2E16"/>
<path d="M68.6361 98.4479L68.5861 98.5337L68.3471 98.3758L68.1098 98.8086L68.0576 98.7822L68.3471 98.2551L68.6361 98.4479Z" fill="#4F2E16"/>
<path d="M69.0835 99.1478L69.0127 99.1895V97.9566L69.0835 97.9156V99.1478Z" fill="#4F2E16"/>
<path d="M69.3438 98.0399L69.29 98.1254L69.0541 97.9674L68.8152 98.3994L68.7627 98.3739L69.0541 97.847L69.3438 98.0399Z" fill="#4F2E16"/>
<path d="M69.3608 99.0301L68.0348 99.7942C68.0161 99.805 68 99.7965 68 99.7731C68 99.7509 68.0161 99.7231 68.0348 99.7126L69.3608 98.9484C69.3794 98.9365 69.3955 98.9461 69.3955 98.969C69.3955 98.9915 69.3794 99.0183 69.3608 99.0301Z" fill="#4F2E16"/>
<path d="M68.0501 98.1214C67.9523 98.1782 67.8725 98.315 67.8725 98.429V99.9297C67.8725 100.043 67.9523 100.089 68.0501 100.033L69.3526 99.2817C69.4494 99.2255 69.5299 99.0877 69.5283 98.9747L69.5299 97.4732C69.5299 97.3607 69.4494 97.3139 69.3526 97.3702L68.0501 98.1214ZM69.3526 99.3631L68.0501 100.114C67.9125 100.194 67.8008 100.129 67.8008 99.9708V98.4698C67.8008 98.3115 67.9125 98.1182 68.0501 98.0398L69.3526 97.2882C69.489 97.2096 69.5998 97.2738 69.5998 97.432V98.934C69.5998 99.0918 69.489 99.2845 69.3526 99.3631Z" fill="#4F2E16"/>
<path d="M70.2474 96.8618C70.1456 96.9192 70.0651 97.0611 70.0651 97.1776V98.7223C70.0651 98.8378 70.1456 98.8853 70.2474 98.8279L71.587 98.0551C71.6868 97.9975 71.7694 97.856 71.7694 97.7389V96.1948C71.7694 96.0793 71.6868 96.0312 71.587 96.0898L70.2474 96.8618ZM71.587 98.1385L70.2474 98.9114C70.1063 98.9932 69.9922 98.926 69.9922 98.7645V97.2198C69.9922 97.0575 70.1063 96.8589 70.2474 96.7773L71.587 96.0059C71.7274 95.9249 71.8411 95.9911 71.8411 96.1525V97.6976C71.8411 97.8598 71.7274 98.0577 71.587 98.1385Z" fill="#4F2E16"/>
<path d="M70.9116 98.1068C70.8903 98.1177 70.873 98.1083 70.873 98.0846V96.9797C70.873 96.9564 70.8903 96.9274 70.9116 96.9155C70.9309 96.9043 70.9472 96.9142 70.9472 96.9369V98.0438C70.9472 98.0665 70.9309 98.0946 70.9116 98.1068Z" fill="#4F2E16"/>
<path d="M71.0721 98.0078L70.7411 98.1991C70.7215 98.2108 70.7041 98.2012 70.7041 98.178C70.7041 98.1553 70.7203 98.1264 70.7411 98.1149L71.0721 97.9232C71.0928 97.9118 71.1089 97.9219 71.1089 97.9444C71.1089 97.9673 71.0928 97.9953 71.0721 98.0078Z" fill="#4F2E16"/>
<path d="M71.2712 96.6017V97.1192C71.2722 97.2573 71.173 97.4284 71.0522 97.4976L70.7849 97.6516C70.6643 97.7218 70.5664 97.6646 70.5664 97.5251V97.0086L70.6984 96.9326V97.4852C70.6984 97.5084 70.7151 97.5187 70.7345 97.5066C70.7546 97.4954 70.7725 97.4666 70.7725 97.4434V96.8904L71.2712 96.6017Z" fill="#4F2E16"/>
<path d="M67.2365 79.3233L57.1445 85.145L67.4642 91.0518L77.5565 85.2761L67.2365 79.3233Z" fill="#F9C98A"/>
<path d="M77.8357 85.3896V85.4721L67.4668 91.4502V91.3687L77.8357 85.3896Z" fill="#BC7C46"/>
<path d="M72.858 88.1534L72.7874 88.1953L62.1855 82.083L62.2559 82.0403L72.858 88.1534Z" fill="#BC7C46"/>
<path d="M72.8489 88.167V88.3369H72.7773V88.2066L72.8489 88.167Z" fill="#BC7C46"/>
<path d="M62 81.1881H62.0369V81.2529H62V81.1881Z" fill="#5B5A5B"/>
<path d="M58.8002 82.9358H58.7617V82.9902H58.8002V82.9358Z" fill="#5B5A5B"/>
<path d="M94.6707 76.9088C94.3488 77.1364 93.9065 76.9577 93.8363 76.565C93.8017 76.3707 93.8879 76.1639 94.0489 76.0498C94.3707 75.8225 94.813 76.0011 94.8832 76.3936C94.9178 76.5881 94.8319 76.7947 94.6707 76.9088ZM89.3185 78.4569L92.8389 86.4824C93.0674 87.0031 93.6741 87.24 94.1951 87.0118L102.22 83.4914C102.741 83.2629 102.978 82.6558 102.75 82.1352L99.229 74.1096C99.0008 73.589 98.3937 73.3521 97.8731 73.5806L89.8475 77.1009C89.3269 77.3294 89.09 77.9365 89.3185 78.4569Z" fill="#F89B3F"/>
<path d="M98.703 80.5097C98.494 80.0332 98.2751 79.9596 98.119 80.0281C97.9626 80.0968 97.8686 80.3076 98.0776 80.7841C98.2866 81.2609 98.5054 81.3345 98.6616 81.2657C98.8183 81.1972 98.912 80.9865 98.703 80.5097ZM97.0676 81.2273C96.6808 80.3451 97.0279 79.5906 97.7818 79.2601C98.5358 78.9292 99.326 79.1847 99.713 80.0668C100.103 80.9559 99.7526 81.7032 98.9987 82.034C98.2445 82.3649 97.4573 82.1163 97.0676 81.2273ZM94.0249 79.763C93.8159 79.2868 93.597 79.2129 93.4406 79.2814C93.2842 79.3501 93.1899 79.5612 93.3988 80.0377C93.6078 80.5145 93.8273 80.5878 93.9834 80.519C94.1398 80.4505 94.2338 80.2395 94.0249 79.763ZM96.0578 77.3022L97.26 76.7746L96.0443 83.2449L94.8421 83.7725L96.0578 77.3022ZM92.3888 80.4809C92.0021 79.599 92.3498 78.8442 93.1034 78.5134C93.8576 78.1828 94.6479 78.4383 95.0346 79.3198C95.4249 80.2091 95.0745 80.9565 94.3203 81.2873C93.5661 81.6179 92.7785 81.3699 92.3888 80.4809Z" fill="white"/>
<path d="M91.1901 74.8418C88.4948 71.5067 84.7005 61.6928 84.0538 59.9889L84.0397 59.952C84.0964 59.964 84.1532 59.976 84.2093 59.9889H85.1671C84.7471 59.8475 84.3111 59.734 83.8593 59.6541C83.8133 59.646 83.7665 59.6631 83.7373 59.6989C83.707 59.7346 83.6989 59.7832 83.7154 59.8268C83.7253 59.8538 83.7461 59.9087 83.7761 59.9889C84.3441 61.4973 88.3632 72.0126 91.1901 75.2423C91.4537 75.5438 91.7071 75.7813 91.9464 75.9425C92.0202 75.9926 92.0932 76.0398 92.1653 76.0842L92.4562 75.9569C92.3382 75.889 92.2166 75.8125 92.0911 75.7281C91.8107 75.539 91.5083 75.2354 91.1901 74.8418ZM94.9885 72.4837C94.4486 69.9379 93.0705 67.0396 91.3015 64.7298C91.2651 64.6824 91.2279 64.6346 91.1901 64.5863V65.0375C93.0264 67.4813 94.2667 70.3288 94.7351 72.5374C94.9278 73.4483 94.9918 74.2434 94.9317 74.8709C94.8852 75.3522 94.766 75.7347 94.5762 75.9956C94.5033 76.0962 94.4207 76.1785 94.3267 76.2418C94.1874 76.3355 94.0241 76.3872 93.8379 76.3977C93.8247 76.4829 93.8316 76.5727 93.8632 76.6592C94.0901 76.6442 94.2931 76.5763 94.4718 76.4562C94.5882 76.3778 94.6909 76.277 94.7798 76.1551C95.0197 75.8296 95.1611 75.3531 95.2008 74.7529C95.2434 74.123 95.1737 73.3568 94.9885 72.4837Z" fill="#4762B7"/>
<path d="M93.562 63.273V68.7158H41.1318V63.273H41.1327C47.4523 62.1248 49.4691 51.4021 49.4691 51.4021H85.2251C85.2251 51.4021 87.2412 62.126 93.562 63.273Z" fill="white"/>
<path d="M93.5611 63.273V68.7158H41.1318V63.273H93.5611Z" fill="#B1C8CC"/>
<path d="M56.1264 51.4021C56.1264 51.4021 54.1097 62.126 47.7892 63.273V68.7158H41.1318V63.273C47.452 62.126 49.4679 51.4021 49.4679 51.4021H56.1264Z" fill="#81A713"/>
<path d="M93.5665 63.273V68.7158H86.9082V63.273C80.5881 62.126 78.5713 51.4021 78.5713 51.4021H85.2298C85.2298 51.4021 87.2457 62.126 93.5665 63.273Z" fill="#81A713"/>
<path d="M62.6715 63.3105V68.7158H56.4327L56.2754 63.273C60.2443 60.2288 60.556 51.4021 60.556 51.4021H64.6676C64.8603 57.783 62.6715 63.3105 62.6715 63.3105Z" fill="#81A713"/>
<path d="M77.6799 63.273L77.5225 68.7158H71.284V63.3105C71.284 63.3105 69.0949 57.783 69.2874 51.4021H73.3995C73.3995 51.4021 73.7118 60.2288 77.6799 63.273Z" fill="#81A713"/>
<path d="M47.7892 63.273V68.7158H41.1318V63.273H47.7892Z" fill="#81A713"/>
<path d="M93.5665 63.273V68.7158H86.9082V63.273H93.565H93.5665Z" fill="#81A713"/>
<path d="M62.686 63.273L62.6715 63.3105V68.7158H56.4327L56.2754 63.273H62.686Z" fill="#81A713"/>
<path d="M77.6781 63.273L77.5208 68.7158H71.2823V63.3105L71.2676 63.273H77.6781Z" fill="#81A713"/>
<path d="M78.4576 55.1572H56.1806C55.2231 55.1572 54.4395 54.3739 54.4395 53.4161V52.5784C54.4395 51.6209 55.2231 50.8373 56.1806 50.8373H78.4576C79.4154 50.8373 80.1988 51.6209 80.1988 52.5784V53.4161C80.1988 54.3739 79.4154 55.1572 78.4576 55.1572Z" fill="#1E1B1B"/>
<path d="M73.5454 53.2441H58.9633C58.7279 53.2441 58.5352 53.0514 58.5352 52.816V52.61C58.5352 52.3746 58.7279 52.1819 58.9633 52.1819H73.5454C73.7811 52.1819 73.9735 52.3746 73.9735 52.61V52.816C73.9735 53.0514 73.7811 53.2441 73.5454 53.2441Z" fill="#505158"/>
<path d="M77.7358 52.678C77.7358 53.0299 77.4502 53.3154 77.0984 53.3154C76.7465 53.3154 76.4609 53.0299 76.4609 52.678C76.4609 52.3258 76.7465 52.0406 77.0984 52.0406C77.4502 52.0406 77.7358 52.3258 77.7358 52.678Z" fill="#505158"/>
</g>
<circle cx="121" cy="108" r="2" fill="#FFD977"/>
<circle cx="109" cy="87" r="1" fill="#FFD977"/>
<path d="M20.5 106L21.2858 108.418H23.8287L21.7714 109.913L22.5572 112.332L20.5 110.837L18.4428 112.332L19.2286 109.913L17.1713 108.418H19.7142L20.5 106Z" fill="#FFD977"/>
</svg>
