<svg width="36" height="36" viewBox="0 0 36 36" fill="none" xmlns="http://www.w3.org/2000/svg">
<rect width="36" height="36" rx="4" fill="white"/>
<path d="M4.58284 13.916L2.99951 15.4993V28.9577L3.79118 29.7493L19.6245 13.916H4.58284Z" fill="#D3F07F"/>
<path d="M6.16699 17.083H27.542" stroke="#394908" stroke-width="1.5" stroke-linecap="round" stroke-linejoin="round"/>
<path d="M17.3334 22.9471C18 23.332 18 24.2943 17.3334 24.6792L13.8021 26.7179C13.1355 27.1028 12.3021 26.6217 12.3021 25.8519V21.7744C12.3021 21.0046 13.1355 20.5235 13.8021 20.9084L17.3334 22.9471Z" stroke="#394908" stroke-width="1.5"/>
<path d="M30.2911 6H21.6244C20.5198 6 19.6244 6.89543 19.6244 8V11.1458V12.9167C19.6244 13.469 20.0721 13.9167 20.6244 13.9167H22.3952H25.1293C25.6597 13.9167 26.1684 14.1274 26.5435 14.5025L26.9553 14.9142C27.3303 15.2893 27.5411 15.798 27.5411 16.3284V24.7917C27.5411 25.344 27.9888 25.7917 28.5411 25.7917H30.2911C31.3956 25.7917 32.2911 24.8962 32.2911 23.7917V8C32.2911 6.89543 31.3956 6 30.2911 6Z" stroke="#394908" stroke-width="1.5"/>
<path d="M15.2703 34.4993V30.541M15.2703 30.541H24.5412C26.198 30.541 27.5412 29.1979 27.5412 27.541V16.916C27.5412 15.2592 26.198 13.916 24.5412 13.916H12.1037M15.2703 30.541H5.99951C4.34266 30.541 2.99951 29.1979 2.99951 27.541V16.916C2.99951 15.2592 4.34266 13.916 5.99951 13.916H6.75993" stroke="#394908" stroke-width="1.5" stroke-linecap="round" stroke-linejoin="round"/>
<line x1="23.5411" y1="8.41699" x2="28.3745" y2="8.41699" stroke="#394908" stroke-width="1.5" stroke-linecap="round"/>
<path d="M10.9158 34.5H15.2699H19.6241" stroke="#394908" stroke-width="1.5" stroke-linecap="round"/>
<line x1="23.5411" y1="10.793" x2="28.3745" y2="10.793" stroke="#394908" stroke-width="1.5" stroke-linecap="round"/>
</svg>
