<svg width="36" height="36" viewBox="0 0 36 36" fill="none" xmlns="http://www.w3.org/2000/svg">
<rect width="36" height="36" rx="4" fill="white"/>
<path d="M10.4062 26.9999H15.0937L21.6561 20.9062L18.8437 20.4375L15.5624 20.9062L12.2812 22.7812L10.4062 25.1249V26.9999Z" fill="#D3F07F"/>
<path d="M14.1562 15.2812L14.625 15.7499L21.1874 9.65623L18.3749 8.25L15.0937 9.65623L13.6875 12L13.2188 13.4062L14.1562 15.2812Z" fill="#D3F07F"/>
<path d="M18.3749 17.6249C20.9637 17.6249 23.0624 15.5262 23.0624 12.9374C23.0624 10.3486 20.9637 8.25 18.3749 8.25C15.7861 8.25 13.6875 10.3486 13.6875 12.9374C13.6875 15.5262 15.7861 17.6249 18.3749 17.6249Z" stroke="#394908" stroke-width="1.5" stroke-linecap="round" stroke-linejoin="round"/>
<path d="M26.4288 26.9999C26.4288 23.3718 22.8195 20.4375 18.3758 20.4375C13.9321 20.4375 10.3228 23.3718 10.3228 26.9999H15.0944" stroke="#394908" stroke-width="1.5" stroke-linecap="round" stroke-linejoin="round"/>
<path d="M24 16.6874C26.071 16.6874 27.75 15.0085 27.75 12.9375C27.75 10.8664 26.071 9.1875 24 9.1875" stroke="#394908" stroke-width="1.5" stroke-linecap="round" stroke-linejoin="round"/>
<path d="M30.5624 24.1874C30.5624 21.0776 27.6212 18.5625 24 18.5625" stroke="#394908" stroke-width="1.5" stroke-linecap="round" stroke-linejoin="round"/>
<path d="M12.5625 16.6874C10.4915 16.6874 8.81254 15.0085 8.81254 12.9375C8.81254 10.8664 10.4915 9.1875 12.5625 9.1875" stroke="#394908" stroke-width="1.5" stroke-linecap="round" stroke-linejoin="round"/>
<path d="M6.00008 24.1874C6.00008 21.0776 8.94132 18.5625 12.5625 18.5625" stroke="#394908" stroke-width="1.5" stroke-linecap="round" stroke-linejoin="round"/>
</svg>
