<svg width="36" height="36" viewBox="0 0 36 36" fill="none" xmlns="http://www.w3.org/2000/svg">
<rect width="36" height="36" rx="4" fill="white"/>
<path d="M14.2432 19.6377L8.9175 24.9634L6.45947 22.915L6.0498 22.0957V20.8667V15.1313L12.75 10.875L14.2432 19.6377Z" fill="#D3F07F"/>
<path d="M6.74657 15.5156L8.54297 16.5562" stroke="#394908" stroke-width="1.5" stroke-linecap="round" stroke-linejoin="round"/>
<path d="M13.9321 27.1013V19.6699" stroke="#394908" stroke-width="1.5" stroke-linecap="round" stroke-linejoin="round"/>
<path d="M12.2282 11.4287L7.85286 13.8622C6.86146 14.4111 6.05033 15.7876 6.05033 16.9183V21.5476C6.05033 22.6783 6.86146 24.0548 7.85286 24.6037L12.2282 27.0372C12.7766 27.3403 13.5313 27.4654 14.25 27.4125" stroke="#394908" stroke-width="1.5" stroke-linecap="round" stroke-linejoin="round"/>
<path d="M29.3613 20.4082L22.1266 24.595L20.3302 23.5545" stroke="#394908" stroke-width="1.5" stroke-linecap="round" stroke-linejoin="round"/>
<path d="M22.1265 32.0174V24.5859" stroke="#394908" stroke-width="1.5" stroke-linecap="round" stroke-linejoin="round"/>
<path d="M27.9997 18.3252C28.9911 18.8742 29.8022 20.2506 29.8022 21.3813V26.0106C29.8022 27.1413 28.9911 28.5178 27.9997 29.0667L23.6244 31.5002C22.6904 32.0164 21.1582 32.0164 20.2242 31.5002L15.8489 29.0667C14.8575 28.5178 14.0464 27.1413 14.0464 26.0106" stroke="#394908" stroke-width="1.5" stroke-linecap="round" stroke-linejoin="round"/>
<path d="M19.1607 14.3086L13.835 19.2247L11.377 17.1763L10.9673 16.357V15.128V11.1588C10.9673 10.3815 11.8153 9.90136 12.4818 10.3013L19.1607 14.3086Z" fill="#D3F07F"/>
<path d="M26.395 9.75293L19.1603 13.9397L11.9747 9.77748" stroke="#394908" stroke-width="1.5" stroke-linecap="round" stroke-linejoin="round"/>
<path d="M19.1602 21.3621V13.9307" stroke="#394908" stroke-width="1.5" stroke-linecap="round" stroke-linejoin="round"/>
<path d="M27.0337 15.3726V11.1797C27.0337 10.0491 26.2226 8.67258 25.2312 8.12362L20.8559 5.69016C19.9218 5.16578 18.3979 5.16578 17.4556 5.69016L13.0803 8.12362C12.0889 8.67258 11.2778 10.0491 11.2778 11.1797V15.809C11.2778 16.9397 12.0889 18.3162 13.0803 18.8652L17.4556 21.2986C18.3897 21.8148 19.9218 21.8148 20.8559 21.2986L24 19.4976" stroke="#394908" stroke-width="1.5" stroke-linecap="round" stroke-linejoin="round"/>
<path d="M15.0628 14.5083V11.5095L22.8384 7.01953" stroke="#394908" stroke-width="1.5" stroke-linecap="round" stroke-linejoin="round"/>
</svg>
