<svg width="36" height="36" viewBox="0 0 36 36" fill="none" xmlns="http://www.w3.org/2000/svg">
<rect width="36" height="36" rx="4" fill="white"/>
<path opacity="0.6" d="M22.5 9.5V12.75L26.0429 9.20711C26.6729 8.57714 26.2267 7.5 25.3358 7.5H24.5C23.3954 7.5 22.5 8.39543 22.5 9.5Z" fill="#D3F07F"/>
<path d="M29.187 11.624V14.1953C29.187 15.874 28.1245 16.9365 26.4458 16.9365H22.812V9.50965C22.812 8.33027 23.7789 7.37402 24.9583 7.37402C26.1164 7.38465 27.1789 7.85215 27.9439 8.61715C28.7089 9.39277 29.187 10.4553 29.187 11.624Z" stroke="#394908" stroke-width="1.5" stroke-miterlimit="10" stroke-linecap="round" stroke-linejoin="round"/>
<path opacity="0.6" d="M8.25 9.5V21.75L23.25 7.5H10.25C9.14543 7.5 8.25 8.39543 8.25 9.5Z" fill="#D3F07F"/>
<path d="M13.5 14.25H15.1042C16.1167 14.25 16.9375 15.1119 16.9375 16.175C16.9375 17.2381 16.1167 18.1 15.1042 18.1H13.5L16.7083 21.4688" stroke="#394908" stroke-width="1.3" stroke-linecap="round" stroke-linejoin="round"/>
<path d="M13.5 16.0547H17.7969" stroke="#394908" stroke-width="1.3" stroke-linecap="round" stroke-linejoin="round"/>
<path d="M13.5 14.25H17.7969" stroke="#394908" stroke-width="1.3" stroke-linecap="round" stroke-linejoin="round"/>
<path d="M7.93799 12.6865V27.5615C7.93799 28.4434 8.93674 28.9428 9.63799 28.4115L11.4549 27.0515C11.8799 26.7328 12.4749 26.7753 12.8574 27.1578L14.6211 28.9321C15.0355 29.3465 15.7155 29.3465 16.1299 28.9321L17.9149 27.1471C18.2867 26.7753 18.8817 26.7328 19.2961 27.0515L21.113 28.4115C21.8142 28.9322 22.813 28.4328 22.813 27.5615V9.49902C22.813 8.33027 23.7692 7.37402 24.938 7.37402H13.2505H12.188C9.00049 7.37402 7.93799 9.2759 7.93799 11.624V12.6865Z" stroke="#394908" stroke-width="1.5" stroke-miterlimit="10" stroke-linecap="round" stroke-linejoin="round"/>
</svg>
