<svg width="24" height="24" viewBox="0 0 24 24" fill="none" xmlns="http://www.w3.org/2000/svg">
<path d="M21.375 12C21.375 17.1548 17.1548 21.375 12 21.375C6.84518 21.375 2.625 17.1548 2.625 12C2.625 6.84518 6.84518 2.625 12 2.625C17.1548 2.625 21.375 6.84518 21.375 12Z" stroke="#292D32" stroke-width="1.25" stroke-linecap="round" stroke-linejoin="round"/>
<path d="M9 9.50448C9.2351 8.83614 9.69915 8.27258 10.31 7.91361C10.9208 7.55463 11.6389 7.42341 12.3372 7.54319C13.0355 7.66296 13.6688 8.026 14.1251 8.568C14.5813 9.11001 14.8311 9.796 14.83 10.5045C14.83 12.5045 11.83 13.5045 11.83 13.5045" stroke="#292D32" stroke-width="1.25" stroke-linecap="round" stroke-linejoin="round"/>
<path d="M11.9102 16.5044H11.9202" stroke="#292D32" stroke-width="1.25" stroke-linecap="round" stroke-linejoin="round"/>
</svg>
