<svg width="244" height="37" viewBox="0 0 244 37" fill="none" xmlns="http://www.w3.org/2000/svg">
<rect width="244" height="30" rx="4" fill="#1F242D"/>
<rect x="114" y="29" width="11" height="11" rx="1" transform="rotate(-45 114 29)" fill="#1F242D"/>
<path d="M17.125 18H14.8807V10.7273H17.2244C17.9299 10.7273 18.5336 10.8729 19.0355 11.1641C19.5374 11.4529 19.9221 11.8684 20.1896 12.4105C20.4571 12.9503 20.5909 13.5966 20.5909 14.3494C20.5909 15.107 20.456 15.7592 20.1861 16.3061C19.9162 16.8506 19.5232 17.2696 19.0071 17.5632C18.491 17.8544 17.8636 18 17.125 18ZM15.7614 17.2188H17.0682C17.6695 17.2188 18.1679 17.1027 18.5632 16.8707C18.9586 16.6387 19.2533 16.3085 19.4474 15.88C19.6416 15.4515 19.7386 14.9413 19.7386 14.3494C19.7386 13.7623 19.6428 13.2569 19.451 12.8331C19.2592 12.407 18.9728 12.0803 18.5916 11.853C18.2105 11.6233 17.7358 11.5085 17.1676 11.5085H15.7614V17.2188ZM21.9545 18V12.5455H22.7642V13.3693H22.821C22.9205 13.0994 23.1004 12.8804 23.3608 12.7124C23.6212 12.5443 23.9148 12.4602 24.2415 12.4602C24.303 12.4602 24.38 12.4614 24.4723 12.4638C24.5646 12.4661 24.6345 12.4697 24.6818 12.4744V13.3267C24.6534 13.3196 24.5883 13.3089 24.4865 13.2947C24.3871 13.2782 24.2817 13.2699 24.1705 13.2699C23.9053 13.2699 23.6686 13.3255 23.4602 13.4368C23.2543 13.5457 23.0909 13.6972 22.9702 13.8913C22.8518 14.0831 22.7926 14.3021 22.7926 14.5483V18H21.9545ZM27.2804 18.1278C26.9347 18.1278 26.621 18.0627 26.3393 17.9325C26.0576 17.8 25.8339 17.6094 25.6681 17.3608C25.5024 17.1098 25.4196 16.8068 25.4196 16.4517C25.4196 16.1392 25.4811 15.8859 25.6042 15.6918C25.7273 15.4953 25.8919 15.3414 26.0978 15.2301C26.3038 15.1188 26.5311 15.036 26.7797 14.9815C27.0306 14.9247 27.2827 14.8797 27.536 14.8466C27.8675 14.804 28.1362 14.772 28.3422 14.7507C28.5505 14.727 28.702 14.688 28.7967 14.6335C28.8938 14.5791 28.9423 14.4844 28.9423 14.3494V14.321C28.9423 13.9706 28.8464 13.6984 28.6547 13.5043C28.4653 13.3101 28.1776 13.2131 27.7917 13.2131C27.3916 13.2131 27.0779 13.3007 26.8507 13.4759C26.6234 13.651 26.4636 13.8381 26.3713 14.0369L25.5758 13.7528C25.7179 13.4214 25.9073 13.1634 26.144 12.9787C26.3831 12.7917 26.6435 12.6615 26.9252 12.5881C27.2093 12.5123 27.4887 12.4744 27.7633 12.4744C27.9385 12.4744 28.1397 12.4957 28.367 12.5384C28.5967 12.5786 28.818 12.6626 29.0311 12.7905C29.2465 12.9183 29.4252 13.1113 29.5673 13.3693C29.7093 13.6274 29.7804 13.973 29.7804 14.4062V18H28.9423V17.2614H28.8997C28.8429 17.3797 28.7482 17.5064 28.6156 17.6413C28.483 17.7763 28.3066 17.8911 28.0865 17.9858C27.8663 18.0805 27.5976 18.1278 27.2804 18.1278ZM27.4082 17.375C27.7396 17.375 28.019 17.3099 28.2463 17.1797C28.4759 17.0495 28.6487 16.8814 28.7647 16.6754C28.8831 16.4695 28.9423 16.2528 28.9423 16.0256V15.2585C28.9068 15.3011 28.8287 15.3402 28.7079 15.3757C28.5895 15.4089 28.4522 15.4384 28.296 15.4645C28.1421 15.4882 27.9918 15.5095 27.845 15.5284C27.7006 15.545 27.5834 15.5592 27.4934 15.571C27.2756 15.5994 27.072 15.6456 26.8826 15.7095C26.6956 15.7711 26.5441 15.8646 26.4281 15.9901C26.3145 16.1132 26.2576 16.2812 26.2576 16.4943C26.2576 16.7855 26.3654 17.0057 26.5808 17.1548C26.7986 17.3016 27.0744 17.375 27.4082 17.375ZM33.5117 20.1591C33.1069 20.1591 32.7589 20.107 32.4677 20.0028C32.1765 19.901 31.9338 19.7661 31.7397 19.598C31.5479 19.4323 31.3952 19.2547 31.2816 19.0653L31.9492 18.5966C32.025 18.696 32.1209 18.8097 32.2369 18.9375C32.3529 19.0677 32.5115 19.1802 32.7127 19.2749C32.9163 19.3719 33.1826 19.4205 33.5117 19.4205C33.9521 19.4205 34.3155 19.3139 34.6019 19.1009C34.8884 18.8878 35.0316 18.554 35.0316 18.0994V16.9915H34.9606C34.899 17.0909 34.8114 17.214 34.6978 17.3608C34.5865 17.5052 34.4255 17.6342 34.2148 17.7479C34.0065 17.8591 33.7248 17.9148 33.3697 17.9148C32.9293 17.9148 32.534 17.8106 32.1836 17.6023C31.8356 17.3939 31.5598 17.0909 31.3562 16.6932C31.1549 16.2955 31.0543 15.8125 31.0543 15.2443C31.0543 14.6856 31.1526 14.1991 31.3491 13.7848C31.5456 13.3681 31.819 13.0462 32.1694 12.8189C32.5198 12.5893 32.9246 12.4744 33.3839 12.4744C33.739 12.4744 34.0207 12.5336 34.229 12.652C34.4397 12.768 34.6007 12.9006 34.712 13.0497C34.8256 13.1965 34.9132 13.3172 34.9748 13.4119H35.06V12.5455H35.8697V18.1562C35.8697 18.625 35.7631 19.0062 35.5501 19.2997C35.3394 19.5956 35.0553 19.8123 34.6978 19.9496C34.3427 20.0893 33.9473 20.1591 33.5117 20.1591ZM33.4833 17.1619C33.8195 17.1619 34.1036 17.085 34.3356 16.9311C34.5676 16.7772 34.744 16.5559 34.8647 16.267C34.9854 15.9782 35.0458 15.6326 35.0458 15.2301C35.0458 14.8371 34.9866 14.4903 34.8683 14.1896C34.7499 13.889 34.5747 13.6534 34.3427 13.483C34.1107 13.3125 33.8242 13.2273 33.4833 13.2273C33.1282 13.2273 32.8323 13.3172 32.5955 13.4972C32.3612 13.6771 32.1848 13.9186 32.0664 14.2216C31.9504 14.5246 31.8924 14.8608 31.8924 15.2301C31.8924 15.6089 31.9516 15.9439 32.07 16.2351C32.1907 16.5239 32.3683 16.7512 32.6026 16.9169C32.8394 17.0803 33.1329 17.1619 33.4833 17.1619ZM41.8214 18.1278C41.4757 18.1278 41.1621 18.0627 40.8803 17.9325C40.5986 17.8 40.3749 17.6094 40.2092 17.3608C40.0434 17.1098 39.9606 16.8068 39.9606 16.4517C39.9606 16.1392 40.0221 15.8859 40.1452 15.6918C40.2683 15.4953 40.4329 15.3414 40.6388 15.2301C40.8448 15.1188 41.0721 15.036 41.3207 14.9815C41.5716 14.9247 41.8237 14.8797 42.0771 14.8466C42.4085 14.804 42.6772 14.772 42.8832 14.7507C43.0915 14.727 43.243 14.688 43.3377 14.6335C43.4348 14.5791 43.4833 14.4844 43.4833 14.3494V14.321C43.4833 13.9706 43.3874 13.6984 43.1957 13.5043C43.0063 13.3101 42.7186 13.2131 42.3327 13.2131C41.9326 13.2131 41.619 13.3007 41.3917 13.4759C41.1644 13.651 41.0046 13.8381 40.9123 14.0369L40.1168 13.7528C40.2589 13.4214 40.4483 13.1634 40.685 12.9787C40.9241 12.7917 41.1845 12.6615 41.4663 12.5881C41.7504 12.5123 42.0297 12.4744 42.3043 12.4744C42.4795 12.4744 42.6808 12.4957 42.908 12.5384C43.1377 12.5786 43.359 12.6626 43.5721 12.7905C43.7875 12.9183 43.9663 13.1113 44.1083 13.3693C44.2504 13.6274 44.3214 13.973 44.3214 14.4062V18H43.4833V17.2614H43.4407C43.3839 17.3797 43.2892 17.5064 43.1566 17.6413C43.024 17.7763 42.8477 17.8911 42.6275 17.9858C42.4073 18.0805 42.1386 18.1278 41.8214 18.1278ZM41.9492 17.375C42.2807 17.375 42.56 17.3099 42.7873 17.1797C43.0169 17.0495 43.1897 16.8814 43.3058 16.6754C43.4241 16.4695 43.4833 16.2528 43.4833 16.0256V15.2585C43.4478 15.3011 43.3697 15.3402 43.2489 15.3757C43.1306 15.4089 42.9933 15.4384 42.837 15.4645C42.6831 15.4882 42.5328 15.5095 42.386 15.5284C42.2416 15.545 42.1244 15.5592 42.0344 15.571C41.8166 15.5994 41.613 15.6456 41.4237 15.7095C41.2366 15.7711 41.0851 15.8646 40.9691 15.9901C40.8555 16.1132 40.7987 16.2812 40.7987 16.4943C40.7987 16.7855 40.9064 17.0057 41.1218 17.1548C41.3396 17.3016 41.6154 17.375 41.9492 17.375ZM46.6891 14.7188V18H45.851V12.5455H46.6607V13.3977H46.7317C46.8596 13.1207 47.0537 12.8982 47.3141 12.7301C47.5745 12.5597 47.9107 12.4744 48.3226 12.4744C48.6919 12.4744 49.0151 12.5502 49.2921 12.7017C49.5691 12.8509 49.7845 13.0781 49.9384 13.3835C50.0923 13.6866 50.1692 14.0701 50.1692 14.5341V18H49.3311V14.5909C49.3311 14.1624 49.2199 13.8286 48.9973 13.5895C48.7748 13.348 48.4694 13.2273 48.0811 13.2273C47.8136 13.2273 47.5745 13.2853 47.3638 13.4013C47.1555 13.5173 46.9909 13.6866 46.8702 13.9091C46.7495 14.1316 46.6891 14.4015 46.6891 14.7188ZM53.7603 18.1136C53.3058 18.1136 52.9045 17.9988 52.5565 17.7692C52.2085 17.5372 51.9362 17.2105 51.7397 16.7891C51.5432 16.3653 51.445 15.8646 51.445 15.2869C51.445 14.714 51.5432 14.2169 51.7397 13.7955C51.9362 13.3741 52.2096 13.0485 52.56 12.8189C52.9104 12.5893 53.3152 12.4744 53.7745 12.4744C54.1296 12.4744 54.4102 12.5336 54.6161 12.652C54.8245 12.768 54.9831 12.9006 55.092 13.0497C55.2032 13.1965 55.2897 13.3172 55.3512 13.4119H55.4222V10.7273H56.2603V18H55.4506V17.1619H55.3512C55.2897 17.2614 55.2021 17.3868 55.0884 17.5384C54.9748 17.6875 54.8126 17.8213 54.6019 17.9396C54.3912 18.0556 54.1107 18.1136 53.7603 18.1136ZM53.8739 17.3608C54.2101 17.3608 54.4942 17.2732 54.7262 17.098C54.9582 16.9205 55.1346 16.6754 55.2553 16.3629C55.3761 16.0481 55.4364 15.6847 55.4364 15.2727C55.4364 14.8655 55.3772 14.5092 55.2589 14.2038C55.1405 13.8961 54.9653 13.657 54.7333 13.4865C54.5013 13.3137 54.2148 13.2273 53.8739 13.2273C53.5188 13.2273 53.2229 13.3184 52.9862 13.5007C52.7518 13.6806 52.5754 13.9257 52.457 14.2358C52.341 14.5436 52.283 14.8892 52.283 15.2727C52.283 15.661 52.3422 16.0137 52.4606 16.331C52.5813 16.6458 52.7589 16.8968 52.9933 17.0838C53.23 17.2685 53.5236 17.3608 53.8739 17.3608ZM62.3292 18.1278C61.9835 18.1278 61.6699 18.0627 61.3881 17.9325C61.1064 17.8 60.8827 17.6094 60.717 17.3608C60.5513 17.1098 60.4684 16.8068 60.4684 16.4517C60.4684 16.1392 60.5299 15.8859 60.6531 15.6918C60.7762 15.4953 60.9407 15.3414 61.1467 15.2301C61.3526 15.1188 61.5799 15.036 61.8285 14.9815C62.0794 14.9247 62.3316 14.8797 62.5849 14.8466C62.9163 14.804 63.185 14.772 63.391 14.7507C63.5993 14.727 63.7508 14.688 63.8455 14.6335C63.9426 14.5791 63.9911 14.4844 63.9911 14.3494V14.321C63.9911 13.9706 63.8952 13.6984 63.7035 13.5043C63.5141 13.3101 63.2264 13.2131 62.8406 13.2131C62.4405 13.2131 62.1268 13.3007 61.8995 13.4759C61.6722 13.651 61.5124 13.8381 61.4201 14.0369L60.6246 13.7528C60.7667 13.4214 60.9561 13.1634 61.1928 12.9787C61.4319 12.7917 61.6924 12.6615 61.9741 12.5881C62.2582 12.5123 62.5375 12.4744 62.8121 12.4744C62.9873 12.4744 63.1886 12.4957 63.4158 12.5384C63.6455 12.5786 63.8668 12.6626 64.0799 12.7905C64.2953 12.9183 64.4741 13.1113 64.6161 13.3693C64.7582 13.6274 64.8292 13.973 64.8292 14.4062V18H63.9911V17.2614H63.9485C63.8917 17.3797 63.797 17.5064 63.6644 17.6413C63.5318 17.7763 63.3555 17.8911 63.1353 17.9858C62.9151 18.0805 62.6464 18.1278 62.3292 18.1278ZM62.457 17.375C62.7885 17.375 63.0678 17.3099 63.2951 17.1797C63.5247 17.0495 63.6976 16.8814 63.8136 16.6754C63.9319 16.4695 63.9911 16.2528 63.9911 16.0256V15.2585C63.9556 15.3011 63.8775 15.3402 63.7567 15.3757C63.6384 15.4089 63.5011 15.4384 63.3448 15.4645C63.1909 15.4882 63.0406 15.5095 62.8938 15.5284C62.7494 15.545 62.6322 15.5592 62.5423 15.571C62.3245 15.5994 62.1209 15.6456 61.9315 15.7095C61.7444 15.7711 61.5929 15.8646 61.4769 15.9901C61.3633 16.1132 61.3065 16.2812 61.3065 16.4943C61.3065 16.7855 61.4142 17.0057 61.6296 17.1548C61.8474 17.3016 62.1232 17.375 62.457 17.375ZM68.4185 18.1136C67.964 18.1136 67.5627 17.9988 67.2147 17.7692C66.8667 17.5372 66.5944 17.2105 66.3979 16.7891C66.2014 16.3653 66.1032 15.8646 66.1032 15.2869C66.1032 14.714 66.2014 14.2169 66.3979 13.7955C66.5944 13.3741 66.8678 13.0485 67.2182 12.8189C67.5686 12.5893 67.9734 12.4744 68.4327 12.4744C68.7878 12.4744 69.0684 12.5336 69.2743 12.652C69.4827 12.768 69.6413 12.9006 69.7502 13.0497C69.8614 13.1965 69.9479 13.3172 70.0094 13.4119H70.0804V10.7273H70.9185V18H70.1088V17.1619H70.0094C69.9479 17.2614 69.8603 17.3868 69.7466 17.5384C69.633 17.6875 69.4708 17.8213 69.2601 17.9396C69.0494 18.0556 68.7689 18.1136 68.4185 18.1136ZM68.5321 17.3608C68.8683 17.3608 69.1524 17.2732 69.3844 17.098C69.6164 16.9205 69.7928 16.6754 69.9135 16.3629C70.0343 16.0481 70.0946 15.6847 70.0946 15.2727C70.0946 14.8655 70.0355 14.5092 69.9171 14.2038C69.7987 13.8961 69.6235 13.657 69.3915 13.4865C69.1595 13.3137 68.873 13.2273 68.5321 13.2273C68.177 13.2273 67.8811 13.3184 67.6444 13.5007C67.41 13.6806 67.2336 13.9257 67.1152 14.2358C66.9992 14.5436 66.9412 14.8892 66.9412 15.2727C66.9412 15.661 67.0004 16.0137 67.1188 16.331C67.2395 16.6458 67.4171 16.8968 67.6515 17.0838C67.8882 17.2685 68.1818 17.3608 68.5321 17.3608ZM72.5698 12.5455H73.4078V18.3977C73.4078 18.7339 73.3498 19.0251 73.2338 19.2713C73.1202 19.5175 72.9474 19.7081 72.7154 19.843C72.4857 19.978 72.1957 20.0455 71.8453 20.0455C71.8169 20.0455 71.7885 20.0455 71.7601 20.0455C71.7317 20.0455 71.7033 20.0455 71.6749 20.0455V19.2642C71.7033 19.2642 71.7293 19.2642 71.753 19.2642C71.7767 19.2642 71.8027 19.2642 71.8311 19.2642C72.0868 19.2642 72.2739 19.1884 72.3922 19.0369C72.5106 18.8878 72.5698 18.6747 72.5698 18.3977V12.5455ZM72.9817 11.6364C72.8184 11.6364 72.6775 11.5807 72.5591 11.4695C72.4431 11.3582 72.3851 11.2244 72.3851 11.0682C72.3851 10.9119 72.4431 10.7782 72.5591 10.6669C72.6775 10.5556 72.8184 10.5 72.9817 10.5C73.1451 10.5 73.2847 10.5556 73.4007 10.6669C73.5191 10.7782 73.5783 10.9119 73.5783 11.0682C73.5783 11.2244 73.5191 11.3582 73.4007 11.4695C73.2847 11.5807 73.1451 11.6364 72.9817 11.6364ZM78.3803 15.7699V12.5455H79.2184V18H78.3803V17.0767H78.3235C78.1957 17.3537 77.9968 17.5893 77.7269 17.7834C77.457 17.9751 77.1161 18.071 76.7042 18.071C76.3633 18.071 76.0603 17.9964 75.7951 17.8473C75.5299 17.6958 75.3216 17.4685 75.1701 17.1655C75.0186 16.8601 74.9428 16.4754 74.9428 16.0114V12.5455H75.7809V15.9545C75.7809 16.3523 75.8922 16.6695 76.1147 16.9062C76.3396 17.143 76.6261 17.2614 76.9741 17.2614C77.1824 17.2614 77.3943 17.2081 77.6097 17.1016C77.8275 16.995 78.0098 16.8317 78.1566 16.6115C78.3058 16.3913 78.3803 16.1108 78.3803 15.7699ZM84.617 13.767L83.8642 13.9801C83.8168 13.8546 83.747 13.7327 83.6547 13.6143C83.5647 13.4936 83.4416 13.3942 83.2853 13.3161C83.1291 13.2379 82.929 13.1989 82.6852 13.1989C82.3514 13.1989 82.0732 13.2758 81.8507 13.4297C81.6305 13.5812 81.5204 13.7741 81.5204 14.0085C81.5204 14.2169 81.5962 14.3814 81.7477 14.5021C81.8992 14.6229 82.1359 14.7235 82.4579 14.804L83.2676 15.0028C83.7553 15.1212 84.1187 15.3023 84.3578 15.5462C84.5969 15.7876 84.7164 16.099 84.7164 16.4801C84.7164 16.7926 84.6265 17.072 84.4466 17.3182C84.269 17.5644 84.0204 17.7585 83.7008 17.9006C83.3812 18.0426 83.0095 18.1136 82.5858 18.1136C82.0294 18.1136 81.569 17.9929 81.2044 17.7514C80.8398 17.5099 80.609 17.1572 80.5119 16.6932L81.3074 16.4943C81.3831 16.7879 81.5263 17.008 81.737 17.1548C81.9501 17.3016 82.2283 17.375 82.5716 17.375C82.9622 17.375 83.2723 17.2921 83.502 17.1264C83.734 16.9583 83.85 16.7571 83.85 16.5227C83.85 16.3333 83.7837 16.1747 83.6511 16.0469C83.5185 15.9167 83.3149 15.8196 83.0403 15.7557L82.1312 15.5426C81.6317 15.4242 81.2647 15.2408 81.0304 14.9922C80.7984 14.7412 80.6824 14.4276 80.6824 14.0511C80.6824 13.7434 80.7688 13.4711 80.9416 13.2344C81.1168 12.9976 81.3547 12.8118 81.6554 12.6768C81.9584 12.5419 82.3017 12.4744 82.6852 12.4744C83.225 12.4744 83.6487 12.5928 83.9565 12.8295C84.2666 13.0663 84.4868 13.3788 84.617 13.767ZM88.3501 12.5455V13.2557H85.5234V12.5455H88.3501ZM86.3473 11.2386H87.1854V16.4375C87.1854 16.6742 87.2197 16.8518 87.2884 16.9702C87.3594 17.0862 87.4493 17.1643 87.5582 17.2045C87.6695 17.2424 87.7867 17.2614 87.9098 17.2614C88.0021 17.2614 88.0779 17.2566 88.1371 17.2472C88.1963 17.2353 88.2436 17.2259 88.2791 17.2188L88.4496 17.9716C88.3928 17.9929 88.3134 18.0142 88.2116 18.0355C88.1098 18.0592 87.9808 18.071 87.8246 18.071C87.5878 18.071 87.3558 18.0201 87.1286 17.9183C86.9036 17.8165 86.7166 17.6615 86.5675 17.4531C86.4207 17.2448 86.3473 16.982 86.3473 16.6648V11.2386ZM94.7955 12.5455V13.2557H91.9688V12.5455H94.7955ZM92.7926 11.2386H93.6307V16.4375C93.6307 16.6742 93.665 16.8518 93.7337 16.9702C93.8047 17.0862 93.8946 17.1643 94.0036 17.2045C94.1148 17.2424 94.232 17.2614 94.3551 17.2614C94.4474 17.2614 94.5232 17.2566 94.5824 17.2472C94.6416 17.2353 94.6889 17.2259 94.7244 17.2188L94.8949 17.9716C94.8381 17.9929 94.7588 18.0142 94.657 18.0355C94.5552 18.0592 94.4261 18.071 94.2699 18.071C94.0331 18.071 93.8011 18.0201 93.5739 17.9183C93.349 17.8165 93.1619 17.6615 93.0128 17.4531C92.866 17.2448 92.7926 16.982 92.7926 16.6648V11.2386ZM97.0114 14.7188V18H96.1733V10.7273H97.0114V13.3977H97.0824C97.2102 13.116 97.402 12.8923 97.6577 12.7266C97.9157 12.5585 98.259 12.4744 98.6875 12.4744C99.0592 12.4744 99.3847 12.549 99.6641 12.6982C99.9434 12.8449 100.16 13.071 100.314 13.3764C100.47 13.6795 100.548 14.0653 100.548 14.5341V18H99.7102V14.5909C99.7102 14.1577 99.5978 13.8227 99.3729 13.5859C99.1503 13.3468 98.8414 13.2273 98.446 13.2273C98.1714 13.2273 97.9252 13.2853 97.7074 13.4013C97.492 13.5173 97.3215 13.6866 97.196 13.9091C97.0729 14.1316 97.0114 14.4015 97.0114 14.7188ZM104.368 18.1136C103.843 18.1136 103.39 17.9976 103.008 17.7656C102.63 17.5312 102.337 17.2045 102.131 16.7855C101.928 16.3641 101.826 15.8741 101.826 15.3153C101.826 14.7566 101.928 14.2642 102.131 13.8381C102.337 13.4096 102.624 13.0758 102.991 12.8366C103.36 12.5952 103.791 12.4744 104.283 12.4744C104.567 12.4744 104.848 12.5218 105.125 12.6165C105.402 12.7112 105.654 12.8651 105.881 13.0781C106.108 13.2888 106.29 13.5682 106.425 13.9162C106.559 14.2642 106.627 14.6927 106.627 15.2017V15.5568H102.422V14.8324H105.775C105.775 14.5246 105.713 14.25 105.59 14.0085C105.469 13.767 105.296 13.5765 105.072 13.4368C104.849 13.2971 104.586 13.2273 104.283 13.2273C103.949 13.2273 103.661 13.3101 103.417 13.4759C103.175 13.6392 102.989 13.8523 102.859 14.1151C102.729 14.3778 102.664 14.6596 102.664 14.9602V15.4432C102.664 15.8551 102.735 16.2043 102.877 16.4908C103.021 16.7749 103.221 16.9915 103.477 17.1406C103.733 17.2874 104.03 17.3608 104.368 17.3608C104.589 17.3608 104.787 17.33 104.965 17.2685C105.145 17.2045 105.3 17.1098 105.43 16.9844C105.56 16.8565 105.661 16.6979 105.732 16.5085L106.542 16.7358C106.456 17.0104 106.313 17.2519 106.112 17.4602C105.911 17.6662 105.662 17.8272 105.366 17.9432C105.07 18.0568 104.738 18.1136 104.368 18.1136ZM110.714 18V12.5455H111.524V13.3977H111.595C111.709 13.1065 111.892 12.8804 112.145 12.7195C112.399 12.5561 112.703 12.4744 113.058 12.4744C113.418 12.4744 113.717 12.5561 113.956 12.7195C114.198 12.8804 114.386 13.1065 114.521 13.3977H114.578C114.718 13.116 114.927 12.8923 115.206 12.7266C115.486 12.5585 115.821 12.4744 116.211 12.4744C116.699 12.4744 117.098 12.6271 117.408 12.9325C117.718 13.2356 117.873 13.7079 117.873 14.3494V18H117.035V14.3494C117.035 13.947 116.925 13.6593 116.705 13.4865C116.485 13.3137 116.226 13.2273 115.927 13.2273C115.544 13.2273 115.247 13.3433 115.036 13.5753C114.825 13.8049 114.72 14.0961 114.72 14.4489V18H113.868V14.2642C113.868 13.9541 113.767 13.7043 113.566 13.5149C113.365 13.3232 113.105 13.2273 112.788 13.2273C112.57 13.2273 112.367 13.2853 112.177 13.4013C111.99 13.5173 111.839 13.6783 111.723 13.8842C111.609 14.0878 111.552 14.3234 111.552 14.5909V18H110.714ZM121.011 18.1278C120.665 18.1278 120.352 18.0627 120.07 17.9325C119.788 17.8 119.564 17.6094 119.399 17.3608C119.233 17.1098 119.15 16.8068 119.15 16.4517C119.15 16.1392 119.212 15.8859 119.335 15.6918C119.458 15.4953 119.622 15.3414 119.828 15.2301C120.034 15.1188 120.262 15.036 120.51 14.9815C120.761 14.9247 121.013 14.8797 121.267 14.8466C121.598 14.804 121.867 14.772 122.073 14.7507C122.281 14.727 122.432 14.688 122.527 14.6335C122.624 14.5791 122.673 14.4844 122.673 14.3494V14.321C122.673 13.9706 122.577 13.6984 122.385 13.5043C122.196 13.3101 121.908 13.2131 121.522 13.2131C121.122 13.2131 120.808 13.3007 120.581 13.4759C120.354 13.651 120.194 13.8381 120.102 14.0369L119.306 13.7528C119.448 13.4214 119.638 13.1634 119.874 12.9787C120.114 12.7917 120.374 12.6615 120.656 12.5881C120.94 12.5123 121.219 12.4744 121.494 12.4744C121.669 12.4744 121.87 12.4957 122.097 12.5384C122.327 12.5786 122.548 12.6626 122.762 12.7905C122.977 12.9183 123.156 13.1113 123.298 13.3693C123.44 13.6274 123.511 13.973 123.511 14.4062V18H122.673V17.2614H122.63C122.573 17.3797 122.479 17.5064 122.346 17.6413C122.213 17.7763 122.037 17.8911 121.817 17.9858C121.597 18.0805 121.328 18.1278 121.011 18.1278ZM121.139 17.375C121.47 17.375 121.749 17.3099 121.977 17.1797C122.206 17.0495 122.379 16.8814 122.495 16.6754C122.614 16.4695 122.673 16.2528 122.673 16.0256V15.2585C122.637 15.3011 122.559 15.3402 122.438 15.3757C122.32 15.4089 122.183 15.4384 122.026 15.4645C121.873 15.4882 121.722 15.5095 121.575 15.5284C121.431 15.545 121.314 15.5592 121.224 15.571C121.006 15.5994 120.802 15.6456 120.613 15.7095C120.426 15.7711 120.275 15.8646 120.159 15.9901C120.045 16.1132 119.988 16.2812 119.988 16.4943C119.988 16.7855 120.096 17.0057 120.311 17.1548C120.529 17.3016 120.805 17.375 121.139 17.375ZM125.04 20.0455V12.5455H125.85V13.4119H125.95C126.011 13.3172 126.096 13.1965 126.205 13.0497C126.317 12.9006 126.475 12.768 126.681 12.652C126.889 12.5336 127.171 12.4744 127.526 12.4744C127.986 12.4744 128.39 12.5893 128.741 12.8189C129.091 13.0485 129.365 13.3741 129.561 13.7955C129.758 14.2169 129.856 14.714 129.856 15.2869C129.856 15.8646 129.758 16.3653 129.561 16.7891C129.365 17.2105 129.092 17.5372 128.744 17.7692C128.396 17.9988 127.995 18.1136 127.54 18.1136C127.19 18.1136 126.91 18.0556 126.699 17.9396C126.488 17.8213 126.326 17.6875 126.212 17.5384C126.099 17.3868 126.011 17.2614 125.95 17.1619H125.879V20.0455H125.04ZM125.864 15.2727C125.864 15.6847 125.925 16.0481 126.045 16.3629C126.166 16.6754 126.343 16.9205 126.575 17.098C126.807 17.2732 127.091 17.3608 127.427 17.3608C127.777 17.3608 128.07 17.2685 128.304 17.0838C128.541 16.8968 128.718 16.6458 128.837 16.331C128.957 16.0137 129.018 15.661 129.018 15.2727C129.018 14.8892 128.959 14.5436 128.84 14.2358C128.724 13.9257 128.548 13.6806 128.311 13.5007C128.077 13.3184 127.782 13.2273 127.427 13.2273C127.086 13.2273 126.799 13.3137 126.567 13.4865C126.335 13.657 126.16 13.8961 126.042 14.2038C125.924 14.5092 125.864 14.8655 125.864 15.2727ZM136.376 12.5455V13.2557H133.435V12.5455H136.376ZM134.316 18V11.7926C134.316 11.4801 134.389 11.2197 134.536 11.0114C134.683 10.803 134.874 10.6468 135.108 10.5426C135.342 10.4384 135.59 10.3864 135.85 10.3864C136.056 10.3864 136.224 10.4029 136.354 10.4361C136.485 10.4692 136.582 10.5 136.646 10.5284L136.404 11.2528C136.362 11.2386 136.302 11.2209 136.227 11.1996C136.153 11.1783 136.056 11.1676 135.935 11.1676C135.658 11.1676 135.458 11.2375 135.335 11.3771C135.214 11.5168 135.154 11.7216 135.154 11.9915V18H134.316ZM139.542 18.1136C139.049 18.1136 138.617 17.9964 138.245 17.7621C137.876 17.5277 137.587 17.1998 137.379 16.7784C137.173 16.357 137.07 15.8646 137.07 15.3011C137.07 14.733 137.173 14.237 137.379 13.8132C137.587 13.3894 137.876 13.0604 138.245 12.826C138.617 12.5916 139.049 12.4744 139.542 12.4744C140.034 12.4744 140.465 12.5916 140.834 12.826C141.206 13.0604 141.495 13.3894 141.701 13.8132C141.909 14.237 142.013 14.733 142.013 15.3011C142.013 15.8646 141.909 16.357 141.701 16.7784C141.495 17.1998 141.206 17.5277 140.834 17.7621C140.465 17.9964 140.034 18.1136 139.542 18.1136ZM139.542 17.3608C139.916 17.3608 140.223 17.2649 140.465 17.0732C140.706 16.8814 140.885 16.6293 141.001 16.3168C141.117 16.0043 141.175 15.6657 141.175 15.3011C141.175 14.9366 141.117 14.5968 141.001 14.282C140.885 13.9671 140.706 13.7126 140.465 13.5185C140.223 13.3243 139.916 13.2273 139.542 13.2273C139.167 13.2273 138.86 13.3243 138.618 13.5185C138.377 13.7126 138.198 13.9671 138.082 14.282C137.966 14.5968 137.908 14.9366 137.908 15.3011C137.908 15.6657 137.966 16.0043 138.082 16.3168C138.198 16.6293 138.377 16.8814 138.618 17.0732C138.86 17.2649 139.167 17.3608 139.542 17.3608ZM143.292 18V12.5455H144.102V13.3693H144.159C144.258 13.0994 144.438 12.8804 144.699 12.7124C144.959 12.5443 145.253 12.4602 145.579 12.4602C145.641 12.4602 145.718 12.4614 145.81 12.4638C145.903 12.4661 145.972 12.4697 146.02 12.4744V13.3267C145.991 13.3196 145.926 13.3089 145.824 13.2947C145.725 13.2782 145.62 13.2699 145.508 13.2699C145.243 13.2699 145.006 13.3255 144.798 13.4368C144.592 13.5457 144.429 13.6972 144.308 13.8913C144.19 14.0831 144.131 14.3021 144.131 14.5483V18H143.292ZM151.431 18.1278C151.085 18.1278 150.771 18.0627 150.49 17.9325C150.208 17.8 149.984 17.6094 149.819 17.3608C149.653 17.1098 149.57 16.8068 149.57 16.4517C149.57 16.1392 149.632 15.8859 149.755 15.6918C149.878 15.4953 150.042 15.3414 150.248 15.2301C150.454 15.1188 150.681 15.036 150.93 14.9815C151.181 14.9247 151.433 14.8797 151.686 14.8466C152.018 14.804 152.287 14.772 152.493 14.7507C152.701 14.727 152.852 14.688 152.947 14.6335C153.044 14.5791 153.093 14.4844 153.093 14.3494V14.321C153.093 13.9706 152.997 13.6984 152.805 13.5043C152.616 13.3101 152.328 13.2131 151.942 13.2131C151.542 13.2131 151.228 13.3007 151.001 13.4759C150.774 13.651 150.614 13.8381 150.522 14.0369L149.726 13.7528C149.868 13.4214 150.058 13.1634 150.294 12.9787C150.533 12.7917 150.794 12.6615 151.076 12.5881C151.36 12.5123 151.639 12.4744 151.914 12.4744C152.089 12.4744 152.29 12.4957 152.517 12.5384C152.747 12.5786 152.968 12.6626 153.181 12.7905C153.397 12.9183 153.576 13.1113 153.718 13.3693C153.86 13.6274 153.931 13.973 153.931 14.4062V18H153.093V17.2614H153.05C152.993 17.3797 152.899 17.5064 152.766 17.6413C152.633 17.7763 152.457 17.8911 152.237 17.9858C152.017 18.0805 151.748 18.1278 151.431 18.1278ZM151.559 17.375C151.89 17.375 152.169 17.3099 152.397 17.1797C152.626 17.0495 152.799 16.8814 152.915 16.6754C153.033 16.4695 153.093 16.2528 153.093 16.0256V15.2585C153.057 15.3011 152.979 15.3402 152.858 15.3757C152.74 15.4089 152.603 15.4384 152.446 15.4645C152.292 15.4882 152.142 15.5095 151.995 15.5284C151.851 15.545 151.734 15.5592 151.644 15.571C151.426 15.5994 151.222 15.6456 151.033 15.7095C150.846 15.7711 150.694 15.8646 150.578 15.9901C150.465 16.1132 150.408 16.2812 150.408 16.4943C150.408 16.7855 150.516 17.0057 150.731 17.1548C150.949 17.3016 151.225 17.375 151.559 17.375ZM157.676 18.1136C157.165 18.1136 156.725 17.9929 156.355 17.7514C155.986 17.5099 155.702 17.1773 155.503 16.7536C155.304 16.3298 155.205 15.8456 155.205 15.3011C155.205 14.7472 155.307 14.2583 155.51 13.8345C155.716 13.4084 156.003 13.0758 156.369 12.8366C156.739 12.5952 157.17 12.4744 157.662 12.4744C158.046 12.4744 158.391 12.5455 158.699 12.6875C159.007 12.8295 159.259 13.0284 159.455 13.2841C159.652 13.5398 159.774 13.8381 159.821 14.179H158.983C158.919 13.9304 158.777 13.7102 158.557 13.5185C158.339 13.3243 158.046 13.2273 157.676 13.2273C157.35 13.2273 157.063 13.3125 156.817 13.483C156.573 13.651 156.383 13.889 156.245 14.1967C156.11 14.5021 156.043 14.8608 156.043 15.2727C156.043 15.6941 156.109 16.0611 156.242 16.3736C156.377 16.6861 156.566 16.9287 156.81 17.1016C157.056 17.2744 157.345 17.3608 157.676 17.3608C157.894 17.3608 158.092 17.3229 158.269 17.2472C158.447 17.1714 158.597 17.0625 158.72 16.9205C158.843 16.7784 158.931 16.608 158.983 16.4091H159.821C159.774 16.7311 159.657 17.0211 159.47 17.2791C159.285 17.5348 159.04 17.7384 158.735 17.8899C158.432 18.0391 158.079 18.1136 157.676 18.1136ZM163.262 18.1136C162.751 18.1136 162.311 17.9929 161.941 17.7514C161.572 17.5099 161.288 17.1773 161.089 16.7536C160.89 16.3298 160.791 15.8456 160.791 15.3011C160.791 14.7472 160.892 14.2583 161.096 13.8345C161.302 13.4084 161.588 13.0758 161.955 12.8366C162.325 12.5952 162.756 12.4744 163.248 12.4744C163.632 12.4744 163.977 12.5455 164.285 12.6875C164.593 12.8295 164.845 13.0284 165.041 13.2841C165.238 13.5398 165.36 13.8381 165.407 14.179H164.569C164.505 13.9304 164.363 13.7102 164.143 13.5185C163.925 13.3243 163.632 13.2273 163.262 13.2273C162.936 13.2273 162.649 13.3125 162.403 13.483C162.159 13.651 161.968 13.889 161.831 14.1967C161.696 14.5021 161.629 14.8608 161.629 15.2727C161.629 15.6941 161.695 16.0611 161.828 16.3736C161.963 16.6861 162.152 16.9287 162.396 17.1016C162.642 17.2744 162.931 17.3608 163.262 17.3608C163.48 17.3608 163.678 17.3229 163.855 17.2472C164.033 17.1714 164.183 17.0625 164.306 16.9205C164.429 16.7784 164.517 16.608 164.569 16.4091H165.407C165.36 16.7311 165.243 17.0211 165.056 17.2791C164.871 17.5348 164.626 17.7384 164.32 17.8899C164.017 18.0391 163.665 18.1136 163.262 18.1136ZM170.07 15.7699V12.5455H170.908V18H170.07V17.0767H170.013C169.885 17.3537 169.686 17.5893 169.416 17.7834C169.146 17.9751 168.806 18.071 168.394 18.071C168.053 18.071 167.75 17.9964 167.485 17.8473C167.219 17.6958 167.011 17.4685 166.86 17.1655C166.708 16.8601 166.632 16.4754 166.632 16.0114V12.5455H167.47V15.9545C167.47 16.3523 167.582 16.6695 167.804 16.9062C168.029 17.143 168.316 17.2614 168.664 17.2614C168.872 17.2614 169.084 17.2081 169.299 17.1016C169.517 16.995 169.699 16.8317 169.846 16.6115C169.995 16.3913 170.07 16.1108 170.07 15.7699ZM172.443 18V12.5455H173.252V13.3693H173.309C173.409 13.0994 173.589 12.8804 173.849 12.7124C174.109 12.5443 174.403 12.4602 174.73 12.4602C174.791 12.4602 174.868 12.4614 174.961 12.4638C175.053 12.4661 175.123 12.4697 175.17 12.4744V13.3267C175.142 13.3196 175.077 13.3089 174.975 13.2947C174.875 13.2782 174.77 13.2699 174.659 13.2699C174.394 13.2699 174.157 13.3255 173.949 13.4368C173.743 13.5457 173.579 13.6972 173.458 13.8913C173.34 14.0831 173.281 14.3021 173.281 14.5483V18H172.443ZM177.769 18.1278C177.423 18.1278 177.109 18.0627 176.828 17.9325C176.546 17.8 176.322 17.6094 176.156 17.3608C175.991 17.1098 175.908 16.8068 175.908 16.4517C175.908 16.1392 175.969 15.8859 176.093 15.6918C176.216 15.4953 176.38 15.3414 176.586 15.2301C176.792 15.1188 177.019 15.036 177.268 14.9815C177.519 14.9247 177.771 14.8797 178.024 14.8466C178.356 14.804 178.624 14.772 178.83 14.7507C179.039 14.727 179.19 14.688 179.285 14.6335C179.382 14.5791 179.431 14.4844 179.431 14.3494V14.321C179.431 13.9706 179.335 13.6984 179.143 13.5043C178.954 13.3101 178.666 13.2131 178.28 13.2131C177.88 13.2131 177.566 13.3007 177.339 13.4759C177.112 13.651 176.952 13.8381 176.86 14.0369L176.064 13.7528C176.206 13.4214 176.396 13.1634 176.632 12.9787C176.871 12.7917 177.132 12.6615 177.414 12.5881C177.698 12.5123 177.977 12.4744 178.252 12.4744C178.427 12.4744 178.628 12.4957 178.855 12.5384C179.085 12.5786 179.306 12.6626 179.519 12.7905C179.735 12.9183 179.914 13.1113 180.056 13.3693C180.198 13.6274 180.269 13.973 180.269 14.4062V18H179.431V17.2614H179.388C179.331 17.3797 179.236 17.5064 179.104 17.6413C178.971 17.7763 178.795 17.8911 178.575 17.9858C178.355 18.0805 178.086 18.1278 177.769 18.1278ZM177.896 17.375C178.228 17.375 178.507 17.3099 178.735 17.1797C178.964 17.0495 179.137 16.8814 179.253 16.6754C179.371 16.4695 179.431 16.2528 179.431 16.0256V15.2585C179.395 15.3011 179.317 15.3402 179.196 15.3757C179.078 15.4089 178.941 15.4384 178.784 15.4645C178.63 15.4882 178.48 15.5095 178.333 15.5284C178.189 15.545 178.072 15.5592 177.982 15.571C177.764 15.5994 177.56 15.6456 177.371 15.7095C177.184 15.7711 177.032 15.8646 176.916 15.9901C176.803 16.1132 176.746 16.2812 176.746 16.4943C176.746 16.7855 176.854 17.0057 177.069 17.1548C177.287 17.3016 177.563 17.375 177.896 17.375ZM184.17 12.5455V13.2557H181.344V12.5455H184.17ZM182.168 11.2386H183.006V16.4375C183.006 16.6742 183.04 16.8518 183.109 16.9702C183.18 17.0862 183.27 17.1643 183.379 17.2045C183.49 17.2424 183.607 17.2614 183.73 17.2614C183.822 17.2614 183.898 17.2566 183.957 17.2472C184.017 17.2353 184.064 17.2259 184.099 17.2188L184.27 17.9716C184.213 17.9929 184.134 18.0142 184.032 18.0355C183.93 18.0592 183.801 18.071 183.645 18.071C183.408 18.071 183.176 18.0201 182.949 17.9183C182.724 17.8165 182.537 17.6615 182.388 17.4531C182.241 17.2448 182.168 16.982 182.168 16.6648V11.2386ZM187.659 18.1136C187.134 18.1136 186.681 17.9976 186.299 17.7656C185.921 17.5312 185.628 17.2045 185.422 16.7855C185.219 16.3641 185.117 15.8741 185.117 15.3153C185.117 14.7566 185.219 14.2642 185.422 13.8381C185.628 13.4096 185.915 13.0758 186.282 12.8366C186.651 12.5952 187.082 12.4744 187.574 12.4744C187.858 12.4744 188.139 12.5218 188.416 12.6165C188.693 12.7112 188.945 12.8651 189.172 13.0781C189.4 13.2888 189.581 13.5682 189.716 13.9162C189.85 14.2642 189.918 14.6927 189.918 15.2017V15.5568H185.713V14.8324H189.066C189.066 14.5246 189.004 14.25 188.881 14.0085C188.76 13.767 188.587 13.5765 188.363 13.4368C188.14 13.2971 187.877 13.2273 187.574 13.2273C187.24 13.2273 186.952 13.3101 186.708 13.4759C186.466 13.6392 186.28 13.8523 186.15 14.1151C186.02 14.3778 185.955 14.6596 185.955 14.9602V15.4432C185.955 15.8551 186.026 16.2043 186.168 16.4908C186.312 16.7749 186.512 16.9915 186.768 17.1406C187.024 17.2874 187.321 17.3608 187.659 17.3608C187.88 17.3608 188.078 17.33 188.256 17.2685C188.436 17.2045 188.591 17.1098 188.721 16.9844C188.851 16.8565 188.952 16.6979 189.023 16.5085L189.833 16.7358C189.748 17.0104 189.604 17.2519 189.403 17.4602C189.202 17.6662 188.953 17.8272 188.657 17.9432C188.361 18.0568 188.029 18.1136 187.659 18.1136ZM194.843 10.7273V18H194.005V10.7273H194.843ZM198.594 18.1136C198.102 18.1136 197.67 17.9964 197.298 17.7621C196.929 17.5277 196.64 17.1998 196.432 16.7784C196.226 16.357 196.123 15.8646 196.123 15.3011C196.123 14.733 196.226 14.237 196.432 13.8132C196.64 13.3894 196.929 13.0604 197.298 12.826C197.67 12.5916 198.102 12.4744 198.594 12.4744C199.087 12.4744 199.518 12.5916 199.887 12.826C200.259 13.0604 200.547 13.3894 200.753 13.8132C200.962 14.237 201.066 14.733 201.066 15.3011C201.066 15.8646 200.962 16.357 200.753 16.7784C200.547 17.1998 200.259 17.5277 199.887 17.7621C199.518 17.9964 199.087 18.1136 198.594 18.1136ZM198.594 17.3608C198.968 17.3608 199.276 17.2649 199.518 17.0732C199.759 16.8814 199.938 16.6293 200.054 16.3168C200.17 16.0043 200.228 15.6657 200.228 15.3011C200.228 14.9366 200.17 14.5968 200.054 14.282C199.938 13.9671 199.759 13.7126 199.518 13.5185C199.276 13.3243 198.968 13.2273 198.594 13.2273C198.22 13.2273 197.912 13.3243 197.671 13.5185C197.43 13.7126 197.251 13.9671 197.135 14.282C197.019 14.5968 196.961 14.9366 196.961 15.3011C196.961 15.6657 197.019 16.0043 197.135 16.3168C197.251 16.6293 197.43 16.8814 197.671 17.0732C197.912 17.2649 198.22 17.3608 198.594 17.3608ZM204.561 18.1136C204.05 18.1136 203.609 17.9929 203.24 17.7514C202.871 17.5099 202.587 17.1773 202.388 16.7536C202.189 16.3298 202.089 15.8456 202.089 15.3011C202.089 14.7472 202.191 14.2583 202.395 13.8345C202.601 13.4084 202.887 13.0758 203.254 12.8366C203.624 12.5952 204.054 12.4744 204.547 12.4744C204.93 12.4744 205.276 12.5455 205.584 12.6875C205.892 12.8295 206.144 13.0284 206.34 13.2841C206.537 13.5398 206.659 13.8381 206.706 14.179H205.868C205.804 13.9304 205.662 13.7102 205.442 13.5185C205.224 13.3243 204.93 13.2273 204.561 13.2273C204.234 13.2273 203.948 13.3125 203.702 13.483C203.458 13.651 203.267 13.889 203.13 14.1967C202.995 14.5021 202.928 14.8608 202.928 15.2727C202.928 15.6941 202.994 16.0611 203.126 16.3736C203.261 16.6861 203.451 16.9287 203.695 17.1016C203.941 17.2744 204.23 17.3608 204.561 17.3608C204.779 17.3608 204.977 17.3229 205.154 17.2472C205.332 17.1714 205.482 17.0625 205.605 16.9205C205.728 16.7784 205.816 16.608 205.868 16.4091H206.706C206.659 16.7311 206.541 17.0211 206.354 17.2791C206.17 17.5348 205.925 17.7384 205.619 17.8899C205.316 18.0391 204.964 18.1136 204.561 18.1136ZM209.536 18.1278C209.191 18.1278 208.877 18.0627 208.595 17.9325C208.313 17.8 208.09 17.6094 207.924 17.3608C207.758 17.1098 207.675 16.8068 207.675 16.4517C207.675 16.1392 207.737 15.8859 207.86 15.6918C207.983 15.4953 208.148 15.3414 208.354 15.2301C208.56 15.1188 208.787 15.036 209.036 14.9815C209.286 14.9247 209.539 14.8797 209.792 14.8466C210.123 14.804 210.392 14.772 210.598 14.7507C210.806 14.727 210.958 14.688 211.053 14.6335C211.15 14.5791 211.198 14.4844 211.198 14.3494V14.321C211.198 13.9706 211.102 13.6984 210.911 13.5043C210.721 13.3101 210.433 13.2131 210.048 13.2131C209.647 13.2131 209.334 13.3007 209.107 13.4759C208.879 13.651 208.719 13.8381 208.627 14.0369L207.832 13.7528C207.974 13.4214 208.163 13.1634 208.4 12.9787C208.639 12.7917 208.899 12.6615 209.181 12.5881C209.465 12.5123 209.745 12.4744 210.019 12.4744C210.194 12.4744 210.396 12.4957 210.623 12.5384C210.853 12.5786 211.074 12.6626 211.287 12.7905C211.502 12.9183 211.681 13.1113 211.823 13.3693C211.965 13.6274 212.036 13.973 212.036 14.4062V18H211.198V17.2614H211.156C211.099 17.3797 211.004 17.5064 210.871 17.6413C210.739 17.7763 210.563 17.8911 210.342 17.9858C210.122 18.0805 209.853 18.1278 209.536 18.1278ZM209.664 17.375C209.996 17.375 210.275 17.3099 210.502 17.1797C210.732 17.0495 210.905 16.8814 211.021 16.6754C211.139 16.4695 211.198 16.2528 211.198 16.0256V15.2585C211.163 15.3011 211.085 15.3402 210.964 15.3757C210.845 15.4089 210.708 15.4384 210.552 15.4645C210.398 15.4882 210.248 15.5095 210.101 15.5284C209.956 15.545 209.839 15.5592 209.749 15.571C209.531 15.5994 209.328 15.6456 209.138 15.7095C208.951 15.7711 208.8 15.8646 208.684 15.9901C208.57 16.1132 208.513 16.2812 208.513 16.4943C208.513 16.7855 208.621 17.0057 208.837 17.1548C209.054 17.3016 209.33 17.375 209.664 17.375ZM215.938 12.5455V13.2557H213.111V12.5455H215.938ZM213.935 11.2386H214.773V16.4375C214.773 16.6742 214.808 16.8518 214.876 16.9702C214.947 17.0862 215.037 17.1643 215.146 17.2045C215.257 17.2424 215.375 17.2614 215.498 17.2614C215.59 17.2614 215.666 17.2566 215.725 17.2472C215.784 17.2353 215.831 17.2259 215.867 17.2188L216.037 17.9716C215.981 17.9929 215.901 18.0142 215.8 18.0355C215.698 18.0592 215.569 18.071 215.412 18.071C215.176 18.071 214.944 18.0201 214.716 17.9183C214.492 17.8165 214.305 17.6615 214.155 17.4531C214.009 17.2448 213.935 16.982 213.935 16.6648V11.2386ZM217.199 18V12.5455H218.037V18H217.199ZM217.625 11.6364C217.461 11.6364 217.321 11.5807 217.202 11.4695C217.086 11.3582 217.028 11.2244 217.028 11.0682C217.028 10.9119 217.086 10.7782 217.202 10.6669C217.321 10.5556 217.461 10.5 217.625 10.5C217.788 10.5 217.928 10.5556 218.044 10.6669C218.162 10.7782 218.221 10.9119 218.221 11.0682C218.221 11.2244 218.162 11.3582 218.044 11.4695C217.928 11.5807 217.788 11.6364 217.625 11.6364ZM221.788 18.1136C221.295 18.1136 220.863 17.9964 220.491 17.7621C220.122 17.5277 219.833 17.1998 219.625 16.7784C219.419 16.357 219.316 15.8646 219.316 15.3011C219.316 14.733 219.419 14.237 219.625 13.8132C219.833 13.3894 220.122 13.0604 220.491 12.826C220.863 12.5916 221.295 12.4744 221.788 12.4744C222.28 12.4744 222.711 12.5916 223.08 12.826C223.452 13.0604 223.741 13.3894 223.947 13.8132C224.155 14.237 224.259 14.733 224.259 15.3011C224.259 15.8646 224.155 16.357 223.947 16.7784C223.741 17.1998 223.452 17.5277 223.08 17.7621C222.711 17.9964 222.28 18.1136 221.788 18.1136ZM221.788 17.3608C222.162 17.3608 222.469 17.2649 222.711 17.0732C222.952 16.8814 223.131 16.6293 223.247 16.3168C223.363 16.0043 223.421 15.6657 223.421 15.3011C223.421 14.9366 223.363 14.5968 223.247 14.282C223.131 13.9671 222.952 13.7126 222.711 13.5185C222.469 13.3243 222.162 13.2273 221.788 13.2273C221.414 13.2273 221.106 13.3243 220.864 13.5185C220.623 13.7126 220.444 13.9671 220.328 14.282C220.212 14.5968 220.154 14.9366 220.154 15.3011C220.154 15.6657 220.212 16.0043 220.328 16.3168C220.444 16.6293 220.623 16.8814 220.864 17.0732C221.106 17.2649 221.414 17.3608 221.788 17.3608ZM226.377 14.7188V18H225.539V12.5455H226.348V13.3977H226.419C226.547 13.1207 226.741 12.8982 227.002 12.7301C227.262 12.5597 227.598 12.4744 228.01 12.4744C228.379 12.4744 228.703 12.5502 228.98 12.7017C229.257 12.8509 229.472 13.0781 229.626 13.3835C229.78 13.6866 229.857 14.0701 229.857 14.5341V18H229.019V14.5909C229.019 14.1624 228.907 13.8286 228.685 13.5895C228.462 13.348 228.157 13.2273 227.769 13.2273C227.501 13.2273 227.262 13.2853 227.051 13.4013C226.843 13.5173 226.678 13.6866 226.558 13.9091C226.437 14.1316 226.377 14.4015 226.377 14.7188Z" fill="white"/>
</svg>
