<svg width="250" height="77" viewBox="0 0 250 77" fill="none" xmlns="http://www.w3.org/2000/svg">
<rect width="250" height="68" rx="8" fill="#343D4C"/>
<path d="M30.6235 30.144C29.9675 30.144 29.3555 30.028 28.7875 29.796C28.2195 29.564 27.7235 29.24 27.2995 28.824C26.8755 28.408 26.5435 27.92 26.3035 27.36C26.0715 26.792 25.9555 26.18 25.9555 25.524C25.9555 24.86 26.0715 24.248 26.3035 23.688C26.5355 23.128 26.8635 22.64 27.2875 22.224C27.7115 21.808 28.2075 21.488 28.7755 21.264C29.3435 21.032 29.9595 20.916 30.6235 20.916C31.2875 20.916 31.9035 21.032 32.4715 21.264C33.0395 21.496 33.5355 21.82 33.9595 22.236C34.3835 22.644 34.7115 23.128 34.9435 23.688C35.1835 24.248 35.3035 24.86 35.3035 25.524C35.3035 26.18 35.1835 26.792 34.9435 27.36C34.7035 27.92 34.3715 28.408 33.9475 28.824C33.5235 29.24 33.0275 29.564 32.4595 29.796C31.8995 30.028 31.2875 30.144 30.6235 30.144ZM30.6235 28.656C31.0635 28.656 31.4675 28.58 31.8355 28.428C32.2035 28.268 32.5235 28.048 32.7955 27.768C33.0755 27.488 33.2875 27.156 33.4315 26.772C33.5835 26.388 33.6595 25.972 33.6595 25.524C33.6595 25.076 33.5835 24.664 33.4315 24.288C33.2875 23.904 33.0755 23.572 32.7955 23.292C32.5235 23.004 32.2035 22.784 31.8355 22.632C31.4675 22.48 31.0635 22.404 30.6235 22.404C30.1915 22.404 29.7915 22.48 29.4235 22.632C29.0555 22.784 28.7315 23.004 28.4515 23.292C28.1795 23.572 27.9675 23.904 27.8155 24.288C27.6635 24.664 27.5875 25.076 27.5875 25.524C27.5875 25.972 27.6635 26.388 27.8155 26.772C27.9675 27.156 28.1795 27.488 28.4515 27.768C28.7315 28.048 29.0555 28.268 29.4235 28.428C29.7915 28.58 30.1915 28.656 30.6235 28.656ZM36.6226 30V23.472H38.0986V24.924L37.9786 24.708C38.1306 24.22 38.3666 23.88 38.6866 23.688C39.0146 23.496 39.4066 23.4 39.8626 23.4H40.2466V24.792H39.6826C39.2346 24.792 38.8746 24.932 38.6026 25.212C38.3306 25.484 38.1946 25.868 38.1946 26.364V30H36.6226ZM44.1469 30.144C43.5149 30.144 42.9509 29.996 42.4549 29.7C41.9589 29.396 41.5669 28.984 41.2789 28.464C40.9909 27.944 40.8469 27.368 40.8469 26.736C40.8469 26.096 40.9909 25.52 41.2789 25.008C41.5669 24.496 41.9589 24.088 42.4549 23.784C42.9589 23.48 43.5189 23.328 44.1349 23.328C44.6309 23.328 45.0709 23.428 45.4549 23.628C45.8469 23.82 46.1549 24.092 46.3789 24.444L46.1389 24.768V20.916H47.7109V30H46.2229V28.74L46.3909 29.052C46.1669 29.404 45.8549 29.676 45.4549 29.868C45.0549 30.052 44.6189 30.144 44.1469 30.144ZM44.3149 28.704C44.6749 28.704 44.9909 28.62 45.2629 28.452C45.5349 28.284 45.7469 28.052 45.8989 27.756C46.0589 27.46 46.1389 27.12 46.1389 26.736C46.1389 26.36 46.0589 26.024 45.8989 25.728C45.7469 25.424 45.5349 25.188 45.2629 25.02C44.9909 24.852 44.6749 24.768 44.3149 24.768C43.9629 24.768 43.6469 24.856 43.3669 25.032C43.0869 25.2 42.8669 25.432 42.7069 25.728C42.5549 26.016 42.4789 26.352 42.4789 26.736C42.4789 27.12 42.5549 27.46 42.7069 27.756C42.8669 28.052 43.0869 28.284 43.3669 28.452C43.6469 28.62 43.9629 28.704 44.3149 28.704ZM52.2694 30.144C51.5974 30.144 51.0094 29.992 50.5054 29.688C50.0014 29.384 49.6094 28.972 49.3294 28.452C49.0494 27.932 48.9094 27.356 48.9094 26.724C48.9094 26.068 49.0494 25.488 49.3294 24.984C49.6174 24.472 50.0054 24.068 50.4934 23.772C50.9894 23.476 51.5414 23.328 52.1494 23.328C52.6614 23.328 53.1094 23.412 53.4934 23.58C53.8854 23.748 54.2174 23.98 54.4894 24.276C54.7614 24.572 54.9694 24.912 55.1134 25.296C55.2574 25.672 55.3294 26.08 55.3294 26.52C55.3294 26.632 55.3214 26.748 55.3054 26.868C55.2974 26.988 55.2774 27.092 55.2454 27.18H50.2054V25.98H54.3574L53.6134 26.544C53.6854 26.176 53.6654 25.848 53.5534 25.56C53.4494 25.272 53.2734 25.044 53.0254 24.876C52.7854 24.708 52.4934 24.624 52.1494 24.624C51.8214 24.624 51.5294 24.708 51.2734 24.876C51.0174 25.036 50.8214 25.276 50.6854 25.596C50.5574 25.908 50.5094 26.288 50.5414 26.736C50.5094 27.136 50.5614 27.492 50.6974 27.804C50.8414 28.108 51.0494 28.344 51.3214 28.512C51.6014 28.68 51.9214 28.764 52.2814 28.764C52.6414 28.764 52.9454 28.688 53.1934 28.536C53.4494 28.384 53.6494 28.18 53.7934 27.924L55.0654 28.548C54.9374 28.86 54.7374 29.136 54.4654 29.376C54.1934 29.616 53.8694 29.804 53.4934 29.94C53.1254 30.076 52.7174 30.144 52.2694 30.144ZM56.5211 30V23.472H57.9971V24.924L57.8771 24.708C58.0291 24.22 58.2651 23.88 58.5851 23.688C58.9131 23.496 59.3051 23.4 59.7611 23.4H60.1451V24.792H59.5811C59.1331 24.792 58.7731 24.932 58.5011 25.212C58.2291 25.484 58.0931 25.868 58.0931 26.364V30H56.5211ZM63.4933 30.144C62.7973 30.144 62.1893 29.98 61.6693 29.652C61.1573 29.316 60.8053 28.864 60.6133 28.296L61.7893 27.732C61.9573 28.1 62.1893 28.388 62.4853 28.596C62.7893 28.804 63.1253 28.908 63.4933 28.908C63.7813 28.908 64.0093 28.844 64.1773 28.716C64.3453 28.588 64.4293 28.42 64.4293 28.212C64.4293 28.084 64.3933 27.98 64.3213 27.9C64.2573 27.812 64.1653 27.74 64.0453 27.684C63.9333 27.62 63.8093 27.568 63.6733 27.528L62.6053 27.228C62.0533 27.068 61.6333 26.824 61.3453 26.496C61.0653 26.168 60.9253 25.78 60.9253 25.332C60.9253 24.932 61.0253 24.584 61.2253 24.288C61.4333 23.984 61.7173 23.748 62.0773 23.58C62.4453 23.412 62.8653 23.328 63.3373 23.328C63.9533 23.328 64.4973 23.476 64.9693 23.772C65.4413 24.068 65.7773 24.484 65.9773 25.02L64.7773 25.584C64.6653 25.288 64.4773 25.052 64.2133 24.876C63.9493 24.7 63.6533 24.612 63.3253 24.612C63.0613 24.612 62.8533 24.672 62.7013 24.792C62.5493 24.912 62.4733 25.068 62.4733 25.26C62.4733 25.38 62.5053 25.484 62.5693 25.572C62.6333 25.66 62.7213 25.732 62.8333 25.788C62.9533 25.844 63.0893 25.896 63.2413 25.944L64.2853 26.256C64.8213 26.416 65.2333 26.656 65.5213 26.976C65.8173 27.296 65.9653 27.688 65.9653 28.152C65.9653 28.544 65.8613 28.892 65.6533 29.196C65.4453 29.492 65.1573 29.724 64.7893 29.892C64.4213 30.06 63.9893 30.144 63.4933 30.144ZM70.9502 30L68.7062 23.472H70.3622L72.0062 28.428L71.4302 28.416L73.1822 23.472H74.5742L76.3142 28.416L75.7382 28.428L77.3822 23.472H79.0382L76.7942 30H75.3902L73.6142 24.828H74.1422L72.3422 30H70.9502ZM79.9 30V23.472H81.472V30H79.9ZM79.9 22.74V21.06H81.472V22.74H79.9ZM82.9234 30V20.916H84.4954V30H82.9234ZM85.9468 30V20.916H87.5188V30H85.9468ZM94.6671 30.144C94.1951 30.144 93.7591 30.052 93.3591 29.868C92.9671 29.676 92.6551 29.404 92.4231 29.052L92.5791 28.74V30H91.1031V20.916H92.6751V24.768L92.4351 24.444C92.6591 24.092 92.9631 23.82 93.3471 23.628C93.7311 23.428 94.1751 23.328 94.6791 23.328C95.2951 23.328 95.8511 23.48 96.3471 23.784C96.8431 24.088 97.2351 24.496 97.5231 25.008C97.8191 25.52 97.9671 26.096 97.9671 26.736C97.9671 27.368 97.8231 27.944 97.5351 28.464C97.2471 28.984 96.8551 29.396 96.3591 29.7C95.8631 29.996 95.2991 30.144 94.6671 30.144ZM94.4871 28.704C94.8471 28.704 95.1671 28.62 95.4471 28.452C95.7271 28.284 95.9431 28.052 96.0951 27.756C96.2551 27.46 96.3351 27.12 96.3351 26.736C96.3351 26.352 96.2551 26.016 96.0951 25.728C95.9431 25.432 95.7271 25.2 95.4471 25.032C95.1671 24.856 94.8471 24.768 94.4871 24.768C94.1431 24.768 93.8311 24.852 93.5511 25.02C93.2791 25.188 93.0631 25.424 92.9031 25.728C92.7511 26.024 92.6751 26.36 92.6751 26.736C92.6751 27.12 92.7511 27.46 92.9031 27.756C93.0631 28.052 93.2791 28.284 93.5511 28.452C93.8311 28.62 94.1431 28.704 94.4871 28.704ZM102.262 30.144C101.59 30.144 101.002 29.992 100.498 29.688C99.9936 29.384 99.6016 28.972 99.3216 28.452C99.0416 27.932 98.9016 27.356 98.9016 26.724C98.9016 26.068 99.0416 25.488 99.3216 24.984C99.6096 24.472 99.9976 24.068 100.486 23.772C100.982 23.476 101.534 23.328 102.142 23.328C102.654 23.328 103.102 23.412 103.486 23.58C103.878 23.748 104.21 23.98 104.482 24.276C104.754 24.572 104.962 24.912 105.106 25.296C105.25 25.672 105.322 26.08 105.322 26.52C105.322 26.632 105.314 26.748 105.298 26.868C105.29 26.988 105.27 27.092 105.238 27.18H100.198V25.98H104.35L103.606 26.544C103.678 26.176 103.658 25.848 103.546 25.56C103.442 25.272 103.266 25.044 103.018 24.876C102.778 24.708 102.486 24.624 102.142 24.624C101.814 24.624 101.522 24.708 101.266 24.876C101.01 25.036 100.814 25.276 100.678 25.596C100.55 25.908 100.502 26.288 100.534 26.736C100.502 27.136 100.554 27.492 100.69 27.804C100.834 28.108 101.042 28.344 101.314 28.512C101.594 28.68 101.914 28.764 102.274 28.764C102.634 28.764 102.938 28.688 103.186 28.536C103.442 28.384 103.642 28.18 103.786 27.924L105.058 28.548C104.93 28.86 104.73 29.136 104.458 29.376C104.186 29.616 103.862 29.804 103.486 29.94C103.118 30.076 102.71 30.144 102.262 30.144ZM108.646 32.4V23.472H110.122V24.768L109.978 24.444C110.202 24.092 110.506 23.82 110.89 23.628C111.274 23.428 111.718 23.328 112.222 23.328C112.838 23.328 113.394 23.48 113.89 23.784C114.386 24.088 114.778 24.496 115.066 25.008C115.362 25.52 115.51 26.096 115.51 26.736C115.51 27.368 115.366 27.944 115.078 28.464C114.79 28.984 114.398 29.396 113.902 29.7C113.406 29.996 112.842 30.144 112.21 30.144C111.738 30.144 111.302 30.052 110.902 29.868C110.51 29.676 110.198 29.404 109.966 29.052L110.218 28.74V32.4H108.646ZM112.03 28.704C112.39 28.704 112.71 28.62 112.99 28.452C113.27 28.284 113.486 28.052 113.638 27.756C113.798 27.46 113.878 27.12 113.878 26.736C113.878 26.352 113.798 26.016 113.638 25.728C113.486 25.432 113.27 25.2 112.99 25.032C112.71 24.856 112.39 24.768 112.03 24.768C111.686 24.768 111.374 24.852 111.094 25.02C110.822 25.188 110.606 25.424 110.446 25.728C110.294 26.024 110.218 26.36 110.218 26.736C110.218 27.12 110.294 27.46 110.446 27.756C110.606 28.052 110.822 28.284 111.094 28.452C111.374 28.62 111.686 28.704 112.03 28.704ZM116.709 30V23.472H118.281V30H116.709ZM116.709 22.74V21.06H118.281V22.74H116.709ZM122.876 30.144C122.228 30.144 121.644 29.996 121.124 29.7C120.612 29.396 120.208 28.988 119.912 28.476C119.616 27.956 119.468 27.372 119.468 26.724C119.468 26.076 119.616 25.496 119.912 24.984C120.208 24.472 120.612 24.068 121.124 23.772C121.644 23.476 122.228 23.328 122.876 23.328C123.34 23.328 123.772 23.412 124.172 23.58C124.572 23.74 124.916 23.964 125.204 24.252C125.5 24.532 125.712 24.868 125.84 25.26L124.46 25.86C124.34 25.532 124.136 25.268 123.848 25.068C123.568 24.868 123.244 24.768 122.876 24.768C122.532 24.768 122.224 24.852 121.952 25.02C121.688 25.188 121.48 25.42 121.328 25.716C121.176 26.012 121.1 26.352 121.1 26.736C121.1 27.12 121.176 27.46 121.328 27.756C121.48 28.052 121.688 28.284 121.952 28.452C122.224 28.62 122.532 28.704 122.876 28.704C123.252 28.704 123.58 28.604 123.86 28.404C124.14 28.204 124.34 27.936 124.46 27.6L125.84 28.224C125.712 28.592 125.504 28.924 125.216 29.22C124.928 29.508 124.584 29.736 124.184 29.904C123.784 30.064 123.348 30.144 122.876 30.144ZM127.033 30V20.916H128.605V26.868L128.005 26.688L131.077 23.472H133.033L130.621 26.1L133.081 30H131.281L129.145 26.616L130.081 26.424L128.113 28.536L128.605 27.576V30H127.033ZM136.937 30.144C136.265 30.144 135.677 29.992 135.173 29.688C134.669 29.384 134.277 28.972 133.997 28.452C133.717 27.932 133.577 27.356 133.577 26.724C133.577 26.068 133.717 25.488 133.997 24.984C134.285 24.472 134.673 24.068 135.161 23.772C135.657 23.476 136.209 23.328 136.817 23.328C137.329 23.328 137.777 23.412 138.161 23.58C138.553 23.748 138.885 23.98 139.157 24.276C139.429 24.572 139.637 24.912 139.781 25.296C139.925 25.672 139.997 26.08 139.997 26.52C139.997 26.632 139.989 26.748 139.973 26.868C139.965 26.988 139.945 27.092 139.913 27.18H134.873V25.98H139.025L138.281 26.544C138.353 26.176 138.333 25.848 138.221 25.56C138.117 25.272 137.941 25.044 137.693 24.876C137.453 24.708 137.161 24.624 136.817 24.624C136.489 24.624 136.197 24.708 135.941 24.876C135.685 25.036 135.489 25.276 135.353 25.596C135.225 25.908 135.177 26.288 135.209 26.736C135.177 27.136 135.229 27.492 135.365 27.804C135.509 28.108 135.717 28.344 135.989 28.512C136.269 28.68 136.589 28.764 136.949 28.764C137.309 28.764 137.613 28.688 137.861 28.536C138.117 28.384 138.317 28.18 138.461 27.924L139.733 28.548C139.605 28.86 139.405 29.136 139.133 29.376C138.861 29.616 138.537 29.804 138.161 29.94C137.793 30.076 137.385 30.144 136.937 30.144ZM144.225 30.144C143.593 30.144 143.029 29.996 142.533 29.7C142.037 29.396 141.645 28.984 141.357 28.464C141.069 27.944 140.925 27.368 140.925 26.736C140.925 26.096 141.069 25.52 141.357 25.008C141.645 24.496 142.037 24.088 142.533 23.784C143.037 23.48 143.597 23.328 144.213 23.328C144.709 23.328 145.149 23.428 145.533 23.628C145.925 23.82 146.233 24.092 146.457 24.444L146.217 24.768V20.916H147.789V30H146.301V28.74L146.469 29.052C146.245 29.404 145.933 29.676 145.533 29.868C145.133 30.052 144.697 30.144 144.225 30.144ZM144.393 28.704C144.753 28.704 145.069 28.62 145.341 28.452C145.613 28.284 145.825 28.052 145.977 27.756C146.137 27.46 146.217 27.12 146.217 26.736C146.217 26.36 146.137 26.024 145.977 25.728C145.825 25.424 145.613 25.188 145.341 25.02C145.069 24.852 144.753 24.768 144.393 24.768C144.041 24.768 143.725 24.856 143.445 25.032C143.165 25.2 142.945 25.432 142.785 25.728C142.633 26.016 142.557 26.352 142.557 26.736C142.557 27.12 142.633 27.46 142.785 27.756C142.945 28.052 143.165 28.284 143.445 28.452C143.725 28.62 144.041 28.704 144.393 28.704ZM153.712 30.144C153.208 30.144 152.768 30.032 152.392 29.808C152.024 29.584 151.74 29.272 151.54 28.872C151.348 28.472 151.252 28.004 151.252 27.468V23.472H152.824V27.336C152.824 27.608 152.876 27.848 152.98 28.056C153.092 28.256 153.248 28.416 153.448 28.536C153.656 28.648 153.888 28.704 154.144 28.704C154.4 28.704 154.628 28.648 154.828 28.536C155.028 28.416 155.184 28.252 155.296 28.044C155.408 27.836 155.464 27.588 155.464 27.3V23.472H157.036V30H155.548V28.716L155.68 28.944C155.528 29.344 155.276 29.644 154.924 29.844C154.58 30.044 154.176 30.144 153.712 30.144ZM158.498 32.4V23.472H159.974V24.768L159.83 24.444C160.054 24.092 160.358 23.82 160.742 23.628C161.126 23.428 161.57 23.328 162.074 23.328C162.69 23.328 163.246 23.48 163.742 23.784C164.238 24.088 164.63 24.496 164.918 25.008C165.214 25.52 165.362 26.096 165.362 26.736C165.362 27.368 165.218 27.944 164.93 28.464C164.642 28.984 164.25 29.396 163.754 29.7C163.258 29.996 162.694 30.144 162.062 30.144C161.59 30.144 161.154 30.052 160.754 29.868C160.362 29.676 160.05 29.404 159.818 29.052L160.07 28.74V32.4H158.498ZM161.882 28.704C162.242 28.704 162.562 28.62 162.842 28.452C163.122 28.284 163.338 28.052 163.49 27.756C163.65 27.46 163.73 27.12 163.73 26.736C163.73 26.352 163.65 26.016 163.49 25.728C163.338 25.432 163.122 25.2 162.842 25.032C162.562 24.856 162.242 24.768 161.882 24.768C161.538 24.768 161.226 24.852 160.946 25.02C160.674 25.188 160.458 25.424 160.298 25.728C160.146 26.024 160.07 26.36 160.07 26.736C160.07 27.12 160.146 27.46 160.298 27.756C160.458 28.052 160.674 28.284 160.946 28.452C161.226 28.62 161.538 28.704 161.882 28.704ZM169.449 30V24.876H168.297V23.472H169.449V23.256C169.449 22.76 169.549 22.34 169.749 21.996C169.957 21.644 170.245 21.376 170.613 21.192C170.981 21.008 171.417 20.916 171.921 20.916C172.017 20.916 172.121 20.924 172.233 20.94C172.353 20.948 172.453 20.96 172.533 20.976V22.332C172.453 22.316 172.377 22.308 172.305 22.308C172.241 22.3 172.181 22.296 172.125 22.296C171.773 22.296 171.501 22.376 171.309 22.536C171.117 22.688 171.021 22.928 171.021 23.256V23.472H172.473V24.876H171.021V30H169.449ZM173.545 30V23.472H175.021V24.924L174.901 24.708C175.053 24.22 175.289 23.88 175.609 23.688C175.937 23.496 176.329 23.4 176.785 23.4H177.169V24.792H176.605C176.157 24.792 175.797 24.932 175.525 25.212C175.253 25.484 175.117 25.868 175.117 26.364V30H173.545ZM181.225 30.144C180.585 30.144 180.001 29.996 179.473 29.7C178.953 29.404 178.537 29 178.225 28.488C177.921 27.976 177.769 27.392 177.769 26.736C177.769 26.08 177.921 25.496 178.225 24.984C178.537 24.472 178.953 24.068 179.473 23.772C179.993 23.476 180.577 23.328 181.225 23.328C181.865 23.328 182.445 23.476 182.965 23.772C183.485 24.068 183.897 24.472 184.201 24.984C184.513 25.488 184.669 26.072 184.669 26.736C184.669 27.392 184.513 27.976 184.201 28.488C183.889 29 183.473 29.404 182.953 29.7C182.433 29.996 181.857 30.144 181.225 30.144ZM181.225 28.704C181.577 28.704 181.885 28.62 182.149 28.452C182.421 28.284 182.633 28.052 182.785 27.756C182.945 27.452 183.025 27.112 183.025 26.736C183.025 26.352 182.945 26.016 182.785 25.728C182.633 25.432 182.421 25.2 182.149 25.032C181.885 24.856 181.577 24.768 181.225 24.768C180.865 24.768 180.549 24.856 180.277 25.032C180.005 25.2 179.789 25.432 179.629 25.728C179.477 26.016 179.401 26.352 179.401 26.736C179.401 27.112 179.477 27.452 179.629 27.756C179.789 28.052 180.005 28.284 180.277 28.452C180.549 28.62 180.865 28.704 181.225 28.704ZM185.861 30V23.472H187.337V24.984L187.169 24.732C187.289 24.26 187.529 23.908 187.889 23.676C188.249 23.444 188.673 23.328 189.161 23.328C189.697 23.328 190.169 23.468 190.577 23.748C190.985 24.028 191.249 24.396 191.369 24.852L190.925 24.888C191.125 24.368 191.425 23.98 191.825 23.724C192.225 23.46 192.685 23.328 193.205 23.328C193.669 23.328 194.081 23.432 194.441 23.64C194.809 23.848 195.097 24.14 195.305 24.516C195.513 24.884 195.617 25.312 195.617 25.8V30H194.045V26.172C194.045 25.884 193.993 25.636 193.889 25.428C193.785 25.22 193.641 25.06 193.457 24.948C193.273 24.828 193.049 24.768 192.785 24.768C192.537 24.768 192.317 24.828 192.125 24.948C191.933 25.06 191.785 25.22 191.681 25.428C191.577 25.636 191.525 25.884 191.525 26.172V30H189.953V26.172C189.953 25.884 189.901 25.636 189.797 25.428C189.693 25.22 189.545 25.06 189.353 24.948C189.169 24.828 188.949 24.768 188.693 24.768C188.445 24.768 188.225 24.828 188.033 24.948C187.841 25.06 187.693 25.22 187.589 25.428C187.485 25.636 187.433 25.884 187.433 26.172V30H185.861ZM199.08 30V20.916H200.652V24.756L200.436 24.528C200.588 24.136 200.836 23.84 201.18 23.64C201.532 23.432 201.94 23.328 202.404 23.328C202.884 23.328 203.308 23.432 203.676 23.64C204.052 23.848 204.344 24.14 204.552 24.516C204.76 24.884 204.864 25.312 204.864 25.8V30H203.292V26.172C203.292 25.884 203.236 25.636 203.124 25.428C203.012 25.22 202.856 25.06 202.656 24.948C202.464 24.828 202.236 24.768 201.972 24.768C201.716 24.768 201.488 24.828 201.288 24.948C201.088 25.06 200.932 25.22 200.82 25.428C200.708 25.636 200.652 25.884 200.652 26.172V30H199.08ZM209.289 30.144C208.617 30.144 208.029 29.992 207.525 29.688C207.021 29.384 206.629 28.972 206.349 28.452C206.069 27.932 205.929 27.356 205.929 26.724C205.929 26.068 206.069 25.488 206.349 24.984C206.637 24.472 207.025 24.068 207.513 23.772C208.009 23.476 208.561 23.328 209.169 23.328C209.681 23.328 210.129 23.412 210.513 23.58C210.905 23.748 211.237 23.98 211.509 24.276C211.781 24.572 211.989 24.912 212.133 25.296C212.277 25.672 212.349 26.08 212.349 26.52C212.349 26.632 212.341 26.748 212.325 26.868C212.317 26.988 212.297 27.092 212.265 27.18H207.225V25.98H211.377L210.633 26.544C210.705 26.176 210.685 25.848 210.573 25.56C210.469 25.272 210.293 25.044 210.045 24.876C209.805 24.708 209.513 24.624 209.169 24.624C208.841 24.624 208.549 24.708 208.293 24.876C208.037 25.036 207.841 25.276 207.705 25.596C207.577 25.908 207.529 26.288 207.561 26.736C207.529 27.136 207.581 27.492 207.717 27.804C207.861 28.108 208.069 28.344 208.341 28.512C208.621 28.68 208.941 28.764 209.301 28.764C209.661 28.764 209.965 28.688 210.213 28.536C210.469 28.384 210.669 28.18 210.813 27.924L212.085 28.548C211.957 28.86 211.757 29.136 211.485 29.376C211.213 29.616 210.889 29.804 210.513 29.94C210.145 30.076 209.737 30.144 209.289 30.144ZM213.541 30V23.472H215.017V24.924L214.897 24.708C215.049 24.22 215.285 23.88 215.605 23.688C215.933 23.496 216.325 23.4 216.781 23.4H217.165V24.792H216.601C216.153 24.792 215.793 24.932 215.521 25.212C215.249 25.484 215.113 25.868 215.113 26.364V30H213.541ZM221.125 30.144C220.453 30.144 219.865 29.992 219.361 29.688C218.857 29.384 218.465 28.972 218.185 28.452C217.905 27.932 217.765 27.356 217.765 26.724C217.765 26.068 217.905 25.488 218.185 24.984C218.473 24.472 218.861 24.068 219.349 23.772C219.845 23.476 220.397 23.328 221.005 23.328C221.517 23.328 221.965 23.412 222.349 23.58C222.741 23.748 223.073 23.98 223.345 24.276C223.617 24.572 223.825 24.912 223.969 25.296C224.113 25.672 224.185 26.08 224.185 26.52C224.185 26.632 224.177 26.748 224.161 26.868C224.153 26.988 224.133 27.092 224.101 27.18H219.061V25.98H223.213L222.469 26.544C222.541 26.176 222.521 25.848 222.409 25.56C222.305 25.272 222.129 25.044 221.881 24.876C221.641 24.708 221.349 24.624 221.005 24.624C220.677 24.624 220.385 24.708 220.129 24.876C219.873 25.036 219.677 25.276 219.541 25.596C219.413 25.908 219.365 26.288 219.397 26.736C219.365 27.136 219.417 27.492 219.553 27.804C219.697 28.108 219.905 28.344 220.177 28.512C220.457 28.68 220.777 28.764 221.137 28.764C221.497 28.764 221.801 28.688 222.049 28.536C222.305 28.384 222.505 28.18 222.649 27.924L223.921 28.548C223.793 28.86 223.593 29.136 223.321 29.376C223.049 29.616 222.725 29.804 222.349 29.94C221.981 30.076 221.573 30.144 221.125 30.144Z" fill="white"/>
<path d="M58.8197 48V39.06H61.8917C62.4757 39.06 62.9877 39.176 63.4277 39.408C63.8677 39.632 64.2077 39.952 64.4477 40.368C64.6957 40.776 64.8197 41.252 64.8197 41.796C64.8197 42.34 64.6957 42.816 64.4477 43.224C64.2077 43.632 63.8677 43.952 63.4277 44.184C62.9957 44.408 62.4837 44.52 61.8917 44.52H59.7797V48H58.8197ZM59.7797 43.62H61.9397C62.3237 43.62 62.6597 43.548 62.9477 43.404C63.2357 43.252 63.4597 43.04 63.6197 42.768C63.7797 42.488 63.8597 42.16 63.8597 41.784C63.8597 41.408 63.7797 41.084 63.6197 40.812C63.4597 40.54 63.2357 40.332 62.9477 40.188C62.6597 40.036 62.3237 39.96 61.9397 39.96H59.7797V43.62ZM66.3986 48V38.916H67.2986V48H66.3986ZM71.0008 48.144C70.5928 48.144 70.2288 48.068 69.9088 47.916C69.5888 47.756 69.3368 47.54 69.1528 47.268C68.9688 46.996 68.8768 46.684 68.8768 46.332C68.8768 45.996 68.9488 45.692 69.0928 45.42C69.2368 45.14 69.4608 44.904 69.7648 44.712C70.0688 44.52 70.4568 44.384 70.9288 44.304L73.4488 43.884V44.7L71.1448 45.084C70.6808 45.164 70.3448 45.312 70.1368 45.528C69.9368 45.744 69.8368 46 69.8368 46.296C69.8368 46.584 69.9488 46.828 70.1728 47.028C70.4048 47.228 70.7008 47.328 71.0608 47.328C71.5008 47.328 71.8848 47.236 72.2128 47.052C72.5408 46.86 72.7968 46.604 72.9808 46.284C73.1648 45.964 73.2568 45.608 73.2568 45.216V43.584C73.2568 43.2 73.1168 42.888 72.8368 42.648C72.5568 42.408 72.1928 42.288 71.7448 42.288C71.3528 42.288 71.0088 42.388 70.7128 42.588C70.4168 42.78 70.1968 43.032 70.0528 43.344L69.2368 42.9C69.3568 42.628 69.5448 42.38 69.8008 42.156C70.0648 41.932 70.3648 41.756 70.7008 41.628C71.0368 41.492 71.3848 41.424 71.7448 41.424C72.2168 41.424 72.6328 41.516 72.9928 41.7C73.3608 41.884 73.6448 42.14 73.8448 42.468C74.0528 42.788 74.1568 43.16 74.1568 43.584V48H73.2568V46.716L73.3888 46.848C73.2768 47.088 73.1008 47.308 72.8608 47.508C72.6288 47.7 72.3528 47.856 72.0328 47.976C71.7208 48.088 71.3768 48.144 71.0008 48.144ZM78.948 48.144C78.316 48.144 77.76 47.996 77.28 47.7C76.8 47.404 76.424 47.004 76.152 46.5C75.88 45.988 75.744 45.412 75.744 44.772C75.744 44.132 75.88 43.56 76.152 43.056C76.424 42.552 76.8 42.156 77.28 41.868C77.76 41.572 78.316 41.424 78.948 41.424C79.348 41.424 79.724 41.496 80.076 41.64C80.428 41.784 80.74 41.98 81.012 42.228C81.284 42.468 81.488 42.748 81.624 43.068L80.808 43.488C80.648 43.144 80.404 42.864 80.076 42.648C79.748 42.432 79.372 42.324 78.948 42.324C78.524 42.324 78.14 42.432 77.796 42.648C77.46 42.856 77.192 43.148 76.992 43.524C76.8 43.892 76.704 44.312 76.704 44.784C76.704 45.248 76.8 45.668 76.992 46.044C77.192 46.412 77.46 46.704 77.796 46.92C78.14 47.136 78.524 47.244 78.948 47.244C79.372 47.244 79.744 47.136 80.064 46.92C80.392 46.704 80.64 46.416 80.808 46.056L81.624 46.5C81.488 46.812 81.284 47.092 81.012 47.34C80.74 47.588 80.428 47.784 80.076 47.928C79.724 48.072 79.348 48.144 78.948 48.144ZM86.1313 48.144C85.5313 48.144 84.9873 48 84.4993 47.712C84.0193 47.416 83.6393 47.012 83.3593 46.5C83.0793 45.988 82.9393 45.408 82.9393 44.76C82.9393 44.112 83.0753 43.54 83.3473 43.044C83.6193 42.54 83.9873 42.144 84.4513 41.856C84.9233 41.568 85.4513 41.424 86.0353 41.424C86.4993 41.424 86.9113 41.512 87.2713 41.688C87.6393 41.856 87.9513 42.088 88.2073 42.384C88.4633 42.672 88.6593 43 88.7953 43.368C88.9313 43.728 88.9993 44.1 88.9993 44.484C88.9993 44.564 88.9953 44.656 88.9873 44.76C88.9793 44.856 88.9673 44.956 88.9513 45.06H83.5153V44.22H88.4353L88.0033 44.58C88.0753 44.14 88.0233 43.748 87.8473 43.404C87.6793 43.052 87.4353 42.776 87.1153 42.576C86.7953 42.368 86.4353 42.264 86.0353 42.264C85.6353 42.264 85.2633 42.368 84.9193 42.576C84.5833 42.784 84.3193 43.076 84.1273 43.452C83.9353 43.82 83.8593 44.26 83.8993 44.772C83.8593 45.284 83.9393 45.732 84.1393 46.116C84.3473 46.492 84.6273 46.784 84.9793 46.992C85.3393 47.2 85.7233 47.304 86.1313 47.304C86.6033 47.304 86.9993 47.192 87.3193 46.968C87.6393 46.744 87.8993 46.464 88.0993 46.128L88.8673 46.536C88.7393 46.824 88.5433 47.092 88.2793 47.34C88.0153 47.58 87.6993 47.776 87.3313 47.928C86.9713 48.072 86.5713 48.144 86.1313 48.144ZM95.0852 48.072C94.5092 48.072 94.0652 47.904 93.7532 47.568C93.4412 47.232 93.2852 46.752 93.2852 46.128V42.468H92.0972V41.568H92.3972C92.6692 41.568 92.8852 41.48 93.0452 41.304C93.2052 41.12 93.2852 40.892 93.2852 40.62V40.08H94.1852V41.568H95.6012V42.468H94.1852V46.128C94.1852 46.344 94.2172 46.536 94.2812 46.704C94.3452 46.864 94.4532 46.992 94.6052 47.088C94.7652 47.184 94.9772 47.232 95.2412 47.232C95.3052 47.232 95.3812 47.228 95.4692 47.22C95.5572 47.212 95.6332 47.204 95.6972 47.196V48C95.6012 48.024 95.4932 48.04 95.3732 48.048C95.2532 48.064 95.1572 48.072 95.0852 48.072ZM97.2775 48V38.916H98.1775V42.816L97.9735 42.768C98.1335 42.352 98.3935 42.024 98.7535 41.784C99.1215 41.544 99.5455 41.424 100.026 41.424C100.482 41.424 100.89 41.528 101.25 41.736C101.618 41.944 101.906 42.232 102.114 42.6C102.33 42.96 102.438 43.368 102.438 43.824V48H101.538V44.172C101.538 43.78 101.466 43.448 101.322 43.176C101.178 42.904 100.978 42.696 100.722 42.552C100.474 42.4 100.19 42.324 99.8695 42.324C99.5495 42.324 99.2615 42.4 99.0055 42.552C98.7495 42.696 98.5455 42.908 98.3935 43.188C98.2495 43.46 98.1775 43.788 98.1775 44.172V48H97.2775ZM107.084 48.144C106.484 48.144 105.94 48 105.452 47.712C104.972 47.416 104.592 47.012 104.312 46.5C104.032 45.988 103.892 45.408 103.892 44.76C103.892 44.112 104.028 43.54 104.3 43.044C104.572 42.54 104.94 42.144 105.404 41.856C105.876 41.568 106.404 41.424 106.988 41.424C107.452 41.424 107.864 41.512 108.224 41.688C108.592 41.856 108.904 42.088 109.16 42.384C109.416 42.672 109.612 43 109.748 43.368C109.884 43.728 109.952 44.1 109.952 44.484C109.952 44.564 109.948 44.656 109.94 44.76C109.932 44.856 109.92 44.956 109.904 45.06H104.468V44.22H109.388L108.956 44.58C109.028 44.14 108.976 43.748 108.8 43.404C108.632 43.052 108.388 42.776 108.068 42.576C107.748 42.368 107.388 42.264 106.988 42.264C106.588 42.264 106.216 42.368 105.872 42.576C105.536 42.784 105.272 43.076 105.08 43.452C104.888 43.82 104.812 44.26 104.852 44.772C104.812 45.284 104.892 45.732 105.092 46.116C105.3 46.492 105.58 46.784 105.932 46.992C106.292 47.2 106.676 47.304 107.084 47.304C107.556 47.304 107.952 47.192 108.272 46.968C108.592 46.744 108.852 46.464 109.052 46.128L109.82 46.536C109.692 46.824 109.496 47.092 109.232 47.34C108.968 47.58 108.652 47.776 108.284 47.928C107.924 48.072 107.524 48.144 107.084 48.144ZM113.578 50.4V41.568H114.478V43.008L114.334 42.756C114.59 42.348 114.93 42.024 115.354 41.784C115.786 41.544 116.278 41.424 116.83 41.424C117.438 41.424 117.978 41.572 118.45 41.868C118.93 42.156 119.306 42.552 119.578 43.056C119.858 43.56 119.998 44.136 119.998 44.784C119.998 45.424 119.858 46 119.578 46.512C119.306 47.016 118.93 47.416 118.45 47.712C117.978 48 117.438 48.144 116.83 48.144C116.278 48.144 115.778 48.02 115.33 47.772C114.89 47.516 114.558 47.156 114.334 46.692L114.478 46.56V50.4H113.578ZM116.782 47.244C117.214 47.244 117.598 47.136 117.934 46.92C118.278 46.704 118.546 46.412 118.738 46.044C118.938 45.668 119.038 45.248 119.038 44.784C119.038 44.312 118.938 43.892 118.738 43.524C118.546 43.156 118.278 42.864 117.934 42.648C117.598 42.432 117.214 42.324 116.782 42.324C116.35 42.324 115.958 42.432 115.606 42.648C115.262 42.864 114.986 43.16 114.778 43.536C114.578 43.904 114.478 44.32 114.478 44.784C114.478 45.248 114.578 45.668 114.778 46.044C114.986 46.412 115.262 46.704 115.606 46.92C115.958 47.136 116.35 47.244 116.782 47.244ZM121.582 48V41.568H122.482V48H121.582ZM121.582 40.38V39.06H122.482V40.38H121.582ZM124.324 48V41.568H125.224V42.816L125.02 42.768C125.18 42.352 125.44 42.024 125.8 41.784C126.168 41.544 126.592 41.424 127.072 41.424C127.528 41.424 127.936 41.528 128.296 41.736C128.664 41.944 128.952 42.232 129.16 42.6C129.376 42.96 129.484 43.368 129.484 43.824V48H128.584V44.172C128.584 43.78 128.512 43.448 128.368 43.176C128.232 42.904 128.036 42.696 127.78 42.552C127.532 42.4 127.244 42.324 126.916 42.324C126.588 42.324 126.296 42.4 126.04 42.552C125.784 42.696 125.584 42.908 125.44 43.188C125.296 43.46 125.224 43.788 125.224 44.172V48H124.324ZM135.102 48.144C134.694 48.144 134.33 48.068 134.01 47.916C133.69 47.756 133.438 47.54 133.254 47.268C133.07 46.996 132.978 46.684 132.978 46.332C132.978 45.996 133.05 45.692 133.194 45.42C133.338 45.14 133.562 44.904 133.866 44.712C134.17 44.52 134.558 44.384 135.03 44.304L137.55 43.884V44.7L135.246 45.084C134.782 45.164 134.446 45.312 134.238 45.528C134.038 45.744 133.938 46 133.938 46.296C133.938 46.584 134.05 46.828 134.274 47.028C134.506 47.228 134.802 47.328 135.162 47.328C135.602 47.328 135.986 47.236 136.314 47.052C136.642 46.86 136.898 46.604 137.082 46.284C137.266 45.964 137.358 45.608 137.358 45.216V43.584C137.358 43.2 137.218 42.888 136.938 42.648C136.658 42.408 136.294 42.288 135.846 42.288C135.454 42.288 135.11 42.388 134.814 42.588C134.518 42.78 134.298 43.032 134.154 43.344L133.338 42.9C133.458 42.628 133.646 42.38 133.902 42.156C134.166 41.932 134.466 41.756 134.802 41.628C135.138 41.492 135.486 41.424 135.846 41.424C136.318 41.424 136.734 41.516 137.094 41.7C137.462 41.884 137.746 42.14 137.946 42.468C138.154 42.788 138.258 43.16 138.258 43.584V48H137.358V46.716L137.49 46.848C137.378 47.088 137.202 47.308 136.962 47.508C136.73 47.7 136.454 47.856 136.134 47.976C135.822 48.088 135.478 48.144 135.102 48.144ZM143.05 48.144C142.418 48.144 141.862 47.996 141.382 47.7C140.902 47.404 140.526 47.004 140.254 46.5C139.982 45.988 139.846 45.412 139.846 44.772C139.846 44.132 139.982 43.56 140.254 43.056C140.526 42.552 140.902 42.156 141.382 41.868C141.862 41.572 142.418 41.424 143.05 41.424C143.45 41.424 143.826 41.496 144.178 41.64C144.53 41.784 144.842 41.98 145.114 42.228C145.386 42.468 145.59 42.748 145.726 43.068L144.91 43.488C144.75 43.144 144.506 42.864 144.178 42.648C143.85 42.432 143.474 42.324 143.05 42.324C142.626 42.324 142.242 42.432 141.898 42.648C141.562 42.856 141.294 43.148 141.094 43.524C140.902 43.892 140.806 44.312 140.806 44.784C140.806 45.248 140.902 45.668 141.094 46.044C141.294 46.412 141.562 46.704 141.898 46.92C142.242 47.136 142.626 47.244 143.05 47.244C143.474 47.244 143.846 47.136 144.166 46.92C144.494 46.704 144.742 46.416 144.91 46.056L145.726 46.5C145.59 46.812 145.386 47.092 145.114 47.34C144.842 47.588 144.53 47.784 144.178 47.928C143.826 48.072 143.45 48.144 143.05 48.144ZM150.245 48.144C149.613 48.144 149.057 47.996 148.577 47.7C148.097 47.404 147.721 47.004 147.449 46.5C147.177 45.988 147.041 45.412 147.041 44.772C147.041 44.132 147.177 43.56 147.449 43.056C147.721 42.552 148.097 42.156 148.577 41.868C149.057 41.572 149.613 41.424 150.245 41.424C150.645 41.424 151.021 41.496 151.373 41.64C151.725 41.784 152.037 41.98 152.309 42.228C152.581 42.468 152.785 42.748 152.921 43.068L152.105 43.488C151.945 43.144 151.701 42.864 151.373 42.648C151.045 42.432 150.669 42.324 150.245 42.324C149.821 42.324 149.437 42.432 149.093 42.648C148.757 42.856 148.489 43.148 148.289 43.524C148.097 43.892 148.001 44.312 148.001 44.784C148.001 45.248 148.097 45.668 148.289 46.044C148.489 46.412 148.757 46.704 149.093 46.92C149.437 47.136 149.821 47.244 150.245 47.244C150.669 47.244 151.041 47.136 151.361 46.92C151.689 46.704 151.937 46.416 152.105 46.056L152.921 46.5C152.785 46.812 152.581 47.092 152.309 47.34C152.037 47.588 151.725 47.784 151.373 47.928C151.021 48.072 150.645 48.144 150.245 48.144ZM156.78 48.144C156.332 48.144 155.924 48.04 155.556 47.832C155.188 47.616 154.896 47.32 154.68 46.944C154.472 46.56 154.368 46.12 154.368 45.624V41.568H155.268V45.516C155.268 45.86 155.336 46.164 155.472 46.428C155.616 46.684 155.812 46.884 156.06 47.028C156.316 47.172 156.608 47.244 156.936 47.244C157.264 47.244 157.556 47.172 157.812 47.028C158.068 46.876 158.268 46.664 158.412 46.392C158.556 46.112 158.628 45.78 158.628 45.396V41.568H159.528V48H158.628V46.752L158.832 46.8C158.68 47.216 158.42 47.544 158.052 47.784C157.684 48.024 157.26 48.144 156.78 48.144ZM161.379 48V41.568H162.279V42.624L162.159 42.468C162.311 42.164 162.539 41.924 162.843 41.748C163.155 41.572 163.531 41.484 163.971 41.484H164.379V42.384H163.815C163.351 42.384 162.979 42.528 162.699 42.816C162.419 43.104 162.279 43.512 162.279 44.04V48H161.379ZM167.294 48.144C166.886 48.144 166.522 48.068 166.202 47.916C165.882 47.756 165.63 47.54 165.446 47.268C165.262 46.996 165.17 46.684 165.17 46.332C165.17 45.996 165.242 45.692 165.386 45.42C165.53 45.14 165.754 44.904 166.058 44.712C166.362 44.52 166.75 44.384 167.222 44.304L169.742 43.884V44.7L167.438 45.084C166.974 45.164 166.638 45.312 166.43 45.528C166.23 45.744 166.13 46 166.13 46.296C166.13 46.584 166.242 46.828 166.466 47.028C166.698 47.228 166.994 47.328 167.354 47.328C167.794 47.328 168.178 47.236 168.506 47.052C168.834 46.86 169.09 46.604 169.274 46.284C169.458 45.964 169.55 45.608 169.55 45.216V43.584C169.55 43.2 169.41 42.888 169.13 42.648C168.85 42.408 168.486 42.288 168.038 42.288C167.646 42.288 167.302 42.388 167.006 42.588C166.71 42.78 166.49 43.032 166.346 43.344L165.53 42.9C165.65 42.628 165.838 42.38 166.094 42.156C166.358 41.932 166.658 41.756 166.994 41.628C167.33 41.492 167.678 41.424 168.038 41.424C168.51 41.424 168.926 41.516 169.286 41.7C169.654 41.884 169.938 42.14 170.138 42.468C170.346 42.788 170.45 43.16 170.45 43.584V48H169.55V46.716L169.682 46.848C169.57 47.088 169.394 47.308 169.154 47.508C168.922 47.7 168.646 47.856 168.326 47.976C168.014 48.088 167.67 48.144 167.294 48.144ZM174.644 48.072C174.068 48.072 173.624 47.904 173.312 47.568C173 47.232 172.844 46.752 172.844 46.128V42.468H171.656V41.568H171.956C172.228 41.568 172.444 41.48 172.604 41.304C172.764 41.12 172.844 40.892 172.844 40.62V40.08H173.744V41.568H175.16V42.468H173.744V46.128C173.744 46.344 173.776 46.536 173.84 46.704C173.904 46.864 174.012 46.992 174.164 47.088C174.324 47.184 174.536 47.232 174.8 47.232C174.864 47.232 174.94 47.228 175.028 47.22C175.116 47.212 175.192 47.204 175.256 47.196V48C175.16 48.024 175.052 48.04 174.932 48.048C174.812 48.064 174.716 48.072 174.644 48.072ZM179.53 48.144C178.93 48.144 178.386 48 177.898 47.712C177.418 47.416 177.038 47.012 176.758 46.5C176.478 45.988 176.338 45.408 176.338 44.76C176.338 44.112 176.474 43.54 176.746 43.044C177.018 42.54 177.386 42.144 177.85 41.856C178.322 41.568 178.85 41.424 179.434 41.424C179.898 41.424 180.31 41.512 180.67 41.688C181.038 41.856 181.35 42.088 181.606 42.384C181.862 42.672 182.058 43 182.194 43.368C182.33 43.728 182.398 44.1 182.398 44.484C182.398 44.564 182.394 44.656 182.386 44.76C182.378 44.856 182.366 44.956 182.35 45.06H176.914V44.22H181.834L181.402 44.58C181.474 44.14 181.422 43.748 181.246 43.404C181.078 43.052 180.834 42.776 180.514 42.576C180.194 42.368 179.834 42.264 179.434 42.264C179.034 42.264 178.662 42.368 178.318 42.576C177.982 42.784 177.718 43.076 177.526 43.452C177.334 43.82 177.258 44.26 177.298 44.772C177.258 45.284 177.338 45.732 177.538 46.116C177.746 46.492 178.026 46.784 178.378 46.992C178.738 47.2 179.122 47.304 179.53 47.304C180.002 47.304 180.398 47.192 180.718 46.968C181.038 46.744 181.298 46.464 181.498 46.128L182.266 46.536C182.138 46.824 181.942 47.092 181.678 47.34C181.414 47.58 181.098 47.776 180.73 47.928C180.37 48.072 179.97 48.144 179.53 48.144ZM183.985 48V38.916H184.885V48H183.985ZM186.859 50.64C186.731 50.64 186.599 50.628 186.463 50.604C186.335 50.588 186.207 50.556 186.079 50.508V49.668C186.159 49.676 186.259 49.688 186.379 49.704C186.507 49.728 186.635 49.74 186.763 49.74C187.155 49.74 187.455 49.656 187.663 49.488C187.871 49.328 188.075 49.016 188.275 48.552L188.683 47.592L188.659 48.384L185.935 41.568H186.907L189.139 47.196H188.887L191.107 41.568H192.103L189.163 48.816C189.035 49.128 188.871 49.424 188.671 49.704C188.479 49.984 188.235 50.208 187.939 50.376C187.643 50.552 187.283 50.64 186.859 50.64Z" fill="#C3C9D5"/>
<path d="M123.586 75.5858C124.367 76.3668 125.633 76.3668 126.414 75.5858L133.586 68.4142C134.846 67.1543 133.953 65 132.172 65H117.828C116.047 65 115.154 67.1543 116.414 68.4142L123.586 75.5858Z" fill="#343D4C"/>
</svg>
