<?xml version="1.0" encoding="UTF-8"?>
<svg xmlns="http://www.w3.org/2000/svg" width="55" height="56" viewBox="0 0 55 56">
  <g>
    <clipPath id="clip-path">
      <path d="M54.986,5.27L54.986,50.27A5,5 0,0 1,49.986 55.27L5,55.27A5,5 0,0 1,-0 50.27L-0,5.27A5,5 0,0 1,5 0.27L49.986,0.27A5,5 0,0 1,54.986 5.27z"/>
    </clipPath>
    <path d="M54.986,5.27L54.986,50.27A5,5 0,0 1,49.986 55.27L5,55.27A5,5 0,0 1,-0 50.27L-0,5.27A5,5 0,0 1,5 0.27L49.986,0.27A5,5 0,0 1,54.986 5.27z" fill="#F3F3F8"/>
    <path d="M13.369,15c-0.756,0 -1.369,0.613 -1.369,1.369v2.62c0,0.756 0.613,1.37 1.369,1.37h1.045L14.414,38.4c0,1.457 1.196,2.599 2.6,2.599h19.535c1.457,0 2.6,-1.196 2.6,-2.6L39.149,20.359h1.044c0.756,0 1.369,-0.613 1.369,-1.369v-2.62c0,-0.756 -0.613,-1.369 -1.369,-1.369L13.37,15.001zM40.193,16.369L13.37,16.369v2.62h26.824v-2.62zM15.892,38.4L15.892,20.358L37.67,20.358v18.043c0,0.633 -0.523,1.121 -1.122,1.121L17.013,39.522c-0.633,0 -1.121,-0.523 -1.121,-1.121zM22.558,23.085c-0.378,0 -0.685,0.307 -0.685,0.685 0,0.378 0.306,0.684 0.684,0.684h8.448c0.378,0 0.684,-0.306 0.684,-0.684 0,-0.378 -0.306,-0.684 -0.684,-0.684h-8.447z" fill="#5D5D5A" fill-rule="evenodd"/>
  </g>
</svg>
