<svg width="48" height="48" viewBox="0 0 48 48" fill="none" xmlns="http://www.w3.org/2000/svg">
<path opacity="0.4" d="M32.9802 44H15.0202C8.00017 44 6.48018 39.98 7.06018 35.06L8.86016 20.06C9.32016 16.18 10.0002 13 16.8002 13H31.2002C38.0002 13 38.6802 16.18 39.1402 20.06L40.6402 32.56L40.9402 35.06C40.9602 35.22 40.9802 35.38 41.0002 35.54C41.4202 40.24 39.7802 44 32.9802 44Z" fill="#81A713"/>
<path d="M32 17.5C31.18 17.5 30.5 16.82 30.5 16V9C30.5 6.84 29.16 5.5 27 5.5H21C18.84 5.5 17.5 6.84 17.5 9V16C17.5 16.82 16.82 17.5 16 17.5C15.18 17.5 14.5 16.82 14.5 16V9C14.5 5.18 17.18 2.5 21 2.5H27C30.82 2.5 33.5 5.18 33.5 9V16C33.5 16.82 32.82 17.5 32 17.5Z" fill="#81A713"/>
<path d="M41 35.54C40.94 35.56 40.88 35.5601 40.82 35.5601H16C15.18 35.5601 14.5 34.8801 14.5 34.0601C14.5 33.2201 15.18 32.5601 16 32.5601H40.64L40.94 35.0601C40.96 35.2201 40.98 35.38 41 35.54Z" fill="#81A713"/>
</svg>
