<svg width="24" height="24" viewBox="0 0 24 24" fill="none" xmlns="http://www.w3.org/2000/svg">
<path d="M9.08937 13.3237L13.9106 16.9346" stroke="#1F242D" stroke-width="1.25" stroke-linecap="round" stroke-linejoin="round"/>
<path d="M9.08937 10.9341L13.9106 7.32324" stroke="#1F242D" stroke-width="1.25" stroke-linecap="round" stroke-linejoin="round"/>
<path d="M17 9C18.6569 9 20 7.65686 20 6C20 4.34315 18.6569 3 17 3C15.3431 3 14 4.34315 14 6C14 7.65686 15.3431 9 17 9Z" stroke="#1F242D" stroke-width="1.25" stroke-miterlimit="10" stroke-linecap="round" stroke-linejoin="round"/>
<path d="M17 20.9341C18.6569 20.9341 20 19.5909 20 17.9341C20 16.2772 18.6569 14.9341 17 14.9341C15.3431 14.9341 14 16.2772 14 17.9341C14 19.5909 15.3431 20.9341 17 20.9341Z" stroke="#1F242D" stroke-width="1.25" stroke-miterlimit="10" stroke-linecap="round" stroke-linejoin="round"/>
<path d="M6 15C7.65685 15 9 13.6569 9 12C9 10.3431 7.65685 9 6 9C4.34315 9 3 10.3431 3 12C3 13.6569 4.34315 15 6 15Z" stroke="#292D32" stroke-width="1.25" stroke-miterlimit="10" stroke-linecap="round" stroke-linejoin="round"/>
</svg>
