<svg width="24" height="24" viewBox="0 0 24 24" fill="none" xmlns="http://www.w3.org/2000/svg">
<mask id="path-1-inside-1_786_72161" fill="white">
<path d="M7.20361 7.97869V6.95438C7.20361 4.57841 9.11495 2.24468 11.4909 2.02292C14.321 1.74837 16.7075 3.9765 16.7075 6.75374V8.21101"/>
</mask>
<path d="M5.70361 7.97869C5.70361 8.80712 6.37519 9.47869 7.20361 9.47869C8.03204 9.47869 8.70361 8.80712 8.70361 7.97869H5.70361ZM11.4909 2.02292L11.6303 3.51644L11.6358 3.51591L11.4909 2.02292ZM15.2075 8.21101C15.2075 9.03943 15.8791 9.71101 16.7075 9.71101C17.5359 9.71101 18.2075 9.03943 18.2075 8.21101H15.2075ZM8.70361 7.97869V6.95438H5.70361V7.97869H8.70361ZM8.70361 6.95438C8.70361 5.2633 10.1114 3.65819 11.6303 3.51643L11.3515 0.529414C8.11846 0.831167 5.70361 3.89352 5.70361 6.95438H8.70361ZM11.6358 3.51591C13.572 3.32807 15.2075 4.84979 15.2075 6.75374H18.2075C18.2075 3.10321 15.0699 0.168665 11.3461 0.529933L11.6358 3.51591ZM15.2075 6.75374V8.21101H18.2075V6.75374H15.2075Z" fill="#1F242D" mask="url(#path-1-inside-1_786_72161)"/>
<path d="M19.6509 18.1372L19.6508 18.1372L19.6494 18.1504C19.5436 19.1371 19.3237 19.845 18.7844 20.3376C18.2384 20.8365 17.2137 21.2501 15.168 21.2501H8.83205C6.78637 21.2501 5.76164 20.8365 5.21561 20.3376C4.67636 19.845 4.45637 19.1371 4.35065 18.1504L4.35076 18.1503L4.34912 18.1372L3.5578 11.8067C3.42271 10.5798 3.56183 9.67677 4.07064 9.07186C4.57302 8.47459 5.60957 7.96631 7.77606 7.96631H16.224C18.3905 7.96631 19.427 8.47459 19.9294 9.07186C20.4382 9.67675 20.5773 10.5797 20.4422 11.8065L19.6509 18.1372Z" stroke="#1F242D" stroke-width="1.5" stroke-miterlimit="10" stroke-linecap="round" stroke-linejoin="round"/>
<path d="M15.6907 11.4396H15.7001" stroke="#1F242D" stroke-width="1.90079" stroke-linecap="round" stroke-linejoin="round"/>
<path d="M8.29807 11.4396H8.30756" stroke="#1F242D" stroke-width="1.90079" stroke-linecap="round" stroke-linejoin="round"/>
</svg>
