<svg width="20" height="20" viewBox="0 0 20 20" fill="none" xmlns="http://www.w3.org/2000/svg">
<path fill-rule="evenodd" clip-rule="evenodd" d="M12.8655 17.125C12.9151 17.125 12.9601 17.0956 12.98 17.05C13.154 16.6518 13.2505 16.212 13.2505 15.75C13.2505 13.9551 11.7954 12.5 10.0005 12.5C8.20556 12.5 6.75049 13.9551 6.75049 15.75C6.75049 16.212 6.84696 16.6518 7.02097 17.05C7.04086 17.0956 7.08583 17.125 7.13552 17.125H7.66088C7.70482 17.125 7.74554 17.1019 7.76812 17.0642C7.79069 17.0265 7.79182 16.9797 7.77108 16.941C7.63523 16.6873 7.54145 16.4077 7.49905 16.1115H8.5043C8.5343 16.4263 8.59532 16.7359 8.68567 17.036C8.70157 17.0888 8.7502 17.125 8.80536 17.125H9.30181C9.34209 17.125 9.37991 17.1056 9.40339 17.0728C9.42687 17.0401 9.43312 16.9981 9.4202 16.9599C9.32735 16.6858 9.26369 16.4015 9.23109 16.1115H10.7701C10.7375 16.4015 10.6738 16.6858 10.581 16.9599C10.568 16.9981 10.5743 17.0401 10.5978 17.0728C10.6213 17.1056 10.6591 17.125 10.6994 17.125H11.1958C11.251 17.125 11.2996 17.0888 11.3155 17.036C11.4059 16.7359 11.4669 16.4263 11.4969 16.1115H12.5019C12.4595 16.4077 12.3657 16.6873 12.2299 16.941C12.2092 16.9797 12.2103 17.0265 12.2329 17.0642C12.2554 17.1019 12.2962 17.125 12.3401 17.125H12.8655ZM7.35881 15.9865C7.36251 16.0284 7.36719 16.0701 7.37283 16.1115C7.40956 16.381 7.48677 16.6376 7.59815 16.875C7.61799 16.9173 7.63891 16.959 7.66088 17H7.66038C7.49614 16.6932 7.39046 16.3504 7.35832 15.9865H7.35881ZM9.30131 17H9.30181C9.28777 16.9586 9.27437 16.9169 9.26164 16.875C9.18619 16.6269 9.13366 16.3714 9.10532 16.1115C9.10079 16.0699 9.09688 16.0282 9.09359 15.9865H9.0931C9.12043 16.3335 9.19083 16.6738 9.30131 17ZM11.1953 17H11.1958C11.2946 16.6719 11.3574 16.3321 11.3818 15.9865H11.3813C11.3569 16.3321 11.2941 16.6719 11.1953 17ZM12.865 17C13.0322 16.6172 13.125 16.1944 13.125 15.75C13.125 14.0241 11.7259 12.625 10 12.625C9.98491 12.625 9.96985 12.6251 9.95481 12.6253C9.97001 12.6251 9.98524 12.625 10.0005 12.625C11.7264 12.625 13.1255 14.0241 13.1255 15.75C13.1255 16.1944 13.0327 16.6172 12.8655 17H12.865ZM9.17758 13.3599C8.80423 13.9745 8.57296 14.6678 8.5043 15.3885H7.49905C7.63466 14.4414 8.29582 13.6634 9.17758 13.3599ZM9.46268 13.1525C9.40145 13.1651 9.34099 13.1798 9.28137 13.1966C8.27861 13.4784 7.51638 14.3351 7.37283 15.3885C7.36719 15.4299 7.36251 15.4716 7.35881 15.5135H8.61886C8.61886 15.5135 8.61886 15.5135 8.61886 15.5135H7.35832C7.46202 14.3396 8.33077 13.3852 9.46276 13.1524C9.46273 13.1524 9.46271 13.1524 9.46268 13.1525ZM10.8236 13.36C11.197 13.9746 11.4282 14.6679 11.4969 15.3885H12.5019C12.3663 14.4415 11.7053 13.6636 10.8236 13.36ZM10.5381 13.1525C10.5735 13.2027 10.608 13.2535 10.6414 13.3049C11.0698 13.964 11.326 14.7237 11.3818 15.5135H12.6417C12.6417 15.5135 12.6417 15.5135 12.6417 15.5135H11.3813C11.3211 14.6621 11.0281 13.8456 10.5375 13.1524C10.5377 13.1524 10.5379 13.1525 10.5381 13.1525ZM10.0003 13.2251C9.97357 13.2585 9.94734 13.2923 9.92166 13.3264C9.46912 13.9276 9.18693 14.6401 9.10532 15.3885C9.10079 15.4301 9.09688 15.4718 9.09359 15.5135H10.9071C10.9071 15.5135 10.9071 15.5135 10.9071 15.5135H9.0931C9.15899 14.6768 9.4752 13.8792 10.0001 13.2248C10.0002 13.2249 10.0003 13.225 10.0003 13.2251ZM10.7701 15.3885H9.23109C9.31086 14.6791 9.5765 14.0033 10.0006 13.4296C10.4247 14.0033 10.6903 14.6791 10.7701 15.3885Z" fill="#81A713"/>
<path fill-rule="evenodd" clip-rule="evenodd" d="M3.17254 5.14709V2.95259C3.17254 2.35745 3.66105 1.875 4.26364 1.875H15.7202C16.3228 1.875 16.8113 2.35745 16.8113 2.95259V5.14709H16.9643C17.6053 5.14709 18.125 5.66032 18.125 6.29343V9.35034C18.125 10.315 17.6079 11.1604 16.8325 11.631C16.8255 11.6352 16.8184 11.6395 16.8113 11.6437V16.4224C16.8113 17.0175 16.3228 17.5 15.7202 17.5H4.26364C3.66104 17.5 3.17254 17.0175 3.17254 16.4224V11.634C3.166 11.6301 3.15947 11.6261 3.15297 11.6221C2.38565 11.1499 1.875 10.309 1.875 9.35034V6.29343C1.875 5.66032 2.39467 5.14709 3.03571 5.14709H3.17254ZM3.71809 11.8857C3.7444 11.8945 3.77088 11.9028 3.79754 11.9108C3.97256 11.9631 4.15507 11.9984 4.34309 12.0148C4.42225 12.0216 4.50237 12.0251 4.58333 12.0251C5.5955 12.0251 6.47799 11.4768 6.94283 10.6644C7.16492 10.2763 7.29167 9.82795 7.29167 9.35034C7.29167 9.82795 7.41842 10.2763 7.64051 10.6644C8.10534 11.4768 8.98783 12.0251 10 12.0251C11.0122 12.0251 11.8947 11.4768 12.3595 10.6644C12.5816 10.2763 12.7083 9.82795 12.7083 9.35034C12.7083 9.82795 12.8351 10.2763 13.0572 10.6644C13.522 11.4768 14.4045 12.0251 15.4167 12.0251C15.4921 12.0251 15.5668 12.0221 15.6407 12.0161C15.8287 12.0009 16.0112 11.9668 16.1863 11.9156C16.2129 11.9078 16.2394 11.8996 16.2657 11.8911V16.4224C16.2657 16.72 16.0215 16.9612 15.7202 16.9612H12.3009H7.68291H4.26364C3.96234 16.9612 3.71809 16.72 3.71809 16.4224V11.8857ZM16.3098 11.2753C16.3576 11.2118 16.4181 11.157 16.489 11.1149C17.0961 10.754 17.5 10.0984 17.5 9.35034V6.29343C17.5 6.00123 17.2602 5.76435 16.9643 5.76435H16.8113C16.7135 5.76435 16.6209 5.74217 16.5385 5.70261C16.4561 5.74217 16.3635 5.76435 16.2657 5.76435H3.71809C3.6203 5.76435 3.52775 5.74217 3.44532 5.70262C3.36289 5.74217 3.27034 5.76435 3.17254 5.76435H3.03571C2.73985 5.76435 2.5 6.00123 2.5 6.29343V9.35034C2.5 10.0933 2.89833 10.7449 3.49857 11.1074C3.56938 11.1502 3.62966 11.2056 3.67714 11.2698C3.75752 11.2646 3.83921 11.2747 3.91764 11.3008C4.12587 11.3701 4.34949 11.4079 4.58333 11.4079C5.73393 11.4079 6.66667 10.4867 6.66667 9.35034C6.66667 9.00943 6.94649 8.73308 7.29167 8.73308C7.63684 8.73308 7.91667 9.00943 7.91667 9.35034C7.91667 10.4867 8.84941 11.4079 10 11.4079C11.1506 11.4079 12.0833 10.4867 12.0833 9.35034C12.0833 9.00943 12.3632 8.73308 12.7083 8.73308C13.0535 8.73308 13.3333 9.00943 13.3333 9.35034C13.3333 10.4867 14.2661 11.4079 15.4167 11.4079C15.6459 11.4079 15.8653 11.3715 16.0699 11.3049C16.1483 11.2793 16.2297 11.2697 16.3098 11.2753ZM16.2657 2.95259C16.2657 2.65502 16.0215 2.41379 15.7202 2.41379H4.26364C3.96234 2.41379 3.71809 2.65502 3.71809 2.95259V5.14709H16.2657V2.95259Z" fill="#1F242D" stroke="#1F242D" stroke-width="0.3" stroke-linecap="square" stroke-linejoin="round"/>
</svg>
