<svg width="360" height="9" viewBox="0 0 360 9" fill="none" xmlns="http://www.w3.org/2000/svg">
<rect width="360" height="9" fill="white"/>
<path d="M0 8.99999L0 0L11.25 5.1463L22.5 0L33.75 5.1463L45 0L56.25 5.1463L67.5 0L78.75 5.1463L90 0L101.25 5.1463L112.5 0L123.75 5.1463L135 0L146.25 5.1463L157.5 0L168.75 5.1463L180 0L191.25 5.1463L202.5 0L213.75 5.1463L225 0L236.25 5.1463L247.5 0L258.75 5.1463L270 0L281.25 5.1463L292.5 0L303.75 5.1463L315 0L326.25 5.1463L337.5 0L348.75 5.1463L360 0V9L0 8.99999Z" fill="#F0F2F5"/>
</svg>
